<?xml version="1.0" encoding="utf-8"?>
<!-- Generator: Adobe Illustrator 25.2.3, SVG Export Plug-In . SVG Version: 6.00 Build 0)  -->
<svg version="1.1" id="圖層_1" xmlns="http://www.w3.org/2000/svg" xmlns:xlink="http://www.w3.org/1999/xlink" x="0px" y="0px"
	 viewBox="0 0 686 686" style="enable-background:new 0 0 686 686;" xml:space="preserve">
<style type="text/css">
	.st0{fill:#DCDDDD;}
	.st1{fill:#B5B5B6;}
	.st2{fill:#FFFFFF;}
	.st3{fill:#9FA0A0;}
	.st4{fill:#EF8220;}
	.st5{fill:#1D2087;}
</style>
<g>
	<g>
		<g>
			<g>
				
					<rect x="0.22" y="0.22" transform="matrix(-1 -1.224647e-16 1.224647e-16 -1 686 685.9999)" class="st0" width="685.56" height="685.56"/>
			</g>
			<g>
				<polygon class="st1" points="0.22,0.22 0.22,351.45 0.22,380.55 0.22,685.78 64.55,621.45 64.55,380.55 64.55,351.45 
					64.55,64.55 				"/>
			</g>
			<g>
				<polygon class="st2" points="621.45,621.45 380.55,621.45 351.45,621.45 64.55,621.45 0.22,685.78 351.45,685.78 380.55,685.78 
					685.78,685.78 				"/>
			</g>
			<g>
				<polygon class="st3" points="334.55,0.22 305.45,0.22 0.22,0.22 64.55,64.55 305.45,64.55 334.55,64.55 621.45,64.55 
					685.78,0.22 				"/>
			</g>
		</g>
	</g>
	<g>
		<g>
			<polygon class="st4" points="578.82,227.82 503.88,248.46 522.08,324.03 466.74,269.44 410.39,322.98 429.99,247.77 
				355.45,225.74 430.39,205.11 412.2,129.54 467.54,184.12 523.88,130.58 504.28,205.8 			"/>
		</g>
		<g>
			<circle class="st5" cx="273.25" cy="390.39" r="166.08"/>
		</g>
		<g>
			<path class="st5" d="M340.83,289.88c-1.62,0-3.25-0.49-4.66-1.52c-3.54-2.58-4.32-7.54-1.75-11.08
				c0.3-0.42,7.59-10.32,19.97-18.78c16.91-11.54,35.3-14.97,53.19-9.92c36.83,10.4,51.64-23.45,52.25-24.89
				c1.71-4.04,6.36-5.92,10.4-4.21c4.04,1.71,5.92,6.37,4.21,10.4c-7.08,16.7-31.05,45.3-71.18,33.98
				c-32.35-9.14-55.79,22.44-56.02,22.76C345.7,288.75,343.28,289.88,340.83,289.88z"/>
		</g>
		<g>
			<rect x="291.2" y="474.7" class="st2" width="35.45" height="35.45"/>
		</g>
		<g>
			<rect x="326.65" y="439.25" class="st2" width="35.45" height="35.45"/>
		</g>
		<g>
			<rect x="362.11" y="403.8" class="st2" width="35.45" height="35.45"/>
		</g>
		<g>
			<rect x="255.75" y="439.25" class="st2" width="35.45" height="35.45"/>
		</g>
		<g>
			<rect x="291.2" y="403.8" class="st2" width="35.45" height="35.45"/>
		</g>
	</g>
</g>
</svg>
