<?xml version="1.0" encoding="utf-8"?>
<!-- Generator: Adobe Illustrator 25.2.3, SVG Export Plug-In . SVG Version: 6.00 Build 0)  -->
<svg version="1.1" id="圖層_1" xmlns="http://www.w3.org/2000/svg" xmlns:xlink="http://www.w3.org/1999/xlink" x="0px" y="0px"
	 viewBox="0 0 686 686" style="enable-background:new 0 0 686 686;" xml:space="preserve">
<style type="text/css">
	.st0{fill:#F7F8F8;}
	.st1{fill:#DCDDDD;}
	.st2{fill:#FFFFFF;}
	.st3{fill:#B5B5B6;}
	.st4{fill:#44BABC;}
	.st5{fill:#1D2088;}
</style>
<g>
	<g>
		<g>
			<rect x="0.72" y="0.22" class="st0" width="685.56" height="685.56"/>
		</g>
		<g>
			<polygon class="st1" points="686.28,0.22 621.95,64.55 621.95,334.55 686.28,334.55 			"/>
		</g>
		<g>
			<polygon class="st1" points="686.28,685.78 621.95,621.45 621.95,305.45 686.28,305.45 			"/>
		</g>
		<g>
			<polygon class="st2" points="0.72,0.22 65.05,64.55 335.05,64.55 335.05,0.22 			"/>
		</g>
		<g>
			<polygon class="st2" points="686.28,0.22 621.95,64.55 305.95,64.55 305.95,0.22 			"/>
		</g>
		<g>
			<polygon class="st3" points="686.28,685.78 621.95,621.45 351.95,621.45 351.95,685.78 			"/>
		</g>
		<g>
			<polygon class="st3" points="0.72,685.78 65.05,621.45 381.05,621.45 381.05,685.78 			"/>
		</g>
	</g>
	<g>
		<g>
			<path class="st4" d="M316.51,162.31h7.55v-7.43h7.43v-7.43h14.74v-7.43h7.43v-7.31h7.43v-20.97h-7.43v-7.43h-20.97v7.43h-7.31
				v22.17h-8.87v-23.49h7.55v-7.43h7.43v-7.31h23.49v7.31h7.31v7.43h7.43v23.49h-7.43v7.43h-7.31v7.43h-7.43v7.43h-14.86v7.43h-7.31
				v20.86h44.35v8.87h-53.21V162.31z"/>
		</g>
	</g>
	<g>
		<path class="st5" d="M176.55,290.83c-5.88,11.17-16.83,23.05-27.64,29.32c-0.91-1.46-2.58-3.39-4.02-4.58
			c10.87-5.46,21.78-16.97,27.16-27.62L176.55,290.83z M193.85,287.08v5.24h-47.2v-5.24H193.85z M180.38,276.24v42.77
			c0,3.4-0.82,4.9-2.96,5.73c-2.11,0.87-5.51,0.99-10.88,0.96c-0.23-1.5-1.07-3.89-1.82-5.4c3.65,0.17,7.45,0.14,8.51,0.12
			c1.11-0.05,1.54-0.38,1.54-1.43v-42.76H180.38z"/>
		<path class="st5" d="M231.7,278.38v4.49h-21.76v43.44h-4.49v-47.93H231.7z M228.06,293.73v3.86h-16.37v-3.86H228.06z
			 M215.78,284.05c1.29,2.54,2.39,5.91,2.68,7.99l-3.31,1.01c-0.26-2.14-1.36-5.61-2.51-8.21L215.78,284.05z M215.59,300.6v15.61
			h-2.89V300.6H215.59z M225.67,312.68v3.53h-11.7v-3.53H225.67z M221.48,295.35v19.14h-3.13v-19.14H221.48z M227.39,284.73
			c-1.15,3.63-2.52,7.94-3.67,10.67l-3.09-0.93c0.99-2.82,2.24-7.54,2.85-10.7L227.39,284.73z M234.02,278.38v41.95
			c0,2.53-0.57,3.9-2.22,4.68c-1.7,0.78-4.35,0.87-8.58,0.87c-0.16-1.22-0.82-3.33-1.49-4.54c2.96,0.14,5.8,0.08,6.64,0.08
			c0.86-0.02,1.15-0.29,1.15-1.15v-41.89H234.02z M226.99,300.6v15.61h-2.92V300.6H226.99z M243.14,282.01v30.56h-4.52v-30.56
			H243.14z M251.25,277.24v43.06c0,2.76-0.65,4.05-2.32,4.79c-1.65,0.78-4.33,0.93-8.68,0.9c-0.17-1.25-0.86-3.28-1.49-4.58
			c3,0.11,5.81,0.08,6.68,0.06c0.88-0.02,1.2-0.29,1.2-1.15v-43.09H251.25z"/>
		<path class="st5" d="M280.26,285.21v4.12h-19.31v-4.12H280.26z M266.7,307.31v18.36h-4.25v-18.36H266.7z M279.05,292.67v3.95
			h-16.57v-3.95H279.05z M279.05,299.94v3.95h-16.57v-3.95H279.05z M278.82,307.31v16.04h-14.08v-4.12h9.74v-7.79h-9.74v-4.12
			H278.82z M270.62,276.38c1.33,2.28,2.74,5.28,3.44,7.21l-4.5,1.79c-0.61-2.01-2.02-5.16-3.24-7.47L270.62,276.38z M285.77,309.04
			c-0.65,4.09-1.72,9.09-3.58,12.13l-3.6-1.55c1.79-2.96,2.98-7.73,3.57-11.64L285.77,309.04z M297.99,280.11
			c-0.88,10.72-3.14,19.76-14.11,24.76c-0.55-1.13-1.84-2.81-2.88-3.66c10-4.14,11.68-12.07,12.42-21.1H297.99z M306.1,278.27v4.31
			h-23.79v-4.31H306.1z M285.03,283.88c2.87,2.31,6.86,5.52,8.81,7.49l-2.83,3.2c-1.91-2.08-5.79-5.48-8.69-7.91L285.03,283.88z
			 M291.13,306.87v12.57c0,1.45,0.31,1.69,2.08,1.69c0.79,0,4.51,0,5.55,0c1.69,0,1.98-0.88,2.14-6.96c0.94,0.72,2.78,1.41,3.96,1.7
			c-0.46,7.45-1.61,9.31-5.64,9.31c-1.02,0-5.62,0-6.59,0c-4.77,0-5.93-1.32-5.93-5.7v-12.61H291.13z M294.28,302.71
			c2.28,2.4,4.82,5.72,5.97,7.88l-3.26,2.28c-1.11-2.21-3.59-5.67-5.77-8.21L294.28,302.71z M309.28,278.27c0,0-0.03,1.42-0.09,2.02
			c-0.56,13.63-1.16,18.68-2.55,20.45c-1,1.21-2.09,1.61-3.66,1.81c-1.39,0.15-3.79,0.13-6.22,0.05c-0.11-1.33-0.61-3.22-1.35-4.46
			c2.27,0.21,4.43,0.24,5.35,0.24c0.83,0,1.26-0.11,1.76-0.63c0.93-1.13,1.53-5.87,1.95-18.65v-0.83H309.28z M306.73,305.78
			c1.99,3.6,4.03,8.38,4.76,11.39l-3.85,1.44c-0.65-2.99-2.54-7.89-4.44-11.58L306.73,305.78z"/>
		<path class="st5" d="M335.12,285.36v4.12h-15.41v-4.12H335.12z M325.15,307.31v18.36h-3.73v-18.36H325.15z M333.92,292.67v3.95
			h-12.48v-3.95H333.92z M333.92,299.94v3.95h-12.48v-3.95H333.92z M326.95,276.4c1.41,2.17,3.05,5.16,3.73,6.98l-3.75,1.68
			c-0.68-1.9-2.2-4.97-3.57-7.26L326.95,276.4z M333.98,307.31v15.95h-10.13v-4.03h6.36v-7.88h-6.36v-4.03H333.98z M368.37,292.49
			v4.37h-33.05v-4.37H368.37z M352.52,281.78v4h-16.28v-4H352.52z M341.51,299.4v23.11h-4.16V299.4H341.51z M341.62,286.07
			c0.71,2.17,1.32,5.12,1.5,6.95l-3.79,0.72c-0.13-1.89-0.65-4.83-1.28-7.09L341.62,286.07z M349.78,315.11v3.53h-10.66v-3.53
			H349.78z M349.84,307.21v3.55h-10.66v-3.55H349.84z M352.11,299.4v20.63h-4.22v-17.05h-8.43v-3.58H352.11z M344.91,276.42
			c1.14,1.94,2.35,4.55,2.8,6.23l-4.19,1.28c-0.37-1.7-1.52-4.39-2.57-6.41L344.91,276.42z M351.16,286.68
			c-0.75,2.52-1.51,5.26-2.17,7.06l-3.43-0.64c0.62-2,1.29-5.04,1.59-7.08L351.16,286.68z M367.68,301.15
			c-3.56,10.78-10.15,19.6-17.41,24.8c-0.66-0.81-1.99-2.07-2.94-2.76c6.99-4.9,13.25-13.46,16.37-24.02L367.68,301.15z
			 M358.33,276.32c0.16,23.22,2.39,43.8,5.58,43.92c0.78-0.03,1.33-2.47,1.58-6.76c0.77,1.02,2.6,2.31,3.4,2.75
			c-1.18,7.9-3.25,9.82-5.08,9.8c-7.56-0.04-9.46-21.74-10-49.71H358.33z M363.34,279.4c1.67,2.9,3.53,6.8,4.23,9.24l-4.06,1.76
			c-0.62-2.49-2.35-6.5-3.97-9.52L363.34,279.4z"/>
		<path class="st5" d="M384.08,284.96v39.9h-4.67v-39.9H384.08z M396.55,299.7v4.46h-14.4v-4.46H396.55z M398.87,284.96v35.74H382.4
			v-4.55h11.81v-26.7H382.4v-4.49H398.87z M392.95,277.07c-1.15,3.47-2.51,7.26-3.58,9.73l-4.1-0.97c0.84-2.7,1.77-6.78,2.14-9.67
			L392.95,277.07z M411.92,277.28c-2.05,8-5.38,16.05-9.07,21.21c-0.9-0.82-3.02-2.28-4.21-2.95c3.65-4.68,6.64-12.08,8.37-19.4
			L411.92,277.28z M408.43,297.11c2.88,3.79,6.55,8.98,8.26,12.17l-4.33,2.69c-1.57-3.29-5.09-8.65-7.92-12.59L408.43,297.11z
			 M422.53,284.68v4.7h-16.22v-4.7H422.53z M425.5,284.68c0,0,0,1.79-0.03,2.45c-0.79,24.55-1.47,33.03-3.67,35.76
			c-1.34,1.8-2.68,2.31-4.72,2.57c-1.92,0.24-5.15,0.16-8.24,0c-0.11-1.42-0.76-3.57-1.69-4.95c3.5,0.3,6.74,0.32,8.05,0.32
			c1.08,0,1.7-0.17,2.33-0.9c1.77-1.91,2.56-11.01,3.21-34.23v-1.03H425.5z"/>
		<path class="st5" d="M440.94,312.01c-0.48,4.71-1.43,9.81-2.5,13.15c-0.87-0.46-2.68-1.09-3.65-1.37c1.2-3.24,1.9-8.06,2.33-12.43
			L440.94,312.01z M434.93,292.75c0.91-0.25,1.85-1.32,2.89-2.95c1.12-1.56,4.62-7.67,6.62-13.47l4.18,1.78
			c-2.6,5.92-6.13,12.17-9.55,16.44v0.09c0,0-2.7,1.43-2.7,2.33C436.14,296.06,435.45,293.93,434.93,292.75z M435.32,305.04
			c1.17-0.28,2.31-1.64,3.94-3.67c1.7-2,7.11-9.84,10.46-17.31l3.82,2.39c-3.88,7.43-9.05,15.01-14.08,20.44v0.11
			c0,0-2.75,1.38-2.75,2.29C436.53,308.39,435.8,306.22,435.32,305.04z M436.28,293.59l2.03-1.34l9.17-0.73
			c-0.24,1.18-0.42,2.85-0.45,3.78c-8.29,0.89-9.78,1.23-10.67,1.67L436.28,293.59z M436.55,305.85l2.05-1.41l14.08-1.95
			c-0.14,1.13-0.21,2.8-0.16,3.72c-12.87,2.04-14.72,2.51-15.82,3.09L436.55,305.85z M446.34,311.07c0.67,3.63,1.28,8.28,1.47,11.4
			l-3.7,0.93c-0.08-3.15-0.66-7.89-1.25-11.52L446.34,311.07z M451.61,297.23c1.43,3.3,2.96,7.66,3.64,10.21l-3.68,1.51
			c-0.56-2.67-2.05-7.13-3.38-10.49L451.61,297.23z M451.91,309.6c1.26,3.31,2.54,7.55,3.13,10.32l-3.45,1.28
			c-0.5-2.85-1.81-7.18-2.93-10.49L451.91,309.6z M480.67,278.7v4.46h-20.51v43.23h-4.58V278.7H480.67z M478.06,293.2v3.92h-16.72
			v-3.92H478.06z M477.59,302.31v3.94h-15.8v-3.94H477.59z M465.82,284.49c1.23,2.29,2.29,5.44,2.65,7.44l-3.18,1.14
			c-0.3-2.05-1.33-5.23-2.48-7.58L465.82,284.49z M467.73,304.36v6.32c0,1.29,0.18,1.75,1.17,1.75c0.84,0,4.57,0,5.42,0
			c0.88,0,2.38-0.06,3.19-0.28c0.08,1.09,0.19,2.63,0.34,3.61c-0.74,0.25-2.16,0.28-3.41,0.28c-1.02,0-5.11,0-5.93,0
			c-4.02,0-4.9-1.5-4.9-5.42v-6.27H467.73z M470.06,296.89c0.8,1.44,1.76,3.41,2.17,4.62l-3.67,1.44c-0.38-1.32-1.26-3.34-2.03-4.85
			L470.06,296.89z M476.78,285.58c-1.04,3.16-2.14,6.81-3.13,9.15l-2.93-0.93c0.83-2.49,1.97-6.49,2.42-9.2L476.78,285.58z
			 M483.78,278.7V321c0,2.48-0.44,3.73-1.95,4.5c-1.51,0.72-3.8,0.84-7.16,0.81c-0.17-1.19-0.74-3.21-1.34-4.42
			c2.12,0.11,4.28,0.08,4.95,0.08c0.7-0.05,0.92-0.27,0.92-1V278.7H483.78z"/>
		<path class="st5" d="M513.91,276.21c-0.38,7.2-1.26,34.53-16.86,48.27c-1.05-1.3-2.72-2.6-4.42-3.57
			c15.49-12.49,15.69-39.02,16-44.69H513.91z M541.43,284.83v4.95h-46.84v-4.95H541.43z M531.77,296.25l0.93-0.23l3.5,1.53
			c-4.47,16.24-15.77,24.62-29.68,28.76c-0.62-1.31-1.86-3.28-2.9-4.33c12.73-3.24,23.52-11.26,27.18-24.78v-0.94H531.77z
			 M542.82,321.57c-1.13,1.1-2.59,3.24-3.29,4.64c-16.16-3.44-26.12-12.14-31.62-26.16l4.43-1.3
			C517.03,310.9,527.1,318.77,542.82,321.57z M531.32,296.25v4.94h-23.34l1.46-4.94H531.32z"/>
		<path class="st5" d="M187.7,378.01c-2.29,6.62-6.48,13.44-10.74,17.13c-0.78-1.13-2.29-2.76-3.33-3.6
			c4.2-3.01,8.39-9.03,10.57-14.7L187.7,378.01z M183.67,401.67c-1.1,3.73-2.77,8.58-4.86,11.65l-4.59-2.3
			c2.12-2.9,3.95-7.42,4.96-11.12L183.67,401.67z M197.38,374.05v4.37h-22.47v-4.37H197.38z M189.22,366.25v31.87h-4.86v-31.87
			H189.22z M198.06,387.29l-2.75,4.1c-1.97-2.07-6.9-6.39-9.08-8.06l2.64-2.52C190.68,381.84,196.58,386.14,198.06,387.29z
			 M191.89,400.75v8.04c0,1.51,0.53,1.71,3.6,1.71c1.41,0,7.94,0,9.82,0c2.57,0,2.97-0.73,3.25-6.22c1.1,0.83,3.2,1.56,4.61,1.85
			c-0.66,7.21-2.12,8.95-7.48,8.95c-1.42,0-9.28,0-10.62,0c-6.54,0-8.23-1.4-8.23-6.23v-8.1H191.89z M197.78,396.66
			c2.46,2.23,5.81,5.46,7.45,7.44l-3.69,3.1c-1.58-2.01-4.81-5.41-7.27-7.81L197.78,396.66z M221.14,368.94v28.6h-21.51v-28.6
			H221.14z M204.31,377.2h11.95v-4.16h-11.95V377.2z M204.31,385.32h11.95v-4.24h-11.95V385.32z M204.31,393.47h11.95v-4.29h-11.95
			V393.47z M217.39,399.02c2.21,3.39,5.21,8.02,6.63,10.81l-4.75,2.4c-1.29-2.84-4.18-7.62-6.36-11.18L217.39,399.02z"/>
		<path class="st5" d="M273.23,395.1c-5.06,14.73-16.64,19.52-38.63,21.17c-0.34-1.46-1.15-3.28-1.96-4.44
			c20.76-1.07,31.3-5.2,35.63-18.04L273.23,395.1z M281.39,396.9v4.28h-48.62v-4.28H281.39z M280.38,368.3v4.46H233.6v-4.46H280.38z
			 M278.36,376.68v14.51h-42.14v-14.51H278.36z M249.68,391.47l5.09,1.16c-2.47,5.07-6.69,10.99-9.55,14.45l-5.94-0.03
			C242.84,403,247.22,396.67,249.68,391.47z M243.21,403.76c13.89,2.24,28.49,5.72,37.41,8.71l-4.63,3.62
			c-8.16-3.08-21.97-6.55-36.71-9.04L243.21,403.76z M241.01,387.12h32.28v-6.34h-32.28V387.12z M252.94,369.99v18.68h-4.83v-18.68
			H252.94z M265.37,369.99v18.68h-4.83v-18.68H265.37z"/>
		<path class="st5" d="M297.99,402.17c-0.82,4.6-2.28,9.73-3.59,13.04c-1.02-0.55-3.16-1.21-4.37-1.55c1.5-3.21,2.74-8.1,3.48-12.4
			L297.99,402.17z M290.09,382.28c1.04-0.25,2.06-1.29,3.34-2.9c1.31-1.56,5.47-7.58,8.01-13.41l4.69,2.02
			c-3.23,5.97-7.43,12.07-11.42,16.29v0.12c0,0-3.04,1.5-3.04,2.46C291.42,385.89,290.67,383.55,290.09,382.28z M290.29,394.46
			c1.33-0.26,2.65-1.48,4.55-3.43c2-1.92,8.28-9.32,12.42-16.65l4.31,2.8c-4.73,7.21-10.66,14.3-16.37,19.44v0.14
			c0,0-3.29,1.48-3.29,2.44C291.65,398.22,290.87,395.81,290.29,394.46z M291.56,383.29l2.24-1.45l10.33-0.85
			c-0.27,1.27-0.42,3.07-0.45,4.05c-9.34,0.99-11,1.35-11.99,1.82L291.56,383.29z M291.67,395.37l2.38-1.59l16.08-2.24
			c-0.18,1.3-0.27,3.19-0.22,4.17c-14.64,2.3-16.72,2.8-18,3.47L291.67,395.37z M304.14,400.82c0.84,3.87,1.59,8.7,1.84,12
			l-4.28,1.12c-0.16-3.27-0.88-8.28-1.61-12.09L304.14,400.82z M309.7,386.29c1.5,3.64,3.08,8.39,3.64,11.27l-4.31,1.29
			c-0.5-2.94-1.99-7.8-3.4-11.53L309.7,386.29z M310.44,399.58c1.37,3.25,2.84,7.43,3.49,10.17l-3.96,1.48
			c-0.59-2.77-2.03-7.09-3.29-10.37L310.44,399.58z M323.53,367.17c-2,8.08-5.25,16.08-8.97,21.25c-0.93-0.79-3.14-2.24-4.36-2.91
			c3.74-4.64,6.66-12.02,8.3-19.36L323.53,367.17z M319.64,387.46c3.63,3.4,7.85,8.2,9.61,11.52l-3.79,2.96
			c-1.67-3.34-5.69-8.34-9.34-11.86L319.64,387.46z M335.35,375.99v4.83h-18.83v-4.83H335.35z M338.47,375.99
			c0,0-0.03,1.88-0.03,2.55c-0.68,23.8-1.32,32.02-3.38,34.67c-1.35,1.8-2.69,2.34-4.76,2.6c-1.9,0.24-5.13,0.19-8.2,0.03
			c-0.11-1.45-0.76-3.66-1.69-5.09c3.36,0.27,6.42,0.27,7.74,0.27c1.02,0.02,1.67-0.14,2.22-0.85c1.67-1.83,2.37-10.65,2.91-33.1
			v-1.09H338.47z"/>
		<path class="st5" d="M374.15,392.43l0.37,4.6c-8.8,1.99-18.27,4.04-25.15,5.51l-1.36-5.15
			C354.45,396.32,364.66,394.32,374.15,392.43z M397.24,381.83v4.83h-48.33v-4.83H397.24z M374.04,370.96
			c-6.62,2.16-15.77,3.74-23.56,4.74c-0.23-1.22-0.9-3.12-1.5-4.28c7.58-1.08,16.19-2.87,21.5-4.77L374.04,370.96z M365.03,372.13
			v37.84c0,3.02-0.66,4.48-2.59,5.29c-1.9,0.81-4.95,0.99-9.39,0.96c-0.23-1.4-1.1-3.73-1.83-5.15c3.26,0.14,6.43,0.11,7.4,0.06
			c0.95-0.02,1.27-0.29,1.27-1.2v-37.8H365.03z M395.02,390.77c-5.42,9.95-14.27,18.34-24.15,23.54c-0.75-1.25-2.2-2.95-3.48-4.09
			c9.46-4.47,18.29-12.35,23.12-21.38L395.02,390.77z M381.19,366.58c-0.23,23.43,4.86,44.63,10.73,44.63c1.32,0,1.96-2.7,2.25-9.41
			c1.1,1.17,2.89,2.34,4.25,2.87c-0.85,9.21-2.59,11.73-7.01,11.73c-10.83,0-15.35-24.75-15.55-49.82H381.19z M387.89,367.59
			c3.04,2.62,6.73,6.33,8.43,8.87l-4.15,2.92c-1.53-2.56-5.07-6.42-8.14-9.15L387.89,367.59z"/>
		<path class="st5" d="M414.87,393.15v14.89h34.79v5.09h-40.46v-19.98H414.87z M417.17,370.91v14.12h27.73v-14.15h5.61v19.1H411.8
			v-19.07H417.17z M433.68,366.18v44.38h-5.63v-44.38H433.68z M452.67,393.15v22.99h-5.64v-22.99H452.67z"/>
		<path class="st5" d="M513.5,388.37v5.13h-48.84v-5.13H513.5z M467.96,409.53c1.27-0.28,2.45-1.5,4.06-3.37
			c1.7-1.76,7.15-8.82,10.48-15.59l5.67,1.66c-4.49,7.49-10.15,14.72-15.27,19.61v0.14c0,0-3.2,1.6-3.2,2.6
			C469.44,413.52,468.59,410.92,467.96,409.53z M509.55,374.16v5.12h-40.71v-5.12H509.55z M469.58,410.44l3.51-1.94l31.14-2.06
			c0.2,1.46,0.7,3.59,1.02,4.69c-29.71,2.37-33.12,2.53-35.55,3.46L469.58,410.44z M491.66,366.1v24.82h-5.39V366.1H491.66z
			 M498.96,395.83c4.83,5.38,9.96,12.55,12.41,17.38l-4.97,2.61c-2.23-4.9-7.43-12.45-12.06-17.87L498.96,395.83z"/>
	</g>
</g>
</svg>
