<?xml version="1.0" encoding="utf-8"?>
<!-- Generator: Adobe Illustrator 25.2.3, SVG Export Plug-In . SVG Version: 6.00 Build 0)  -->
<svg version="1.1" id="圖層_1" xmlns="http://www.w3.org/2000/svg" xmlns:xlink="http://www.w3.org/1999/xlink" x="0px" y="0px"
	 viewBox="0 0 686 686" style="enable-background:new 0 0 686 686;" xml:space="preserve">
<style type="text/css">
	.st0{fill:#F7F8F8;}
	.st1{fill:#DCDDDD;}
	.st2{fill:#FFFFFF;}
	.st3{fill:#B5B5B6;}
	.st4{fill:#44BABC;}
	.st5{fill:#1D2088;}
</style>
<g>
	<g>
		<g>
			<rect x="0.72" y="0.22" class="st0" width="685.56" height="685.56"/>
		</g>
		<g>
			<polygon class="st1" points="686.28,0.22 621.95,64.55 621.95,334.55 686.28,334.55 			"/>
		</g>
		<g>
			<polygon class="st1" points="686.28,685.78 621.95,621.45 621.95,305.45 686.28,305.45 			"/>
		</g>
		<g>
			<polygon class="st2" points="0.72,0.22 65.05,64.55 335.05,64.55 335.05,0.22 			"/>
		</g>
		<g>
			<polygon class="st2" points="686.28,0.22 621.95,64.55 305.95,64.55 305.95,0.22 			"/>
		</g>
		<g>
			<polygon class="st3" points="686.28,685.78 621.95,621.45 351.95,621.45 351.95,685.78 			"/>
		</g>
		<g>
			<polygon class="st3" points="0.72,685.78 65.05,621.45 381.05,621.45 381.05,685.78 			"/>
		</g>
	</g>
	<g>
		<g>
			<path class="st4" d="M331.49,169.74h7.31v-22.29h7.43v-22.17h7.43v-14.86h7.43v-6.11h-44.59v-8.63h53.21v16.06h-7.43v14.86h-7.31
				v22.17h-7.43v22.17h-7.43v22.41h-8.63V169.74z"/>
		</g>
	</g>
	<g>
		<path class="st5" d="M171.22,257.59l0.37,4.6c-8.8,1.99-18.27,4.04-25.15,5.51l-1.36-5.15
			C151.53,261.48,161.73,259.48,171.22,257.59z M194.31,247v4.83h-48.33V247H194.31z M171.11,236.12
			c-6.62,2.16-15.77,3.74-23.56,4.74c-0.23-1.22-0.9-3.12-1.5-4.28c7.58-1.08,16.19-2.87,21.5-4.77L171.11,236.12z M162.1,237.29
			v37.84c0,3.02-0.66,4.48-2.59,5.29c-1.91,0.81-4.95,0.99-9.39,0.96c-0.23-1.4-1.1-3.73-1.83-5.15c3.26,0.14,6.43,0.11,7.4,0.06
			c0.95-0.02,1.27-0.29,1.27-1.2v-37.8H162.1z M192.1,255.93c-5.42,9.95-14.27,18.34-24.15,23.54c-0.75-1.25-2.2-2.95-3.48-4.09
			c9.46-4.47,18.29-12.35,23.12-21.38L192.1,255.93z M178.27,231.75c-0.23,23.43,4.86,44.63,10.73,44.63c1.32,0,1.96-2.7,2.25-9.41
			c1.1,1.17,2.89,2.34,4.25,2.87c-0.85,9.21-2.59,11.73-7.01,11.73c-10.82,0-15.35-24.75-15.55-49.82H178.27z M184.96,232.75
			c3.04,2.62,6.73,6.33,8.43,8.87l-4.15,2.92c-1.53-2.56-5.07-6.42-8.14-9.15L184.96,232.75z"/>
		<path class="st5" d="M213.88,232.29c-1.49,7.16-4.05,14.17-7.21,18.77c-0.9-0.84-2.99-2.27-4.14-2.96
			c3.08-4.03,5.24-10.39,6.42-16.79L213.88,232.29z M219.15,240.69v10.62c0,9.17-1.88,21.99-12.88,29.93
			c-0.67-1.05-2.57-3.09-3.62-3.84c10.23-7.31,11.35-17.96,11.35-26.14v-10.55H219.15z M228.75,252.91v4.85h-25.42v-4.85H228.75z
			 M227.28,238.38v4.74h-18.34v-4.74H227.28z M228.85,272.38l-3.46,4.33c-2.38-3.61-8.2-10.68-10.81-13.59l3.14-2.9
			C219.87,262.16,227.16,270.39,228.85,272.38z M250.34,235.98v43.18h-5.16v-38.38h-9.88v39.06h-4.95v-43.85H250.34z M248.02,270.88
			v4.82h-15.46v-4.82H248.02z"/>
		<path class="st5" d="M272.78,257.12l0.83-0.11l2.49,0.92c-1.83,11.72-6.3,19.46-12.43,23.54c-0.66-1.01-2.34-2.75-3.32-3.45
			c5.78-3.59,9.78-10.37,11.22-20.08v-0.82H272.78z M260.64,257.61c0.82-0.22,1.72-0.6,2.7-1.69c1.65-1.6,6.77-8.71,8.6-11.61v-0.17
			l1.41-0.59l3.21,1.48c-2.58,3.67-7.46,10.5-10.57,13.96c0,0-3.62,1.77-3.62,2.96C262.09,260.84,261.12,258.58,260.64,257.61z
			 M273.17,243.82v4.16h-11.65v-4.16H273.17z M262.37,258.18l2.11-1.06h8.63l-0.03,4.04h-7.43c-1.36,0-2.84,0.35-3.28,0.79V258.18z
			 M267.02,231.33c2.52,2.61,5.5,6.02,7.01,8.2l-3.89,2.8c-1.49-2.27-4.5-6.02-6.92-8.7L267.02,231.33z M291.88,276.09
			c5.71,0,14.05-0.28,19.84-0.81c-0.75,1.07-1.42,3.41-1.67,4.8c-5.29,0.33-12.13,0.47-18.23,0.47c-12.58,0-19.48-1.57-23.51-11.09
			l3.43-1.47C274.85,275.16,281.59,276.06,291.88,276.09z M310.32,238.14v4.19h-34.43v-4.19H310.32z M305.9,245.92v25.76h-25.69
			v-25.76H305.9z M285.09,231.45c1.38,1.74,3,4.16,3.66,5.72l-4.19,1.9c-0.62-1.62-2.13-4.16-3.51-6L285.09,231.45z M285.01,253.44
			h15.87v-3.81h-15.87V253.44z M285.01,260.67h15.87v-3.83h-15.87V260.67z M285.01,267.95h15.87v-3.85h-15.87V267.95z M295.93,240.4
			c-1.07,2.83-2.52,5.75-3.61,7.74l-4.17-0.69c0.74-2.22,1.57-5.31,1.93-7.47L295.93,240.4z M304.47,232.72
			c-1.76,2.67-3.64,5.5-5.18,7.37l-4.06-1.3c1.51-2.06,3.33-5.25,4.29-7.47L304.47,232.72z"/>
		<path class="st5" d="M342.99,232.56c-3.89,12.64-10.56,25.4-21.66,33.19c-0.55-1.38-1.75-3.6-2.56-4.81
			c9.74-6.64,15.98-18.64,18.91-29.66L342.99,232.56z M367.89,239.28v4.91h-47.63v-4.91H367.89z M332.09,253.67v27.55h-5.13v-27.55
			H332.09z M367.81,275.3v4.76h-32.55v-4.76H367.81z M365.74,256.54v4.74h-28.38v-4.74H365.74z M354.15,246.76v31.09h-5.13v-31.09
			H354.15z"/>
		<path class="st5" d="M382.96,267.07c-0.48,4.71-1.43,9.81-2.5,13.15c-0.87-0.46-2.68-1.09-3.65-1.37c1.2-3.24,1.9-8.06,2.33-12.43
			L382.96,267.07z M376.95,247.81c0.91-0.25,1.85-1.32,2.89-2.95c1.12-1.56,4.62-7.67,6.62-13.47l4.18,1.78
			c-2.6,5.92-6.13,12.17-9.55,16.44v0.09c0,0-2.69,1.43-2.69,2.33C378.16,251.12,377.47,248.99,376.95,247.81z M377.34,260.1
			c1.17-0.28,2.31-1.64,3.94-3.67c1.7-2,7.11-9.84,10.46-17.31l3.82,2.39c-3.88,7.43-9.05,15.01-14.08,20.44v0.12
			c0,0-2.75,1.38-2.75,2.29C378.55,263.44,377.82,261.28,377.34,260.1z M378.3,248.65l2.03-1.34l9.17-0.73
			c-0.24,1.18-0.42,2.85-0.45,3.78c-8.29,0.89-9.78,1.23-10.67,1.67L378.3,248.65z M378.57,260.91l2.05-1.41l14.08-1.95
			c-0.14,1.13-0.21,2.8-0.16,3.72c-12.87,2.04-14.72,2.51-15.82,3.09L378.57,260.91z M388.36,266.12c0.67,3.63,1.28,8.28,1.47,11.4
			l-3.7,0.93c-0.08-3.15-0.66-7.89-1.24-11.52L388.36,266.12z M393.63,252.28c1.43,3.3,2.96,7.66,3.64,10.21l-3.68,1.51
			c-0.56-2.67-2.05-7.13-3.38-10.49L393.63,252.28z M393.93,264.66c1.26,3.31,2.54,7.55,3.13,10.32l-3.45,1.28
			c-0.5-2.85-1.81-7.18-2.93-10.49L393.93,264.66z M422.69,233.76v4.46h-20.51v43.23h-4.58v-47.69H422.69z M420.08,248.26v3.92
			h-16.72v-3.92H420.08z M419.61,257.37v3.94h-15.8v-3.94H419.61z M407.84,239.55c1.23,2.29,2.29,5.44,2.65,7.44l-3.18,1.14
			c-0.3-2.05-1.33-5.23-2.48-7.58L407.84,239.55z M409.75,259.41v6.32c0,1.29,0.18,1.75,1.17,1.75c0.84,0,4.57,0,5.42,0
			c0.88,0,2.38-0.06,3.19-0.28c0.08,1.09,0.19,2.63,0.34,3.61c-0.74,0.25-2.16,0.28-3.41,0.28c-1.02,0-5.11,0-5.93,0
			c-4.02,0-4.9-1.5-4.9-5.42v-6.27H409.75z M412.08,251.95c0.8,1.44,1.76,3.41,2.17,4.62l-3.67,1.44c-0.38-1.32-1.26-3.34-2.03-4.85
			L412.08,251.95z M418.8,240.63c-1.04,3.16-2.14,6.81-3.13,9.15l-2.93-0.93c0.83-2.49,1.97-6.49,2.43-9.2L418.8,240.63z
			 M425.8,233.76v42.3c0,2.48-0.44,3.73-1.95,4.5c-1.51,0.72-3.8,0.84-7.16,0.81c-0.17-1.19-0.74-3.21-1.34-4.42
			c2.12,0.11,4.28,0.08,4.95,0.08c0.7-0.05,0.92-0.27,0.92-1v-42.29H425.8z"/>
		<path class="st5" d="M456.53,269.31l0.49,4.53c-7.51,1.86-15.45,3.76-21.34,5.17l-0.89-4.93
			C440.27,273.05,448.61,271.14,456.53,269.31z M441.62,255.16v19.59h-4.22v-19.59H441.62z M455.6,233.46v17.17h-18.03v-17.17H455.6
			z M442.06,246.23h8.84v-8.36h-8.84V246.23z M449.74,248.67v24.4h-4.58v-24.4H449.74z M456.11,257.79v4.49h-9.21v-4.49H456.11z
			 M477.55,236.65l0.92-0.2l3.23,1.39c-4.04,13.37-13.58,22.12-24.15,26.61c-0.61-1.16-1.91-2.93-2.92-3.86
			c9.63-3.62,18.73-12.11,22.02-23.08v-0.86H477.55z M469.93,232.45c-2.4,7.3-6.4,14.23-10.83,18.7c-0.82-0.9-2.82-2.56-3.98-3.31
			c4.34-3.9,7.96-10.09,9.95-16.58L469.93,232.45z M481.6,261.57v19.53h-4.89v-15.18h-12.1v15.35h-4.71v-19.69H481.6z
			 M485.82,259.48c-1.04,0.96-2.5,2.98-3.19,4.28c-11.09-4.59-18.17-14.22-21.49-22.05l3.39-2.49
			C467.65,246.77,474.8,255.63,485.82,259.48z M479.4,274.91v4.43h-17.46v-4.43H479.4z M478.45,236.65v4.37h-13.99v-4.37H478.45z"/>
		<path class="st5" d="M542.42,273.64v5.13h-48.84v-5.13H542.42z M518.91,232.05v44.38h-5.43v-44.38H518.91z M538.68,248.22v5.13
			h-22.29v-5.13H538.68z"/>
		<path class="st5" d="M184.96,327.04c-1.64,11.17-4.37,21.95-9.56,29.05c-0.3-1.24-1.36-4.02-2.13-5.23
			c4.03-5.91,6.05-15.01,7.23-24.55L184.96,327.04z M191.8,324.02v4.55h-17.39v-4.55H191.8z M182.15,340.37v28.43h-4.04v-28.43
			H182.15z M190.27,340.35v24.1h-10.24v-4.04h6.44v-16.01h-6.44v-4.04H190.27z M223.83,365.15v4.37H190.7v-4.37H223.83z
			 M222.85,331.46v4.52h-31.33v-4.52H222.85z M195.86,340.88c1.78,5.67,3.64,13.04,4.27,17.38l-4.39,1.12
			c-0.59-4.38-2.25-11.95-3.94-17.68L195.86,340.88z M199.88,321.24c1.81,2.62,3.59,6.1,4.2,8.47l-4.48,1.82
			c-0.53-2.31-2.22-5.96-3.91-8.67L199.88,321.24z M204.92,334.14v32.37h-4.22v-32.37H204.92z M218.46,322.57
			c-1.77,3.65-3.86,7.84-5.57,10.46l-3.95-1.29c1.59-2.86,3.49-7.37,4.43-10.57L218.46,322.57z M213.53,334.14v32.37h-4.22v-32.37
			H213.53z M222.97,341.98c-1.54,5.88-3.58,12.97-5.33,17.41l-3.85-1.07c1.7-4.55,3.64-12.04,4.56-17.44L222.97,341.98z"/>
		<path class="st5" d="M261.06,359.31l0.29,4.43c-9.56,1.85-19.83,3.77-27.04,5.12l-1.13-4.78
			C240.1,363.05,250.92,361.15,261.06,359.31z M261.63,324.58v4.46h-27.95v-4.46H261.63z M234.82,338.71
			c0.84-0.2,1.68-1.1,2.58-2.36c0.9-1.25,3.78-5.95,5.39-10.56l4.95,1.9c-2.22,4.71-5.43,9.73-8.34,13.1v0.08
			c0,0-2.93,1.54-2.93,2.53C236.18,342.36,235.39,340.02,234.82,338.71z M260.51,349.28v4.46h-25.48v-4.46H260.51z M236.38,339.81
			l2.5-1.54l17.34-1.33c0.58,1.31,1.53,2.96,2.13,3.98c-18.1,1.62-20.37,1.83-21.88,2.47L236.38,339.81z M250.16,343.9v21.29h-4.83
			V343.9H250.16z M253.64,329.99c2.94,3.61,6.44,8.48,7.95,11.63l-3.9,2.55c-1.44-3.17-4.8-8.24-7.71-11.99L253.64,329.99z
			 M268.98,326.01v32.72h-4.74v-32.72H268.98z M279.74,321.95v42.22c0,2.9-0.63,4.33-2.42,5.14c-1.87,0.81-4.81,0.96-8.87,0.96
			c-0.23-1.36-1.07-3.61-1.81-4.97c3.03,0.11,5.99,0.11,6.93,0.08c0.92-0.02,1.2-0.3,1.2-1.22v-42.21H279.74z"/>
		<path class="st5" d="M297.78,323.41v47.9h-5.04v-47.9H297.78z M309.54,331.23v3.59H295.2v-3.59H309.54z M312.79,323.41v19.52
			h-17.17v-3.98h12.38v-11.56h-12.38v-3.98H312.79z M309.29,347.29v19.52h-4.74v-19.52H309.29z M325.14,347.29v16.36h-18.35v-4.25
			h13.56v-7.86h-13.56v-4.25H325.14z M335.23,327.36h-13.25v11.65h13.25v3.95h-18.1v-19.55h18.1V327.36z M334.7,331.23v3.59h-14.55
			v-3.59H334.7z M337.67,323.41v41.43c0,3.08-0.69,4.63-2.65,5.49c-2.04,0.84-5.26,0.93-10.12,0.93c-0.2-1.43-1.04-3.84-1.79-5.23
			c3.41,0.17,7,0.11,8.05,0.09c1.02-0.02,1.35-0.35,1.35-1.35v-41.37H337.67z"/>
		<path class="st5" d="M355.84,350.78c-0.31,8-1.27,15.99-5.22,20.72c-0.66-1.05-2.03-2.64-3.1-3.4c3.18-3.86,3.91-10.73,4.11-17.32
			H355.84z M372.78,344.36v3.83h-24.33v-3.83H372.78z M369.93,323.39v17.36h-18.59v-17.36H369.93z M377.75,366.02
			c2.99,0,16.97,0,20.73-0.15c-0.72,1-1.49,2.97-1.75,4.28h-18.98c-13.56,0-21.69-1.76-25.89-13.38l3.09-1.03
			C358.44,364.92,366.13,365.99,377.75,366.02z M355.89,330.33h9.3v-3.38h-9.3V330.33z M355.89,337.16h9.3v-3.43h-9.3V337.16z
			 M363.23,345.54v21.05l-4.34-2.55v-18.5H363.23z M371.83,353.36v3.8h-10.65v-3.8H371.83z M383.09,357.2
			c-2.34,3.03-6.21,6.1-9.58,7.96c-0.73-0.79-2.37-2.37-3.35-3.06c3.32-1.51,6.71-3.82,8.68-6.21L383.09,357.2z M397.22,323.68v3.71
			H372.5v-3.71H397.22z M395.28,330.99v24.21h-20.88v-24.21H395.28z M378.98,337.94h11.56v-3.36h-11.56V337.94z M378.98,344.75
			h11.56v-3.38h-11.56V344.75z M378.98,351.58h11.56v-3.43h-11.56V351.58z M387.77,325.57c-1.15,2.87-2.36,6.03-3.41,8.09
			l-3.72-0.94c0.91-2.29,1.92-5.71,2.41-8.12L387.77,325.57z M389.92,355.69c3.02,1.91,6.49,4.87,8.23,6.91l-3.69,2.26
			c-1.71-2.15-5.21-5.29-8.06-7.25L389.92,355.69z"/>
		<path class="st5" d="M455.3,324.92v5.15h-48.45v-5.15H455.3z M417.11,337.18v24.75h-4.95v-24.75H417.11z M434.66,337.18v20.52
			h-20.4v-4.88h15.34v-10.78h-15.34v-4.86H434.66z M448.83,326.39v38.04c0,3.33-0.81,4.98-3.12,5.82
			c-2.37,0.87-6.23,0.94-11.66,0.94c-0.31-1.49-1.34-4.02-2.15-5.46c4.14,0.22,8.69,0.17,9.98,0.14c1.2-0.05,1.61-0.4,1.61-1.53
			v-37.95H448.83z"/>
		<path class="st5" d="M485.84,350.88l1.17,4.98c-7.37,3.34-15.47,6.86-21.51,9.42l-1.79-5.38
			C469.21,357.9,477.84,354.3,485.84,350.88z M475.38,324.08l1.06,35.4l-5.31,0.2l-1.07-35.4L475.38,324.08z M508.77,324.63
			c-2.69,24.71-9.09,38.83-27.44,46.75c-0.72-1.11-2.83-3.39-4.07-4.47c18.01-6.69,23.67-19.85,25.9-42.8L508.77,324.63z
			 M485.98,327.79c3.55,3.94,6.99,9.25,8.56,12.95l-4.96,2.66c-1.37-3.73-4.87-9.36-8.25-13.36L485.98,327.79z M499.67,350.32
			c5.04,5.11,11.84,12.17,14.96,16.71l-4.36,4.14c-2.92-4.64-9.46-11.98-14.52-17.35L499.67,350.32z"/>
		<path class="st5" d="M221.89,434.18l0.61,4.69c-6.33,1.83-13.13,3.76-18.36,5.17l-1.4-4.91
			C207.67,438.03,214.98,436.09,221.89,434.18z M221.93,421.71v4.76h-18.51v-4.76H221.93z M215.68,411.1v44.02
			c0,2.63-0.57,3.95-2.14,4.71c-1.6,0.81-4,0.93-7.77,0.93c-0.17-1.31-0.85-3.37-1.46-4.67c2.34,0.08,4.65,0.05,5.35,0.05
			c0.75-0.02,1.05-0.27,1.05-1.02V411.1H215.68z M249.72,433.61c-4.86,10.62-14.53,20.86-25.07,25.72c-0.93-1.33-2.6-2.93-4.03-3.95
			c10.83-4.29,20.41-14.14,24.91-24.33L249.72,433.61z M251.75,423.01l0.52,4.74l-29.21,3.06l-0.52-4.86L251.75,423.01z
			 M234.51,411.3c0.7,23.84,4.57,42.55,12.18,43.48c1.37,0.11,2.15-2.7,2.61-8.58c1.01,1.08,3.26,2.41,4.3,2.88
			c-1.3,9.34-3.79,11.97-6.67,11.75c-12.59-1.12-16.48-21.19-17.61-49.53H234.51z M241.36,412.03c2.54,2.3,5.84,5.61,7.39,7.78
			l-4.11,2.89c-1.43-2.23-4.64-5.7-7.16-8.12L241.36,412.03z"/>
		<path class="st5" d="M308.39,415.62c-10.73,14.95-27.03,26.24-44.21,33.14c-0.78-1.14-2.58-3.36-3.68-4.46
			c17.48-6.25,33.33-17.17,43.07-31.12L308.39,415.62z M310.44,429.25v4.71h-48.72v-4.71H310.44z M297.46,418.06v4.65h-30.94v-4.65
			H297.46z M281.27,438.2v14.53c0,2.11,0.77,2.47,5.25,2.47c2.06,0,11.67,0,14.38,0c3.77,0,4.39-1,4.83-6.84
			c1.24,0.84,3.43,1.59,4.94,1.88c-0.82,7.73-2.53,9.66-9.48,9.66c-1.83,0-13.1,0-14.85,0c-8.13,0-10.43-1.49-10.43-7.11V438.2
			H281.27z M304.33,441.54v4.55h-25.1v-4.55H304.33z M284.69,411.07v9.4h-5.1v-9.4H284.69z M284.29,420.22v10.47h-4.71v-10.47
			H284.29z"/>
		<path class="st5" d="M325.78,419.14v40.27h-4.58v-40.27H325.78z M337.88,419.14v15.59h-14.72v-4.37h10.14v-6.88h-10.14v-4.34
			H337.88z M338.37,439.09v16.77h-15.09v-4.34h10.54v-8.08h-10.54v-4.34H338.37z M333.31,411.7c-1.19,3.34-2.69,7.06-3.92,9.47
			l-4.04-0.82c0.88-2.65,1.94-6.54,2.36-9.3L333.31,411.7z M368.76,413.77v4.64h-29.07v-4.64H368.76z M364.95,424.29v4.58H346.3
			v24.07h-4.65v-28.65H364.95z M356.58,415.87v45.23h-4.8v-45.23H356.58z M367.26,424.29v23.74c0,2.15-0.33,3.47-1.75,4.22
			c-1.36,0.78-3.26,0.84-6.09,0.84c-0.14-1.31-0.76-3.19-1.37-4.43c1.7,0.05,3.26,0.05,3.73,0.03c0.55,0,0.71-0.19,0.71-0.72v-23.68
			H367.26z"/>
		<path class="st5" d="M400.63,438.12l1.51,4.27c-7.46,4.78-15.67,9.79-21.88,13.43l-3.27-4.63
			C382.67,448.33,392.17,443,400.63,438.12z M425.86,419.75v4.95h-47.48v-4.95H425.86z M384.67,427.36c3.32,2.9,7.31,7.04,9.06,9.95
			l-4.16,3.08c-1.63-2.94-5.45-7.28-8.79-10.35L384.67,427.36z M404.52,411.2v43.4c0,3.27-0.76,4.76-2.74,5.61
			c-2.01,0.9-5.37,1.05-10.15,1.02c-0.25-1.46-1.04-3.84-1.81-5.38c3.54,0.14,7.01,0.11,8.08,0.09c1-0.02,1.38-0.32,1.38-1.34V411.2
			H404.52z M427.37,452.03c-1.22,1.05-2.91,3.1-3.75,4.53c-11.28-5.63-19.05-17.47-23.52-31.23l4.01-1.19
			C408.15,436.26,416.33,447.29,427.37,452.03z M423.9,429.88c-3.6,4.13-8.38,8.84-12.04,11.84l-3.68-2.83
			c3.58-3.04,8.46-8.18,11.26-12.16L423.9,429.88z M411.88,411.22c3.32,1.62,7.74,4.12,9.99,5.92l-3.2,3.63
			c-2.12-1.88-6.45-4.58-9.83-6.31L411.88,411.22z"/>
		<path class="st5" d="M459.31,445.54l0.47,4.59c-8.55,2.06-17.65,4.2-24.25,5.73l-0.89-5.21
			C440.74,449.53,450.29,447.51,459.31,445.54z M456.63,413.55v35.15h-4.76v-30.54h-8.84v33.96h-4.55v-38.57H456.63z M454.19,425.01
			v4.52h-13.33v-4.52H454.19z M454.19,436.39v4.49h-13.33v-4.49H454.19z M471.44,411.1c-0.05,21.51-0.11,40.22-14.89,50.12
			c-0.75-1.23-2.39-2.95-3.64-3.83c13.95-8.88,13.49-26.04,13.55-46.29H471.44z M480.58,423.06v4.83h-22.31v-4.83H480.58z
			 M483.33,423.06c0,0-0.03,1.76-0.03,2.39c-0.5,22.57-1.01,30.41-2.79,32.81c-1.14,1.63-2.35,2.13-4.17,2.38
			c-1.71,0.24-4.58,0.18-7.4,0.06c-0.11-1.42-0.67-3.54-1.54-4.88c2.9,0.21,5.53,0.24,6.67,0.24c0.93,0.02,1.5-0.14,2.01-0.85
			c1.38-1.67,1.9-9.54,2.35-31.07v-1.07H483.33z"/>
	</g>
</g>
</svg>
