<?xml version="1.0" encoding="utf-8"?>
<!-- Generator: Adobe Illustrator 25.2.3, SVG Export Plug-In . SVG Version: 6.00 Build 0)  -->
<svg version="1.1" id="圖層_1" xmlns="http://www.w3.org/2000/svg" xmlns:xlink="http://www.w3.org/1999/xlink" x="0px" y="0px"
	 viewBox="0 0 686 686" style="enable-background:new 0 0 686 686;" xml:space="preserve">
<style type="text/css">
	.st0{fill:#00A0E9;}
	.st1{fill:#036EB8;}
	.st2{fill:#69D8FF;}
	.st3{fill:#0054A8;}
	.st4{fill:#FFFFFF;}
	.st5{fill:#1D2088;}
</style>
<g>
	<g>
		<g>
			<rect x="0.72" y="0.22" class="st0" width="685.56" height="685.56"/>
		</g>
		<polygon class="st1" points="621.95,64.55 621.95,305.45 621.95,334.55 621.95,621.45 686.28,685.78 686.28,334.55 686.28,305.45 
			686.28,0.22 		"/>
		<polygon class="st2" points="335.05,0.22 305.95,0.22 0.72,0.22 65.05,64.55 305.95,64.55 335.05,64.55 621.95,64.55 686.28,0.22 
					"/>
		<polygon class="st3" points="621.95,621.45 381.05,621.45 351.95,621.45 65.05,621.45 0.72,685.78 351.95,685.78 381.05,685.78 
			686.28,685.78 		"/>
	</g>
	<g>
		<g>
			<path class="st4" d="M324.06,178.37h-7.55v-67.96h7.55v-7.43h7.43v-7.31h23.49v7.31h7.31v7.43h7.43v16.18h-8.63v-14.86h-7.43
				v-7.43h-20.97v7.43h-7.31v28.29h6.11v-7.31h23.49v7.31h7.31v7.43h7.43v30.92h-7.43v7.43h-7.31v7.55h-23.49v-7.55h-7.43V178.37z
				 M332.69,177.18v7.31h20.97v-7.31h7.43v-28.4h-7.43v-7.43h-20.97v7.43h-7.31v28.4H332.69z"/>
		</g>
	</g>
	<g>
		<path class="st5" d="M165.31,299.07l0.64,4.82c-6.72,1.96-13.91,4.02-19.4,5.51l-1.46-5.09
			C150.26,303.11,158.01,301.02,165.31,299.07z M165.26,286.87v4.85h-19.64v-4.85H165.26z M158.38,276.26v43.8
			c0,2.67-0.58,4.02-2.18,4.8c-1.65,0.84-4.03,0.96-7.86,0.96c-0.17-1.34-0.88-3.46-1.55-4.83c2.36,0.08,4.7,0.08,5.4,0.06
			c0.76,0,1.05-0.27,1.05-1.02v-43.77H158.38z M195.15,280.59v5.1H165.8v-5.1H195.15z M185.95,282.43v36.87
			c0,3.19-0.75,4.82-2.93,5.72c-2.21,0.9-5.69,1-10.78,1c-0.28-1.55-1.25-4.09-2.06-5.56c3.71,0.2,7.67,0.17,8.82,0.12
			c1.08-0.02,1.46-0.35,1.46-1.34v-36.81H185.95z"/>
		<path class="st5" d="M252.58,317.23v5.13h-48.84v-5.13H252.58z M249.72,282.12v5.3h-43.1v-5.3H249.72z M230.79,284.93v34.39h-5.76
			v-34.39H230.79z"/>
		<path class="st5" d="M302.22,305.21c-5.06,14.73-16.64,19.52-38.63,21.17c-0.34-1.46-1.15-3.28-1.96-4.44
			c20.76-1.07,31.3-5.2,35.63-18.04L302.22,305.21z M310.38,307.01v4.28h-48.62v-4.28H310.38z M309.37,278.41v4.46h-46.77v-4.46
			H309.37z M307.35,286.79v14.51H265.2v-14.51H307.35z M278.67,301.58l5.09,1.16c-2.47,5.07-6.69,10.99-9.55,14.45l-5.93-0.03
			C271.83,313.11,276.22,306.78,278.67,301.58z M272.2,313.86c13.89,2.24,28.49,5.72,37.41,8.71l-4.63,3.62
			c-8.16-3.08-21.97-6.55-36.71-9.04L272.2,313.86z M270,297.23h32.28v-6.34H270V297.23z M281.93,280.1v18.68h-4.83V280.1H281.93z
			 M294.36,280.1v18.68h-4.83V280.1H294.36z"/>
		<path class="st5" d="M336.99,299.58l0.64,4.88c-6.15,1.81-12.67,3.66-17.8,5.05l-1.21-5.21
			C323.38,303.24,330.35,301.36,336.99,299.58z M337.08,286.87v4.97h-17.72v-4.97H337.08z M331.19,276.26v44.24
			c0,2.66-0.52,4.01-2.11,4.82c-1.59,0.84-3.9,0.99-7.58,0.93c-0.17-1.29-0.83-3.41-1.46-4.8c2.2,0.05,4.31,0.05,4.98,0.03
			c0.72-0.02,0.98-0.24,0.98-1.01v-44.21H331.19z M366.52,285.9v39.86h-5.28v-35.03h-16.54v35.38h-5.09V285.9H366.52z
			 M363.33,301.99v4.83h-20.64v-4.83H363.33z M363.33,318.4v4.85h-20.64v-4.85H363.33z M356.75,277.02
			c-1.24,4.16-2.78,8.74-4.06,11.71l-4.7-0.85c1.1-3.18,2.28-8.05,2.77-11.56L356.75,277.02z"/>
		<path class="st5" d="M421.08,288.31v5h-35.24v33.03h-5.16v-38.03H421.08z M403.82,290.38c-1.84,11.22-6.27,19.08-14.86,23.56
			c-0.69-1.17-2.35-3.2-3.42-4.07c7.81-3.78,12.13-10.54,13.55-20.3L403.82,290.38z M402.01,278.58v4.49h-11.79v-4.49H402.01z
			 M404.13,278.58c0.62,14.82,4.12,25.9,14.45,30.62c-1.1,1.01-2.83,3.09-3.64,4.43c-10.76-5.8-14.63-17.58-15.39-32.64h-0.94v-2.41
			H404.13z M423.69,288.31v31.75c0,2.97-0.61,4.52-2.63,5.36c-2.07,0.84-5.31,0.87-9.92,0.87c-0.2-1.46-1.01-3.78-1.76-5.2
			c3.31,0.14,6.82,0.11,7.85,0.09c0.97-0.02,1.28-0.32,1.28-1.16v-31.71H423.69z"/>
		<path class="st5" d="M462.68,288.12c-5.62,8.57-14.9,16.55-25.14,21.33c-0.61-1.25-2.01-3.35-2.88-4.41
			c9.51-4.13,18.6-11.64,22.87-18.93L462.68,288.12z M483.88,284.79v4.91h-47.69v-4.91H483.88z M443.33,322.31
			c1.21-0.8,3.28-2.6,3.28-5.33v-18.17h5.19v21.46c0,0-5.75,4.03-5.75,5.96C445.59,325.13,444.19,323.19,443.33,322.31z
			 M445.54,321.49l2.34-1.87l17.51-5.23c0.21,1.46,0.75,3.56,1.13,4.7c-16.63,5.23-18.95,6.06-20.47,7.14L445.54,321.49z
			 M460.88,275.9c1.45,2.42,2.97,5.67,3.51,7.75l-5.5,1.79c-0.47-2.15-1.87-5.5-3.19-8.01L460.88,275.9z M485.5,320.4
			c-1.34,1.03-2.96,2.92-3.6,4.5c-15.18-9.58-19.86-20.66-22.5-36.68l4.82-0.9C466.62,302.34,471.22,312.32,485.5,320.4z
			 M483.11,296.89c-4.12,4.27-9.57,9.03-13.81,12.08l-3.74-3.03c4.19-3.03,9.82-8.11,13.21-12.17L483.11,296.89z"/>
		<path class="st5" d="M504.87,314.67c-1.82,4.06-4.51,8.8-6.86,11.92l-4.92-2.12c2.33-2.71,5.12-7.2,6.89-11.16L504.87,314.67z
			 M500.44,278.46v34h-4.8v-34H500.44z M509.79,291.37v4.49h-11.56v-4.49H509.79z M512.04,278.46v31.37h-13.72v-4.58h8.99v-22.27
			h-8.99v-4.52H512.04z M513.68,314.51c0.7,3.53,1.3,8.08,1.36,10.86l-5.01,0.77c-0.02-2.8-0.42-7.48-1.07-11.06L513.68,314.51z
			 M527.96,279.73c-0.86,7.99-3.29,13.3-12.95,16.21c-0.46-1.16-1.72-2.93-2.73-3.8c8.26-2.22,10.02-6.23,10.66-12.41H527.96z
			 M538.05,278.34v4.49h-24v-4.49H538.05z M539.7,296.13v15.49h-24.03v-15.49H539.7z M525.24,314.04c1.41,3.42,2.85,7.96,3.35,10.84
			l-5.08,1.07c-0.44-2.79-1.73-7.48-3.06-11.04L525.24,314.04z M520.47,307.44h14.19v-7.15h-14.19V307.44z M541.31,278.34
			c0,0-0.03,1.19-0.08,1.82c-0.47,7.65-0.98,10.94-2.18,12.25c-0.92,0.99-1.99,1.33-3.43,1.44c-1.28,0.12-3.68,0.15-6.16,0.05
			c-0.08-1.28-0.58-3.01-1.27-4.16c2.21,0.21,4.26,0.24,5.12,0.24c0.75,0,1.23-0.08,1.61-0.49c0.77-0.77,1.18-3.47,1.52-10.49v-0.66
			H541.31z M536.15,312.89c2.42,3.51,5.4,8.3,6.71,11.34l-4.9,2.14c-1.18-3.04-4.02-8.01-6.42-11.64L536.15,312.89z"/>
		<path class="st5" d="M339.25,369.5v4.85h-48.23v-4.85H339.25z M336.69,380.29v35.94h-5.18v-31.21H298.3v31.21h-4.94v-35.94H336.69
			z M333.91,408.69v4.73h-37.37v-4.73H333.91z M309.69,383.34v27.51h-4.61v-27.51H309.69z M321.76,390.04v4.07h-14.42v-4.07H321.76z
			 M321.86,399.3v4.07h-14.52v-4.07H321.86z M317.69,373.05c-1.18,3.78-2.38,7.94-3.45,10.68l-4.63-1.26
			c0.82-2.98,1.78-7.49,2.11-10.73L317.69,373.05z M324.39,383.34v27.39h-4.64v-27.39H324.39z"/>
		<path class="st5" d="M366.26,375.21v4.13h-17.88v-4.13H366.26z M365.37,382.52v3.95h-14.7v-3.95H365.37z M365.4,389.7v3.95h-14.73
			v-3.95H365.4z M354.99,397.02v18.48h-4.31v-18.48H354.99z M365.5,397.02v16.04h-12.75v-4.19h8.36v-7.7h-8.36v-4.16H365.5z
			 M357.17,365.9c1.55,2.22,3.26,5.13,4.1,7.08l-4.12,2.3c-0.74-2.01-2.49-5.16-3.9-7.42L357.17,365.9z M383.88,403.18l0.43,4.39
			c-5.84,1.66-12,3.34-16.83,4.61l-1.33-4.95C370.65,406.33,377.35,404.74,383.88,403.18z M382.31,388.18v4.55h-15.12v-4.55H382.31z
			 M398.17,376.42v4.76h-30.56v-4.76H398.17z M377.02,390.64v16.85l-4.68,0.47v-17.33H377.02z M388.06,366.22
			c-0.39,23.6,2.15,45.06,5.33,45.06c0.76,0,1.19-2.73,1.31-8.53c1.04,1.09,2.62,2.23,3.78,2.76c-0.68,8.26-2.05,10.71-5.77,10.71
			c-8.07,0-9.49-24.85-9.65-50H388.06z M392.39,367.14c1.78,1.98,3.81,4.76,4.69,6.61l-3.64,2.34c-0.82-1.85-2.79-4.77-4.54-6.9
			L392.39,367.14z"/>
	</g>
</g>
</svg>
