<?xml version="1.0" encoding="utf-8"?>
<!-- Generator: Adobe Illustrator 25.2.3, SVG Export Plug-In . SVG Version: 6.00 Build 0)  -->
<svg version="1.1" id="圖層_1" xmlns="http://www.w3.org/2000/svg" xmlns:xlink="http://www.w3.org/1999/xlink" x="0px" y="0px"
	 viewBox="0 0 686 686" style="enable-background:new 0 0 686 686;" xml:space="preserve">
<style type="text/css">
	.st0{fill:#00A0E9;}
	.st1{fill:#036EB8;}
	.st2{fill:#69D8FF;}
	.st3{fill:#0054A8;}
	.st4{fill:#FFFFFF;}
	.st5{fill:#1D2088;}
</style>
<g>
	<g>
		<g>
			<rect x="0.72" y="0.22" class="st0" width="685.56" height="685.56"/>
		</g>
		<polygon class="st1" points="621.95,64.55 621.95,305.45 621.95,334.55 621.95,621.45 686.28,685.78 686.28,334.55 686.28,305.45 
			686.28,0.22 		"/>
		<polygon class="st2" points="335.05,0.22 305.95,0.22 0.72,0.22 65.05,64.55 305.95,64.55 335.05,64.55 621.95,64.55 686.28,0.22 
					"/>
		<polygon class="st3" points="621.95,621.45 381.05,621.45 351.95,621.45 65.05,621.45 0.72,685.78 351.95,685.78 381.05,685.78 
			686.28,685.78 		"/>
	</g>
	<g>
		<g>
			<path class="st4" d="M346.11,104.3h-14.74v-8.63h23.49v97.68h-8.75V104.3z"/>
		</g>
	</g>
	<g>
		<path class="st5" d="M151.04,312.01c-0.48,4.71-1.43,9.81-2.5,13.15c-0.87-0.46-2.68-1.09-3.65-1.37c1.2-3.24,1.9-8.06,2.33-12.43
			L151.04,312.01z M145.03,292.75c0.91-0.25,1.85-1.32,2.89-2.95c1.12-1.56,4.62-7.67,6.62-13.47l4.18,1.78
			c-2.6,5.92-6.13,12.17-9.55,16.44v0.09c0,0-2.69,1.43-2.69,2.33C146.24,296.06,145.55,293.93,145.03,292.75z M145.42,305.04
			c1.17-0.28,2.31-1.64,3.94-3.67c1.7-2,7.11-9.84,10.46-17.31l3.82,2.39c-3.88,7.43-9.05,15.01-14.08,20.44v0.11
			c0,0-2.75,1.38-2.75,2.29C146.63,308.39,145.91,306.22,145.42,305.04z M146.38,293.59l2.03-1.34l9.17-0.73
			c-0.24,1.18-0.42,2.85-0.45,3.78c-8.29,0.89-9.78,1.23-10.67,1.67L146.38,293.59z M146.65,305.85l2.05-1.41l14.08-1.95
			c-0.14,1.13-0.21,2.8-0.16,3.72c-12.87,2.04-14.72,2.51-15.82,3.09L146.65,305.85z M156.44,311.07c0.67,3.63,1.28,8.28,1.47,11.4
			l-3.7,0.93c-0.08-3.15-0.66-7.89-1.25-11.52L156.44,311.07z M161.71,297.23c1.43,3.3,2.96,7.66,3.64,10.21l-3.68,1.51
			c-0.56-2.67-2.05-7.13-3.38-10.49L161.71,297.23z M162.02,309.6c1.26,3.31,2.54,7.55,3.13,10.32l-3.45,1.28
			c-0.5-2.85-1.81-7.18-2.93-10.49L162.02,309.6z M190.77,278.7v4.46h-20.51v43.23h-4.58V278.7H190.77z M188.16,293.2v3.92h-16.72
			v-3.92H188.16z M187.7,302.31v3.94h-15.8v-3.94H187.7z M175.92,284.49c1.23,2.29,2.29,5.44,2.65,7.44l-3.18,1.14
			c-0.3-2.05-1.33-5.23-2.48-7.58L175.92,284.49z M177.84,304.36v6.32c0,1.29,0.18,1.75,1.17,1.75c0.84,0,4.57,0,5.42,0
			c0.88,0,2.38-0.06,3.19-0.28c0.08,1.09,0.19,2.63,0.34,3.61c-0.74,0.25-2.16,0.28-3.41,0.28c-1.02,0-5.11,0-5.93,0
			c-4.02,0-4.9-1.5-4.9-5.42v-6.27H177.84z M180.16,296.89c0.8,1.44,1.76,3.41,2.17,4.62l-3.67,1.44c-0.38-1.32-1.26-3.34-2.03-4.85
			L180.16,296.89z M186.88,285.58c-1.04,3.16-2.14,6.81-3.13,9.15l-2.93-0.93c0.83-2.49,1.97-6.49,2.43-9.2L186.88,285.58z
			 M193.89,278.7V321c0,2.48-0.44,3.73-1.95,4.5c-1.51,0.72-3.8,0.84-7.16,0.81c-0.17-1.19-0.74-3.21-1.34-4.42
			c2.12,0.11,4.28,0.08,4.95,0.08c0.7-0.05,0.92-0.27,0.92-1V278.7H193.89z"/>
		<path class="st5" d="M224.01,276.21c-0.38,7.2-1.26,34.53-16.86,48.27c-1.05-1.3-2.72-2.6-4.42-3.57
			c15.49-12.49,15.69-39.02,16-44.69H224.01z M251.53,284.83v4.95h-46.84v-4.95H251.53z M241.87,296.25l0.93-0.23l3.5,1.53
			c-4.47,16.24-15.77,24.62-29.68,28.76c-0.62-1.31-1.86-3.28-2.9-4.33c12.73-3.24,23.52-11.26,27.18-24.78v-0.94H241.87z
			 M252.92,321.57c-1.13,1.1-2.59,3.24-3.29,4.64c-16.16-3.44-26.12-12.14-31.62-26.16l4.43-1.3
			C227.13,310.9,237.2,318.77,252.92,321.57z M241.42,296.25v4.94h-23.34l1.46-4.94H241.42z"/>
		<path class="st5" d="M280.15,285.32v4.13h-19.09v-4.13H280.15z M267.57,307.13v18.48h-4.48v-18.48H267.57z M278.24,292.63v3.95
			H263.2v-3.95H278.24z M278.24,299.81v3.95H263.2v-3.95H278.24z M278.81,307.13v16.04h-13.6v-4.19h9.32v-7.7h-9.32v-4.16H278.81z
			 M271.01,276.56c1.29,2.21,2.65,5.14,3.25,7.08l-4.5,1.67c-0.52-2-1.85-5.07-3.03-7.34L271.01,276.56z M293.15,278.41
			c-2.71,6.04-7,12.08-11.16,15.92c-0.78-0.93-2.66-2.74-3.75-3.59c4.08-3.34,7.91-8.54,10.15-13.79L293.15,278.41z M293.47,306.46
			c-0.74,9.01-2.71,16.1-11.4,20.12c-0.57-1.2-1.96-3.01-3.03-3.92c7.48-3.18,8.87-8.98,9.44-16.2H293.47z M305.74,290.8v16.58
			h-21.44V290.8H305.74z M289.14,302.9h11.53v-7.58h-11.53V302.9z M299.87,276.44c4.21,4.45,9.28,10.54,11.47,14.59l-3.9,2.8
			c-2.1-4.07-6.96-10.39-11.15-15.02L299.87,276.44z M301.89,305.19v14.19c0,1.41,0.15,1.6,1.07,1.6c0.43,0,2.17,0,2.67,0
			c1.01,0,1.2-0.75,1.33-6.17c0.98,0.84,3.07,1.65,4.43,1.97c-0.49,7.03-1.77,8.87-5.16,8.87c-0.87,0-3.28,0-4.11,0
			c-4.26,0-5.2-1.51-5.2-6.24v-14.22H301.89z"/>
		<path class="st5" d="M336.99,299.58l0.64,4.88c-6.15,1.81-12.67,3.66-17.8,5.05l-1.21-5.21
			C323.38,303.24,330.35,301.36,336.99,299.58z M337.07,286.87v4.97h-17.72v-4.97H337.07z M331.19,276.26v44.24
			c0,2.66-0.52,4.01-2.11,4.82c-1.59,0.84-3.9,0.99-7.58,0.93c-0.17-1.29-0.83-3.41-1.46-4.8c2.2,0.05,4.31,0.05,4.98,0.03
			c0.72-0.02,0.98-0.24,0.98-1.01v-44.21H331.19z M366.52,285.9v39.86h-5.28v-35.03h-16.54v35.38h-5.09V285.9H366.52z
			 M363.33,301.99v4.83h-20.64v-4.83H363.33z M363.33,318.4v4.85h-20.64v-4.85H363.33z M356.75,277.02
			c-1.24,4.16-2.78,8.74-4.06,11.71l-4.7-0.85c1.1-3.18,2.28-8.05,2.77-11.56L356.75,277.02z"/>
		<path class="st5" d="M390.63,294.77c-2.5,7.79-7.17,17.22-11.77,22.29c-0.51-1.46-1.75-3.6-2.59-4.9
			c4.33-4.29,9-12.38,11.18-18.85L390.63,294.77z M400.4,281.07c-5.77,2.1-14.09,3.59-21.15,4.46c-0.17-1.16-0.83-2.88-1.38-3.98
			c6.91-1.01,14.85-2.71,19.73-4.68L400.4,281.07z M400.65,291.44v4.77h-22.62v-4.77H400.65z M392.14,280.96v45.29h-4.95v-45.29
			H392.14z M400.43,305.45l-3.03,4.19c-1.48-2.68-5.85-8.67-7.72-10.92l2.34-2.17C393.63,297.98,399.21,303.95,400.43,305.45z
			 M396.78,318.24c1.44-0.49,2.54-3.13,4.05-7.41c1.54-4.07,6.05-19.4,8.21-33.1l5.45,1c-2.57,14.55-6.86,30.09-11.23,41.35v0.08
			c0,0-4.72,2.05-4.75,3.11C398.26,322.25,397.37,319.72,396.78,318.24z M398.31,318.78l2.81-1.72l21.09-2.98
			c0.12,1.46,0.51,3.55,0.81,4.63c-20.1,3.17-22.73,3.67-24.5,4.56L398.31,318.78z M418.22,298.57c3.54,7.85,7.48,18.03,8.95,24.29
			l-5.2,2.13c-1.37-6.29-5.05-16.73-8.47-24.7L418.22,298.57z"/>
		<path class="st5" d="M474.01,289.31c-8.33,10.09-22.38,16.82-36.22,20.84c-0.61-1.1-2.05-3.22-2.96-4.23
			c13.96-3.35,27.52-9.7,34.88-18.76L474.01,289.31z M446.62,293.64c-1.72,3.4-4.07,7.41-7.11,9.99l-4.13-2.49
			c3.03-2.32,5.61-6.13,7.08-9.35L446.62,293.64z M483.08,280.62v10.91h-5.19v-6.36H442v6.36h-5v-10.91H483.08z M446.45,311.1v8.14
			h30.14v4.8h-35.15V311.1H446.45z M453.6,291.1v9.82c0,1.55,0.59,1.82,3.65,1.82c1.41,0,8.26,0,10.14,0c2.5,0,2.95-0.72,3.17-5.58
			c1.03,0.72,2.92,1.38,4.19,1.64c-0.6,6.43-1.99,8-7,8c-1.36,0-9.56,0-10.84,0c-6.28,0-7.89-1.24-7.89-5.82v-9.88H453.6z
			 M454.06,285.33c3.28,1.33,7.4,3.56,9.46,5.32l-2.62,3.28c-1.97-1.81-6-4.19-9.31-5.61L454.06,285.33z M461.18,275.61
			c0.89,2.06,1.74,4.76,2.02,6.47l-5.16,0.98c-0.21-1.73-0.94-4.52-1.73-6.63L461.18,275.61z M462.47,308.33v13.42h-5.18v-13.42
			H462.47z M475.78,292.1c3.3,2.84,7.3,6.92,9.08,9.74l-3.89,2.78c-1.68-2.79-5.52-7.06-8.85-10.05L475.78,292.1z M478.91,310.46
			v15.66h-5.1v-15.66H478.91z"/>
		<path class="st5" d="M504.87,314.67c-1.81,4.06-4.5,8.8-6.86,11.92l-4.92-2.12c2.33-2.71,5.12-7.2,6.89-11.16L504.87,314.67z
			 M500.44,278.46v34h-4.8v-34H500.44z M509.79,291.37v4.49h-11.56v-4.49H509.79z M512.04,278.46v31.37h-13.72v-4.58h8.99v-22.27
			h-8.99v-4.52H512.04z M513.68,314.51c0.7,3.53,1.3,8.08,1.35,10.86l-5.01,0.77c-0.02-2.8-0.42-7.48-1.07-11.06L513.68,314.51z
			 M527.96,279.73c-0.86,7.99-3.29,13.3-12.95,16.21c-0.46-1.16-1.72-2.93-2.73-3.8c8.26-2.22,10.02-6.23,10.66-12.41H527.96z
			 M538.06,278.34v4.49h-24v-4.49H538.06z M539.7,296.13v15.49h-24.03v-15.49H539.7z M525.24,314.04c1.41,3.42,2.85,7.96,3.35,10.84
			l-5.07,1.07c-0.44-2.79-1.73-7.48-3.06-11.04L525.24,314.04z M520.47,307.44h14.19v-7.15h-14.19V307.44z M541.31,278.34
			c0,0-0.03,1.19-0.08,1.82c-0.47,7.65-0.98,10.94-2.18,12.25c-0.92,0.99-1.99,1.33-3.43,1.44c-1.28,0.12-3.68,0.15-6.16,0.05
			c-0.08-1.28-0.58-3.01-1.27-4.16c2.21,0.21,4.26,0.24,5.12,0.24c0.75,0,1.23-0.08,1.61-0.49c0.77-0.77,1.18-3.47,1.52-10.49v-0.66
			H541.31z M536.15,312.89c2.42,3.51,5.4,8.3,6.71,11.34l-4.9,2.14c-1.18-3.04-4.02-8.01-6.42-11.64L536.15,312.89z"/>
		<path class="st5" d="M165.67,409.54v4.95h-48.84v-4.95H165.67z M164.06,368.84v4.91h-45.52v-4.91H164.06z M135.93,372.57
			c-1.73,9.51-4.17,21.79-6.03,29.01h-5.69c2.06-7.47,4.66-19.81,6.16-29.01H135.93z M151.15,396.82v4.77h-23.18v-4.77H151.15z
			 M152.84,381.75v4.77h-22.12v-4.77H152.84z M151.63,381.75l0.9-0.22l3.88,0.46c-0.82,8.06-2.48,20.12-3.95,29.28l-5.28-0.47
			c1.57-9.17,3.27-22.03,3.92-28.45v-0.6H151.63z"/>
		<path class="st5" d="M190.55,367.83c-3.52,9.18-9.09,18.57-14.95,24.68c-0.49-1.23-1.9-3.98-2.79-5.19
			c5.14-5.07,10.02-12.99,12.92-20.98L190.55,367.83z M185.12,375.85l0.05,0.05v40.22h-4.86v-35.45L185.12,375.85z M224.16,400.49
			v3.98h-36.1v-3.98H224.16z M220.12,393.67l-0.17,3.57c-10.91,0.35-22.4,0.67-30.37,0.83l-0.43-3.94
			C196.85,394.11,208.82,393.9,220.12,393.67z M223.6,370.09v3.8h-34.21v-3.8H223.6z M221.69,376.51v14.62H191.6v-14.62H221.69z
			 M197.14,403.93c2.43,2.05,5.42,5.04,6.83,7.07l-4.02,2.67c-1.28-2.05-4.11-5.18-6.57-7.4L197.14,403.93z M196.27,382.37h20.53
			v-2.87h-20.53V382.37z M196.27,388.12h20.53v-2.89h-20.53V388.12z M208.91,366.56v29.08l-4.95,0.48v-29.55H208.91z M216.83,396.14
			v15.09c0,2.48-0.5,3.71-2.35,4.37c-1.84,0.69-4.64,0.66-8.68,0.66c-0.23-1.28-0.88-3.05-1.49-4.31c2.92,0.11,5.7,0.11,6.55,0.06
			c0.83-0.02,1.05-0.24,1.05-0.9v-14.97H216.83z M216.5,389.63c2.9,2.17,6.42,5.36,8.11,7.58l-3.68,2.17
			c-1.54-2.19-4.95-5.52-7.85-7.85L216.5,389.63z"/>
		<path class="st5" d="M263.52,380.72c-5.88,11.17-16.83,23.05-27.64,29.32c-0.91-1.46-2.58-3.39-4.02-4.58
			c10.87-5.46,21.78-16.97,27.16-27.62L263.52,380.72z M280.82,376.97v5.24h-47.2v-5.24H280.82z M267.35,366.13v42.77
			c0,3.4-0.82,4.9-2.96,5.73c-2.11,0.87-5.51,0.99-10.88,0.96c-0.23-1.5-1.07-3.89-1.82-5.4c3.65,0.17,7.45,0.14,8.51,0.12
			c1.11-0.05,1.54-0.38,1.54-1.43v-42.76H267.35z"/>
		<path class="st5" d="M298.3,385.45v12.83c0,5.59-0.66,13.17-4.46,18.08c-0.68-0.98-2.57-2.84-3.56-3.48
			c3.02-4.2,3.31-10.01,3.31-14.67v-12.77H298.3z M291.39,378.11c0.93-0.2,1.83-0.98,2.91-2.17c1.07-1.16,4.54-5.47,6.69-9.8
			l5.18,1.59c-2.93,4.7-6.79,9.49-10.17,12.51v0.08c0,0-2.98,1.53-2.98,2.47C292.75,381.77,291.94,379.38,291.39,378.11z
			 M292.86,379.06l2.52-1.52l16.86-1.24c0.18,1.3,0.62,3.04,0.96,4.08c-16.5,1.49-18.72,1.8-20.18,2.4L292.86,379.06z
			 M311.01,385.45v4.31h-15v-4.31H311.01z M309.77,399.28l0.98,3.15c-4.01,2.57-8.12,5.16-11.63,7.29l-1.65-4.36
			C300.62,403.99,305.21,401.63,309.77,399.28z M300.95,392.16c2.58,1.66,5.99,4.02,7.75,5.49l-2.74,2.74
			c-1.7-1.58-5.08-4.07-7.66-5.82L300.95,392.16z M313.22,385.45v25.69c0,2.31-0.47,3.47-2.04,4.19c-1.59,0.66-3.97,0.72-7.33,0.72
			c-0.23-1.19-0.95-2.95-1.58-4.09c2.28,0.11,4.49,0.08,5.2,0.06c0.73,0,0.92-0.22,0.92-0.89v-25.68H313.22z M309.95,370.08
			c2.47,3.83,5.46,9.01,6.8,12.23l-4.43,1.89c-1.2-3.27-4.1-8.63-6.54-12.58L309.95,370.08z M322.77,366.22v16.44
			c0,1.97,0.39,2.68,2.12,2.68c1.43,0,7.55,0,9.1,0c1.38,0,3.62-0.11,4.72-0.37c0.08,1.33,0.28,3.22,0.48,4.38
			c-1,0.29-3.1,0.37-5.09,0.37c-1.57,0-8.15,0-9.34,0c-5.52,0-7.04-1.94-7.04-7.18v-16.33H322.77z M322.77,391.43v17.69
			c0,1.86,0.44,2.17,2.82,2.17c1.04,0,6.25,0,7.7,0c2.06,0,2.44-0.96,2.69-6.44c1.09,0.81,3.13,1.59,4.52,1.88
			c-0.6,7.09-2,9.05-6.76,9.05c-1.3,0-7.58,0-8.79,0c-5.75,0-7.21-1.5-7.21-6.63v-17.72H322.77z M336.81,373.23v4.43h-16.01v-4.43
			H336.81z M337.32,397.42v4.57h-16.49v-4.57H337.32z"/>
		<path class="st5" d="M366.49,375.21v4.13h-18.47v-4.13H366.49z M354,397.02v18.48h-3.96v-18.48H354z M364.82,382.52v3.95h-14.7
			v-3.95H364.82z M364.82,389.7v3.95h-14.7v-3.95H364.82z M365.08,397.02v16.04h-13.03v-4.19h9.01v-7.7h-9.01v-4.16H365.08z
			 M356.72,365.7c1.59,2.19,3.36,5.1,4.28,7.02l-3.67,2.57c-0.78-2.01-2.58-5.16-4.08-7.42L356.72,365.7z M377.66,368.02l0.84-0.17
			l3.01,0.97c-1.99,9.55-6.66,16.94-12.62,21.01c-0.67-1.01-2.05-2.63-3.04-3.42c5.09-3.18,9.52-10.16,11-17.64v-0.76H377.66z
			 M397.6,410.81v4.13h-30.72v-4.13H397.6z M369.67,373.98c2.06,1.13,4.6,2.87,5.87,4.11l-2.82,3.58c-1.2-1.3-3.72-3.18-5.75-4.45
			L369.67,373.98z M378.06,368.02v4.07h-9.35v-4.07H378.06z M392.97,388.51v13.31h-21.64v-13.31H392.97z M377.22,402.16
			c1.47,2.35,2.83,5.5,3.17,7.53l-4.6,1.32c-0.31-2.03-1.53-5.24-2.92-7.67L377.22,402.16z M389,381.31v4.1h-13.65v-4.1H389z
			 M375.7,397.85h12.66v-5.4H375.7V397.85z M398.84,385.59c-1.18,0.84-2.69,2.53-3.49,3.72c-6.47-4.33-10.67-12.61-12.92-21.95
			l4.21-0.82C388.63,374.54,392.78,382.08,398.84,385.59z M392.07,403.13c-1.62,3.19-3.39,6.74-4.87,9.05l-3.92-1.13
			c1.33-2.49,2.96-6.42,3.73-9.14L392.07,403.13z M394.49,370.11c-1.92,1.81-4.31,3.58-6.11,4.77l-2.55-2.55
			c1.7-1.25,4.22-3.53,5.67-5.01L394.49,370.11z M397.87,376.42c-2.15,1.71-4.75,3.29-6.65,4.35l-2.43-2.52
			c1.84-1.12,4.6-3.25,6.13-4.65L397.87,376.42z"/>
		<path class="st5" d="M412.85,369.28v37.5h-4.76v-37.5H412.85z M426.32,369.28v32.61h-15.49v-4.7h10.75v-23.25h-10.75v-4.67H426.32
			z M423.53,383.07v4.58h-12.63v-4.58H423.53z M435.77,368.4v19.39c0,9.19-1.4,21.41-11.22,28.81c-0.76-1.01-2.72-2.76-3.8-3.45
			c9.14-6.85,10.01-17.05,10.01-25.39V368.4H435.77z M451.17,394.42v4.62h-17.63v-4.62H451.17z M451.24,368.4v4.74H433.8v-4.74
			H451.24z M451.24,381.39V386H433.8v-4.62H451.24z M454.41,368.4v41.58c0,2.9-0.66,4.38-2.55,5.22c-1.92,0.81-4.94,0.93-9.53,0.93
			c-0.23-1.4-1.07-3.64-1.82-4.96c3.23,0.14,6.58,0.08,7.53,0.06c0.97-0.02,1.32-0.35,1.32-1.29V368.4H454.41z"/>
		<path class="st5" d="M484.92,366.1c-0.38,7.2-1.26,34.53-16.86,48.27c-1.05-1.3-2.72-2.6-4.42-3.57
			c15.49-12.49,15.69-39.02,16-44.69H484.92z M512.44,374.72v4.95H465.6v-4.95H512.44z M502.78,386.14l0.93-0.23l3.5,1.53
			c-4.47,16.24-15.77,24.62-29.68,28.76c-0.62-1.31-1.86-3.28-2.9-4.33c12.73-3.24,23.52-11.26,27.18-24.78v-0.94H502.78z
			 M513.83,411.46c-1.13,1.1-2.59,3.24-3.29,4.64c-16.16-3.44-26.12-12.14-31.62-26.16l4.43-1.3
			C488.04,400.79,498.11,408.67,513.83,411.46z M502.33,386.14v4.94h-23.34l1.46-4.94H502.33z"/>
		<path class="st5" d="M541.26,375.21v4.13h-19.3v-4.13H541.26z M528.33,397.02v18.48h-4.31v-18.48H528.33z M539.97,382.52v3.95
			h-15.9v-3.95H539.97z M539.97,389.7v3.95h-15.9v-3.95H539.97z M540.27,397.02v16.04h-14.09v-4.19h9.73v-7.7h-9.73v-4.16H540.27z
			 M531.68,365.9c1.54,2.22,3.2,5.13,4.06,7.08l-4.03,2.3c-0.74-2.01-2.46-5.16-3.87-7.42L531.68,365.9z M572.07,409.97v4.49h-30.54
			v-4.49H572.07z M570.33,372.09v10.2h-4.79v-5.71h-18.52v5.71h-4.58v-10.2H570.33z M566.2,380.95v31.47h-4.97v-27.13h-9.95v27.13
			h-4.74v-31.47H566.2z M564.21,390.41v3.98h-15.59v-3.98H564.21z M564.21,399.8v4h-15.59v-4H564.21z M555.48,365.79
			c1.67,2.21,3.42,5.16,4.25,7.15l-4.28,2.04c-0.66-2.04-2.43-5.22-3.97-7.5L555.48,365.79z"/>
	</g>
</g>
</svg>
