<?xml version="1.0" encoding="utf-8"?>
<!-- Generator: Adobe Illustrator 25.2.3, SVG Export Plug-In . SVG Version: 6.00 Build 0)  -->
<svg version="1.1" id="圖層_2" xmlns="http://www.w3.org/2000/svg" xmlns:xlink="http://www.w3.org/1999/xlink" x="0px" y="0px"
	 viewBox="0 0 686 686" style="enable-background:new 0 0 686 686;" xml:space="preserve">
<style type="text/css">
	.st0{fill:#F7F8F8;}
	.st1{fill:#DCDDDD;}
	.st2{fill:#FFFFFF;}
	.st3{fill:#B5B5B6;}
	.st4{fill:#44BABC;}
	.st5{fill:#1D2088;}
</style>
<g>
	<g>
		<g>
			<rect x="-0.2" y="-0.2" class="st0" width="686.39" height="686.39"/>
		</g>
		<g>
			<polygon class="st1" points="686.2,-0.2 621.79,64.21 621.79,334.54 686.2,334.54 			"/>
		</g>
		<g>
			<polygon class="st1" points="686.2,686.2 621.79,621.79 621.79,305.4 686.2,305.4 			"/>
		</g>
		<g>
			<polygon class="st2" points="-0.2,-0.2 64.21,64.21 334.54,64.21 334.54,-0.2 			"/>
		</g>
		<g>
			<polygon class="st2" points="686.2,-0.2 621.79,64.21 305.4,64.21 305.4,-0.2 			"/>
		</g>
		<g>
			<polygon class="st3" points="686.2,686.2 621.79,621.79 351.46,621.79 351.46,686.2 			"/>
		</g>
		<g>
			<polygon class="st3" points="-0.2,686.2 64.21,621.79 380.6,621.79 380.6,686.2 			"/>
		</g>
	</g>
	<g>
		<g>
			<path class="st4" d="M315.97,162.09h7.56v-7.44h7.44v-7.44h14.76v-7.44h7.44v-7.32h7.44v-21h-7.44v-7.44h-21v7.44h-7.32v22.2
				h-8.88v-23.52h7.56v-7.44h7.44v-7.32h23.52v7.32h7.32v7.44h7.44v23.52h-7.44v7.44h-7.32v7.44h-7.44v7.44h-14.88v7.44h-7.32v20.88
				h44.4v8.88h-53.28V162.09z"/>
		</g>
	</g>
	<g>
		<path class="st5" d="M175.84,290.78c-5.89,11.18-16.85,23.07-27.66,29.34c-0.91-1.46-2.58-3.39-4.02-4.58
			c10.88-5.47,21.8-16.99,27.18-27.65L175.84,290.78z M193.15,287.02v5.25H145.9v-5.25H193.15z M179.67,276.18v42.8
			c0,3.41-0.82,4.9-2.96,5.74c-2.11,0.87-5.51,0.99-10.89,0.96c-0.23-1.5-1.07-3.89-1.82-5.4c3.65,0.17,7.45,0.14,8.51,0.12
			c1.11-0.05,1.54-0.38,1.54-1.43v-42.8H179.67z"/>
		<path class="st5" d="M231.06,278.32v4.5h-21.78v43.48h-4.49v-47.97H231.06z M227.41,293.68v3.86h-16.39v-3.86H227.41z
			 M215.12,283.99c1.29,2.54,2.4,5.91,2.68,8L214.5,293c-0.26-2.14-1.36-5.62-2.51-8.21L215.12,283.99z M214.92,300.56v15.62h-2.9
			v-15.62H214.92z M225.02,312.64v3.53H213.3v-3.53H225.02z M220.83,295.3v19.15h-3.13V295.3H220.83z M226.74,284.68
			c-1.15,3.63-2.52,7.95-3.68,10.68l-3.09-0.93c0.99-2.82,2.24-7.55,2.85-10.71L226.74,284.68z M233.38,278.32v41.98
			c0,2.53-0.57,3.91-2.22,4.68c-1.7,0.78-4.35,0.87-8.59,0.87c-0.16-1.22-0.83-3.33-1.49-4.55c2.96,0.14,5.81,0.08,6.65,0.08
			c0.86-0.02,1.15-0.29,1.15-1.15v-41.92H233.38z M226.34,300.56v15.62h-2.92v-15.62H226.34z M242.5,281.95v30.58h-4.52v-30.58
			H242.5z M250.62,277.17v43.1c0,2.76-0.65,4.05-2.32,4.8c-1.65,0.78-4.34,0.93-8.69,0.9c-0.17-1.25-0.86-3.28-1.49-4.58
			c3.01,0.11,5.82,0.08,6.68,0.06c0.88-0.02,1.21-0.29,1.21-1.15v-43.12H250.62z"/>
		<path class="st5" d="M279.68,285.16v4.13h-19.32v-4.13H279.68z M266.1,307.27v18.38h-4.26v-18.38H266.1z M278.46,292.62v3.95
			h-16.58v-3.95H278.46z M278.46,299.9v3.95h-16.58v-3.95H278.46z M278.23,307.27v16.05h-14.09v-4.13h9.75v-7.8h-9.75v-4.13H278.23z
			 M270.03,276.32c1.33,2.28,2.74,5.29,3.44,7.22l-4.5,1.79c-0.61-2.01-2.02-5.17-3.24-7.48L270.03,276.32z M285.2,309.01
			c-0.65,4.09-1.72,9.1-3.58,12.14l-3.6-1.55c1.79-2.96,2.98-7.73,3.58-11.65L285.2,309.01z M297.42,280.05
			c-0.88,10.73-3.15,19.77-14.12,24.78c-0.55-1.13-1.84-2.82-2.89-3.66c10.01-4.15,11.69-12.08,12.43-21.12H297.42z M305.53,278.21
			v4.32h-23.81v-4.32H305.53z M284.45,283.82c2.87,2.31,6.87,5.52,8.82,7.5l-2.83,3.2c-1.91-2.08-5.8-5.49-8.7-7.92L284.45,283.82z
			 M290.55,306.84v12.58c0,1.45,0.31,1.69,2.08,1.69c0.79,0,4.51,0,5.55,0c1.69,0,1.98-0.88,2.14-6.97c0.95,0.72,2.78,1.41,3.96,1.7
			c-0.46,7.46-1.61,9.31-5.64,9.31c-1.02,0-5.62,0-6.59,0c-4.77,0-5.93-1.33-5.93-5.7v-12.62H290.55z M293.71,302.67
			c2.28,2.4,4.82,5.72,5.98,7.88l-3.27,2.28c-1.12-2.21-3.6-5.68-5.77-8.21L293.71,302.67z M308.72,278.21c0,0-0.03,1.42-0.09,2.02
			c-0.56,13.64-1.16,18.69-2.56,20.47c-1,1.21-2.09,1.61-3.66,1.81c-1.39,0.15-3.79,0.13-6.23,0.05c-0.11-1.33-0.61-3.22-1.36-4.46
			c2.27,0.21,4.43,0.24,5.36,0.24c0.83,0,1.27-0.11,1.76-0.63c0.93-1.13,1.53-5.87,1.95-18.67v-0.83H308.72z M306.17,305.75
			c1.99,3.61,4.03,8.39,4.76,11.39l-3.86,1.44c-0.65-3-2.55-7.9-4.45-11.59L306.17,305.75z"/>
		<path class="st5" d="M334.6,285.3v4.13h-15.42v-4.13H334.6z M324.63,307.27v18.38h-3.74v-18.38H324.63z M333.4,292.62v3.95h-12.49
			v-3.95H333.4z M333.4,299.9v3.95h-12.49v-3.95H333.4z M326.43,276.33c1.41,2.17,3.05,5.16,3.73,6.99l-3.76,1.69
			c-0.68-1.9-2.2-4.98-3.57-7.26L326.43,276.33z M333.46,307.27v15.96h-10.14v-4.04h6.37v-7.89h-6.37v-4.04H333.46z M367.88,292.44
			v4.37H334.8v-4.37H367.88z M352.02,281.72v4.01h-16.29v-4.01H352.02z M341,299.36v23.13h-4.16v-23.13H341z M341.11,286.02
			c0.71,2.17,1.32,5.12,1.5,6.96l-3.79,0.72c-0.12-1.89-0.65-4.83-1.28-7.09L341.11,286.02z M349.28,315.08v3.53h-10.67v-3.53
			H349.28z M349.34,307.17v3.55h-10.67v-3.55H349.34z M351.61,299.36v20.65h-4.23v-17.07h-8.44v-3.58H351.61z M344.41,276.35
			c1.14,1.94,2.35,4.56,2.8,6.23l-4.2,1.28c-0.37-1.7-1.52-4.4-2.58-6.42L344.41,276.35z M350.65,286.62
			c-0.76,2.52-1.52,5.26-2.17,7.06l-3.43-0.64c0.62-2,1.29-5.04,1.6-7.09L350.65,286.62z M367.19,301.1
			c-3.56,10.79-10.16,19.61-17.42,24.82c-0.66-0.81-1.99-2.07-2.95-2.76c7-4.9,13.27-13.47,16.38-24.04L367.19,301.1z
			 M357.83,276.26c0.16,23.24,2.39,43.84,5.58,43.95c0.78-0.03,1.33-2.47,1.58-6.77c0.77,1.02,2.6,2.32,3.4,2.76
			c-1.18,7.91-3.26,9.83-5.08,9.8c-7.56-0.03-9.46-21.76-10.01-49.75H357.83z M362.84,279.34c1.67,2.9,3.53,6.81,4.23,9.25
			l-4.07,1.76c-0.62-2.5-2.36-6.51-3.97-9.53L362.84,279.34z"/>
		<path class="st5" d="M383.62,284.9v39.93h-4.67V284.9H383.62z M396.11,299.66v4.47H381.7v-4.47H396.11z M398.43,284.9v35.77
			h-16.49v-4.55h11.82V289.4h-11.82v-4.5H398.43z M392.5,277c-1.15,3.48-2.51,7.27-3.59,9.74l-4.1-0.97
			c0.84-2.7,1.77-6.79,2.15-9.67L392.5,277z M411.49,277.21c-2.05,8.01-5.39,16.07-9.08,21.23c-0.91-0.82-3.03-2.28-4.21-2.95
			c3.66-4.69,6.65-12.09,8.37-19.42L411.49,277.21z M408,297.06c2.88,3.79,6.56,8.99,8.27,12.17l-4.34,2.7
			c-1.57-3.29-5.09-8.66-7.93-12.6L408,297.06z M422.11,284.62v4.7h-16.24v-4.7H422.11z M425.08,284.62c0,0,0,1.79-0.03,2.45
			c-0.79,24.57-1.47,33.05-3.67,35.79c-1.34,1.8-2.68,2.31-4.72,2.58c-1.92,0.24-5.15,0.16-8.25,0c-0.11-1.42-0.76-3.58-1.69-4.95
			c3.5,0.3,6.74,0.32,8.06,0.32c1.08,0,1.7-0.17,2.33-0.9c1.77-1.91,2.56-11.02,3.21-34.26v-1.03H425.08z"/>
		<path class="st5" d="M440.56,311.98c-0.48,4.72-1.43,9.82-2.5,13.16c-0.87-0.46-2.68-1.09-3.66-1.37
			c1.21-3.24,1.9-8.07,2.33-12.44L440.56,311.98z M434.54,292.7c0.91-0.25,1.85-1.32,2.89-2.96c1.12-1.56,4.63-7.68,6.62-13.49
			l4.18,1.78c-2.6,5.93-6.13,12.18-9.56,16.46v0.09c0,0-2.7,1.43-2.7,2.34C435.75,296.01,435.06,293.89,434.54,292.7z M434.93,305
			c1.17-0.28,2.32-1.64,3.94-3.67c1.7-2,7.12-9.84,10.46-17.32l3.83,2.39c-3.88,7.44-9.06,15.03-14.1,20.46v0.11
			c0,0-2.75,1.39-2.75,2.29C436.14,308.35,435.41,306.19,434.93,305z M435.89,293.54l2.03-1.34l9.18-0.73
			c-0.24,1.18-0.42,2.86-0.45,3.79c-8.3,0.89-9.79,1.23-10.68,1.67L435.89,293.54z M436.16,305.81l2.05-1.41l14.09-1.95
			c-0.14,1.13-0.21,2.8-0.16,3.72c-12.88,2.04-14.73,2.51-15.84,3.1L436.16,305.81z M445.96,311.03c0.67,3.63,1.28,8.29,1.47,11.41
			l-3.71,0.94c-0.08-3.16-0.67-7.89-1.25-11.53L445.96,311.03z M451.23,297.18c1.43,3.3,2.97,7.66,3.65,10.22l-3.68,1.51
			c-0.56-2.67-2.06-7.14-3.38-10.5L451.23,297.18z M451.54,309.56c1.26,3.31,2.54,7.56,3.14,10.33l-3.45,1.28
			c-0.5-2.85-1.81-7.19-2.93-10.5L451.54,309.56z M480.32,278.64v4.47h-20.53v43.26h-4.58v-47.73H480.32z M477.71,293.15v3.92
			h-16.74v-3.92H477.71z M477.24,302.27v3.95h-15.81v-3.95H477.24z M465.45,284.43c1.23,2.29,2.29,5.44,2.65,7.44l-3.18,1.14
			c-0.3-2.06-1.33-5.23-2.48-7.58L465.45,284.43z M467.37,304.32v6.33c0,1.29,0.18,1.76,1.17,1.76c0.84,0,4.57,0,5.42,0
			c0.88,0,2.39-0.06,3.19-0.28c0.08,1.09,0.19,2.63,0.34,3.61c-0.74,0.25-2.16,0.28-3.41,0.28c-1.02,0-5.12,0-5.93,0
			c-4.02,0-4.9-1.5-4.9-5.42v-6.28H467.37z M469.7,296.84c0.8,1.44,1.76,3.41,2.17,4.62l-3.68,1.44c-0.38-1.32-1.26-3.35-2.03-4.85
			L469.7,296.84z M476.42,285.52c-1.04,3.16-2.14,6.81-3.13,9.16l-2.93-0.93c0.83-2.49,1.97-6.5,2.43-9.21L476.42,285.52z
			 M483.44,278.64v42.33c0,2.48-0.44,3.73-1.95,4.51c-1.51,0.72-3.8,0.84-7.17,0.81c-0.17-1.19-0.74-3.21-1.34-4.42
			c2.12,0.11,4.28,0.08,4.95,0.08c0.7-0.05,0.92-0.27,0.92-1v-42.33H483.44z"/>
		<path class="st5" d="M513.61,276.15c-0.38,7.21-1.27,34.56-16.88,48.31c-1.05-1.3-2.72-2.61-4.42-3.58
			c15.5-12.5,15.71-39.05,16.01-44.73H513.61z M541.15,284.77v4.95h-46.88v-4.95H541.15z M531.48,296.2l0.93-0.23l3.5,1.53
			c-4.47,16.25-15.78,24.64-29.71,28.78c-0.62-1.31-1.86-3.29-2.91-4.34c12.74-3.25,23.54-11.27,27.2-24.8v-0.95H531.48z
			 M542.54,321.55c-1.13,1.1-2.59,3.25-3.29,4.65c-16.17-3.44-26.14-12.15-31.64-26.19l4.43-1.3
			C516.73,310.86,526.81,318.75,542.54,321.55z M531.04,296.2v4.94h-23.36l1.46-4.94H531.04z"/>
		<path class="st5" d="M187.01,378.07c-2.3,6.62-6.48,13.45-10.75,17.14c-0.78-1.13-2.29-2.76-3.33-3.6
			c4.2-3.01,8.4-9.04,10.58-14.72L187.01,378.07z M182.97,401.75c-1.1,3.73-2.77,8.59-4.87,11.66l-4.6-2.3
			c2.13-2.9,3.95-7.43,4.96-11.13L182.97,401.75z M196.69,374.1v4.38h-22.49v-4.38H196.69z M188.53,366.3v31.9h-4.86v-31.9H188.53z
			 M197.37,387.35l-2.75,4.1c-1.97-2.07-6.91-6.39-9.09-8.07l2.64-2.53C189.99,381.9,195.9,386.21,197.37,387.35z M191.2,400.83
			v8.04c0,1.51,0.53,1.72,3.61,1.72c1.42,0,7.95,0,9.83,0c2.57,0,2.97-0.73,3.25-6.23c1.1,0.83,3.2,1.56,4.62,1.85
			c-0.66,7.21-2.12,8.96-7.49,8.96c-1.42,0-9.29,0-10.62,0c-6.54,0-8.24-1.4-8.24-6.24v-8.1H191.2z M197.09,396.73
			c2.46,2.24,5.82,5.47,7.46,7.45l-3.7,3.1c-1.58-2.01-4.82-5.41-7.28-7.82L197.09,396.73z M220.48,368.98v28.63h-21.53v-28.63
			H220.48z M203.63,377.25h11.96v-4.17h-11.96V377.25z M203.63,385.38h11.96v-4.24h-11.96V385.38z M203.63,393.54h11.96v-4.3h-11.96
			V393.54z M216.72,399.1c2.21,3.39,5.22,8.02,6.64,10.81l-4.75,2.4c-1.3-2.84-4.18-7.62-6.37-11.19L216.72,399.1z"/>
		<path class="st5" d="M272.63,395.17c-5.07,14.74-16.65,19.53-38.66,21.19c-0.34-1.46-1.15-3.29-1.96-4.44
			c20.78-1.07,31.32-5.21,35.66-18.06L272.63,395.17z M280.79,396.97v4.29h-48.67v-4.29H280.79z M279.78,368.34v4.47h-46.81v-4.47
			H279.78z M277.76,376.73v14.52h-42.18v-14.52H277.76z M249.05,391.54l5.1,1.16c-2.47,5.08-6.7,11-9.56,14.46l-5.94-0.03
			C242.21,403.07,246.6,396.74,249.05,391.54z M242.59,403.83c13.9,2.25,28.51,5.73,37.44,8.72l-4.64,3.62
			c-8.16-3.09-21.99-6.55-36.74-9.04L242.59,403.83z M240.38,387.18h32.31v-6.34h-32.31V387.18z M252.32,370.04v18.7h-4.83v-18.7
			H252.32z M264.76,370.04v18.7h-4.83v-18.7H264.76z"/>
		<path class="st5" d="M297.43,402.24c-0.82,4.6-2.28,9.74-3.6,13.05c-1.02-0.56-3.17-1.21-4.38-1.55c1.5-3.21,2.75-8.1,3.48-12.41
			L297.43,402.24z M289.53,382.34c1.04-0.25,2.06-1.29,3.35-2.9c1.31-1.56,5.47-7.59,8.02-13.42l4.7,2.03
			c-3.24,5.97-7.43,12.08-11.43,16.3v0.11c0,0-3.05,1.5-3.05,2.46C290.86,385.95,290.1,383.61,289.53,382.34z M289.73,394.53
			c1.33-0.26,2.65-1.48,4.55-3.43c2-1.92,8.28-9.33,12.43-16.67l4.31,2.8c-4.73,7.21-10.67,14.32-16.38,19.45v0.14
			c0,0-3.29,1.48-3.29,2.44C291.09,398.29,290.31,395.88,289.73,394.53z M291,383.35l2.24-1.45l10.34-0.86
			c-0.27,1.27-0.42,3.07-0.45,4.06c-9.35,0.99-11,1.35-12,1.82L291,383.35z M291.11,395.44l2.38-1.59l16.09-2.24
			c-0.18,1.3-0.27,3.19-0.22,4.18c-14.65,2.3-16.73,2.81-18.01,3.47L291.11,395.44z M303.58,400.9c0.84,3.87,1.6,8.71,1.84,12.01
			l-4.29,1.12c-0.16-3.28-0.88-8.29-1.61-12.1L303.58,400.9z M309.15,386.35c1.5,3.64,3.08,8.4,3.65,11.28l-4.32,1.29
			c-0.5-2.94-1.99-7.81-3.4-11.54L309.15,386.35z M309.9,399.66c1.37,3.25,2.84,7.44,3.49,10.18l-3.96,1.48
			c-0.59-2.77-2.03-7.1-3.29-10.38L309.9,399.66z M322.99,367.21c-2,8.09-5.25,16.1-8.98,21.27c-0.93-0.79-3.14-2.24-4.37-2.91
			c3.74-4.65,6.67-12.03,8.31-19.37L322.99,367.21z M319.1,387.53c3.63,3.41,7.86,8.21,9.62,11.53l-3.8,2.97
			c-1.67-3.35-5.69-8.35-9.35-11.88L319.1,387.53z M334.82,376.05v4.83h-18.84v-4.83H334.82z M337.95,376.05
			c0,0-0.03,1.88-0.03,2.55c-0.68,23.82-1.32,32.05-3.38,34.7c-1.35,1.8-2.69,2.34-4.76,2.61c-1.9,0.24-5.13,0.19-8.21,0.03
			c-0.11-1.45-0.76-3.67-1.69-5.1c3.36,0.27,6.42,0.27,7.74,0.27c1.03,0.02,1.67-0.14,2.22-0.85c1.67-1.83,2.37-10.65,2.92-33.13
			v-1.09H337.95z"/>
		<path class="st5" d="M373.68,392.5l0.37,4.61c-8.81,1.99-18.29,4.05-25.17,5.51l-1.36-5.16
			C353.96,396.39,364.18,394.39,373.68,392.5z M396.78,381.89v4.83h-48.37v-4.83H396.78z M373.57,371.01
			c-6.62,2.16-15.79,3.75-23.58,4.74c-0.23-1.22-0.9-3.12-1.5-4.28c7.59-1.08,16.21-2.87,21.52-4.78L373.57,371.01z M364.55,372.18
			v37.87c0,3.02-0.66,4.48-2.59,5.3c-1.91,0.81-4.95,0.99-9.4,0.97c-0.23-1.41-1.1-3.73-1.83-5.16c3.26,0.14,6.44,0.11,7.41,0.06
			c0.95-0.02,1.27-0.29,1.27-1.21v-37.83H364.55z M394.57,390.83c-5.42,9.96-14.29,18.36-24.17,23.56c-0.75-1.25-2.2-2.95-3.48-4.09
			c9.47-4.47,18.31-12.36,23.14-21.4L394.57,390.83z M380.73,366.63c-0.23,23.45,4.86,44.67,10.73,44.67c1.32,0,1.96-2.7,2.26-9.42
			c1.1,1.17,2.89,2.34,4.26,2.87c-0.85,9.21-2.59,11.74-7.01,11.74c-10.83,0-15.36-24.77-15.56-49.86H380.73z M387.43,367.64
			c3.04,2.62,6.73,6.34,8.43,8.88l-4.16,2.92c-1.53-2.56-5.07-6.43-8.14-9.16L387.43,367.64z"/>
		<path class="st5" d="M414.46,393.22v14.9h34.82v5.1h-40.49v-20H414.46z M416.76,370.96v14.14h27.75v-14.17h5.62v19.12h-38.74
			v-19.09H416.76z M433.28,366.23v44.42h-5.64v-44.42H433.28z M452.28,393.21v23.01h-5.65v-23.01H452.28z"/>
		<path class="st5" d="M513.19,388.43v5.13h-48.88v-5.13H513.19z M467.61,409.61c1.27-0.28,2.45-1.5,4.07-3.37
			c1.7-1.76,7.15-8.82,10.49-15.6l5.68,1.66c-4.49,7.5-10.16,14.73-15.29,19.63v0.15c0,0-3.2,1.6-3.2,2.6
			C469.09,413.6,468.24,411.01,467.61,409.61z M509.24,374.22v5.13h-40.75v-5.13H509.24z M469.23,410.52l3.52-1.95l31.17-2.06
			c0.21,1.46,0.7,3.59,1.02,4.7c-29.74,2.37-33.15,2.54-35.58,3.46L469.23,410.52z M491.33,366.14v24.84h-5.4v-24.84H491.33z
			 M498.64,395.9c4.83,5.38,9.97,12.56,12.42,17.39l-4.97,2.61c-2.23-4.9-7.43-12.46-12.07-17.89L498.64,395.9z"/>
	</g>
</g>
</svg>
