<?xml version="1.0" encoding="utf-8"?>
<!-- Generator: Adobe Illustrator 25.2.3, SVG Export Plug-In . SVG Version: 6.00 Build 0)  -->
<svg version="1.1" id="圖層_1" xmlns="http://www.w3.org/2000/svg" xmlns:xlink="http://www.w3.org/1999/xlink" x="0px" y="0px"
	 viewBox="0 0 686 686" style="enable-background:new 0 0 686 686;" xml:space="preserve">
<style type="text/css">
	.st0{fill:#00A0E9;}
	.st1{fill:#036EB8;}
	.st2{fill:#69D8FF;}
	.st3{fill:#0054A8;}
	.st4{fill:#FFFFFF;}
	.st5{fill:#1D2088;}
</style>
<g>
	<g>
		<g>
			<rect x="0.22" y="0.22" class="st0" width="685.56" height="685.56"/>
		</g>
		<polygon class="st1" points="621.45,64.55 621.45,305.45 621.45,334.55 621.45,621.45 685.78,685.78 685.78,334.55 685.78,305.45 
			685.78,0.22 		"/>
		<polygon class="st2" points="334.55,0.22 305.45,0.22 0.22,0.22 64.55,64.55 305.45,64.55 334.55,64.55 621.45,64.55 685.78,0.22 
					"/>
		<polygon class="st3" points="621.45,621.45 380.55,621.45 351.45,621.45 64.55,621.45 0.22,685.78 351.45,685.78 380.55,685.78 
			685.78,685.78 		"/>
	</g>
	<g>
		<g>
			<path class="st4" d="M323.56,178.37h-7.55v-16.06h8.87v14.86h7.31v7.31h20.97v-7.31h7.43V156.2h-7.43v-7.43h-22.17v-8.75h22.17
				v-7.31h7.43v-20.97h-7.43v-7.43h-20.97v7.43h-7.31v14.86h-8.87v-16.18h7.55v-7.43h7.43v-7.31h23.49v7.31h7.31v7.43h7.43v23.49
				h-7.43v7.43h-7.31v6.11h7.31v7.43h7.43v23.49h-7.43v7.43h-7.31v7.55h-23.49v-7.55h-7.43V178.37z"/>
		</g>
	</g>
	<g>
		<path class="st5" d="M150.55,267.07c-0.48,4.71-1.43,9.81-2.5,13.15c-0.87-0.46-2.68-1.09-3.65-1.37c1.2-3.24,1.9-8.06,2.33-12.43
			L150.55,267.07z M144.53,247.81c0.91-0.25,1.85-1.32,2.89-2.95c1.12-1.56,4.62-7.67,6.62-13.47l4.18,1.78
			c-2.6,5.92-6.13,12.17-9.55,16.44v0.09c0,0-2.7,1.43-2.7,2.33C145.74,251.11,145.05,248.99,144.53,247.81z M144.92,260.1
			c1.17-0.28,2.31-1.64,3.94-3.67c1.7-2,7.11-9.84,10.46-17.31l3.82,2.39c-3.88,7.43-9.05,15.01-14.08,20.44v0.11
			c0,0-2.75,1.38-2.75,2.29C146.13,263.44,145.41,261.28,144.92,260.1z M145.88,248.65l2.03-1.34l9.17-0.73
			c-0.24,1.18-0.42,2.85-0.45,3.78c-8.29,0.89-9.78,1.23-10.67,1.67L145.88,248.65z M146.15,260.91l2.05-1.41l14.08-1.95
			c-0.14,1.13-0.21,2.8-0.16,3.72c-12.87,2.04-14.72,2.51-15.82,3.09L146.15,260.91z M155.94,266.12c0.67,3.63,1.28,8.28,1.47,11.4
			l-3.7,0.93c-0.08-3.15-0.66-7.89-1.25-11.52L155.94,266.12z M161.21,252.28c1.43,3.3,2.96,7.66,3.64,10.21l-3.68,1.51
			c-0.56-2.67-2.05-7.13-3.38-10.49L161.21,252.28z M161.52,264.66c1.26,3.31,2.54,7.55,3.13,10.32l-3.45,1.28
			c-0.5-2.85-1.81-7.18-2.93-10.49L161.52,264.66z M190.27,233.76v4.46h-20.51v43.23h-4.58v-47.69H190.27z M187.66,248.26v3.92
			h-16.72v-3.92H187.66z M187.2,257.36v3.94h-15.8v-3.94H187.2z M175.42,239.55c1.23,2.29,2.29,5.44,2.65,7.44l-3.18,1.14
			c-0.3-2.05-1.33-5.23-2.48-7.58L175.42,239.55z M177.34,259.41v6.32c0,1.29,0.18,1.75,1.17,1.75c0.84,0,4.57,0,5.42,0
			c0.88,0,2.38-0.06,3.19-0.28c0.08,1.09,0.19,2.63,0.34,3.61c-0.74,0.25-2.16,0.28-3.41,0.28c-1.02,0-5.11,0-5.93,0
			c-4.02,0-4.9-1.5-4.9-5.42v-6.27H177.34z M179.66,251.94c0.8,1.44,1.76,3.41,2.17,4.62l-3.67,1.44c-0.38-1.32-1.26-3.34-2.03-4.85
			L179.66,251.94z M186.38,240.63c-1.04,3.16-2.14,6.81-3.13,9.15l-2.93-0.93c0.83-2.49,1.97-6.49,2.42-9.2L186.38,240.63z
			 M193.39,233.76v42.3c0,2.48-0.44,3.73-1.95,4.5c-1.51,0.72-3.8,0.84-7.16,0.81c-0.17-1.19-0.74-3.21-1.34-4.42
			c2.12,0.11,4.28,0.08,4.95,0.08c0.7-0.05,0.92-0.27,0.92-1v-42.29H193.39z"/>
		<path class="st5" d="M223.51,231.27c-0.38,7.2-1.26,34.53-16.86,48.27c-1.05-1.3-2.72-2.6-4.42-3.57
			c15.49-12.49,15.69-39.02,16-44.69H223.51z M251.03,239.88v4.95h-46.84v-4.95H251.03z M241.37,251.3l0.93-0.23l3.5,1.53
			c-4.47,16.24-15.77,24.62-29.68,28.76c-0.62-1.31-1.86-3.28-2.9-4.33c12.73-3.24,23.52-11.26,27.18-24.78v-0.94H241.37z
			 M252.42,276.63c-1.13,1.1-2.59,3.24-3.29,4.64c-16.16-3.44-26.12-12.14-31.62-26.16l4.43-1.3
			C226.63,265.95,236.7,273.83,252.42,276.63z M240.93,251.3v4.94h-23.34l1.46-4.94H240.93z"/>
		<path class="st5" d="M279.65,240.37v4.13h-19.09v-4.13H279.65z M267.07,262.19v18.48h-4.48v-18.48H267.07z M277.74,247.68v3.95
			H262.7v-3.95H277.74z M277.74,254.87v3.95H262.7v-3.95H277.74z M278.31,262.19v16.04h-13.6v-4.19h9.32v-7.7h-9.32v-4.16H278.31z
			 M270.51,231.61c1.29,2.21,2.65,5.14,3.25,7.08l-4.5,1.67c-0.52-2-1.85-5.07-3.03-7.34L270.51,231.61z M292.65,233.47
			c-2.71,6.04-7,12.08-11.16,15.92c-0.78-0.93-2.66-2.74-3.75-3.59c4.08-3.34,7.91-8.54,10.15-13.79L292.65,233.47z M292.97,261.51
			c-0.74,9.01-2.71,16.1-11.4,20.12c-0.57-1.2-1.96-3.01-3.03-3.92c7.48-3.18,8.87-8.98,9.44-16.2H292.97z M305.24,245.86v16.58
			h-21.44v-16.58H305.24z M288.64,257.96h11.53v-7.58h-11.53V257.96z M299.37,231.49c4.21,4.45,9.28,10.54,11.47,14.59l-3.9,2.8
			c-2.1-4.07-6.96-10.39-11.15-15.02L299.37,231.49z M301.39,260.25v14.19c0,1.41,0.15,1.6,1.07,1.6c0.43,0,2.17,0,2.67,0
			c1.01,0,1.2-0.75,1.33-6.17c0.98,0.84,3.07,1.65,4.43,1.97c-0.49,7.03-1.76,8.87-5.16,8.87c-0.87,0-3.28,0-4.11,0
			c-4.26,0-5.2-1.51-5.2-6.24v-14.22H301.39z"/>
		<path class="st5" d="M330.26,257.12l0.83-0.11l2.49,0.92c-1.83,11.72-6.3,19.46-12.43,23.54c-0.66-1.01-2.34-2.75-3.33-3.45
			c5.78-3.59,9.79-10.37,11.21-20.08v-0.82H330.26z M318.12,257.61c0.82-0.22,1.72-0.6,2.7-1.69c1.65-1.6,6.77-8.71,8.6-11.61v-0.17
			l1.41-0.59l3.21,1.48c-2.58,3.67-7.46,10.5-10.57,13.96c0,0-3.62,1.77-3.62,2.96C319.57,260.84,318.6,258.58,318.12,257.61z
			 M330.65,243.82v4.16H319v-4.16H330.65z M319.85,258.18l2.11-1.06h8.63l-0.03,4.04h-7.43c-1.36,0-2.84,0.35-3.28,0.79V258.18z
			 M324.5,231.33c2.52,2.61,5.53,6.02,7.06,8.2l-3.89,2.8c-1.49-2.27-4.53-6.02-6.97-8.7L324.5,231.33z M349.36,276.09
			c5.71,0,14.05-0.28,19.84-0.81c-0.75,1.07-1.42,3.41-1.67,4.8c-5.29,0.33-12.13,0.47-18.23,0.47c-12.58,0-19.48-1.57-23.51-11.09
			l3.43-1.47C332.33,275.16,339.07,276.06,349.36,276.09z M367.84,237.51v3.91h-34.33v-3.91H367.84z M363.6,258.72v13.28h-26.59
			v-13.28H363.6z M363.24,244.59v3.71h-25.63v-3.71H363.24z M363.24,251.64v3.71h-25.63v-3.71H363.24z M341.83,268.24h16.73v-5.76
			h-16.73V268.24z M350.15,230.59c1.39,1.7,3.13,4.14,3.97,5.69l-4.95,2.1c-0.71-1.58-2.39-4.12-3.74-5.95L350.15,230.59z"/>
		<path class="st5" d="M391.58,261.5c-1.76,8.94-5.65,15.7-11.59,19.96c-0.76-0.93-2.71-2.8-3.86-3.58c5.63-3.56,9-9.5,10.36-17.11
			L391.58,261.5z M425.44,254.78v4.52h-47.75v-4.52H425.44z M419.84,233.36v18.27h-36.77v-18.27H419.84z M410.07,275.61
			c2.46,0.03,13.36,0,16.63-0.09c-0.75,1.16-1.52,3.42-1.78,4.88h-15.09c-12.56,0-19.91-2.23-24.23-13.29l4.25-1.48
			C392.98,274.08,399.98,275.58,410.07,275.61z M388.01,240.72h26.64v-3.62h-26.64V240.72z M388.01,247.89h26.64v-3.67h-26.64
			V247.89z M404.61,256.94v20.23h-5.15v-20.23H404.61z M421.95,264.44v4.46h-20.2v-4.46H421.95z"/>
		<path class="st5" d="M460.62,257.59l0.37,4.6c-8.8,1.99-18.27,4.04-25.15,5.51l-1.36-5.15
			C440.93,261.48,451.13,259.48,460.62,257.59z M483.71,247v4.83h-48.33V247H483.71z M460.51,236.12
			c-6.62,2.16-15.77,3.74-23.56,4.74c-0.23-1.22-0.9-3.12-1.5-4.28c7.58-1.08,16.19-2.87,21.5-4.77L460.51,236.12z M451.5,237.29
			v37.84c0,3.02-0.66,4.48-2.59,5.29c-1.9,0.81-4.95,0.99-9.39,0.96c-0.23-1.4-1.1-3.73-1.83-5.15c3.26,0.14,6.43,0.11,7.4,0.06
			c0.95-0.02,1.27-0.29,1.27-1.2v-37.8H451.5z M481.49,255.93c-5.42,9.95-14.27,18.34-24.15,23.54c-0.75-1.25-2.2-2.95-3.48-4.09
			c9.46-4.47,18.29-12.35,23.12-21.38L481.49,255.93z M467.67,231.75c-0.23,23.43,4.86,44.63,10.73,44.63c1.32,0,1.96-2.7,2.25-9.41
			c1.1,1.17,2.89,2.34,4.25,2.87c-0.85,9.21-2.59,11.73-7.01,11.73c-10.83,0-15.35-24.75-15.55-49.82H467.67z M474.36,232.75
			c3.04,2.62,6.73,6.33,8.43,8.87l-4.15,2.92c-1.53-2.56-5.07-6.42-8.14-9.15L474.36,232.75z"/>
		<path class="st5" d="M507.24,232.86c-3.05,9.4-7.96,19.19-13.38,25.56c-0.43-1.23-1.72-4.06-2.55-5.38
			c4.56-5.26,8.72-13.38,11.21-21.53L507.24,232.86z M502.91,240.71l0.14,0.11v40.55h-4.86v-35.94L502.91,240.71z M512.28,234.33
			v46.93h-4.74v-46.93H512.28z M520.75,242.37v3.76h-10.29v-3.76H520.75z M522.42,234.33v20.09h-11.68v-3.95h7.73v-12.19h-7.73
			v-3.95H522.42z M538.4,238.28h-9.01v12.19h9.01v3.95h-13.12v-20.09h13.12V238.28z M540.88,234.33v40.8c0,3.02-0.68,4.47-2.66,5.25
			c-2.01,0.84-5.28,0.93-10.37,0.93c-0.22-1.37-1.03-3.61-1.72-4.93c3.64,0.17,7.39,0.14,8.47,0.09c1.02-0.02,1.4-0.35,1.4-1.4
			v-40.74H540.88z M537.57,242.37v3.76h-10.38v-3.76H537.57z"/>
		<path class="st5" d="M136.15,329.9v39.9h-4.67v-39.9H136.15z M148.63,344.65v4.46h-14.4v-4.46H148.63z M150.95,329.9v35.74h-16.48
			v-4.55h11.81v-26.7h-11.81v-4.49H150.95z M145.02,322.01c-1.15,3.47-2.51,7.26-3.58,9.73l-4.1-0.97c0.84-2.7,1.77-6.78,2.14-9.67
			L145.02,322.01z M163.99,322.22c-2.04,8-5.38,16.05-9.07,21.21c-0.9-0.82-3.02-2.28-4.21-2.95c3.65-4.68,6.64-12.08,8.37-19.4
			L163.99,322.22z M160.5,342.05c2.88,3.79,6.55,8.98,8.26,12.17l-4.33,2.69c-1.57-3.29-5.09-8.65-7.92-12.59L160.5,342.05z
			 M174.61,329.62v4.7h-16.22v-4.7H174.61z M177.57,329.62c0,0,0,1.79-0.03,2.45c-0.79,24.55-1.47,33.03-3.67,35.76
			c-1.34,1.8-2.68,2.31-4.72,2.57c-1.92,0.24-5.15,0.16-8.24,0c-0.11-1.42-0.76-3.57-1.69-4.95c3.5,0.3,6.74,0.32,8.05,0.32
			c1.08,0,1.7-0.17,2.33-0.9c1.77-1.91,2.56-11.01,3.21-34.23v-1.03H177.57z"/>
		<path class="st5" d="M198.46,339.76c-1.88,7.62-5.47,17.33-9.25,22.54c-0.51-1.49-1.74-3.68-2.59-5
			c3.48-4.39,7.09-12.59,8.68-18.85L198.46,339.76z M205.81,336.58v4.77h-17.86v-4.77H205.81z M205.89,325.66
			c-4.57,1.93-10.88,3.29-16.2,4.12c-0.2-1.11-0.89-2.82-1.46-3.95c5.17-0.99,10.96-2.57,14.54-4.3L205.89,325.66z M199.72,325.71
			v45.59h-4.74v-45.59H199.72z M205.91,350.97l-3.06,4.09c-1.08-2.75-4.15-8.66-5.54-10.95l2.23-2.02
			C200.71,343.45,205,349.48,205.91,350.97z M234.27,325.54c-5.28,19.35-13.62,34.86-26.35,44.64c-0.84-0.96-2.93-2.71-4.12-3.52
			c12.83-8.91,20.81-23.83,25.58-42.11L234.27,325.54z M211.98,338.72c-0.54,5.6-1.58,13.01-3.46,17.38l-4-1.34
			c1.97-4.4,3.12-11.35,3.62-16.93L211.98,338.72z M215.98,321.07c3.38,2.18,8.02,5.5,10.26,7.74l-3.24,3.91
			c-2.14-2.3-6.67-5.81-10.11-8.2L215.98,321.07z M219.11,333.4v30.17c0,2.24,0.26,2.61,2.12,2.61c0.86,0,4.71,0,5.69,0
			c1.76,0,2.03-1.36,2.28-7.81c1.07,0.86,3.04,1.67,4.38,1.99c-0.52,7.88-1.79,10.32-6.24,10.32c-1.03,0-5.78,0-6.78,0
			c-5.02,0-6.33-1.58-6.33-7.16V333.4H219.11z M232.36,340.07c2.22,5.05,4.24,11.51,5,15.86l-4.65,1.34
			c-0.65-4.35-2.66-10.96-4.71-15.99L232.36,340.07z"/>
		<path class="st5" d="M284.06,334.26c-8.33,10.09-22.38,16.82-36.21,20.84c-0.61-1.1-2.05-3.22-2.96-4.23
			c13.96-3.35,27.52-9.7,34.88-18.76L284.06,334.26z M256.67,338.58c-1.72,3.4-4.07,7.41-7.11,9.99l-4.13-2.49
			c3.03-2.32,5.61-6.13,7.08-9.35L256.67,338.58z M293.14,325.56v10.91h-5.19v-6.36h-35.89v6.36h-5v-10.91H293.14z M256.51,356.04
			v8.14h30.14v4.8H251.5v-12.93H256.51z M263.65,336.04v9.82c0,1.55,0.59,1.82,3.65,1.82c1.41,0,8.26,0,10.14,0
			c2.5,0,2.95-0.72,3.17-5.58c1.03,0.72,2.92,1.38,4.19,1.64c-0.6,6.43-1.99,8-7,8c-1.36,0-9.57,0-10.84,0
			c-6.28,0-7.89-1.24-7.89-5.82v-9.88H263.65z M264.11,330.27c3.28,1.33,7.4,3.56,9.46,5.32l-2.62,3.28c-1.97-1.81-6-4.19-9.31-5.61
			L264.11,330.27z M271.24,320.56c0.89,2.06,1.74,4.76,2.01,6.47l-5.16,0.98c-0.21-1.73-0.94-4.52-1.73-6.63L271.24,320.56z
			 M272.53,353.27v13.42h-5.18v-13.42H272.53z M285.83,337.04c3.3,2.84,7.3,6.92,9.08,9.74l-3.89,2.78
			c-1.68-2.79-5.52-7.06-8.85-10.05L285.83,337.04z M288.96,355.41v15.66h-5.1v-15.66H288.96z"/>
		<path class="st5" d="M308.64,353.73c4.47-1.67,6.91-4.35,6.91-8l-0.74-4.86l2.95,4.4c-0.82,0.9-1.91,1.21-3.02,1.21
			c-2.42,0-4.51-1.5-4.51-4.28c0-2.74,2.13-4.3,4.61-4.3c3.36,0,5.15,2.63,5.15,6.74c0,5.95-3.8,10.62-9.92,12.59L308.64,353.73z"/>
		<path class="st5" d="M366.07,328.79c-6.13,11.25-16.09,22.06-28.39,28.51c-0.81-1.32-2.42-3.4-3.5-4.54
			c11.65-5.68,21.47-16.08,26.27-25.98L366.07,328.79z M382.41,324.9v5.21H335.7v-5.21H382.41z M361.79,333.02v38.15h-5.54v-32.63
			L361.79,333.02z M365.85,338.36c6.09,4.14,14.35,10.29,18.33,14.49l-4.25,3.93c-3.71-4.23-11.76-10.69-17.98-15.12L365.85,338.36z
			"/>
		<path class="st5" d="M400.28,340.5v12.83c0,5.59-0.66,13.17-4.46,18.08c-0.68-0.98-2.57-2.84-3.56-3.48
			c3.02-4.2,3.3-10.01,3.3-14.67V340.5H400.28z M393.37,333.16c0.93-0.2,1.83-0.98,2.91-2.17c1.07-1.16,4.54-5.47,6.69-9.8
			l5.18,1.59c-2.93,4.7-6.79,9.49-10.17,12.51v0.08c0,0-2.98,1.53-2.98,2.47C394.73,336.83,393.92,334.44,393.37,333.16z
			 M394.84,334.11l2.52-1.52l16.86-1.24c0.18,1.3,0.62,3.04,0.96,4.08c-16.5,1.49-18.72,1.8-20.18,2.4L394.84,334.11z M412.98,340.5
			v4.31h-15v-4.31H412.98z M411.75,354.34l0.98,3.15c-4.01,2.57-8.12,5.16-11.63,7.29l-1.65-4.36
			C402.59,359.04,407.19,356.68,411.75,354.34z M402.93,347.21c2.58,1.66,5.99,4.02,7.75,5.49l-2.74,2.74
			c-1.7-1.58-5.08-4.07-7.66-5.82L402.93,347.21z M415.2,340.5v25.69c0,2.31-0.47,3.47-2.04,4.19c-1.59,0.66-3.97,0.72-7.33,0.72
			c-0.23-1.19-0.95-2.95-1.58-4.09c2.28,0.11,4.49,0.08,5.2,0.06c0.73,0,0.92-0.22,0.92-0.89V340.5H415.2z M411.93,325.13
			c2.47,3.83,5.46,9.01,6.8,12.23l-4.43,1.89c-1.2-3.27-4.09-8.63-6.54-12.58L411.93,325.13z M424.75,321.28v16.44
			c0,1.97,0.39,2.68,2.13,2.68c1.43,0,7.55,0,9.1,0c1.38,0,3.62-0.11,4.72-0.37c0.08,1.33,0.28,3.22,0.48,4.38
			c-1,0.29-3.11,0.37-5.09,0.37c-1.57,0-8.15,0-9.34,0c-5.52,0-7.04-1.94-7.04-7.18v-16.33H424.75z M424.75,346.49v17.69
			c0,1.86,0.44,2.17,2.82,2.17c1.04,0,6.25,0,7.7,0c2.06,0,2.44-0.96,2.69-6.44c1.09,0.81,3.13,1.59,4.52,1.88
			c-0.6,7.09-2,9.05-6.76,9.05c-1.3,0-7.58,0-8.79,0c-5.75,0-7.21-1.5-7.21-6.63v-17.72H424.75z M438.79,328.28v4.43h-16.01v-4.43
			H438.79z M439.3,352.48v4.57h-16.49v-4.57H439.3z"/>
		<path class="st5" d="M498.87,340.81v4.77h-47.63v-4.77H498.87z M465.87,322.76c-2.31,6.63-6.07,13.14-9.78,17.33
			c-1.06-0.79-3.38-2.12-4.66-2.75c3.96-3.76,7.35-9.83,9.34-15.83L465.87,322.76z M493.05,350.28v21.21h-5.38v-16.51h-24.75v16.63
			h-5.2v-21.33H493.05z M495.17,328.64v4.67h-35.09v-4.67H495.17z M490.22,364.01v4.74h-29.79v-4.74H490.22z M478.95,321.18v22.47
			h-5.37v-22.47H478.95z"/>
		<path class="st5" d="M528.04,330.26v4.13h-19.95v-4.13H528.04z M525.82,337.57v3.95h-15.57v-3.95H525.82z M525.88,344.76v3.95
			h-15.63v-3.95H525.88z M514.8,352.08v18.48h-4.4v-18.48H514.8z M525.86,352.08v16.04h-13.53v-4.19h9.37v-7.7h-9.37v-4.16H525.86z
			 M518.29,321.14c1.34,2.22,2.75,5.19,3.43,7.14l-4.51,1.64c-0.62-2.01-2-5.13-3.2-7.39L518.29,321.14z M535.91,326.34v18.34
			c0,8.01-0.8,19.39-5.94,26.55c-0.84-0.93-2.95-2.62-4.1-3.21c4.64-6.6,5.01-16.09,5.01-23.37v-18.31H535.91z M555.68,325.04
			c-6.4,2.42-15.49,4.26-23.19,5.34c-0.26-1.08-1.01-2.97-1.61-4.04c7.3-1.16,15.61-3.08,20.34-5.04L555.68,325.04z M557.6,338.49
			v4.77h-23.09v-4.77H557.6z M548.43,341.15v30.08h-4.86v-30.08H548.43z M547.13,347.39c3.53,2.99,8.51,7.18,10.94,9.67l-3.01,3.75
			c-2.36-2.66-7.23-7.04-10.76-10.21L547.13,347.39z"/>
		<path class="st5" d="M278.82,413c-3.82,9.47-9.94,19.06-16.31,25.21c-0.55-1.26-2.11-4-3.06-5.26
			c5.68-5.16,11.1-13.24,14.35-21.53L278.82,413z M273.14,421.27l0.06,0.08v39.69h-5.04v-34.77L273.14,421.27z M310.84,434.21v4.92
			H276.1v-4.92H310.84z M309.6,454.28v4.89h-31.87v-4.89H309.6z M308.65,416.14v4.83h-29.22v-4.83H308.65z M296.16,419.12v36.95H291
			v-36.95H296.16z"/>
		<path class="st5" d="M335.31,412.57c-3.31,9.04-8.63,18.38-14.26,24.43c-0.46-1.2-1.9-3.96-2.79-5.19
			c4.88-5.01,9.49-12.88,12.25-20.74L335.31,412.57z M330.57,420.57l0.05,0.05v40.44h-5.09v-35.45L330.57,420.57z M368.68,416.08
			v4.89h-33.52v-4.89H368.68z M341.13,427.81v22.74h-4.8v-22.74H341.13z M353.76,427.81v19.08h-15.3v-4.46H349v-10.17h-10.54v-4.46
			H353.76z M365.01,417.85v36.84c0,3.26-0.74,4.71-2.87,5.55c-2.13,0.78-5.76,0.93-10.92,0.9c-0.2-1.45-1.01-3.72-1.76-5.22
			c3.95,0.16,7.83,0.14,9,0.09c1.1-0.02,1.45-0.32,1.45-1.36v-36.8H365.01z"/>
		<path class="st5" d="M404.14,411.21c-0.28,10.25-0.68,37.1-23.44,49.79c-0.9-1.34-2.56-2.98-4.21-4.09
			c22.28-11.55,21.66-37.01,21.86-45.7H404.14z M426.91,456.37c-1.53,1.18-3,2.95-3.75,4.38c-21.67-10.22-23.71-37.39-24.47-42.38
			l4.9-0.53C404.04,421.9,406.04,447.07,426.91,456.37z"/>
	</g>
</g>
</svg>
