<?xml version="1.0" encoding="utf-8"?>
<!-- Generator: Adobe Illustrator 25.2.3, SVG Export Plug-In . SVG Version: 6.00 Build 0)  -->
<svg version="1.1" id="圖層_3" xmlns="http://www.w3.org/2000/svg" xmlns:xlink="http://www.w3.org/1999/xlink" x="0px" y="0px"
	 viewBox="0 0 686 686" style="enable-background:new 0 0 686 686;" xml:space="preserve">
<style type="text/css">
	.st0{fill:#F7F8F8;}
	.st1{fill:#DCDDDD;}
	.st2{fill:#FFFFFF;}
	.st3{fill:#B5B5B6;}
	.st4{fill:#44BABC;}
	.st5{fill:#1D2088;}
</style>
<g>
	<g>
		<g>
			<rect x="-0.2" y="-0.2" class="st0" width="686.39" height="686.39"/>
		</g>
		<g>
			<polygon class="st1" points="686.2,-0.2 621.79,64.21 621.79,334.54 686.2,334.54 			"/>
		</g>
		<g>
			<polygon class="st1" points="686.2,686.2 621.79,621.79 621.79,305.4 686.2,305.4 			"/>
		</g>
		<g>
			<polygon class="st2" points="-0.2,-0.2 64.21,64.21 334.54,64.21 334.54,-0.2 			"/>
		</g>
		<g>
			<polygon class="st2" points="686.2,-0.2 621.79,64.21 305.4,64.21 305.4,-0.2 			"/>
		</g>
		<g>
			<polygon class="st3" points="686.2,686.2 621.79,621.79 351.46,621.79 351.46,686.2 			"/>
		</g>
		<g>
			<polygon class="st3" points="-0.2,686.2 64.21,621.79 380.6,621.79 380.6,686.2 			"/>
		</g>
	</g>
	<g>
		<g>
			<path class="st4" d="M323.53,178.17h-7.56v-16.08h8.88v14.88h7.32v7.32h21v-7.32h7.44v-21h-7.44v-7.44h-22.2v-8.76h22.2v-7.32
				h7.44v-21h-7.44v-7.44h-21v7.44h-7.32v14.88h-8.88v-16.2h7.56v-7.44h7.44v-7.32h23.52v7.32h7.32v7.44h7.44v23.52h-7.44v7.44
				h-7.32v6.12h7.32v7.44h7.44v23.52h-7.44v7.44h-7.32v7.56h-23.52v-7.56h-7.44V178.17z"/>
		</g>
	</g>
	<g>
		<path class="st5" d="M222.1,281.56v4.37H174.5v-4.37H222.1z M219.04,302.37v4.23h-37.83v19.67h-4.95v-23.9H219.04z M215.03,288.53
			v11.19h-32.78v-11.19H215.03z M191.2,309.27v14.03h-4.76v-14.03H191.2z M187.35,296.16h22.33v-4.04h-22.33V296.16z M209.65,309.27
			v11.54h-20.49v-3.65h15.96v-4.24h-15.96v-3.65H209.65z M199.76,275.92c0.95,2.29,2.13,5.35,2.63,7.18l-5.41,1.51
			c-0.43-1.9-1.49-5.09-2.33-7.48L199.76,275.92z M220.59,302.37v18.92c0,2.34-0.57,3.34-2.31,4c-1.68,0.57-4.25,0.6-7.86,0.57
			c-0.26-1.16-0.95-2.72-1.55-3.76c2.24,0.11,4.95,0.09,5.6,0.06c0.71-0.02,0.99-0.22,0.99-0.88v-18.91H220.59z"/>
		<path class="st5" d="M240.38,313.83c-1.21,3.63-3.31,7.44-5.37,9.89c-0.75-0.64-2.4-1.84-3.34-2.42c2-2.21,3.73-5.39,4.73-8.46
			L240.38,313.83z M257.64,300.64v3.89h-25.53v-3.89H257.64z M255.4,280.12v4.13h-22.76v-4.13H255.4z M256.82,290.5v3.86h-23.98
			v-3.86H256.82z M257.06,307.88v3.95h-24.19v-3.95H257.06z M240.36,294.38c1.16,1.75,2.23,4.22,2.59,5.9l-4.1,1.48
			c-0.28-1.7-1.23-4.27-2.36-6.13L240.36,294.38z M245.85,286.17c1.08,1.9,2.35,4.52,2.94,6.17l-5.17,1.55
			c-0.5-1.67-1.65-4.41-2.65-6.39L245.85,286.17z M247.5,302.97v23.05h-4.83v-23.05H247.5z M248.69,276.14v10.22h-5.04v-10.22
			H248.69z M253.51,295.47c-1.11,2.52-2.28,5.1-3.28,6.83l-3.84-1.08c0.91-1.9,2.11-4.89,2.68-6.91L253.51,295.47z M252.55,312.33
			c1.5,2.25,3.15,5.16,3.91,7.09l-3.54,2.1c-0.73-2.01-2.38-5.12-3.74-7.4L252.55,312.33z M264.49,291.03v14.45
			c0,6.37-0.7,15.16-4.72,20.79c-0.69-0.9-2.56-2.68-3.54-3.27c3.34-5.04,3.61-12.06,3.61-17.58v-14.39H264.49z M280.64,280.12v4.13
			H257.6v-4.13H280.64z M280.36,290.77c-5.31,1.89-12.74,3.24-19.06,4.01c-0.23-1.02-0.89-2.73-1.46-3.74
			c6-0.86,12.76-2.38,16.69-3.9L280.36,290.77z M281.05,301.18v4.46h-19.42v-4.46H281.05z M269.41,276.17v11.32h-5.04v-11.32H269.41
			z M275.08,303.06v23.05h-4.85v-23.05H275.08z"/>
		<path class="st5" d="M329.97,279.69l0.87-0.26l3.52,1.6c-6.04,25.14-22.08,38.62-41.73,44.66c-0.52-1.32-2.1-3.72-3.23-4.77
			c19.23-5.38,34.35-17.34,39.62-40.18v-1.05H329.97z M330.46,279.69v5.04H292.8v-5.04H330.46z M340,321.01
			c-1.14,1.08-2.69,3.31-3.44,4.71c-21.53-5.71-33.25-19.97-39.89-40.78l4.89-1.37C307.25,302.36,319.31,316.01,340,321.01z"/>
		<path class="st5" d="M361.53,285.38v10.2c0,8.89-1.58,21.8-10.71,30c-0.67-0.98-2.53-2.79-3.49-3.46
			c8.51-7.62,9.46-18.55,9.46-26.63v-10.12H361.53z M356.77,277.07c-1.01,7.06-2.85,14.11-5.47,18.72c-0.81-0.73-2.81-2.09-3.94-2.7
			c2.47-4.12,3.95-10.52,4.77-16.87L356.77,277.07z M368.48,297.55v4.59h-20.84v-4.59H368.48z M367.93,283.32v4.56h-15.21v-4.56
			H367.93z M368.53,315.79l-3.36,4.2c-1.78-3.21-6.12-9.68-8.04-12.25l3.04-2.73C361.78,306.7,367.27,314.08,368.53,315.79z
			 M397.56,320.12v4.74h-30.13v-4.74H397.56z M396.87,278.47v4.74h-27.24v-4.74H396.87z M395.03,288.24v17.71H371.3v-17.71H395.03z
			 M376.86,307.52c1.64,3.38,3.13,7.83,3.65,10.76l-4.54,1.25c-0.45-2.91-1.89-7.47-3.37-10.88L376.86,307.52z M376.03,301.43h14.04
			v-8.67h-14.04V301.43z M393.68,308.22c-1.76,4.87-3.98,10.6-5.8,14.12l-4.28-1.07c1.8-3.68,3.92-9.76,4.99-14.14L393.68,308.22z"
			/>
		<path class="st5" d="M455.12,317.2v5.13h-48.88v-5.13H455.12z M452.26,282.06v5.31h-43.13v-5.31H452.26z M433.32,284.87v34.42
			h-5.76v-34.42H433.32z"/>
		<path class="st5" d="M470.2,279.62v40.71h-4.76v-40.71H470.2z M481.54,279.62v36.12h-13.67v-4.59h8.9v-26.92h-8.9v-4.61H481.54z
			 M479.05,295.16v4.52h-10.94v-4.52H479.05z M513.53,282.35v4.53h-31.02v-4.53H513.53z M513.33,302.74v4.5h-30.66v-4.5H513.33z
			 M511.92,293.06v4.47h-27.3v-4.47H511.92z M489.7,308.62c2.42,2.7,5.45,6.53,6.83,8.99l-4.49,2.69c-1.26-2.48-4.15-6.48-6.57-9.34
			L489.7,308.62z M507.51,296.84v23.77c0,2.66-0.58,4.03-2.45,4.79c-1.88,0.75-4.69,0.84-8.91,0.84c-0.2-1.38-0.95-3.41-1.67-4.8
			c3.03,0.11,6.04,0.11,6.9,0.08c0.86-0.02,1.13-0.23,1.13-1.01v-23.68H507.51z M500.54,276.14v19.48h-5.04v-19.48H500.54z"/>
		<path class="st5" d="M180.45,374.9v39.93h-4.67V374.9H180.45z M192.93,389.66v4.47h-14.41v-4.47H192.93z M195.26,374.9v35.77
			h-16.49v-4.55h11.82V379.4h-11.82v-4.5H195.26z M189.32,367c-1.15,3.48-2.51,7.27-3.59,9.74l-4.1-0.97
			c0.84-2.7,1.77-6.79,2.15-9.67L189.32,367z M208.31,367.21c-2.05,8.01-5.39,16.07-9.08,21.23c-0.91-0.82-3.03-2.28-4.21-2.95
			c3.66-4.69,6.65-12.09,8.37-19.42L208.31,367.21z M204.82,387.06c2.88,3.79,6.56,8.99,8.27,12.17l-4.34,2.7
			c-1.57-3.29-5.09-8.66-7.93-12.6L204.82,387.06z M218.93,374.62v4.7H202.7v-4.7H218.93z M221.9,374.62c0,0,0,1.79-0.03,2.45
			c-0.79,24.57-1.47,33.05-3.67,35.79c-1.34,1.8-2.68,2.31-4.72,2.58c-1.92,0.24-5.15,0.16-8.25,0c-0.11-1.42-0.76-3.58-1.69-4.95
			c3.5,0.3,6.74,0.32,8.06,0.32c1.08,0,1.7-0.17,2.33-0.9c1.77-1.91,2.56-11.02,3.21-34.26v-1.03H221.9z"/>
		<path class="st5" d="M280.97,407.2v5.13h-48.88v-5.13H280.97z M278.11,372.06v5.31h-43.13v-5.31H278.11z M259.17,374.87v34.42
			h-5.76v-34.42H259.17z"/>
		<path class="st5" d="M307.02,367.94c-3.53,9.18-9.11,18.67-15.03,24.76c-0.49-1.23-1.96-4.08-2.88-5.32
			c5.17-5.08,10.06-13,12.98-21L307.02,367.94z M301.58,375.61l0.05,0.08v40.53h-5.16v-35.47L301.58,375.61z M320.57,368.06
			c-3.05,8.66-7.79,17.35-12.76,22.92c-0.79-0.91-2.79-2.72-3.92-3.53c4.84-4.96,9.17-12.81,11.76-20.67L320.57,368.06z
			 M339.66,375.12v4.88h-28.13l2.42-4.88H339.66z M323.51,376.73v39.54h-5.25v-39.54H323.51z M339.09,398.83v4.79H320.8v-4.79
			H339.09z M338.37,386.89v4.68h-17.54v-4.68H338.37z"/>
		<path class="st5" d="M370.61,377.18l-0.03,4.62c-8.08,0.52-16.57,1.04-22.71,1.42l-0.51-4.88
			C353.29,378.12,362.12,377.66,370.61,377.18z M367.6,373.88v5.57c0,10.48-1.3,26.02-16.5,36.98c-0.75-1.1-2.5-2.77-3.63-3.56
			c14.25-9.98,15.36-24.09,15.36-33.48v-5.51H367.6z M353.93,366.3l5.04,0.26c-1.02,9.97-3.53,22.69-5.67,30.63l-4.66-1.49
			C350.81,388.29,353.17,375.79,353.93,366.3z M351.71,392.15c6.1,4.79,14.51,11.75,18.38,16.26l-3.35,4.25
			c-3.77-4.66-11.91-11.9-18.08-16.96L351.71,392.15z M397.62,388.82v4.86h-28.83v-4.86H397.62z M392.2,369.87v4.65h-21.1v-4.65
			H392.2z M386.13,383.08v27.46c0,2.79-0.64,4.16-2.6,4.94c-1.92,0.75-4.71,0.87-8.96,0.84c-0.28-1.41-1.08-3.5-1.78-4.87
			c2.98,0.08,6.03,0.08,6.89,0.06c0.87-0.02,1.17-0.26,1.17-1.05v-27.39H386.13z M391.64,369.87l1.19-0.28l3.5,2.5
			c-3.17,4.8-7.88,10.44-12.52,13.89c-0.66-0.89-2.11-2.2-2.96-2.89c3.65-3.11,7.57-8.5,9.44-12.08v-1.13H391.64z"/>
		<path class="st5" d="M423.91,375.16v4.13h-18.43v-4.13H423.91z M411.97,397.27v18.38h-4.25v-18.38H411.97z M422.63,382.62v3.95
			h-14.79v-3.95H422.63z M422.63,389.9v3.95h-14.79v-3.95H422.63z M413.93,366.42c1.96,2.09,3.94,5,4.87,6.99l-4.07,2.28
			c-0.85-2.06-2.83-5.17-4.71-7.36L413.93,366.42z M422.69,397.27v15.99h-12.5v-4.1h8.25v-7.8h-8.25v-4.1H422.69z M439.49,379.68
			c-3.03,5.59-8.54,10.84-13.92,13.52c-0.72-1.13-2.17-2.87-3.21-3.74c5.19-2.14,10.52-6.57,13.22-11.17L439.49,379.68z
			 M437.21,394.26c-0.57,10.71-2.31,18.12-11.66,22.2c-0.52-1.14-1.84-2.87-2.86-3.74c8.07-3.33,9.26-9.43,9.72-18.46H437.21z
			 M455.55,376.52v4.35h-30.62v-4.35H455.55z M453.59,370.16c-6.98,1.82-17.44,2.76-26.12,3.03c-0.14-1.13-0.75-2.84-1.24-3.91
			c8.39-0.41,18.36-1.36,24.02-2.83L453.59,370.16z M443.73,392.81v4.38h-17.11v-4.38H443.73z M442.3,371v20.49h-4.74V371H442.3z
			 M443.64,378.11c4.11,3.35,9.44,8.07,12.01,11.16l-3.59,2.9c-2.4-3.09-7.61-8.01-11.75-11.53L443.64,378.11z M454.18,399.52
			c0,0-0.08,1.25-0.17,1.87c-0.61,8.43-1.26,12-2.57,13.43c-0.95,1.02-1.98,1.38-3.48,1.53c-1.3,0.09-3.76,0.1-6.33-0.03
			c-0.08-1.28-0.58-3.08-1.27-4.29c2.3,0.24,4.55,0.26,5.44,0.26c0.84,0,1.31-0.05,1.77-0.49c0.82-0.85,1.41-3.88,1.88-11.65v-0.63
			H454.18z M448.12,392.81c-0.73,3.71-1.62,7.99-2.38,10.84h-4.64c0.79-2.98,1.67-7.27,2.23-10.84H448.12z M451.01,399.52v4.13
			h-7.88l0.88-4.13H451.01z"/>
		<path class="st5" d="M491.28,366.31c-0.28,10.26-0.68,37.13-23.46,49.83c-0.91-1.34-2.56-2.98-4.21-4.1
			c22.3-11.56,21.68-37.04,21.88-45.73H491.28z M514.07,411.51c-1.53,1.18-3,2.95-3.76,4.38c-21.69-10.23-23.73-37.42-24.49-42.41
			l4.9-0.53C491.18,377.01,493.18,402.2,514.07,411.51z"/>
	</g>
</g>
</svg>
