<?xml version="1.0" encoding="utf-8"?>
<!-- Generator: Adobe Illustrator 25.2.3, SVG Export Plug-In . SVG Version: 6.00 Build 0)  -->
<svg version="1.1" id="圖層_1" xmlns="http://www.w3.org/2000/svg" xmlns:xlink="http://www.w3.org/1999/xlink" x="0px" y="0px"
	 viewBox="0 0 686 686" style="enable-background:new 0 0 686 686;" xml:space="preserve">
<style type="text/css">
	.st0{fill:#00A0E9;}
	.st1{fill:#036EB8;}
	.st2{fill:#69D8FF;}
	.st3{fill:#0054A8;}
	.st4{fill:#FFFFFF;}
	.st5{fill:#1D2088;}
</style>
<g>
	<g>
		<g>
			<rect x="-0.2" y="-0.2" class="st0" width="686.39" height="686.39"/>
		</g>
		<g>
			<polygon class="st1" points="686.2,-0.2 621.79,64.21 621.79,334.54 686.2,334.54 			"/>
		</g>
		<g>
			<polygon class="st1" points="686.2,686.2 621.79,621.79 621.79,305.4 686.2,305.4 			"/>
		</g>
		<g>
			<polygon class="st2" points="-0.2,-0.2 64.21,64.21 334.54,64.21 334.54,-0.2 			"/>
		</g>
		<g>
			<polygon class="st2" points="686.2,-0.2 621.79,64.21 305.4,64.21 305.4,-0.2 			"/>
		</g>
		<g>
			<polygon class="st3" points="686.2,686.2 621.79,621.79 351.46,621.79 351.46,686.2 			"/>
		</g>
		<g>
			<polygon class="st3" points="-0.2,686.2 64.21,621.79 380.6,621.79 380.6,686.2 			"/>
		</g>
	</g>
	<g>
		<g>
			<g>
				<path class="st4" d="M312.85,169.54h7.44v-7.44h7.32v-14.88h7.08v-14.76h7.32v-14.88h7.32V102.7h7.32v-7.32h8.4v74.16h7.32v8.64
					h-7.32v15h-8.4v-15h-43.8V169.54z M356.65,169.54v-50.64h-6v14.76h-7.32v14.88h-7.32v14.88h-7.32v6.12H356.65z"/>
			</g>
		</g>
		<g>
			<path class="st5" d="M208.36,266.98c-0.48,4.72-1.43,9.82-2.5,13.16c-0.87-0.46-2.68-1.09-3.66-1.37
				c1.21-3.24,1.9-8.07,2.33-12.44L208.36,266.98z M202.34,247.7c0.91-0.25,1.85-1.32,2.89-2.96c1.12-1.56,4.63-7.68,6.62-13.49
				l4.18,1.78c-2.6,5.93-6.13,12.18-9.56,16.46v0.09c0,0-2.7,1.43-2.7,2.34C203.55,251.01,202.86,248.88,202.34,247.7z M202.73,260
				c1.17-0.28,2.32-1.64,3.94-3.67c1.7-2,7.12-9.84,10.46-17.32l3.83,2.39c-3.88,7.44-9.06,15.03-14.1,20.46v0.11
				c0,0-2.75,1.39-2.75,2.29C203.94,263.35,203.22,261.19,202.73,260z M203.69,248.54l2.03-1.34l9.18-0.73
				c-0.24,1.18-0.42,2.86-0.45,3.79c-8.3,0.89-9.79,1.23-10.68,1.67L203.69,248.54z M203.96,260.81l2.05-1.41l14.09-1.95
				c-0.14,1.13-0.21,2.8-0.16,3.72c-12.88,2.04-14.73,2.51-15.84,3.1L203.96,260.81z M213.76,266.03c0.67,3.63,1.28,8.29,1.47,11.41
				l-3.71,0.94c-0.08-3.16-0.67-7.89-1.25-11.53L213.76,266.03z M219.03,252.18c1.43,3.3,2.97,7.66,3.65,10.22l-3.68,1.51
				c-0.56-2.67-2.06-7.14-3.38-10.5L219.03,252.18z M219.34,264.56c1.26,3.31,2.54,7.56,3.14,10.33l-3.45,1.28
				c-0.5-2.85-1.81-7.19-2.93-10.5L219.34,264.56z M248.12,233.64v4.47h-20.53v43.26h-4.58v-47.73H248.12z M245.51,248.15v3.92
				h-16.74v-3.92H245.51z M245.04,257.27v3.95h-15.81v-3.95H245.04z M233.25,239.43c1.23,2.29,2.29,5.44,2.65,7.44l-3.18,1.14
				c-0.3-2.06-1.33-5.23-2.48-7.58L233.25,239.43z M235.17,259.32v6.33c0,1.29,0.18,1.76,1.17,1.76c0.84,0,4.57,0,5.42,0
				c0.88,0,2.39-0.06,3.19-0.28c0.08,1.09,0.19,2.63,0.34,3.61c-0.74,0.25-2.16,0.28-3.41,0.28c-1.02,0-5.12,0-5.93,0
				c-4.02,0-4.9-1.5-4.9-5.42v-6.28H235.17z M237.5,251.84c0.8,1.44,1.76,3.41,2.17,4.62l-3.68,1.44c-0.38-1.32-1.26-3.35-2.03-4.85
				L237.5,251.84z M244.22,240.52c-1.04,3.16-2.14,6.81-3.13,9.16l-2.93-0.93c0.83-2.49,1.97-6.5,2.43-9.21L244.22,240.52z
				 M251.24,233.64v42.33c0,2.48-0.44,3.73-1.95,4.51c-1.51,0.72-3.8,0.84-7.17,0.81c-0.17-1.19-0.74-3.21-1.34-4.42
				c2.12,0.11,4.28,0.08,4.95,0.08c0.7-0.05,0.92-0.27,0.92-1v-42.33H251.24z"/>
			<path class="st5" d="M282.01,269.22l0.49,4.53c-7.51,1.87-15.46,3.76-21.36,5.17l-0.89-4.94
				C265.74,272.97,274.08,271.05,282.01,269.22z M267.08,255.06v19.61h-4.23v-19.61H267.08z M281.08,233.35v17.18h-18.04v-17.18
				H281.08z M267.52,246.12h8.84v-8.37h-8.84V246.12z M275.21,248.57v24.43h-4.58v-24.43H275.21z M281.59,257.7v4.5h-9.22v-4.5
				H281.59z M303.05,236.53l0.92-0.2l3.23,1.39c-4.04,13.38-13.59,22.14-24.17,26.64c-0.61-1.16-1.91-2.94-2.92-3.87
				c9.64-3.63,18.74-12.12,22.04-23.1v-0.86H303.05z M295.42,232.34c-2.4,7.31-6.4,14.24-10.84,18.72c-0.82-0.9-2.82-2.56-3.98-3.32
				c4.34-3.9,7.96-10.1,9.96-16.59L295.42,232.34z M307.11,261.47v19.54h-4.89v-15.2h-12.11v15.36h-4.71v-19.71H307.11z
				 M311.33,259.39c-1.04,0.96-2.5,2.98-3.2,4.29c-11.1-4.59-18.19-14.23-21.51-22.07l3.4-2.5
				C293.14,246.66,300.29,255.53,311.33,259.39z M304.9,274.82v4.44h-17.48v-4.44H304.9z M303.95,236.53v4.38h-14.01v-4.38H303.95z"
				/>
			<path class="st5" d="M335.36,245.07c-3.73,6.53-9.59,13.33-14.92,17.7c-0.42-1.17-1.79-3.94-2.62-5.17
				c4.77-3.48,9.91-8.92,12.98-14.37L335.36,245.07z M334.54,233.26c-3.35,4.83-8.57,10-13.41,13.25c-0.58-1.16-1.84-3.25-2.65-4.27
				c4.19-2.7,8.89-7.17,11.17-10.88L334.54,233.26z M330.71,249.23l0.21,0.11v31.95h-5V254L330.71,249.23z M335.72,277.27
				c0.99-0.57,2.24-1.85,2.24-4.21v-39.58h4.98v43.09c0,0-4.97,2.97-4.97,4.8C337.59,280.23,336.5,278.21,335.72,277.27z
				 M337.55,276.9l2.24-1.76l11.86-2.72c-0.03,1.43,0.05,3.52,0.23,4.63c-10.93,2.89-12.77,3.56-13.91,4.31L337.55,276.9z
				 M363.77,233.48v24.23h-23.31v-4.44h18.33v-15.35h-18.33v-4.44H363.77z M360.28,243.42v4.2h-19.71v-4.2H360.28z M368.75,276.58
				c-1.16,1.04-2.7,3.06-3.46,4.45c-9.83-4.28-15.38-13.19-18.34-25.06l4.18-0.86C353.75,265.22,359.37,273.21,368.75,276.58z
				 M366.79,262.52c-3.14,2.53-7.17,5.2-10.18,6.89l-2.72-3.22c2.87-1.76,7.08-4.9,9.54-7.26L366.79,262.52z"/>
			<path class="st5" d="M397.91,243.31c-0.73,14.12-2.16,29.85-17.34,38.16c-0.78-1.32-2.38-3.1-3.75-4.13
				c14.24-7.31,14.87-21.56,15.43-34.03H397.91z M425.41,240.24v4.95h-47.54v-4.95H425.41z M416.38,252.95v4.94h-21.19v-4.94H416.38
				z M402.75,230.68c1.48,2.49,3.12,5.77,3.94,7.93l-5.22,2.24c-0.67-2.18-2.34-5.67-3.69-8.25L402.75,230.68z M420.36,252.95
				c0,0-0.05,1.6-0.17,2.31c-1.04,15.06-2.15,21.03-4.33,23.24c-1.41,1.55-2.9,2.01-5.18,2.19c-2,0.17-5.57,0.13-9.21-0.08
				c-0.08-1.51-0.82-3.64-1.84-5.01c3.84,0.32,7.62,0.37,9.15,0.37c1.18,0,1.89-0.11,2.6-0.65c1.67-1.5,2.76-7.56,3.63-21.54v-0.83
				H420.36z"/>
			<path class="st5" d="M450.8,232.82c-3.17,9.13-8.23,18.59-13.67,24.76c-0.49-1.23-1.96-3.96-2.87-5.2
				c4.71-5.13,9.11-13.06,11.73-21L450.8,232.82z M445.65,240.9l0.05,0.05v40.26h-4.86v-35.47L445.65,240.9z M469.69,235.5v21.84
				c0,10-2.84,19.35-19.38,24.07c-0.62-1.16-2.08-3.17-3.13-4.19c16.31-3.52,17.46-11.59,17.46-19.92V235.5H469.69z M485.37,276.21
				c-1.13,1.16-2.45,3.33-3.09,4.75c-14.93-1.33-26.07-5.55-32.28-14.57l4.46-1.54C459.61,271.95,470.85,275.36,485.37,276.21z
				 M483.88,234.14v4.52h-33.31v-4.52H483.88z M482.25,242.64v21.09h-30.54v-21.09H482.25z M456.45,251.33h20.85v-4.85h-20.85
				V251.33z M456.45,259.9h20.85v-4.93h-20.85V259.9z"/>
			<path class="st5" d="M161.72,322.97c-3.56,9.18-9.29,18.67-15.27,24.76c-0.49-1.26-1.96-4.11-2.88-5.38
				c5.23-5.05,10.24-12.97,13.22-20.97L161.72,322.97z M156.18,330.72l0.05,0.05v40.44h-5.07v-35.47L156.18,330.72z M194.71,364.5
				v4.77h-35.49v-4.77H194.71z M190.42,324.86v33.39h-26.94v-33.39H190.42z M168.76,339.09h16.14v-9.47h-16.14V339.09z
				 M168.76,353.51h16.14v-9.68h-16.14V353.51z"/>
			<path class="st5" d="M226.15,322.38c-3.68,11.77-10.13,23.78-20.32,30.96c-0.74-1.16-2.34-2.97-3.34-3.96
				c9.45-6.39,15.6-17.73,18.42-28.21L226.15,322.38z M251.32,327.98v4.8h-47.67v-4.8H251.32z M218.85,338.17v14.38
				c0,6.21-1,14.18-6.53,19.09c-0.65-1.1-2.61-3.23-3.63-3.96c4.58-4.2,5.03-10.13,5.03-15.22v-14.29H218.85z M241.38,338.17v4.55
				H216.5v-4.55H241.38z M241.84,356.37v4.34h-25.28v-4.34H241.84z M241.87,347.33v4.32H216.8v-4.32H241.87z M245.1,338.17v27.24
				c0,2.71-0.55,4.2-2.53,5.01c-1.92,0.78-4.96,0.82-9.51,0.82c-0.2-1.4-0.92-3.56-1.61-4.94c3.22,0.16,6.47,0.14,7.43,0.11
				c0.91-0.02,1.21-0.32,1.21-1.09v-27.15H245.1z"/>
			<path class="st5" d="M285.97,342.99l0.11,4.68c-8.9,1.15-18.34,2.3-25.01,3.11l-0.57-5.04
				C266.91,345.13,276.69,344.07,285.97,342.99z M309.71,364.98v5.07h-48.42v-5.07H309.71z M268.56,326.94v19.7l-4.71,0.44v-20.15
				H268.56z M304.09,353.4v4.92h-36.65v-4.92H304.09z M277.68,321.19v24.69l-5.04,0.43v-25.12H277.68z M285.61,329.99v4.59h-10.74
				v-4.59H285.61z M293.11,321.19V342c0,1.98,0.36,2.32,2.64,2.32c0.99,0,6.01,0,7.38,0c1.9,0,2.25-0.97,2.47-6.31
				c1.12,0.84,3.25,1.68,4.67,2c-0.6,7.09-2.07,9.11-6.72,9.11c-1.24,0-7.31,0-8.45,0c-5.66,0-7.09-1.62-7.09-7.11v-20.81H293.11z
				 M306.58,330.04v4.59H290.6v-4.59H306.58z"/>
			<path class="st5" d="M324.46,356.98c-0.48,4.72-1.43,9.82-2.5,13.16c-0.87-0.46-2.68-1.09-3.66-1.37
				c1.2-3.24,1.9-8.07,2.33-12.44L324.46,356.98z M318.44,337.7c0.91-0.25,1.85-1.32,2.89-2.96c1.12-1.56,4.62-7.68,6.62-13.49
				l4.18,1.78c-2.6,5.93-6.13,12.18-9.56,16.46v0.09c0,0-2.7,1.43-2.7,2.34C319.65,341.01,318.96,338.88,318.44,337.7z M318.83,350
				c1.17-0.28,2.32-1.64,3.94-3.67c1.7-2,7.12-9.84,10.46-17.32l3.83,2.39c-3.88,7.44-9.06,15.03-14.1,20.46v0.11
				c0,0-2.75,1.39-2.75,2.29C320.04,353.35,319.32,351.19,318.83,350z M319.79,338.54l2.03-1.34l9.18-0.73
				c-0.24,1.18-0.42,2.86-0.45,3.79c-8.3,0.89-9.79,1.23-10.68,1.67L319.79,338.54z M320.06,350.81l2.05-1.41l14.09-1.95
				c-0.14,1.13-0.21,2.8-0.16,3.72c-12.88,2.04-14.73,2.51-15.84,3.1L320.06,350.81z M329.86,356.03c0.67,3.63,1.28,8.29,1.48,11.41
				l-3.71,0.94c-0.08-3.16-0.67-7.89-1.25-11.53L329.86,356.03z M335.14,342.18c1.43,3.3,2.97,7.66,3.64,10.22l-3.68,1.51
				c-0.56-2.67-2.06-7.14-3.38-10.5L335.14,342.18z M335.44,354.56c1.26,3.31,2.54,7.56,3.13,10.33l-3.45,1.28
				c-0.5-2.85-1.81-7.19-2.93-10.5L335.44,354.56z M364.22,323.64v4.47h-20.53v43.26h-4.58v-47.73H364.22z M361.61,338.15v3.92
				h-16.74v-3.92H361.61z M361.14,347.27v3.95h-15.81v-3.95H361.14z M349.36,329.43c1.23,2.29,2.29,5.44,2.65,7.44l-3.18,1.14
				c-0.3-2.06-1.33-5.23-2.48-7.58L349.36,329.43z M351.27,349.32v6.33c0,1.29,0.18,1.76,1.17,1.76c0.84,0,4.57,0,5.42,0
				c0.88,0,2.39-0.06,3.19-0.28c0.08,1.09,0.19,2.63,0.34,3.61c-0.74,0.25-2.16,0.28-3.41,0.28c-1.02,0-5.12,0-5.93,0
				c-4.02,0-4.9-1.5-4.9-5.42v-6.28H351.27z M353.6,341.84c0.8,1.44,1.76,3.41,2.17,4.62l-3.68,1.44c-0.38-1.32-1.26-3.35-2.03-4.85
				L353.6,341.84z M360.32,330.52c-1.04,3.16-2.14,6.81-3.13,9.16l-2.94-0.93c0.83-2.49,1.97-6.5,2.43-9.21L360.32,330.52z
				 M367.34,323.64v42.33c0,2.48-0.44,3.73-1.95,4.51c-1.51,0.72-3.8,0.84-7.17,0.81c-0.17-1.19-0.74-3.21-1.34-4.42
				c2.12,0.11,4.28,0.08,4.95,0.08c0.7-0.05,0.92-0.27,0.92-1v-42.33H367.34z"/>
			<path class="st5" d="M397.92,356.41l0.49,4.72c-7.07,1.79-14.63,3.62-20.32,5.01l-1.14-5.06
				C382.25,360.05,390.33,358.21,397.92,356.41z M398.79,331.05v4.71h-21.3v-4.71H398.79z M383.49,337.99
				c1.24,5.98,2.29,13.53,2.62,18.71l-4.23,0.82c-0.2-5.12-1.26-12.84-2.38-18.77L383.49,337.99z M388.08,321.46
				c1.52,2.47,3.06,5.75,3.7,7.93l-4.62,1.55c-0.58-2.21-2.07-5.66-3.47-8.19L388.08,321.46z M396.54,338.27
				c-1.17,7.05-2.89,16.05-4.4,21.49l-3.74-0.85c1.37-5.58,2.76-14.9,3.38-21.46L396.54,338.27z M424.51,346.83v24.19h-5.22V351.6
				h-14.77v19.64h-4.97v-24.41H424.51z M421.81,363.91v4.77h-19.94v-4.77H421.81z M413.37,321.14v27.79h-5.22v-27.79H413.37z
				 M426.61,331.83v4.86h-15.58v-4.86H426.61z"/>
			<path class="st5" d="M483.94,324.92v5.16h-48.49v-5.16H483.94z M445.72,337.18v24.77h-4.95v-24.77H445.72z M463.29,337.18v20.54
				h-20.42v-4.88h15.35v-10.79h-15.35v-4.86H463.29z M477.47,326.38v38.07c0,3.33-0.81,4.98-3.13,5.82
				c-2.38,0.88-6.23,0.94-11.67,0.94c-0.31-1.49-1.34-4.02-2.15-5.46c4.14,0.22,8.7,0.17,9.99,0.14c1.2-0.05,1.62-0.4,1.62-1.54
				v-37.98H477.47z"/>
			<path class="st5" d="M500.92,340.51v12.84c0,5.59-0.66,13.18-4.46,18.1c-0.68-0.98-2.58-2.85-3.56-3.48
				c3.02-4.2,3.31-10.02,3.31-14.68v-12.78H500.92z M494,333.16c0.93-0.2,1.83-0.98,2.91-2.17c1.07-1.16,4.54-5.47,6.69-9.81
				l5.18,1.6c-2.93,4.7-6.79,9.49-10.18,12.52v0.08c0,0-2.99,1.53-2.99,2.47C495.37,336.83,494.55,334.44,494,333.16z
				 M495.47,334.11l2.52-1.52l16.87-1.24c0.18,1.3,0.62,3.04,0.96,4.09c-16.51,1.49-18.74,1.8-20.2,2.4L495.47,334.11z
				 M513.63,340.51v4.32h-15.01v-4.32H513.63z M512.4,354.36l0.98,3.15c-4.01,2.57-8.13,5.17-11.64,7.3l-1.65-4.36
				C503.24,359.07,507.84,356.7,512.4,354.36z M503.57,347.22c2.58,1.66,5.99,4.02,7.76,5.49l-2.74,2.74
				c-1.7-1.58-5.08-4.08-7.67-5.83L503.57,347.22z M515.85,340.51v25.71c0,2.31-0.48,3.47-2.04,4.19c-1.59,0.66-3.97,0.72-7.33,0.72
				c-0.23-1.19-0.95-2.95-1.58-4.09c2.28,0.11,4.5,0.08,5.21,0.06c0.72,0,0.92-0.22,0.92-0.89v-25.71H515.85z M512.58,325.12
				c2.47,3.83,5.46,9.02,6.81,12.24l-4.43,1.89c-1.2-3.28-4.1-8.64-6.54-12.58L512.58,325.12z M525.41,321.27v16.45
				c0,1.97,0.39,2.68,2.13,2.68c1.43,0,7.56,0,9.11,0c1.38,0,3.62-0.11,4.73-0.37c0.08,1.33,0.28,3.22,0.48,4.38
				c-1,0.29-3.11,0.37-5.09,0.37c-1.57,0-8.16,0-9.35,0c-5.53,0-7.04-1.94-7.04-7.19v-16.34H525.41z M525.41,346.5v17.71
				c0,1.86,0.44,2.17,2.82,2.17c1.04,0,6.26,0,7.71,0c2.06,0,2.44-0.96,2.69-6.44c1.09,0.81,3.13,1.59,4.52,1.88
				c-0.6,7.09-2,9.06-6.76,9.06c-1.3,0-7.59,0-8.8,0c-5.76,0-7.22-1.5-7.22-6.64V346.5H525.41z M539.46,328.28v4.43h-16.02v-4.43
				H539.46z M539.97,352.49v4.58h-16.5v-4.58H539.97z"/>
			<path class="st5" d="M243.06,449.97c-1.61,3.35-3.81,7.36-6.6,9.96l-4.22-2.5c2.73-2.34,5.18-6.15,6.56-9.32L243.06,449.97z
				 M279.88,423.5v4.04h-46.64v-4.04H279.88z M277.06,414.75v4.04h-41.31v-4.04H277.06z M273.81,429.94v16.1h-34.34v-16.1H273.81z
				 M248.35,418.58c0.93,1.61,1.84,3.78,2.18,5.23l-4.88,1.17c-0.26-1.48-1.08-3.74-1.95-5.41L248.35,418.58z M244.33,436.37h24.42
				v-3.08h-24.42V436.37z M244.33,442.69h24.42v-3.13h-24.42V442.69z M250.2,448.67v6.38c0,1.35,0.48,1.55,3.16,1.55
				c1.19,0,6.97,0,8.61,0c2.19,0,2.52-0.61,2.76-5c1.06,0.69,3.07,1.36,4.4,1.65c-0.57,6.08-2,7.55-6.69,7.55c-1.31,0-8.33,0-9.58,0
				c-6.12,0-7.61-1.25-7.61-5.71v-6.42H250.2z M254.11,445.16c2.96,1.38,6.75,3.71,8.66,5.41l-3.16,3.17
				c-1.76-1.73-5.47-4.19-8.46-5.74L254.11,445.16z M257.86,410.63c1.12,1.76,2.24,4.23,2.67,5.86l-5.23,1.16
				c-0.37-1.6-1.39-4.15-2.38-5.99L257.86,410.63z M269.77,419.53c-1.21,2.25-2.31,4.3-3.32,5.86l-4.49-1.1
				c0.87-1.69,2-4.13,2.55-5.8L269.77,419.53z M273.22,447.58c2.7,2.82,5.66,6.74,6.91,9.46l-4.38,2.05
				c-1.1-2.66-3.95-6.73-6.61-9.69L273.22,447.58z"/>
			<path class="st5" d="M337.46,413.22v48.03h-4.98v-43.77h-36.01v43.77h-4.76v-48.03H337.46z M335.03,454.98v4.26h-40.32v-4.26
				H335.03z M330.42,430.29v2.96h-31.73v-2.96H330.42z M327.05,435.26v17.27h-25.19v-17.27H327.05z M325.25,419.67v8.51h-21.6v-8.51
				H325.25z M305.84,449.54h17.01v-11.32h-17.01V449.54z M307.79,425.38h13.11v-2.94h-13.11V425.38z M320.01,440.22v7.33h-11.29
				v-7.33H320.01z M311.67,445.17h5.24v-2.57h-5.24V445.17z M316.47,426.32v5.3h-4.37v-5.3H316.47z"/>
			<path class="st5" d="M379.59,418.78c-6.13,11.26-16.1,22.08-28.41,28.54c-0.81-1.32-2.42-3.4-3.5-4.54
				c11.66-5.69,21.49-16.09,26.29-26L379.59,418.78z M395.95,414.89v5.22h-46.76v-5.22H395.95z M375.3,423.02v38.19h-5.55v-32.66
				L375.3,423.02z M379.37,428.37c6.09,4.15,14.37,10.3,18.35,14.5l-4.25,3.93c-3.72-4.23-11.77-10.7-17.99-15.14L379.37,428.37z"/>
			<path class="st5" d="M430.17,447.74v4.5h-24.62v-4.5H430.17z M429.65,416.71v4.46h-23.31v-4.46H429.65z M428.92,424.78v19.16
				h-21.36v-19.16H428.92z M411.57,432.6h13.19v-4.14h-13.19V432.6z M411.57,440.25h13.19v-4.19h-13.19V440.25z M420.48,411.2v15.31
				h-4.8V411.2H420.48z M419.96,426.48v15.41h0.45v19.39h-4.74V441.9h0.45v-15.41H419.96z M440,411.3v17.96
				c0,11.28-0.96,23.33-10.27,32.35c-0.9-0.99-2.72-2.48-3.97-3.17c8.71-8.27,9.53-18.99,9.53-29.18V411.3H440z M448.11,422.79v4.52
				h-17.96v-4.52H448.11z M449.46,422.79v31.88c0,0.38,0.1,0.76,0.25,0.94c0.18,0.19,0.47,0.35,0.8,0.35c0.23,0,0.63,0,1.01,0
				c0.3,0,0.69-0.08,0.87-0.33c0.18-0.3,0.38-0.85,0.46-1.52c0.08-1.09,0.19-3.66,0.13-6.69c0.92,0.8,2.41,1.61,3.59,2.01
				c-0.06,2.9-0.23,6.43-0.48,7.72c-0.31,1.44-0.81,2.33-1.56,2.93c-0.77,0.57-1.83,0.85-2.83,0.85c-0.76,0-1.95,0-2.6,0
				c-1.24,0-2.47-0.32-3.33-1.25c-0.81-0.87-1.03-1.87-1.03-5.05v-31.85H449.46z"/>
		</g>
	</g>
</g>
</svg>
