<?xml version="1.0" encoding="utf-8"?>
<!-- Generator: Adobe Illustrator 25.2.3, SVG Export Plug-In . SVG Version: 6.00 Build 0)  -->
<svg version="1.1" id="圖層_1" xmlns="http://www.w3.org/2000/svg" xmlns:xlink="http://www.w3.org/1999/xlink" x="0px" y="0px"
	 viewBox="0 0 686 686" style="enable-background:new 0 0 686 686;" xml:space="preserve">
<style type="text/css">
	.st0{fill:#F7F8F8;}
	.st1{fill:#DCDDDD;}
	.st2{fill:#FFFFFF;}
	.st3{fill:#B5B5B6;}
	.st4{fill:#44BABC;}
	.st5{fill:#1D2088;}
</style>
<g>
	<g>
		<g>
			<rect x="-0.2" y="-0.2" class="st0" width="686.39" height="686.39"/>
		</g>
		<g>
			<polygon class="st1" points="686.2,-0.2 621.79,64.21 621.79,334.54 686.2,334.54 			"/>
		</g>
		<g>
			<polygon class="st1" points="686.2,686.2 621.79,621.79 621.79,305.4 686.2,305.4 			"/>
		</g>
		<g>
			<polygon class="st2" points="-0.2,-0.2 64.21,64.21 334.54,64.21 334.54,-0.2 			"/>
		</g>
		<g>
			<polygon class="st2" points="686.2,-0.2 621.79,64.21 305.4,64.21 305.4,-0.2 			"/>
		</g>
		<g>
			<polygon class="st3" points="686.2,686.2 621.79,621.79 351.46,621.79 351.46,686.2 			"/>
		</g>
		<g>
			<polygon class="st3" points="-0.2,686.2 64.21,621.79 380.6,621.79 380.6,686.2 			"/>
		</g>
	</g>
	<g>
		<g>
			<path class="st4" d="M323.53,178.17h-7.56v-68.04h7.56v-7.44h7.44v-7.32h23.52v7.32h7.32v7.44h7.44v16.2h-8.64v-14.88h-7.44
				v-7.44h-21v7.44h-7.32v28.32h6.12v-7.32h23.52v7.32h7.32v7.44h7.44v30.96h-7.44v7.44h-7.32v7.56h-23.52v-7.56h-7.44V178.17z
				 M332.17,176.97v7.32h21v-7.32h7.44v-28.44h-7.44v-7.44h-21v7.44h-7.32v28.44H332.17z"/>
		</g>
	</g>
	<g>
		<path class="st5" d="M208.36,266.98c-0.48,4.72-1.43,9.82-2.5,13.16c-0.87-0.46-2.68-1.09-3.66-1.37
			c1.21-3.24,1.9-8.07,2.33-12.44L208.36,266.98z M202.34,247.7c0.91-0.25,1.85-1.32,2.89-2.96c1.12-1.56,4.63-7.68,6.62-13.49
			l4.18,1.78c-2.6,5.93-6.13,12.18-9.56,16.46v0.09c0,0-2.7,1.43-2.7,2.34C203.55,251.01,202.86,248.88,202.34,247.7z M202.73,260
			c1.17-0.28,2.32-1.64,3.94-3.67c1.7-2,7.12-9.84,10.46-17.32l3.83,2.39c-3.88,7.44-9.06,15.03-14.1,20.46v0.11
			c0,0-2.75,1.39-2.75,2.29C203.94,263.35,203.21,261.19,202.73,260z M203.69,248.54l2.03-1.34l9.18-0.73
			c-0.24,1.18-0.42,2.86-0.45,3.79c-8.3,0.89-9.79,1.23-10.68,1.67L203.69,248.54z M203.96,260.81l2.05-1.41l14.09-1.95
			c-0.14,1.13-0.21,2.8-0.16,3.72c-12.88,2.04-14.73,2.51-15.84,3.1L203.96,260.81z M213.76,266.03c0.67,3.63,1.28,8.29,1.47,11.41
			l-3.71,0.94c-0.08-3.16-0.67-7.89-1.25-11.53L213.76,266.03z M219.03,252.18c1.43,3.3,2.97,7.66,3.65,10.22l-3.68,1.51
			c-0.56-2.67-2.06-7.14-3.38-10.5L219.03,252.18z M219.34,264.56c1.26,3.31,2.54,7.56,3.14,10.33l-3.45,1.28
			c-0.5-2.85-1.81-7.19-2.93-10.5L219.34,264.56z M248.11,233.64v4.47h-20.53v43.26h-4.58v-47.73H248.11z M245.51,248.15v3.92
			h-16.74v-3.92H245.51z M245.04,257.27v3.95h-15.81v-3.95H245.04z M233.25,239.43c1.23,2.29,2.29,5.44,2.65,7.44l-3.18,1.14
			c-0.3-2.06-1.33-5.23-2.48-7.58L233.25,239.43z M235.17,259.32v6.33c0,1.29,0.18,1.76,1.17,1.76c0.84,0,4.57,0,5.42,0
			c0.88,0,2.39-0.06,3.19-0.28c0.08,1.09,0.19,2.63,0.34,3.61c-0.74,0.25-2.16,0.28-3.41,0.28c-1.02,0-5.12,0-5.93,0
			c-4.02,0-4.9-1.5-4.9-5.42v-6.28H235.17z M237.49,251.84c0.8,1.44,1.76,3.41,2.17,4.62l-3.68,1.44c-0.38-1.32-1.26-3.35-2.03-4.85
			L237.49,251.84z M244.22,240.52c-1.04,3.16-2.14,6.81-3.13,9.16l-2.93-0.93c0.83-2.49,1.97-6.5,2.43-9.21L244.22,240.52z
			 M251.23,233.64v42.33c0,2.48-0.44,3.73-1.95,4.51c-1.51,0.72-3.8,0.84-7.17,0.81c-0.17-1.19-0.74-3.21-1.34-4.42
			c2.12,0.11,4.28,0.08,4.95,0.08c0.7-0.05,0.92-0.27,0.92-1v-42.33H251.23z"/>
		<path class="st5" d="M281.41,231.15c-0.38,7.21-1.26,34.56-16.88,48.31c-1.05-1.3-2.72-2.61-4.42-3.58
			c15.5-12.5,15.71-39.05,16.01-44.73H281.41z M308.95,239.77v4.95h-46.88v-4.95H308.95z M299.28,251.2l0.93-0.23l3.5,1.53
			c-4.47,16.25-15.78,24.64-29.71,28.78c-0.62-1.31-1.86-3.29-2.91-4.34c12.74-3.25,23.54-11.27,27.2-24.8v-0.95H299.28z
			 M310.34,276.55c-1.13,1.1-2.59,3.25-3.29,4.65c-16.17-3.44-26.14-12.15-31.64-26.19l4.43-1.3
			C284.53,265.86,294.61,273.75,310.34,276.55z M298.84,251.2v4.94h-23.36l1.46-4.94H298.84z"/>
		<path class="st5" d="M325.96,235.95v36.85h-4.77v-36.85H325.96z M339.01,235.95v32h-14.81v-4.76h9.92v-22.5h-9.92v-4.74H339.01z
			 M341.29,267.57c1.22-0.68,3.11-2.16,3.11-4.63v-26.78h5.25v30.38c0,0-5.96,3.35-5.96,5.23
			C343.29,270.57,342.13,268.51,341.29,267.57z M343.2,267.02l2.3-1.83l15.85-3.71c0.25,1.45,0.76,3.36,1.14,4.44
			c-15.24,3.95-17.35,4.82-18.81,5.83L343.2,267.02z M365.34,231.84v49.53H360v-49.53H365.34z"/>
		<path class="st5" d="M402.7,257.49l0.37,4.61c-8.81,1.99-18.29,4.05-25.17,5.51l-1.36-5.16
			C382.99,261.39,393.21,259.39,402.7,257.49z M425.81,246.89v4.83h-48.37v-4.83H425.81z M402.59,236.01
			c-6.62,2.16-15.79,3.75-23.58,4.74c-0.23-1.22-0.9-3.12-1.5-4.28c7.59-1.08,16.2-2.87,21.52-4.78L402.59,236.01z M393.57,237.18
			v37.87c0,3.02-0.66,4.48-2.59,5.3c-1.91,0.81-4.95,0.99-9.4,0.97c-0.23-1.41-1.1-3.73-1.83-5.16c3.26,0.14,6.44,0.11,7.41,0.06
			c0.95-0.02,1.27-0.29,1.27-1.21v-37.83H393.57z M423.59,255.83c-5.42,9.96-14.29,18.36-24.17,23.56c-0.75-1.25-2.2-2.95-3.48-4.09
			c9.47-4.47,18.31-12.36,23.14-21.4L423.59,255.83z M409.75,231.63c-0.23,23.45,4.86,44.67,10.73,44.67c1.32,0,1.96-2.7,2.26-9.42
			c1.1,1.17,2.89,2.34,4.26,2.87c-0.86,9.21-2.59,11.74-7.01,11.74c-10.83,0-15.36-24.77-15.57-49.86H409.75z M416.46,232.64
			c3.04,2.62,6.73,6.34,8.43,8.88l-4.15,2.92c-1.53-2.56-5.07-6.43-8.14-9.16L416.46,232.64z"/>
		<path class="st5" d="M445.67,234.89v19.52c0,8.4-0.99,20-7.53,27.18c-0.79-0.98-2.87-2.7-4-3.34c5.96-6.64,6.48-16.26,6.48-23.87
			v-19.49H445.67z M477.84,260.25v4.83h-34.51v-4.83H477.84z M477.69,234.89v4.88h-34.14v-4.88H477.69z M477.69,247.42v4.79h-34.14
			v-4.79H477.69z M462.61,236.8v43.93h-5.16V236.8H462.61z M480.85,234.89v39.98c0,2.98-0.69,4.47-2.66,5.27
			c-2.01,0.81-5.21,0.91-10.23,0.85c-0.2-1.35-1.01-3.58-1.7-4.91c3.48,0.17,7.1,0.11,8.12,0.09c1.02-0.02,1.4-0.35,1.4-1.34v-39.94
			H480.85z"/>
		<path class="st5" d="M162.08,331.32v4.53h-12.66v24.3h-3.83v-28.83H162.08z M156.62,321.24v50.07h-4.26v-50.07H156.62z
			 M163.63,331.32v23.51c0,1.7-0.22,3.08-1.24,3.86c-1.06,0.78-2.28,0.9-4.16,0.9c-0.08-1.22-0.62-3.16-1.25-4.34
			c1.13,0.02,2.06,0.02,2.43,0.02c0.34-0.02,0.45-0.13,0.45-0.56v-23.39H163.63z M193.68,345.88v4.4h-29.04v-4.4H193.68z
			 M164.74,367.03c0.95-0.63,2.23-2.02,2.23-4.29v-13.95h4.8v18.15c0,0-4.58,3.01-4.58,4.7C166.82,370.4,165.61,368.1,164.74,367.03
			z M166.77,367.54l1.9-1.68l11.24-3.49c-0.01,1.31,0.13,3.17,0.33,4.18c-10.32,3.55-12.02,4.33-13.04,5.1L166.77,367.54z
			 M173.09,323.58v25.23h-4.95v-25.23H173.09z M190,331.18v3.68h-20.27v-3.68H190z M192.24,323.58v4.08h-22.21v-4.08H192.24z
			 M190.27,338.43v3.74h-20.21v-3.74H190.27z M194.55,366.38c-1.13,0.96-2.65,2.86-3.42,4.17c-7.56-3.92-13.44-11.89-16.75-20.94
			l4.04-1.09C181.35,356.18,187.32,363.22,194.55,366.38z M192.79,354.16c-3.07,2.31-6.53,4.8-9.22,6.35l-2.75-2.56
			c2.54-1.74,6.11-4.8,8.15-6.96L192.79,354.16z"/>
		<path class="st5" d="M222.18,341.89v4.44h-19.81v-4.44H222.18z M211.61,343.8c-0.68,3.81-1.63,8.36-2.38,11.26h-4.46
			c0.9-3.06,1.88-7.61,2.5-11.26H211.61z M220.96,323.39v14.79h-16.04v-14.79H220.96z M220.17,351.02c0,0-0.05,1.25-0.11,1.9
			c-0.71,10.34-1.39,14.54-2.85,16.09c-0.92,1.06-1.87,1.43-3.38,1.61c-1.16,0.12-3.33,0.13-5.54,0c-0.08-1.28-0.5-3.07-1.22-4.23
			c2.03,0.19,3.95,0.22,4.8,0.22c0.78,0.02,1.27-0.08,1.7-0.55c0.95-0.99,1.6-4.71,2.2-14.36v-0.68H220.17z M217.55,351.02v4.04
			h-10.39l0.99-4.04H217.55z M208.69,334.47h8.33v-7.37h-8.33V334.47z M228.7,331.76v13.88c0,7.6-0.73,18.5-5.39,25.69
			c-0.76-0.81-2.71-2.21-3.78-2.7c4.29-6.7,4.7-16.1,4.7-23.03v-13.85H228.7z M236.59,352.39c-0.34,8.81-1.63,15.17-7.61,18.97
			c-0.54-1.05-1.78-2.65-2.77-3.38c4.95-3.05,5.8-8.26,6.09-15.59H236.59z M249.63,331.76v4.1h-23.06v-4.1H249.63z M245.31,338.96
			l0.4,3.48l-15.54,1.54l-0.46-3.53L245.31,338.96z M239.16,335.83v8.56c0,1.37,0.13,1.9,1.27,1.9c0.84,0,4.27,0,5.17,0
			c0.99,0,2.74-0.09,3.5-0.31c0.11,1.25,0.22,2.58,0.4,3.69c-0.81,0.28-2.36,0.34-3.69,0.34c-1.14,0-5.24,0-6.19,0
			c-3.96,0-4.8-1.78-4.8-5.71v-8.48H239.16z M239.68,321.17v12.57h-4.83v-12.57H239.68z M250.36,324.56v4.1h-13.26v-4.1H250.36z
			 M244.65,352.39v12.27c0,0.34,0.05,0.69,0.32,0.82c0.2,0.19,0.56,0.28,0.98,0.28c0.35,0,0.99,0,1.46,0c0.45,0,0.96-0.05,1.18-0.24
			c0.25-0.19,0.5-0.59,0.58-1.11c0.11-0.86,0.22-2.88,0.19-5.26c0.8,0.77,2.42,1.66,3.62,2.01c-0.08,2.57-0.31,5.23-0.61,6.22
			c-0.36,1.08-0.9,1.74-1.7,2.25c-0.71,0.4-1.9,0.63-2.88,0.63c-0.78,0-2.3,0-2.94,0c-1.24,0-2.56-0.27-3.36-1.03
			c-0.9-0.82-1.09-1.65-1.09-4.39v-12.45H244.65z M248.99,331.76l0.74-0.17l3.14,0.73c-0.63,3.36-1.48,7.33-2.21,9.84l-3.79-0.9
			c0.51-2.29,1.13-5.96,1.46-8.91v-0.6H248.99z"/>
		<path class="st5" d="M299.5,334.26c-8.34,10.1-22.4,16.84-36.25,20.86c-0.61-1.1-2.05-3.22-2.96-4.23
			c13.97-3.35,27.55-9.71,34.91-18.78L299.5,334.26z M272.09,338.59c-1.72,3.41-4.07,7.42-7.12,10l-4.13-2.5
			c3.03-2.33,5.61-6.13,7.08-9.36L272.09,338.59z M308.58,325.55v10.92h-5.19v-6.36h-35.92v6.36h-5.01v-10.92H308.58z
			 M271.92,356.06v8.15h30.17v4.8h-35.18v-12.95H271.92z M279.07,336.05v9.82c0,1.55,0.59,1.82,3.66,1.82c1.41,0,8.26,0,10.15,0
			c2.5,0,2.95-0.72,3.18-5.58c1.03,0.72,2.92,1.38,4.19,1.64c-0.6,6.44-1.99,8.01-7.01,8.01c-1.36,0-9.57,0-10.85,0
			c-6.29,0-7.89-1.24-7.89-5.83v-9.88H279.07z M279.53,330.27c3.28,1.33,7.4,3.57,9.47,5.32l-2.62,3.28
			c-1.97-1.81-6.01-4.19-9.32-5.61L279.53,330.27z M286.67,320.54c0.89,2.06,1.74,4.76,2.02,6.47l-5.16,0.98
			c-0.21-1.73-0.94-4.52-1.73-6.64L286.67,320.54z M287.96,353.29v13.43h-5.19v-13.43H287.96z M301.27,337.05
			c3.3,2.84,7.31,6.93,9.09,9.75l-3.9,2.78c-1.68-2.79-5.52-7.07-8.85-10.06L301.27,337.05z M304.4,355.43v15.67h-5.1v-15.67H304.4z
			"/>
		<path class="st5" d="M329.99,326.59c-1.61,11.48-4.43,22.48-9.53,29.67c-0.48-1.15-1.97-3.65-2.89-4.76
			c4.22-6.07,6.39-15.65,7.6-25.63L329.99,326.59z M339.07,323.51v4.65h-20.14v-4.65H339.07z M327.03,340.5v28.39h-4.44V340.5
			H327.03z M337.25,340.5v24.05H324.8v-4.44h7.97v-15.15h-7.97v-4.46H337.25z M344.15,356.02c-0.51,4.74-1.49,9.79-4,12.84
			l-3.56-1.99c2.25-2.74,3.29-7.35,3.77-11.78L344.15,356.02z M366.78,323.33v4.44h-20.99v23.02h-4.65v-27.46H366.78z
			 M364.68,348.48v4.46h-23.53v-4.46H364.68z M365.34,331.84v4.04h-21.76v-4.04H365.34z M365.34,340.08v4.07h-21.76v-4.07H365.34z
			 M349.06,356.53c0.62,3.18,1.03,7.22,0.97,9.9L346.4,367c0.11-2.7-0.2-6.8-0.77-9.98L349.06,356.53z M354.51,355.77
			c1.08,2.58,2.06,6,2.42,8.21l-3.37,0.97c-0.3-2.21-1.25-5.68-2.23-8.32L354.51,355.77z M356.87,325.67v24.64h-4.58v-24.64H356.87z
			 M367.84,348.48c0,0-0.03,1.36-0.08,1.99c-0.58,12.58-1.17,17.39-2.58,19.06c-0.95,1.16-1.95,1.58-3.46,1.73
			c-1.25,0.15-3.53,0.15-5.91,0.05c-0.08-1.31-0.58-3.2-1.3-4.41c2.15,0.21,4.14,0.24,4.96,0.24c0.82,0,1.25-0.11,1.71-0.61
			c0.93-1.07,1.51-5.45,1.98-17.25v-0.8H367.84z M359.38,354.45c1.45,1.93,2.86,4.56,3.48,6.26l-2.83,1.27
			c-0.59-1.75-1.97-4.44-3.29-6.45L359.38,354.45z"/>
		<path class="st5" d="M403.6,347.01c-5.29,9.36-14.34,17.69-23.67,22.03c-0.81-1.31-2.45-3.33-3.61-4.38
			c9.17-3.66,18.31-11.29,23.01-19.33L403.6,347.01z M392.5,335.16c-1.96,7.86-5.77,14.44-10.77,18.6c-0.84-0.9-2.82-2.57-3.98-3.32
			c4.86-3.58,8.2-9.39,9.77-16.21L392.5,335.16z M425.13,328.39v4.98h-46.76v-4.98H425.13z M388.59,339.74
			c2.49,2.11,5.94,5.14,7.63,7.02l-3.45,3.57c-1.61-1.97-4.96-5.14-7.48-7.42L388.59,339.74z M404.09,321.22v50.08h-5.37v-50.08
			H404.09z M426.87,364.45c-1.28,1.1-2.94,3.22-3.79,4.65c-9.35-4.24-18.24-12.54-23.46-21.79l4.24-1.71
			C408.5,353.52,417.56,360.96,426.87,364.45z M417.99,335.11c-1.44,6.62-4.36,12.35-8.13,16.02c-0.96-0.78-3.12-2.14-4.34-2.74
			c3.82-3.2,6.37-8.37,7.52-14.16L417.99,335.11z M414.58,340.05c3.49,2.67,8.49,6.62,10.95,9.03l-3.57,3.52
			c-2.29-2.49-7.16-6.59-10.75-9.51L414.58,340.05z"/>
		<path class="st5" d="M472.5,345.25c-6.01,14.68-17.99,22.08-34.3,26.1c-0.56-1.19-2.12-3.46-3.11-4.59
			c16.03-3.24,27.31-9.94,32.25-23L472.5,345.25z M454.28,336.45c-3.73,4.68-9.5,9.55-14.27,12.59c-0.93-1.02-2.89-2.93-4.05-3.77
			c4.84-2.58,10.17-6.72,13.33-10.73L454.28,336.45z M483.13,328.39v4.98h-47.09v-4.98H483.13z M484.36,366.36
			c-1.1,1.1-2.5,3.23-3.16,4.62c-17.1-3.22-27.75-11.52-33.65-25.5l4.57-1.42C457.06,356.15,467.87,363.77,484.36,366.36z
			 M459.63,320.61c1.47,2.23,3.26,5.28,3.96,7.21l-5.08,1.94c-0.67-1.99-2.25-5.12-3.72-7.47L459.63,320.61z M469.48,334.35
			c4.82,3.27,11,8.14,13.98,11.57l-4.33,3.35c-2.72-3.42-8.74-8.55-13.67-12L469.48,334.35z"/>
		<path class="st5" d="M508.61,344.17l0.77,4.59c-5.49,1.92-11.35,3.9-15.97,5.42l-1.25-4.92
			C496.35,348.13,502.59,346.14,508.61,344.17z M508.88,331.79v4.73h-16.03v-4.73H508.88z M503.76,321.16v43.93
			c0,2.61-0.49,4.02-1.94,4.87c-1.46,0.84-3.61,1.05-6.93,1.05c-0.17-1.35-0.77-3.56-1.4-5.01c2.02,0.05,3.88,0.05,4.53,0.03
			c0.64,0,0.86-0.22,0.86-0.91v-43.96H503.76z M528.43,349.58c-0.99,11.64-3.83,18.49-19.04,21.76c-0.4-1.19-1.59-3-2.52-3.96
			c13.76-2.61,15.82-8.06,16.62-17.8H528.43z M542.68,354.5v4.16h-34.12v-4.16H542.68z M524.01,321.94
			c-2.42,6.03-6.22,12.43-12.21,17.56c-0.63-1.05-2.07-2.7-3.06-3.37c5.3-4.34,8.74-10.14,10.54-14.94L524.01,321.94z M539.31,334.2
			v21.73h-4.35v-17.59h-17.99v17.59h-4.2V334.2H539.31z M528.96,338.65c-1.88,4.39-5.27,8.53-8.64,11.14
			c-0.72-0.66-2.36-1.84-3.31-2.38c3.46-2.33,6.47-5.93,8.11-9.78L528.96,338.65z M530.46,325.38v4.07H517.5l2.37-4.07H530.46z
			 M526.34,340.67c3.07,1.66,7.01,4.25,8.95,6.07l-2.35,2.8c-1.88-1.88-5.79-4.59-8.92-6.41L526.34,340.67z M530.14,325.38l0.75-0.2
			l3.02,1.97c-1.54,3.27-4.11,7.2-6.17,9.66c-0.81-0.64-2.31-1.57-3.3-2.06c1.84-2.29,3.8-6.05,4.71-8.51v-0.86H530.14z
			 M530.66,358.7c3.98,2.9,9.61,7.07,12.45,9.58l-3.3,3.2c-2.66-2.6-8.16-6.97-12.24-10.04L530.66,358.7z"/>
		<path class="st5" d="M242.31,437.02l0.83-0.11l2.21,0.89c-1.62,11.54-5.62,19.41-11.19,23.62c-0.66-1.01-2.38-2.76-3.36-3.45
			c5.22-3.69,8.75-10.56,10.01-20.12v-0.82H242.31z M231.16,437.48c0.85-0.22,1.72-0.63,2.65-1.66c1.55-1.6,6.3-8.77,8-11.67v-0.17
			l1.39-0.59l3.28,1.4c-2.42,3.68-6.97,10.62-9.93,14.08c0,0-3.62,1.77-3.62,2.99C232.64,440.71,231.68,438.45,231.16,437.48z
			 M243.41,423.72v4.16h-11.56v-4.16H243.41z M232.93,438.09l2.11-1.06h8.31l-0.03,4.04h-7.13c-1.34,0-2.82,0.35-3.26,0.79V438.09z
			 M237.3,411.26c2.24,2.63,4.88,6.1,6.18,8.34l-4.1,2.51c-1.24-2.3-3.88-6.05-6-8.75L237.3,411.26z M262.31,456.01
			c5.74,0,14.07-0.26,19.88-0.81c-0.75,1.07-1.39,3.39-1.65,4.76c-5.32,0.33-12.19,0.47-18.29,0.47c-12.61,0-19.54-1.54-23.58-11.08
			l3.41-1.45C245.21,455.07,251.93,455.98,262.31,456.01z M253.59,420.37v7.67c0,7.12-0.74,17.23-6.32,24.34
			c-0.71-0.87-2.19-2.24-3.16-2.85c4.83-6.45,5.36-15.34,5.36-21.55v-7.61H253.59z M262.99,418.38v4.26h-18.01v-4.26H262.99z
			 M255.14,411.18c0.99,2.25,2.11,5.18,2.6,7.09l-4.62,1.07c-0.46-1.96-1.49-5.01-2.43-7.29L255.14,411.18z M262.34,427.89
			c0,0-0.03,1.33-0.03,1.92c-0.52,14.81-1.02,20.06-2.34,21.77c-0.81,1.15-1.72,1.54-3,1.74c-1.05,0.14-2.73,0.15-4.46,0.1
			c-0.08-1.27-0.52-3.06-1.12-4.17c1.5,0.14,2.75,0.14,3.42,0.14c0.62,0.02,1.02-0.09,1.37-0.66c0.87-1.14,1.36-6.02,1.79-20.02
			v-0.83H262.34z M259.67,427.89v4.22h-7.85v-4.22H259.67z M271.61,412.09c-1.54,5.64-4.11,11.49-6.82,15.26
			c-0.81-0.75-2.57-2.12-3.58-2.76c2.65-3.43,4.87-8.55,6.12-13.65L271.61,412.09z M281.37,436v4.11h-18.02V436H281.37z
			 M274.51,432.56v15.84c0,2.11-0.33,3.37-1.88,4.07c-1.44,0.72-3.58,0.78-6.62,0.78c-0.17-1.25-0.83-3.05-1.46-4.26
			c2.14,0.05,4.16,0.05,4.78,0.03c0.65,0,0.81-0.16,0.81-0.67v-15.78H274.51z M277.49,425.21v3.83h-12.3v-3.83H277.49z
			 M281.43,416.98v4.28h-15.83v-4.28H281.43z M277.19,425.21l0.84-0.26l2.77,2.09c-2.24,2.93-5.44,6.1-8.22,8.19
			c-0.57-0.84-1.75-2.03-2.45-2.67c2.24-1.7,4.78-4.55,6.02-6.55v-0.8H277.19z"/>
		<path class="st5" d="M296.26,420.12v14.95c0,7.41-0.58,18.4-4.04,25.58c-0.72-0.81-2.57-2.24-3.52-2.71
			c3.05-6.66,3.31-16.07,3.31-22.87v-14.95H296.26z M316.87,420.12v3.43h-22.89v-3.43H316.87z M318.57,454.8v3.65
			c-7.89,0.74-16.14,1.5-22.06,2l-0.53-3.85C301.63,456.21,310.25,455.53,318.57,454.8z M312.6,425.9l0.37,2.78l-15.53,1.49
			l-0.37-2.81L312.6,425.9z M318.97,436.3v3.34h-21.28v-3.34H318.97z M317.4,441.55v8.56h-18.45v-8.56H317.4z M304.33,450.57
			c0.76,1.89,1.59,4.35,1.93,5.93l-3.71,0.82c-0.31-1.63-1.09-4.18-1.79-6.09L304.33,450.57z M307.02,411.17v10.38h-4.74v-10.38
			H307.02z M302.85,447.43h10.45v-3.19h-10.45V447.43z M307.36,423.2v6.95c0,1.2,0.13,1.62,1.22,1.62c0.77,0,3.81,0,4.64,0
			c0.94,0,2.72-0.06,3.49-0.28c0.08,1.07,0.16,2.01,0.31,2.97c-0.72,0.23-2.28,0.28-3.59,0.28c-1.1,0-5.01,0-6.02,0
			c-3.55,0-4.22-1.55-4.22-4.64v-6.9H307.36z M318.36,414.24v3.43h-13.75v-3.43H318.36z M315.82,451.03
			c-1.21,2.31-2.58,4.71-3.64,6.36l-3.35-0.76c0.97-1.82,2.14-4.48,2.73-6.31L315.82,451.03z M316.21,420.12l0.71-0.14l3,0.58
			c-0.57,2.82-1.41,6.06-2.16,8.14l-3.68-0.74c0.53-1.88,1.14-4.83,1.5-7.27v-0.58H316.21z M338.86,433.59
			c-3.06,10.35-9.49,20.91-17.18,26.17c-0.87-1.13-2.38-2.58-3.63-3.42c7.79-4.66,14.16-14.74,16.99-24.77L338.86,433.59z
			 M339.06,424.46l0.58,4.47l-19.94,2.63l-0.63-4.5L339.06,424.46z M327.62,411.43c0.21,23.58,2.69,43.56,6.64,43.83
			c0.89,0,1.54-2.77,1.87-7.7c0.78,1.02,2.73,2.32,3.59,2.79c-1.2,8.7-3.45,10.88-5.5,10.83c-8.48-0.28-10.7-21.25-11.34-49.75
			H327.62z M333.38,412.13c1.93,2.74,4.48,6.5,5.72,8.74l-4.01,2.19c-1.14-2.31-3.55-6.22-5.48-9.07L333.38,412.13z"/>
		<path class="st5" d="M369.2,455.96c-4.49,2.29-11.84,4.33-17.8,5.31c-0.7-0.93-2.09-2.51-3.08-3.41
			c5.93-0.92,13.26-2.84,16.77-4.66L369.2,455.96z M395.69,414.57v7.88h-4.8v-3.81h-36.88v3.81h-4.62v-7.88H395.69z M370.84,430.69
			l-0.05,3.32c-7.26,0.53-14.77,0.98-20.15,1.3l-0.37-3.52C355.43,431.55,363.15,431.13,370.84,430.69z M370.51,421.04v3.07h-17.8
			v-3.07H370.51z M369.87,426.27v2.77h-16.49v-2.77H369.87z M390.58,436.5v17.67h-35.17V436.5H390.58z M363.83,422.27v10.18
			l-4.28,0.34v-10.53H363.83z M360.36,441.49h25.03v-2.1h-25.03V441.49z M360.36,446.38h25.03v-2.18h-25.03V446.38z M360.36,451.3
			h25.03v-2.2h-25.03V451.3z M373.82,410.68c1.04,1.69,2.07,4.01,2.5,5.56l-5.31,1.39c-0.36-1.55-1.33-3.98-2.23-5.78L373.82,410.68
			z M379.43,419.46c-1.28,2.73-2.87,5.13-5.3,7.32c-0.72-0.75-2.01-1.65-2.96-2.05c2.15-1.76,3.74-3.92,4.62-5.85L379.43,419.46z
			 M394.52,426.1v2.8h-23.03v-2.8H394.52z M376.83,429.56v2.49h12.23v-2.49h3.86v5.26h-19.77v-5.26H376.83z M391.52,421.35v2.77
			h-16.43l1.67-2.77H391.52z M378.97,453.23c6.18,1.54,13.15,3.6,17.31,5.14l-4.42,3.02c-3.67-1.57-9.96-3.65-16.28-5.34
			L378.97,453.23z M385,422.51v10.69h-4.28v-10.69H385z"/>
		<path class="st5" d="M412.69,415c-0.77,7.17-2.08,14.58-4.06,19.41c-0.81-0.64-2.71-1.8-3.74-2.3c1.9-4.47,2.9-11.29,3.47-17.81
			L412.69,415z M425.66,435.24l0.67,4.49c-6.83,2.18-14.16,4.41-19.73,6.1l-1.29-4.91C410.47,439.66,418.27,437.41,425.66,435.24z
			 M425.04,421.98v4.88H408.3l0.89-4.88H425.04z M419.95,411.22v50.08h-4.73v-50.08H419.95z M436.66,412.07
			c-2.01,8.95-5.55,17.29-10.03,22.67c-0.81-0.78-2.79-2.24-3.89-2.9c4.42-4.81,7.55-12.55,9.27-20.67L436.66,412.07z
			 M441.06,423.35c-2.26,9.46-7.23,20.22-13.27,25.63c-0.98-0.98-2.61-2.2-3.97-2.92c6.31-4.96,11.27-15.3,13.45-24.59
			L441.06,423.35z M448.9,423.78c-2.66,14.31-8.54,29.13-17.59,36.46c-0.98-1.01-2.78-2.31-4.23-3.04
			c9.42-6.75,15.24-21.13,17.79-35.28L448.9,423.78z M452.55,419.95v4.76h-22.28l2.24-4.76H452.55z M455.28,419.95
			c0,0-0.03,1.79-0.08,2.45c-1.13,24.45-2.21,33.09-4.35,35.78c-1.16,1.65-2.26,2.16-3.98,2.42c-1.47,0.24-3.78,0.21-6.15,0.09
			c-0.11-1.48-0.62-3.63-1.42-5.03c2.26,0.22,4.28,0.24,5.31,0.24c0.85,0,1.38-0.2,2.01-0.94c1.66-1.97,2.81-10.49,3.82-33.86v-1.15
			H455.28z"/>
	</g>
</g>
</svg>
