<?xml version="1.0" encoding="utf-8"?>
<!-- Generator: Adobe Illustrator 25.2.3, SVG Export Plug-In . SVG Version: 6.00 Build 0)  -->
<svg version="1.1" id="圖層_1" xmlns="http://www.w3.org/2000/svg" xmlns:xlink="http://www.w3.org/1999/xlink" x="0px" y="0px"
	 viewBox="0 0 686 686" style="enable-background:new 0 0 686 686;" xml:space="preserve">
<style type="text/css">
	.st0{fill:#F7F8F8;}
	.st1{fill:#DCDDDD;}
	.st2{fill:#FFFFFF;}
	.st3{fill:#B5B5B6;}
	.st4{fill:#44BABC;}
	.st5{fill:#1D2088;}
</style>
<g>
	<g>
		<g>
			<rect x="0.72" y="0.22" class="st0" width="685.56" height="685.56"/>
		</g>
		<g>
			<polygon class="st1" points="686.28,0.22 621.95,64.55 621.95,334.55 686.28,334.55 			"/>
		</g>
		<g>
			<polygon class="st1" points="686.28,685.78 621.95,621.45 621.95,305.45 686.28,305.45 			"/>
		</g>
		<g>
			<polygon class="st2" points="0.72,0.22 65.05,64.55 335.05,64.55 335.05,0.22 			"/>
		</g>
		<g>
			<polygon class="st2" points="686.28,0.22 621.95,64.55 305.95,64.55 305.95,0.22 			"/>
		</g>
		<g>
			<polygon class="st3" points="686.28,685.78 621.95,621.45 351.95,621.45 351.95,685.78 			"/>
		</g>
		<g>
			<polygon class="st3" points="0.72,685.78 65.05,621.45 381.05,621.45 381.05,685.78 			"/>
		</g>
	</g>
	<g>
		<g>
			<path class="st4" d="M324.06,178.37h-7.55v-8.63h8.87v7.43h7.31v7.31h20.97v-7.31h7.43v-28.4h-7.43v-7.43h-20.97v7.43h-7.31v7.43
				h-8.87V95.68h45.78v8.63h-36.92v35.72h6.11v-7.31h23.49v7.31h7.31v7.43h7.43v30.92h-7.43v7.43h-7.31v7.55h-23.49v-7.55h-7.43
				V178.37z"/>
		</g>
	</g>
	<g>
		<path class="st5" d="M171.22,302.54l0.37,4.6c-8.8,1.99-18.27,4.04-25.15,5.51l-1.36-5.15
			C151.53,306.43,161.73,304.43,171.22,302.54z M194.31,291.94v4.83h-48.33v-4.83H194.31z M171.11,281.07
			c-6.62,2.16-15.77,3.74-23.56,4.74c-0.23-1.22-0.9-3.12-1.5-4.28c7.58-1.08,16.19-2.87,21.5-4.77L171.11,281.07z M162.1,282.24
			v37.84c0,3.02-0.66,4.48-2.59,5.29c-1.91,0.81-4.95,0.99-9.39,0.96c-0.23-1.4-1.1-3.73-1.83-5.15c3.26,0.14,6.43,0.11,7.4,0.06
			c0.95-0.02,1.27-0.29,1.27-1.2v-37.8H162.1z M192.09,300.88c-5.42,9.95-14.27,18.34-24.15,23.54c-0.75-1.25-2.2-2.95-3.48-4.09
			c9.46-4.47,18.29-12.35,23.12-21.38L192.09,300.88z M178.27,276.69c-0.23,23.43,4.86,44.63,10.73,44.63c1.32,0,1.96-2.7,2.25-9.41
			c1.1,1.17,2.89,2.34,4.25,2.87c-0.85,9.21-2.59,11.73-7.01,11.73c-10.82,0-15.35-24.75-15.55-49.82H178.27z M184.96,277.7
			c3.04,2.62,6.73,6.33,8.43,8.87l-4.15,2.92c-1.53-2.56-5.07-6.42-8.14-9.15L184.96,277.7z"/>
		<path class="st5" d="M227.03,277.51c-3.89,12.64-10.56,25.4-21.66,33.19c-0.55-1.38-1.75-3.6-2.56-4.81
			c9.74-6.64,15.98-18.64,18.91-29.66L227.03,277.51z M251.93,284.22v4.91H204.3v-4.91H251.93z M216.13,298.62v27.55H211v-27.55
			H216.13z M251.85,320.25v4.76H219.3v-4.76H251.85z M249.78,301.49v4.74H221.4v-4.74H249.78z M238.19,291.7v31.09h-5.13V291.7
			H238.19z"/>
		<path class="st5" d="M272.95,314.67c-1.81,4.06-4.5,8.8-6.86,11.92l-4.92-2.12c2.33-2.71,5.12-7.2,6.89-11.16L272.95,314.67z
			 M268.52,278.46v34h-4.8v-34H268.52z M277.87,291.37v4.49H266.3v-4.49H277.87z M280.12,278.46v31.37H266.4v-4.58h8.99v-22.27
			h-8.99v-4.52H280.12z M281.76,314.51c0.7,3.53,1.3,8.08,1.35,10.86l-5.01,0.77c-0.02-2.8-0.42-7.48-1.07-11.06L281.76,314.51z
			 M296.04,279.73c-0.86,7.99-3.29,13.3-12.95,16.21c-0.46-1.16-1.72-2.93-2.73-3.8c8.26-2.22,10.02-6.23,10.66-12.41H296.04z
			 M306.14,278.34v4.49h-24v-4.49H306.14z M307.78,296.13v15.49h-24.03v-15.49H307.78z M293.32,314.04
			c1.41,3.42,2.85,7.96,3.35,10.84l-5.07,1.07c-0.44-2.79-1.73-7.48-3.06-11.04L293.32,314.04z M288.55,307.44h14.19v-7.15h-14.19
			V307.44z M309.39,278.34c0,0-0.03,1.19-0.08,1.82c-0.47,7.65-0.98,10.94-2.18,12.25c-0.92,0.99-1.99,1.33-3.43,1.44
			c-1.28,0.12-3.68,0.15-6.16,0.05c-0.08-1.28-0.58-3.01-1.27-4.16c2.21,0.21,4.26,0.24,5.12,0.24c0.75,0,1.23-0.08,1.61-0.49
			c0.77-0.77,1.18-3.47,1.52-10.49v-0.66H309.39z M304.23,312.89c2.42,3.51,5.4,8.3,6.71,11.34l-4.9,2.14
			c-1.18-3.04-4.02-8.01-6.42-11.64L304.23,312.89z"/>
		<path class="st5" d="M332.83,276.93v18.36c0,10.99-0.89,22.5-8.83,31.21c-0.84-1.22-2.68-3.08-3.84-3.96
			c6.79-7.64,7.55-17.77,7.55-27.25v-18.36H332.83z M359.12,302.27v24.04h-5.34v-18.94h-24.57v-5.1H359.12z M357.25,289.15v5.12
			h-27.88v-5.12H357.25z M357.25,276.28v15.93h-5.27v-15.93H357.25z"/>
		<path class="st5" d="M426.46,318.59v5.13h-48.84v-5.13H426.46z M402.96,277v44.38h-5.43V277H402.96z M422.72,293.17v5.13h-22.29
			v-5.13H422.72z"/>
		<path class="st5" d="M445.54,291.04c-1.59,8.4-4.96,18.91-8.57,24.49c-0.51-1.52-1.69-3.8-2.51-5.11
			c3.44-4.65,6.81-13.66,8.29-20.61L445.54,291.04z M453.41,286.51v4.74h-17.57v-4.74H453.41z M447.74,276.24v50.03h-4.64v-50.03
			H447.74z M454.13,303.62l-3.03,3.54c-1.19-2.91-4.45-9.23-5.9-11.63l2.35-1.87C448.77,295.15,453.17,302,454.13,303.62z
			 M463.09,314.99c-1.98,3.71-5.01,7.57-7.81,10.02c-0.87-0.76-2.75-2.09-3.87-2.73c2.85-2.19,5.57-5.39,7.18-8.57L463.09,314.99z
			 M483.99,278.56v4.1h-30.51v-4.1H483.99z M484.2,308.12v4.07h-30.65v-4.07H484.2z M483.06,285.74v12.92h-28.45v-12.92H483.06z
			 M480.68,301.07v3.97h-23.77v-3.97H480.68z M458.81,294.9h19.8v-5.4h-19.8V294.9z M466.52,280.73v16.18h-3.74v-16.18H466.52z
			 M470.84,310.41v15.88h-4.61v-15.88H470.84z M474.27,280.73v16.18h-3.74v-16.18H474.27z M477.57,313.7
			c2.74,2.68,5.69,6.24,7.08,8.67l-3.92,2.36c-1.32-2.49-4.28-6.31-6.89-9.02L477.57,313.7z"/>
		<path class="st5" d="M513.51,284.7v4.22H493.2v-4.22H513.51z M512.37,300.24v3.98h-17.24v-3.98H512.37z M512.32,292.59v3.98
			h-16.42v-3.98H512.32z M500.69,307.72v17.88h-4.62v-17.88H500.69z M512.29,307.72v15.3h-13.98v-3.88h9.24v-7.53h-9.24v-3.88
			H512.29z M503.55,276.37c1.53,1.99,3.18,4.73,3.81,6.54l-4.13,2.11c-0.56-1.86-2.07-4.69-3.55-6.82L503.55,276.37z M542.99,319.33
			v4.83h-28.92v-4.83H542.99z M541.92,286.47v4.8h-27v-4.8H541.92z M540.7,301.73v4.74h-24.87v-4.74H540.7z M525.92,276.12
			c2.14,2.5,4.58,5.97,5.6,8.26l-4.22,2.49c-0.9-2.34-3.23-5.95-5.33-8.59L525.92,276.12z M530.57,288.55v33.15h-5.1v-33.15H530.57z
			"/>
		<path class="st5" d="M219.65,368.84v4.83h-38.14v42.61h-4.97v-47.44H219.65z M212.75,378.51v4.37H185.5v-4.37H212.75z
			 M192.87,387.87v21.38h-4.71v-21.38H192.87z M210.06,387.87v17.6h-19.33v-4.31h14.59v-9.04h-14.59v-4.25H210.06z M221.73,368.84
			v41.25c0,2.88-0.65,4.4-2.5,5.21c-1.82,0.84-4.66,0.99-9.26,0.96c-0.22-1.37-1.01-3.68-1.78-5.01c3.15,0.14,6.3,0.11,7.22,0.09
			c0.96-0.05,1.29-0.38,1.29-1.29v-41.21H221.73z"/>
		<path class="st5" d="M281.34,401.75v4.18h-48.57v-4.18H281.34z M280.46,385.5v10.41h-5.06v-6.61h-36.7v6.61h-4.85V385.5H280.46z
			 M249.9,369.55c-3.22,1.25-7.81,2.14-11.06,2.63l-1.81-2.85c3.17-0.55,7.89-1.91,10.7-2.8L249.9,369.55z M241.9,370.59l1.01,16.71
			h-4.77l-1.12-17.97L241.9,370.59z M249.54,373.88v3.32h-9.94v-3.32H249.54z M249.74,379.67v3.32h-9.94v-3.32H249.74z
			 M267.73,392.38v3.71h-24.71v-3.71H267.73z M260.11,399.78v11.36c0,2.44-0.54,3.62-2.48,4.33c-1.94,0.63-4.76,0.64-8.98,0.64
			c-0.26-1.31-1.01-3.06-1.67-4.3c3.02,0.11,6.17,0.11,7.01,0.08c0.86-0.02,1.11-0.21,1.11-0.9v-11.21H260.11z M262.97,376.71
			c-2.59,3.53-6.86,6.82-10.75,8.9c-0.55-0.66-1.89-2.01-2.66-2.61c3.83-1.73,7.78-4.4,9.97-7.34L262.97,376.71z M262.84,367.54
			c-2.42,3.32-6.47,6.44-10.12,8.4c-0.58-0.63-1.95-1.83-2.78-2.38c3.7-1.72,7.4-4.26,9.48-7L262.84,367.54z M253.25,376.25
			c3.58,1.73,8.08,4.47,10.31,6.59l-2.61,2.36c-2.09-2.09-6.5-5-10.17-6.87L253.25,376.25z M253.43,367.11
			c3.44,1.56,7.73,4.12,9.89,6.02l-2.53,2.33c-2.05-1.93-6.28-4.57-9.77-6.25L253.43,367.11z M267.67,392.38l1.07-0.26l2.95,2.62
			c-3.89,2.91-9.31,5.81-14.21,7.69c-0.54-0.83-1.72-2.05-2.38-2.66c4.08-1.58,8.95-4.4,11.34-6.5v-0.89H267.67z M274.66,368.05
			v3.35h-10.19v-3.35H274.66z M273.82,379.67v3.32h-9.34v-3.32H273.82z M274.21,373.88v3.32h-9.43v-3.32H274.21z M277.52,368.05
			c-0.32,6.38-0.86,14.52-1.43,19.43h-4.92c0.68-5.04,1.25-13.21,1.49-19.43H277.52z"/>
		<path class="st5" d="M318.84,367.47c-5.81,7.52-16.04,12.78-26.23,15.96c-0.52-1.02-1.92-3.05-2.81-3.98
			c9.92-2.55,19.57-7.2,24.54-13.63L318.84,367.47z M333.51,381.68v14.14h-36.9v-14.14H333.51z M330.83,398.03v17.96h-5.22V401.5
			h-20.88v14.68h-5.03v-18.15H330.83z M300.92,392.53h28.04v-7.54h-28.04V392.53z M327.78,404.49v3.49h-25.16v-3.49H327.78z
			 M327.81,411.04v3.47h-25.16v-3.47H327.81z M307.17,385.32c1.21,1.85,2.35,4.34,2.75,5.99l-3.78,1.25
			c-0.35-1.68-1.4-4.25-2.55-6.16L307.17,385.32z M324.56,375.84v3.47h-18.94v-3.47H324.56z M316.94,382.84v11.32h-4.22v-11.32
			H316.94z M340.85,379.07c-1.1,0.93-2.52,2.73-3.25,3.94c-8.9-2.39-18.44-7.45-23.95-13.48l3.87-1.6
			C322.42,372.87,331.99,377.14,340.85,379.07z M326.62,386.29c-1.2,2.32-2.46,4.69-3.45,6.27l-3.51-1.09
			c0.91-1.77,2.11-4.55,2.68-6.37L326.62,386.29z"/>
		<path class="st5" d="M368.19,392.76c-1.05,10.67-3.72,19.12-16.56,23.74c-0.61-1.34-2.06-3.37-3.22-4.42
			c11.68-3.67,13.6-10.68,14.45-19.32H368.19z M396.95,388.96v4.92H349.2v-4.92H396.95z M363.84,368.22
			c-1.71,6.24-4.49,13.87-8.24,18.64c-1.17-0.78-3.22-1.85-4.47-2.34c3.62-4.51,6.29-11.75,7.53-17.35L363.84,368.22z M392.9,374.07
			v4.91h-34.82v-4.91H392.9z M375.65,366.15v24.34h-5.18v-24.34H375.65z M382.43,392.63v15.93c0,1.7,0.33,1.96,2.22,1.96
			c0.86,0,4.79,0,5.93,0c1.83,0,2.12-1.04,2.34-7.79c1.07,0.86,3.28,1.68,4.67,2.05c-0.52,8.37-1.93,10.58-6.59,10.58
			c-1.11,0-5.94,0-7.02,0c-5.37,0-6.67-1.62-6.67-6.8v-15.93H382.43z"/>
		<path class="st5" d="M426.51,401.8l0.27,4.68c-7.25,1.22-14.89,2.42-20.51,3.29l-0.96-5.09
			C410.63,404.04,418.73,402.95,426.51,401.8z M433.22,369.37v4.76H406.5v-4.76H433.22z M415.35,371.25v35.13h-4.88v-35.13H415.35z
			 M426.69,380.4V385h-13.54v-4.61H426.69z M426.69,391.61v4.58h-13.54v-4.58H426.69z M429.59,371.25v44.89h-4.92v-44.89H429.59z
			 M450.49,373.35l0.9-0.17l3.3,0.86c-2.36,21.66-10.07,34.56-21.93,41.58c-0.78-1.28-2.21-3.21-3.34-4.16
			c10.69-5.6,18.11-18.52,20.18-36.96v-1.15H450.49z M451.06,373.35v4.98H431.8v-4.98H451.06z M456.93,411.51
			c-1.16,0.96-2.76,2.91-3.54,4.22c-11.57-6.7-17.57-19.61-20.94-36.26l4.89-0.96C440.09,393.4,446.12,405.84,456.93,411.51z"/>
		<path class="st5" d="M480.74,379.96c-3.79,6.53-9.78,13.31-15.25,17.63c-0.4-1.12-1.74-3.88-2.54-5.11
			c4.86-3.47,10.1-8.91,13.31-14.36L480.74,379.96z M479.95,368.18c-3.38,4.8-8.72,9.96-13.64,13.21c-0.55-1.16-1.81-3.21-2.62-4.27
			c4.25-2.69,9.07-7.16,11.4-10.87L479.95,368.18z M475.96,383.99l0.21,0.11v32.08h-4.97v-27.43L475.96,383.99z M513.49,397.33v4.37
			H479.6v-4.37H513.49z M512.47,389.14v4.25h-31.57v-4.25H512.47z M487.4,402.03c2.39,2.19,5.35,5.29,6.72,7.38l-3.83,2.75
			c-1.27-2.11-4.11-5.38-6.49-7.72L487.4,402.03z M510.25,367.76v18.27h-26.27v-18.27H510.25z M488.9,375.09h16.22v-3.6H488.9
			V375.09z M488.9,382.29h16.22v-3.68H488.9V382.29z M505.69,392.85v18.07c0,2.52-0.5,3.81-2.32,4.53
			c-1.81,0.75-4.45,0.78-8.31,0.78c-0.23-1.37-0.98-3.26-1.64-4.58c2.71,0.11,5.33,0.11,6.09,0.06c0.83-0.05,1.04-0.24,1.04-0.9
			v-17.95H505.69z"/>
		<path class="st5" d="M259.52,496l0.11,4.47c-9.44,1.26-19.55,2.54-26.57,3.41l-0.69-4.75C239.17,498.43,249.69,497.2,259.52,496z
			 M259.62,467.63v4.28h-27.16v-4.28H259.62z M236.07,457.82c1.94,2,4.04,4.77,4.92,6.68l-3.32,2.29c-0.84-1.91-2.86-4.85-4.74-6.91
			L236.07,457.82z M258.02,479.41v4.22h-23.87v-4.22H258.02z M257.09,488.29v4.19h-21.71v-4.19H257.09z M240.4,471.57
			c1.63,1.78,3.45,4.24,4.14,6.01l-3.76,2.11c-0.64-1.74-2.37-4.33-3.97-6.21L240.4,471.57z M244.39,456.07v13.04h-4.07v-13.04
			H244.39z M248.51,480.72v19.52h-4.76v-19.52H248.51z M255.8,473.38c-1.51,2.85-3.13,5.98-4.48,8.01l-3.77-1.42
			c1.3-2.2,2.96-5.74,3.8-8.17L255.8,473.38z M251.93,456.07v13.04h-4.13v-13.04H251.93z M260.05,460.18
			c-2.06,2.42-4.3,5.02-6.1,6.73l-3.09-1.91c1.66-1.86,3.94-4.98,5.14-7.08L260.05,460.18z M281.59,470.18v4.77h-22.04v-4.77H281.59
			z M264.91,478.69c2.17,3.87,4.18,8.86,4.67,12.15l-4.55,1.62c-0.45-3.23-2.31-8.37-4.37-12.33L264.91,478.69z M276.83,456.16v43.9
			c0,2.84-0.65,4.22-2.38,5.04c-1.75,0.84-4.44,0.99-8.76,0.96c-0.25-1.29-1.07-3.5-1.79-4.83c3.06,0.11,5.89,0.08,6.76,0.06
			c0.91-0.02,1.26-0.29,1.26-1.2v-43.92H276.83z"/>
		<path class="st5" d="M311.38,468.15c-0.73,14.11-2.16,29.83-17.33,38.12c-0.78-1.32-2.37-3.1-3.75-4.12
			c14.23-7.31,14.86-21.54,15.42-34H311.38z M338.86,465.08v4.95h-47.5v-4.95H338.86z M329.84,477.77v4.94h-21.17v-4.94H329.84z
			 M316.22,455.53c1.48,2.49,3.12,5.77,3.94,7.92l-5.22,2.24c-0.67-2.18-2.34-5.66-3.69-8.25L316.22,455.53z M333.81,477.77
			c0,0-0.05,1.6-0.17,2.31c-1.04,15.05-2.14,21.01-4.32,23.22c-1.41,1.55-2.9,2.01-5.17,2.18c-2,0.17-5.56,0.13-9.2-0.08
			c-0.08-1.51-0.82-3.64-1.84-5.01c3.83,0.32,7.61,0.37,9.15,0.37c1.18,0,1.89-0.11,2.6-0.65c1.67-1.5,2.76-7.56,3.63-21.52v-0.83
			H333.81z"/>
		<path class="st5" d="M393.59,458.73v4.83h-38.14v42.61h-4.97v-47.44H393.59z M386.69,468.4v4.37h-27.25v-4.37H386.69z
			 M366.81,477.76v21.38h-4.71v-21.38H366.81z M384,477.76v17.6h-19.33v-4.31h14.59v-9.04h-14.59v-4.25H384z M395.67,458.73v41.25
			c0,2.88-0.65,4.4-2.5,5.21c-1.82,0.84-4.67,0.99-9.26,0.96c-0.22-1.37-1-3.68-1.78-5.01c3.15,0.14,6.3,0.11,7.22,0.09
			c0.96-0.05,1.29-0.38,1.29-1.29v-41.21H395.67z"/>
		<path class="st5" d="M417.62,494.78c-1.61,3.35-3.8,7.36-6.59,9.95l-4.22-2.5c2.73-2.34,5.17-6.14,6.56-9.31L417.62,494.78z
			 M454.41,468.34v4.04h-46.6v-4.04H454.41z M451.59,459.59v4.04h-41.27v-4.04H451.59z M448.35,474.77v16.08h-34.31v-16.08H448.35z
			 M422.91,463.43c0.93,1.61,1.84,3.78,2.17,5.23l-4.88,1.17c-0.26-1.48-1.08-3.73-1.95-5.4L422.91,463.43z M418.89,481.19h24.4
			v-3.08h-24.4V481.19z M418.89,487.51h24.4v-3.12h-24.4V487.51z M424.76,493.49v6.37c0,1.34,0.48,1.55,3.15,1.55
			c1.19,0,6.97,0,8.6,0c2.19,0,2.51-0.61,2.76-5c1.06,0.69,3.07,1.36,4.4,1.64c-0.57,6.07-2,7.54-6.69,7.54c-1.31,0-8.32,0-9.57,0
			c-6.11,0-7.61-1.25-7.61-5.7v-6.41H424.76z M428.66,489.98c2.96,1.38,6.75,3.7,8.66,5.4l-3.16,3.16
			c-1.76-1.72-5.46-4.19-8.45-5.74L428.66,489.98z M432.41,455.48c1.12,1.76,2.24,4.23,2.66,5.85l-5.23,1.15
			c-0.37-1.59-1.39-4.14-2.38-5.99L432.41,455.48z M444.31,464.37c-1.21,2.25-2.31,4.29-3.32,5.85l-4.48-1.1
			c0.87-1.69,1.99-4.13,2.55-5.8L444.31,464.37z M447.76,492.39c2.69,2.82,5.66,6.74,6.9,9.45l-4.38,2.05
			c-1.1-2.66-3.94-6.72-6.61-9.68L447.76,492.39z"/>
	</g>
</g>
</svg>
