<?xml version="1.0" encoding="utf-8"?>
<!-- Generator: Adobe Illustrator 25.2.3, SVG Export Plug-In . SVG Version: 6.00 Build 0)  -->
<svg version="1.1" id="圖層_1" xmlns="http://www.w3.org/2000/svg" xmlns:xlink="http://www.w3.org/1999/xlink" x="0px" y="0px"
	 viewBox="0 0 686 686" style="enable-background:new 0 0 686 686;" xml:space="preserve">
<style type="text/css">
	.st0{fill:#F7F8F8;}
	.st1{fill:#DCDDDD;}
	.st2{fill:#FFFFFF;}
	.st3{fill:#B5B5B6;}
	.st4{fill:#44BABC;}
	.st5{fill:#1D2088;}
</style>
<g>
	<g>
		<g>
			<rect x="-0.2" y="-0.2" class="st0" width="686.39" height="686.39"/>
		</g>
		<g>
			<polygon class="st1" points="686.2,-0.2 621.79,64.21 621.79,334.54 686.2,334.54 			"/>
		</g>
		<g>
			<polygon class="st1" points="686.2,686.2 621.79,621.79 621.79,305.4 686.2,305.4 			"/>
		</g>
		<g>
			<polygon class="st2" points="-0.2,-0.2 64.21,64.21 334.54,64.21 334.54,-0.2 			"/>
		</g>
		<g>
			<polygon class="st2" points="686.2,-0.2 621.79,64.21 305.4,64.21 305.4,-0.2 			"/>
		</g>
		<g>
			<polygon class="st3" points="686.2,686.2 621.79,621.79 351.46,621.79 351.46,686.2 			"/>
		</g>
		<g>
			<polygon class="st3" points="-0.2,686.2 64.21,621.79 380.6,621.79 380.6,686.2 			"/>
		</g>
	</g>
	<g>
		<g>
			<path class="st4" d="M345.61,104.01h-14.76v-8.64h23.52v97.8h-8.76V104.01z"/>
		</g>
	</g>
	<g>
		<path class="st5" d="M121.28,311.98c-0.48,4.72-1.43,9.82-2.5,13.16c-0.87-0.46-2.68-1.09-3.66-1.37c1.2-3.24,1.9-8.07,2.33-12.44
			L121.28,311.98z M115.27,292.7c0.91-0.25,1.85-1.32,2.89-2.96c1.12-1.56,4.63-7.68,6.63-13.49l4.18,1.78
			c-2.6,5.93-6.13,12.18-9.56,16.46v0.09c0,0-2.7,1.43-2.7,2.34C116.48,296.01,115.79,293.89,115.27,292.7z M115.65,305
			c1.17-0.28,2.32-1.64,3.94-3.67c1.7-2,7.12-9.84,10.46-17.32l3.83,2.39c-3.88,7.44-9.06,15.03-14.1,20.46v0.11
			c0,0-2.75,1.39-2.75,2.29C116.86,308.35,116.14,306.19,115.65,305z M116.62,293.54l2.03-1.34l9.18-0.73
			c-0.24,1.18-0.42,2.86-0.45,3.79c-8.3,0.89-9.79,1.23-10.68,1.67L116.62,293.54z M116.89,305.81l2.05-1.41l14.09-1.95
			c-0.15,1.13-0.21,2.8-0.16,3.72c-12.88,2.04-14.73,2.51-15.84,3.1L116.89,305.81z M126.68,311.03c0.67,3.63,1.28,8.29,1.47,11.41
			l-3.71,0.94c-0.08-3.16-0.67-7.89-1.25-11.53L126.68,311.03z M131.96,297.18c1.43,3.3,2.97,7.66,3.65,10.22l-3.68,1.51
			c-0.56-2.67-2.06-7.14-3.38-10.5L131.96,297.18z M132.26,309.56c1.26,3.31,2.54,7.56,3.14,10.33l-3.45,1.28
			c-0.5-2.85-1.81-7.19-2.93-10.5L132.26,309.56z M161.04,278.64v4.47h-20.53v43.26h-4.58v-47.73H161.04z M158.43,293.15v3.92H141.7
			v-3.92H158.43z M157.97,302.27v3.95h-15.81v-3.95H157.97z M146.18,284.43c1.23,2.29,2.29,5.44,2.65,7.44l-3.18,1.14
			c-0.3-2.06-1.33-5.23-2.48-7.58L146.18,284.43z M148.1,304.32v6.33c0,1.29,0.18,1.76,1.17,1.76c0.84,0,4.57,0,5.42,0
			c0.88,0,2.39-0.06,3.19-0.28c0.08,1.09,0.19,2.63,0.34,3.61c-0.74,0.25-2.16,0.28-3.41,0.28c-1.02,0-5.12,0-5.93,0
			c-4.02,0-4.9-1.5-4.9-5.42v-6.28H148.1z M150.42,296.84c0.8,1.44,1.76,3.41,2.17,4.62l-3.68,1.44c-0.38-1.32-1.26-3.35-2.03-4.85
			L150.42,296.84z M157.15,285.52c-1.04,3.16-2.14,6.81-3.13,9.16l-2.93-0.93c0.83-2.49,1.97-6.5,2.43-9.21L157.15,285.52z
			 M164.16,278.64v42.33c0,2.48-0.44,3.73-1.95,4.51c-1.51,0.72-3.8,0.84-7.17,0.81c-0.17-1.19-0.74-3.21-1.34-4.42
			c2.12,0.11,4.28,0.08,4.95,0.08c0.7-0.05,0.92-0.27,0.92-1v-42.33H164.16z"/>
		<path class="st5" d="M194.33,276.15c-0.38,7.21-1.26,34.56-16.88,48.31c-1.05-1.3-2.72-2.61-4.42-3.58
			c15.5-12.5,15.71-39.05,16.01-44.73H194.33z M221.88,284.77v4.95H175v-4.95H221.88z M212.21,296.2l0.93-0.23l3.5,1.53
			c-4.47,16.25-15.78,24.64-29.71,28.78c-0.62-1.31-1.86-3.29-2.91-4.34c12.74-3.25,23.54-11.27,27.2-24.8v-0.95H212.21z
			 M223.27,321.55c-1.13,1.1-2.59,3.25-3.29,4.65c-16.17-3.44-26.14-12.15-31.64-26.19l4.43-1.3
			C197.45,310.86,207.53,318.75,223.27,321.55z M211.76,296.2v4.94H188.4l1.46-4.94H211.76z"/>
		<path class="st5" d="M250.54,285.26v4.13h-19.11v-4.13H250.54z M237.95,307.1v18.5h-4.49v-18.5H237.95z M248.63,292.58v3.95
			h-15.06v-3.95H248.63z M248.63,299.77v3.95h-15.06v-3.95H248.63z M249.2,307.1v16.05h-13.61v-4.19h9.33v-7.71h-9.33v-4.16H249.2z
			 M241.39,276.49c1.29,2.21,2.65,5.15,3.26,7.09l-4.5,1.67c-0.52-2-1.86-5.08-3.03-7.34L241.39,276.49z M263.55,278.35
			c-2.71,6.04-7.01,12.09-11.17,15.93c-0.78-0.93-2.66-2.74-3.75-3.59c4.08-3.34,7.92-8.54,10.16-13.8L263.55,278.35z
			 M263.87,306.42c-0.74,9.02-2.71,16.11-11.41,20.14c-0.57-1.2-1.96-3.02-3.03-3.92c7.49-3.18,8.88-8.99,9.45-16.22H263.87z
			 M276.15,290.75v16.6h-21.46v-16.6H276.15z M259.54,302.86h11.54v-7.59h-11.54V302.86z M270.28,276.37
			c4.22,4.45,9.29,10.55,11.48,14.6l-3.9,2.8c-2.1-4.07-6.96-10.4-11.16-15.03L270.28,276.37z M272.3,305.15v14.2
			c0,1.41,0.15,1.6,1.07,1.6c0.43,0,2.17,0,2.67,0c1.01,0,1.2-0.75,1.33-6.17c0.98,0.84,3.07,1.65,4.44,1.97
			c-0.5,7.04-1.77,8.88-5.16,8.88c-0.87,0-3.28,0-4.12,0c-4.26,0-5.2-1.51-5.2-6.25v-14.23H272.3z"/>
		<path class="st5" d="M307.45,299.53l0.64,4.88c-6.15,1.81-12.68,3.67-17.82,5.06l-1.21-5.22
			C293.83,303.2,300.8,301.31,307.45,299.53z M307.54,286.82v4.98H289.8v-4.98H307.54z M301.65,276.2v44.28
			c0,2.66-0.52,4.01-2.11,4.82c-1.59,0.84-3.9,0.99-7.59,0.94c-0.17-1.29-0.83-3.41-1.46-4.81c2.2,0.05,4.31,0.05,4.99,0.03
			c0.72-0.02,0.98-0.24,0.98-1.01V276.2H301.65z M337,285.84v39.89h-5.28v-35.06h-16.56v35.41h-5.1v-40.24H337z M333.82,301.95v4.83
			h-20.66v-4.83H333.82z M333.82,318.37v4.85h-20.66v-4.85H333.82z M327.22,276.96c-1.24,4.16-2.78,8.75-4.07,11.72l-4.71-0.85
			c1.1-3.18,2.28-8.06,2.77-11.57L327.22,276.96z"/>
		<path class="st5" d="M361.16,294.72c-2.5,7.79-7.17,17.24-11.78,22.31c-0.51-1.47-1.75-3.6-2.59-4.9
			c4.34-4.29,9.01-12.39,11.19-18.86L361.16,294.72z M370.94,281.01c-5.78,2.1-14.1,3.6-21.17,4.47c-0.17-1.16-0.83-2.88-1.38-3.99
			c6.91-1.01,14.86-2.71,19.75-4.68L370.94,281.01z M371.18,291.39v4.77h-22.64v-4.77H371.18z M362.67,280.9v45.32h-4.95V280.9
			H362.67z M370.97,305.41l-3.03,4.2c-1.48-2.68-5.85-8.68-7.73-10.93l2.34-2.17C364.16,297.93,369.75,303.91,370.97,305.41z
			 M367.31,318.21c1.44-0.49,2.54-3.14,4.05-7.41c1.54-4.07,6.05-19.42,8.22-33.13l5.46,1c-2.57,14.56-6.87,30.11-11.24,41.39v0.08
			c0,0-4.73,2.05-4.75,3.12C368.8,322.23,367.9,319.69,367.31,318.21z M368.84,318.75l2.81-1.72l21.11-2.98
			c0.12,1.46,0.51,3.55,0.81,4.64c-20.12,3.17-22.75,3.68-24.52,4.57L368.84,318.75z M388.78,298.53
			c3.54,7.85,7.48,18.05,8.96,24.31l-5.2,2.13c-1.37-6.29-5.05-16.74-8.48-24.72L388.78,298.53z"/>
		<path class="st5" d="M444.63,289.26c-8.34,10.1-22.4,16.84-36.25,20.86c-0.61-1.1-2.05-3.22-2.96-4.23
			c13.97-3.35,27.55-9.71,34.91-18.78L444.63,289.26z M417.22,293.59c-1.72,3.41-4.07,7.42-7.12,10l-4.13-2.5
			c3.03-2.33,5.61-6.13,7.08-9.36L417.22,293.59z M453.71,280.56v10.92h-5.19v-6.36h-35.92v6.36h-5.01v-10.92H453.71z
			 M417.05,311.06v8.15h30.17v4.8h-35.18v-12.95H417.05z M424.2,291.05v9.82c0,1.55,0.59,1.82,3.66,1.82c1.41,0,8.26,0,10.15,0
			c2.5,0,2.95-0.72,3.18-5.58c1.03,0.72,2.92,1.38,4.19,1.64c-0.6,6.44-1.99,8.01-7.01,8.01c-1.36,0-9.57,0-10.85,0
			c-6.29,0-7.89-1.24-7.89-5.83v-9.88H424.2z M424.66,285.27c3.28,1.33,7.4,3.57,9.47,5.32l-2.62,3.28
			c-1.97-1.81-6.01-4.19-9.32-5.61L424.66,285.27z M431.79,275.55c0.89,2.06,1.74,4.76,2.02,6.47l-5.16,0.98
			c-0.21-1.73-0.94-4.52-1.73-6.64L431.79,275.55z M433.08,308.29v13.43h-5.19v-13.43H433.08z M446.4,292.05
			c3.3,2.84,7.31,6.93,9.09,9.75l-3.9,2.78c-1.68-2.79-5.52-7.07-8.85-10.06L446.4,292.05z M449.53,310.43v15.67h-5.1v-15.67H449.53
			z"/>
		<path class="st5" d="M475.53,314.64c-1.82,4.06-4.51,8.81-6.87,11.93l-4.93-2.12c2.33-2.72,5.12-7.2,6.89-11.17L475.53,314.64z
			 M471.11,278.39v34.03h-4.8v-34.03H471.11z M480.46,291.32v4.5h-11.57v-4.5H480.46z M482.71,278.39v31.4h-13.73v-4.58h9v-22.29h-9
			v-4.53H482.71z M484.35,314.47c0.7,3.53,1.3,8.09,1.36,10.87l-5.01,0.77c-0.02-2.8-0.42-7.48-1.07-11.07L484.35,314.47z
			 M498.65,279.67c-0.86,8-3.29,13.31-12.96,16.23c-0.46-1.16-1.72-2.93-2.74-3.8c8.27-2.22,10.03-6.24,10.67-12.42H498.65z
			 M508.75,278.28v4.5h-24.02v-4.5H508.75z M510.4,296.08v15.51h-24.05v-15.51H510.4z M495.92,314.01
			c1.41,3.42,2.85,7.97,3.36,10.85l-5.08,1.07c-0.44-2.8-1.74-7.49-3.06-11.05L495.92,314.01z M491.15,307.4h14.21v-7.16h-14.21
			V307.4z M512.01,278.28c0,0-0.03,1.19-0.08,1.82c-0.47,7.65-0.98,10.95-2.18,12.27c-0.92,0.99-1.99,1.33-3.44,1.44
			c-1.28,0.12-3.68,0.15-6.17,0.05c-0.08-1.28-0.58-3.01-1.27-4.17c2.21,0.21,4.26,0.24,5.13,0.24c0.75,0,1.23-0.08,1.61-0.49
			c0.77-0.77,1.19-3.47,1.52-10.5v-0.66H512.01z M506.84,312.86c2.42,3.51,5.41,8.31,6.72,11.35l-4.9,2.15
			c-1.19-3.05-4.03-8.02-6.42-11.65L506.84,312.86z"/>
		<path class="st5" d="M571.28,319.62v4.95h-48.88v-4.95H571.28z M569.67,278.89v4.91h-45.56v-4.91H569.67z M541.52,282.62
			c-1.73,9.52-4.18,21.81-6.04,29.04h-5.69c2.07-7.48,4.66-19.83,6.16-29.04H541.52z M556.76,306.89v4.77h-23.2v-4.77H556.76z
			 M558.44,291.81v4.77h-22.14v-4.77H558.44z M557.23,291.81l0.9-0.22l3.88,0.46c-0.82,8.07-2.49,20.13-3.96,29.3l-5.28-0.47
			c1.57-9.17,3.27-22.05,3.93-28.47v-0.6H557.23z"/>
		<path class="st5" d="M160.83,367.88c-3.53,9.18-9.1,18.58-14.96,24.7c-0.49-1.23-1.9-3.99-2.8-5.2c5.14-5.08,10.03-13,12.93-21
			L160.83,367.88z M155.4,375.9l0.05,0.05v40.26h-4.86v-35.47L155.4,375.9z M194.47,400.56v3.98h-36.13v-3.98H194.47z
			 M190.42,393.73l-0.17,3.57c-10.92,0.35-22.42,0.67-30.39,0.83l-0.43-3.94C167.14,394.18,179.12,393.97,190.42,393.73z
			 M193.91,370.14v3.8h-34.24v-3.8H193.91z M192,376.57v14.63h-30.12v-14.63H192z M167.43,404.01c2.43,2.05,5.42,5.04,6.84,7.08
			l-4.02,2.68c-1.28-2.05-4.12-5.19-6.58-7.41L167.43,404.01z M166.56,382.43h20.54v-2.87h-20.54V382.43z M166.56,388.19h20.54v-2.9
			h-20.54V388.19z M179.21,366.6v29.1l-4.95,0.48V366.6H179.21z M187.14,396.21v15.1c0,2.49-0.5,3.71-2.35,4.38
			c-1.84,0.69-4.64,0.66-8.68,0.66c-0.23-1.28-0.89-3.05-1.49-4.32c2.92,0.11,5.71,0.11,6.55,0.06c0.83-0.02,1.05-0.24,1.05-0.9
			v-14.98H187.14z M186.81,389.7c2.9,2.17,6.43,5.36,8.12,7.58l-3.68,2.17c-1.54-2.19-4.95-5.53-7.86-7.86L186.81,389.7z"/>
		<path class="st5" d="M233.89,380.78c-5.89,11.18-16.85,23.07-27.66,29.34c-0.91-1.46-2.58-3.39-4.02-4.58
			c10.88-5.47,21.8-16.99,27.18-27.65L233.89,380.78z M251.2,377.02v5.25h-47.24v-5.25H251.2z M237.72,366.18v42.8
			c0,3.41-0.82,4.9-2.96,5.74c-2.11,0.87-5.51,0.99-10.89,0.96c-0.23-1.5-1.07-3.89-1.82-5.4c3.65,0.17,7.45,0.14,8.51,0.12
			c1.11-0.05,1.54-0.38,1.54-1.43v-42.8H237.72z"/>
		<path class="st5" d="M268.72,385.51v12.84c0,5.59-0.66,13.18-4.46,18.1c-0.68-0.98-2.58-2.85-3.56-3.48
			c3.02-4.2,3.31-10.02,3.31-14.68v-12.78H268.72z M261.8,378.16c0.93-0.2,1.83-0.98,2.91-2.17c1.07-1.16,4.54-5.47,6.69-9.81
			l5.18,1.6c-2.93,4.7-6.79,9.49-10.18,12.52v0.08c0,0-2.99,1.53-2.99,2.47C263.17,381.83,262.35,379.44,261.8,378.16z
			 M263.27,379.11l2.52-1.52l16.87-1.24c0.18,1.3,0.62,3.04,0.96,4.09c-16.51,1.49-18.74,1.8-20.2,2.4L263.27,379.11z
			 M281.43,385.51v4.32h-15.01v-4.32H281.43z M280.2,399.36l0.98,3.15c-4.01,2.57-8.13,5.17-11.64,7.3l-1.65-4.36
			C271.04,404.07,275.64,401.7,280.2,399.36z M271.37,392.22c2.58,1.66,5.99,4.02,7.76,5.49l-2.74,2.74
			c-1.7-1.58-5.08-4.08-7.67-5.83L271.37,392.22z M283.65,385.51v25.71c0,2.31-0.48,3.47-2.04,4.19c-1.59,0.66-3.98,0.72-7.33,0.72
			c-0.23-1.19-0.95-2.95-1.58-4.09c2.28,0.11,4.5,0.08,5.21,0.06c0.73,0,0.92-0.22,0.92-0.89v-25.71H283.65z M280.38,370.13
			c2.47,3.83,5.46,9.02,6.81,12.24l-4.43,1.89c-1.2-3.28-4.1-8.64-6.54-12.58L280.38,370.13z M293.21,366.27v16.45
			c0,1.97,0.39,2.68,2.13,2.68c1.43,0,7.56,0,9.11,0c1.38,0,3.62-0.11,4.73-0.37c0.08,1.33,0.28,3.22,0.48,4.38
			c-1,0.29-3.11,0.37-5.09,0.37c-1.57,0-8.16,0-9.35,0c-5.53,0-7.04-1.94-7.04-7.19v-16.34H293.21z M293.21,391.5v17.71
			c0,1.86,0.44,2.17,2.82,2.17c1.04,0,6.26,0,7.71,0c2.06,0,2.44-0.96,2.69-6.44c1.09,0.81,3.13,1.59,4.52,1.88
			c-0.6,7.09-2,9.06-6.76,9.06c-1.3,0-7.59,0-8.8,0c-5.76,0-7.22-1.5-7.22-6.64V391.5H293.21z M307.26,373.28v4.43h-16.02v-4.43
			H307.26z M307.77,397.49v4.58h-16.5v-4.58H307.77z"/>
		<path class="st5" d="M336.99,375.26v4.13H318.5v-4.13H336.99z M324.49,397.1v18.5h-3.96v-18.5H324.49z M335.31,382.58v3.95H320.6
			v-3.95H335.31z M335.31,389.77v3.95H320.6v-3.95H335.31z M335.58,397.1v16.05h-13.04v-4.19h9.02v-7.71h-9.02v-4.16H335.58z
			 M327.21,365.74c1.59,2.2,3.36,5.1,4.28,7.03l-3.68,2.57c-0.78-2.01-2.58-5.17-4.08-7.43L327.21,365.74z M348.16,368.07l0.84-0.17
			l3.01,0.98c-2,9.56-6.66,16.95-12.63,21.03c-0.67-1.01-2.06-2.63-3.04-3.42c5.1-3.19,9.52-10.17,11.01-17.66v-0.76H348.16z
			 M368.12,410.89v4.14h-30.74v-4.14H368.12z M340.16,374.03c2.06,1.13,4.61,2.87,5.88,4.11l-2.82,3.58
			c-1.21-1.3-3.73-3.19-5.76-4.46L340.16,374.03z M348.56,368.07v4.08h-9.36v-4.08H348.56z M363.49,388.58v13.33h-21.66v-13.33
			H363.49z M347.73,402.24c1.47,2.35,2.83,5.5,3.18,7.54l-4.61,1.32c-0.31-2.03-1.53-5.25-2.92-7.68L347.73,402.24z M359.52,381.37
			v4.1h-13.66v-4.1H359.52z M346.2,397.92h12.67v-5.4H346.2V397.92z M369.36,385.65c-1.18,0.84-2.69,2.53-3.5,3.72
			c-6.48-4.34-10.68-12.62-12.93-21.97l4.21-0.83C359.14,374.59,363.29,382.14,369.36,385.65z M362.59,403.21
			c-1.62,3.2-3.39,6.75-4.87,9.06l-3.92-1.13c1.33-2.49,2.97-6.42,3.74-9.15L362.59,403.21z M365.01,370.16
			c-1.93,1.82-4.32,3.58-6.11,4.78l-2.55-2.56c1.7-1.25,4.23-3.54,5.67-5.02L365.01,370.16z M368.39,376.48
			c-2.15,1.71-4.76,3.29-6.66,4.35l-2.43-2.53c1.84-1.12,4.6-3.25,6.13-4.65L368.39,376.48z"/>
		<path class="st5" d="M383.4,369.33v37.53h-4.76v-37.53H383.4z M396.89,369.33v32.64h-15.5v-4.7h10.76V374h-10.76v-4.67H396.89z
			 M394.09,383.13v4.59h-12.65v-4.59H394.09z M406.35,368.44v19.4c0,9.19-1.4,21.43-11.23,28.83c-0.76-1.01-2.72-2.76-3.8-3.46
			c9.15-6.86,10.02-17.07,10.02-25.41v-19.37H406.35z M421.76,394.49v4.62h-17.64v-4.62H421.76z M421.83,368.44v4.74h-17.45v-4.74
			H421.83z M421.83,381.45v4.62h-17.45v-4.62H421.83z M425,368.44v41.62c0,2.91-0.66,4.39-2.55,5.23c-1.92,0.81-4.94,0.94-9.54,0.94
			c-0.23-1.4-1.07-3.64-1.82-4.97c3.23,0.14,6.59,0.08,7.53,0.06c0.97-0.02,1.32-0.35,1.32-1.29v-41.58H425z"/>
		<path class="st5" d="M455.56,366.15c-0.38,7.21-1.27,34.56-16.88,48.31c-1.05-1.3-2.72-2.61-4.42-3.58
			c15.5-12.5,15.71-39.05,16.01-44.73H455.56z M483.1,374.77v4.95h-46.88v-4.95H483.1z M473.43,386.2l0.93-0.23l3.5,1.53
			c-4.47,16.25-15.78,24.64-29.71,28.78c-0.62-1.31-1.86-3.29-2.91-4.34c12.74-3.25,23.54-11.27,27.2-24.8v-0.95H473.43z
			 M484.49,411.55c-1.13,1.1-2.59,3.25-3.29,4.65c-16.17-3.44-26.14-12.15-31.64-26.19l4.43-1.3
			C458.68,400.86,468.76,408.75,484.49,411.55z M472.99,386.2v4.94h-23.36l1.46-4.94H472.99z"/>
		<path class="st5" d="M511.97,375.26v4.13h-19.31v-4.13H511.97z M499.03,397.1v18.5h-4.31v-18.5H499.03z M510.68,382.58v3.95
			h-15.92v-3.95H510.68z M510.68,389.77v3.95h-15.92v-3.95H510.68z M510.97,397.1v16.05h-14.1v-4.19h9.74v-7.71h-9.74v-4.16H510.97z
			 M502.38,365.95c1.55,2.23,3.21,5.13,4.06,7.09l-4.03,2.3c-0.74-2.01-2.46-5.17-3.87-7.43L502.38,365.95z M542.8,410.05v4.5
			h-30.57v-4.5H542.8z M541.07,372.14v10.21h-4.79v-5.72h-18.54v5.72h-4.58v-10.21H541.07z M536.93,381.01v31.5h-4.98v-27.15h-9.96
			v27.15h-4.74v-31.5H536.93z M534.94,390.48v3.98h-15.61v-3.98H534.94z M534.94,399.88v4.01h-15.61v-4.01H534.94z M526.2,365.84
			c1.67,2.21,3.42,5.17,4.25,7.16l-4.29,2.04c-0.67-2.04-2.43-5.22-3.97-7.5L526.2,365.84z"/>
	</g>
</g>
</svg>
