<?xml version="1.0" encoding="utf-8"?>
<!-- Generator: Adobe Illustrator 25.2.3, SVG Export Plug-In . SVG Version: 6.00 Build 0)  -->
<svg version="1.1" id="圖層_1" xmlns="http://www.w3.org/2000/svg" xmlns:xlink="http://www.w3.org/1999/xlink" x="0px" y="0px"
	 viewBox="0 0 686 686" style="enable-background:new 0 0 686 686;" xml:space="preserve">
<style type="text/css">
	.st0{fill:#00A0E9;}
	.st1{fill:#036EB8;}
	.st2{fill:#69D8FF;}
	.st3{fill:#0054A8;}
	.st4{fill:#FFFFFF;}
	.st5{fill:#1D2088;}
</style>
<g>
	<g>
		<g>
			<rect x="-0.2" y="-0.3" class="st0" width="686.39" height="686.39"/>
		</g>
		<g>
			<polygon class="st1" points="686.2,-0.3 621.79,64.1 621.79,334.43 686.2,334.43 			"/>
		</g>
		<g>
			<polygon class="st1" points="686.2,686.09 621.79,621.68 621.79,305.3 686.2,305.3 			"/>
		</g>
		<g>
			<polygon class="st2" points="-0.2,-0.3 64.21,64.1 334.54,64.1 334.54,-0.3 			"/>
		</g>
		<g>
			<polygon class="st2" points="686.2,-0.3 621.79,64.1 305.4,64.1 305.4,-0.3 			"/>
		</g>
		<g>
			<polygon class="st3" points="686.2,686.09 621.79,621.68 351.46,621.68 351.46,686.09 			"/>
		</g>
		<g>
			<polygon class="st3" points="-0.2,686.09 64.21,621.68 380.6,621.68 380.6,686.09 			"/>
		</g>
	</g>
	<g>
		<g>
			<g>
				<path class="st4" d="M323.53,178.07h-7.56v-23.52h7.56v-7.44h7.44v-6.12h-7.44v-7.44h-7.56v-23.52h7.56v-7.44h7.44v-7.32h23.52
					v7.32h7.32v7.44h7.44v23.52h-7.44v7.44h-7.32v6.12h7.32v7.44h7.44v23.52h-7.44v7.44h-7.32v7.56h-23.52v-7.56h-7.44V178.07z
					 M353.17,139.67v-7.32h7.44v-21h-7.44v-7.44h-21v7.44h-7.32v21h7.32v7.32H353.17z M332.17,176.87v7.32h21v-7.32h7.44v-21h-7.44
					v-7.44h-21v7.44h-7.32v21H332.17z"/>
			</g>
		</g>
		<g>
			<path class="st5" d="M166.23,285.05v4.13h-21.79v-4.13H166.23z M151.42,307.17v18.38h-4.49v-18.38H151.42z M164.14,292.51v3.95
				h-17.1v-3.95H164.14z M164.14,299.79v3.95h-17.1v-3.95H164.14z M163.98,307.17v16.05H149.4v-4.13h10.05v-7.8H149.4v-4.13H163.98z
				 M155.17,276.29c1.36,2.25,2.49,5.39,2.78,7.46l-4,1.58c-0.21-2.12-1.23-5.3-2.5-7.66L155.17,276.29z M177.08,276.96
				c-1.86,7.85-5,15.45-8.75,20.32c-1.02-0.79-3.24-2.19-4.51-2.83c3.79-4.42,6.61-11.4,8.15-18.51L177.08,276.96z M194.72,300.42
				v4.88h-28.95v-4.88H194.72z M193.56,283.91v4.68h-21.67v-4.68H193.56z M182.97,285.91v40.24h-5.16v-40.24H182.97z"/>
			<path class="st5" d="M239.61,280.41l0.86-0.23l3.29,1.96c-6.99,12.75-22.68,20.12-37.55,23.25c-0.46-1.3-1.48-3.33-2.38-4.43
				c14.02-2.43,29.13-9.4,34.79-19.79v-0.77H239.61z M230.21,277.16c-5.24,5.97-12.47,11.21-22.52,15.21
				c-0.72-1.22-2.32-2.97-3.45-3.8c9.67-3.25,16.6-8.11,20.32-12.62L230.21,277.16z M247.07,299.65l0.92-0.23l3.36,1.79
				c-6.71,15.9-23.01,22.51-41.05,25.07c-0.38-1.39-1.36-3.49-2.21-4.66c16.91-1.9,32.47-8,37.93-21.23v-0.75H247.07z
				 M238.95,295.79c-5.73,6.7-14.15,12.51-26.04,16.74c-0.61-1.19-2.06-3.06-3.13-3.96c11.37-3.48,19.36-8.89,23.54-14.05
				L238.95,295.79z M217.35,285.74c3.72,1.73,8.39,4.51,10.69,6.61l-3.61,3.23c-2.18-2.1-6.77-5.05-10.48-6.93L217.35,285.74z
				 M239.83,280.41v4.26h-18.84v-4.26H239.83z M224.77,305.83c3.82,2.01,8.63,5.15,11.02,7.53l-3.98,3.21
				c-2.19-2.35-6.91-5.69-10.78-7.84L224.77,305.83z M247.39,299.65v4.32h-18.18v-4.32H247.39z"/>
			<path class="st5" d="M271.82,281.88h7.25l13.16,39.77h-6.63l-6.4-21.58c-1.34-4.33-2.51-8.78-3.75-13.24h-0.22
				c-1.19,4.52-2.41,8.91-3.72,13.24l-6.45,21.58h-6.38L271.82,281.88z M266.09,305.42h18.58v4.93h-18.58V305.42z"/>
			<path class="st5" d="M301.52,281.88h12.08c8.85,0,15.18,3.04,15.18,12.05c0,8.68-6.32,12.65-14.97,12.65h-6v15.07h-6.29V281.88z
				 M313.23,301.54c6.31,0,9.34-2.43,9.34-7.6c0-5.28-3.26-6.97-9.59-6.97h-5.18v14.58H313.23z"/>
			<path class="st5" d="M340.56,281.88h12.08c8.85,0,15.19,3.04,15.19,12.05c0,8.68-6.32,12.65-14.97,12.65h-6v15.07h-6.29V281.88z
				 M352.27,301.54c6.31,0,9.34-2.43,9.34-7.6c0-5.28-3.26-6.97-9.59-6.97h-5.18v14.58H352.27z"/>
			<path class="st5" d="M390.34,295.05c-2.42,8.56-7.05,18.63-11.96,23.94c-0.54-1.46-1.81-3.5-2.67-4.76
				c4.52-4.69,9.12-13.18,11.14-20.39L390.34,295.05z M401.03,292.09v4.74h-24.08v-4.74H401.03z M400.91,280.56
				c-6.01,2.2-14.76,3.74-22.15,4.6c-0.23-1.13-0.87-2.88-1.45-4.01c7.14-0.97,15.4-2.63,20.24-4.58L400.91,280.56z M392.25,280.96
				v45.15h-5.1v-45.15H392.25z M400.98,308.02l-3.02,4.23c-1.76-3.06-6.6-9.64-8.64-12.21l2.51-2.47
				C393.53,299.23,399.65,306.32,400.98,308.02z M423.5,281.12v42.2h-5.22v-37.31h-10.6v37.69h-4.98v-42.58H423.5z M421.06,314.4
				v4.89h-16.51v-4.89H421.06z"/>
			<path class="st5" d="M451.31,285.26l0.9-0.2l2.72,1.95c-3.87,9.75-11.73,18.75-19.22,23.59c-0.36-1.44-1.41-4.15-2.09-5.12
				c6.83-3.94,13.77-11.64,16.65-19.25v-0.97H451.31z M451.8,285.26v4.64h-16.68v-4.64H451.8z M444.52,275.92
				c2,2.1,4.13,4.98,5.12,6.95l-4.17,2.51c-0.93-2.02-2.98-5.1-4.9-7.29L444.52,275.92z M447.64,296.26v29.9h-4.98v-23.95
				L447.64,296.26z M455.75,305.63l-3.19,4.25c-1.75-2.52-6.06-7.56-8.08-9.66l2.95-2.55C449.04,298.93,454.44,304.3,455.75,305.63z
				 M484.47,319.24v5.01h-31.2v-5.01H484.47z M483.24,292.68v4.92h-27.51v-4.92H483.24z M472.25,276.14v45.54h-5.22v-45.54H472.25z"
				/>
			<path class="st5" d="M506.32,280.53c-0.97,15.82-3.42,28.06-11.17,35.94c-0.58-0.99-2.32-3.06-3.36-3.96
				c7-6.66,8.96-18.13,9.67-32.18L506.32,280.53z M518.44,287.61v4.34h-25.86v-4.34H518.44z M515.48,278.7v22.09h-20.33v-4.35h15.59
				v-13.4h-15.3v-4.35H515.48z M502.83,305.76v20.45h-4.65v-20.45H502.83z M516.32,305.76v17.67h-16.24v-4.46h11.26v-8.77h-11.26
				v-4.44H516.32z M542.7,309.06v4.8H517.8v-4.8H542.7z M541.55,286.54v4.65h-22.54v-4.65H541.55z M523.5,276.46
				c1.76,2.7,3.31,6.32,3.84,8.78l-4.38,1.62c-0.44-2.48-1.9-6.21-3.54-9L523.5,276.46z M540.57,297.46v4.7h-20.84v-4.7H540.57z
				 M532.45,288.84v37.36h-4.92v-37.36H532.45z M540.69,277.19c-1.45,3.29-3.02,6.9-4.34,9.32l-4.22-1.12
				c1.26-2.54,2.86-6.54,3.62-9.37L540.69,277.19z"/>
			<path class="st5" d="M169.56,371.53c-3.62,13.21-10.19,25.8-22.43,32.98c-0.7-1.17-2.18-3.04-3.2-4.03
				c11.44-6.38,17.57-18.22,20.32-30.05L169.56,371.53z M193.3,382.8v4.13h-47.85v-4.13H193.3z M189.86,370.06
				c-10.47,1.92-26.86,2.67-40.23,2.65c-0.08-1.13-0.55-2.84-1.01-3.88c13.21-0.06,29.28-0.8,38.13-2.44L189.86,370.06z
				 M190.24,375.57v3.95h-40.94v-3.95H190.24z M188.07,390.04v26.29h-5.1v-22.33h-21.82v22.33h-4.89v-26.29H188.07z M185.08,410.3
				v3.95h-26.05v-3.95H185.08z M185.05,397.07v3.37h-25.5v-3.37H185.05z M185.05,403.62v3.35h-25.5v-3.35H185.05z"/>
			<path class="st5" d="M209.99,391.06c-0.29,10.33-1.1,19.57-4.11,25.71c-0.9-0.63-3.15-1.78-4.31-2.29
				c2.95-5.46,3.54-14.28,3.69-23.77L209.99,391.06z M227.56,382.39v4.55h-24.68v-4.55H227.56z M226.21,371.86v4.49h-21.88v-4.49
				H226.21z M230.17,409.92c3.28,0.03,18.86,0.03,22.9-0.15c-0.81,1.16-1.7,3.52-2.02,5.04h-20.84c-14.49,0-21.17-2.81-24.77-17.08
				l3.71-1.16C212.06,407.91,218.09,409.92,230.17,409.92z M217.73,366.19v18.62h-4.8v-18.62H217.73z M218.75,385.4v24.42h-4.71
				V385.4H218.75z M227.05,394v4.47h-10.59V394H227.05z M234.5,369.26v29.39c0,2.31,0.41,2.73,2.81,2.73c1.1,0,6.6,0,8.02,0
				c1.99,0,2.37-1.1,2.61-6.23c1.12,0.83,3.1,1.65,4.49,1.96c-0.57,6.75-1.98,8.88-6.73,8.88c-1.27,0-7.8,0-9.04,0
				c-5.44,0-7.08-1.46-7.08-7.33v-29.39H234.5z M249.69,369.26v19.56h-18.1v-4.56h13.12v-10.45H231.6v-4.55H249.69z"/>
			<path class="st5" d="M287.5,391.91c-5.29,9.36-14.34,17.69-23.67,22.03c-0.81-1.31-2.45-3.33-3.61-4.38
				c9.17-3.66,18.31-11.29,23.01-19.33L287.5,391.91z M276.4,380.05c-1.96,7.86-5.77,14.44-10.77,18.6
				c-0.84-0.91-2.82-2.57-3.98-3.32c4.86-3.58,8.2-9.39,9.77-16.21L276.4,380.05z M309.04,373.28v4.98h-46.76v-4.98H309.04z
				 M272.49,384.64c2.49,2.11,5.95,5.14,7.63,7.02l-3.45,3.56c-1.61-1.97-4.96-5.14-7.48-7.42L272.49,384.64z M287.99,366.11v50.07
				h-5.37v-50.07H287.99z M310.77,409.34c-1.28,1.1-2.94,3.21-3.79,4.64c-9.35-4.24-18.24-12.54-23.46-21.79l4.24-1.71
				C292.4,398.41,301.46,405.85,310.77,409.34z M301.89,380c-1.44,6.62-4.36,12.35-8.13,16.02c-0.97-0.78-3.12-2.14-4.34-2.74
				c3.82-3.2,6.37-8.37,7.52-14.16L301.89,380z M298.48,384.94c3.49,2.67,8.49,6.62,10.95,9.03l-3.57,3.52
				c-2.29-2.49-7.16-6.6-10.75-9.51L298.48,384.94z"/>
			<path class="st5" d="M347.79,369.5c-5.71,13.79-15.27,24.4-27.3,30.97c-0.57-1.08-2.12-3.21-3.04-4.21
				c11.7-5.7,20.72-15.48,25.75-28.09L347.79,369.5z M346.51,382.16v4.49h-27.79v-4.49H346.51z M339.91,372.1v4.46h-18.78v-4.46
				H339.91z M341.5,391.35v4.14h-12.73v20.51h-4.65v-21.68l2.82-2.96h1.83H341.5z M341.73,399.95v3.95h-14.59v-3.95H341.73z
				 M341.63,408.78v4.19h-14.47v-4.19H341.63z M333.67,366.52v18.53h-4.74v-18.53H333.67z M344.33,391.35v23.89h-4.88v-23.89H344.33
				z M364.58,369.13v4.8h-10.97v42.25h-5.06v-47.05H364.58z M364.36,369.13l0.78-0.2l3.7,2.32c-2.11,5.14-4.84,11.34-7.27,16.22
				c5.22,4.96,6.44,9.23,6.44,12.93c0.02,3.64-0.83,6.23-2.88,7.58c-1.01,0.69-2.29,1.11-3.73,1.3c-1.38,0.16-3.21,0.17-4.91,0.06
				c-0.05-1.39-0.6-3.58-1.4-4.97c1.59,0.16,3,0.18,4.07,0.11c0.92-0.02,1.77-0.2,2.41-0.57c1.15-0.65,1.55-2.09,1.53-4.01
				c0-3.22-1.52-7.25-6.64-11.73c2.59-5.46,5.4-13.17,6.92-17.34v-1.68H364.36z"/>
			<path class="st5" d="M393.41,379.97c-3.73,6.53-9.59,13.33-14.92,17.7c-0.42-1.17-1.79-3.94-2.62-5.17
				c4.77-3.48,9.91-8.92,12.98-14.38L393.41,379.97z M392.59,368.15c-3.35,4.83-8.57,10-13.41,13.25c-0.58-1.16-1.84-3.25-2.65-4.27
				c4.19-2.7,8.89-7.17,11.17-10.88L392.59,368.15z M388.76,384.13l0.21,0.11v31.95h-5V388.9L388.76,384.13z M393.77,412.16
				c0.99-0.57,2.24-1.85,2.24-4.21v-39.58h4.98v43.09c0,0-4.97,2.97-4.97,4.8C395.64,415.13,394.55,413.1,393.77,412.16z
				 M395.6,411.79l2.24-1.76l11.86-2.72c-0.03,1.43,0.05,3.52,0.23,4.63c-10.93,2.89-12.77,3.56-13.91,4.31L395.6,411.79z
				 M421.82,368.38v24.23h-23.31v-4.44h18.33v-15.35h-18.33v-4.44H421.82z M418.33,378.31v4.2h-19.71v-4.2H418.33z M426.8,411.47
				c-1.16,1.04-2.7,3.06-3.45,4.45c-9.83-4.28-15.38-13.19-18.34-25.06l4.18-0.86C411.8,400.11,417.42,408.1,426.8,411.47z
				 M424.84,397.41c-3.14,2.53-7.17,5.2-10.18,6.89l-2.72-3.22c2.87-1.76,7.08-4.9,9.54-7.26L424.84,397.41z"/>
			<path class="st5" d="M483.94,369.81v5.16h-48.49v-5.16H483.94z M445.72,382.07v24.77h-4.95v-24.77H445.72z M463.29,382.07v20.54
				h-20.42v-4.88h15.35v-10.79h-15.35v-4.86H463.29z M477.47,371.27v38.07c0,3.33-0.81,4.98-3.13,5.82
				c-2.38,0.87-6.23,0.94-11.67,0.94c-0.31-1.49-1.34-4.02-2.15-5.46c4.14,0.22,8.7,0.17,9.99,0.15c1.2-0.05,1.62-0.4,1.62-1.54
				v-37.98H477.47z"/>
			<path class="st5" d="M508.16,390.24v6.15c0,5.82-1.44,14.05-11.91,19.84c-0.72-1.04-2.24-2.58-3.37-3.39
				c9.75-4.82,10.51-11.95,10.51-16.54v-6.06H508.16z M502.06,384.74c-1.01,4.92-2.86,9.86-5,13.09c-0.91-0.7-2.93-1.77-4.08-2.27
				c2.18-2.93,3.66-7.38,4.5-11.69L502.06,384.74z M515.6,398.02v4.26h-22.61v-4.26H515.6z M500.9,366.26v10.93
				c0,1.67,0.29,2.24,1.69,2.24c1.2,0,6.21,0,7.47,0c1.25,0,3.29-0.11,4.28-0.37c0.14,1.33,0.28,3.2,0.46,4.34
				c-0.93,0.28-2.84,0.37-4.57,0.37c-1.37,0-6.81,0-7.89,0c-5.12,0-6.39-1.82-6.39-6.67v-10.84H500.9z M514.75,388.6v4.14h-18.1
				l1.94-4.14H514.75z M514.24,370.38v4.04H499.3v-4.04H514.24z M514.64,408.16l-2.95,3.98c-1.61-2.09-5.82-6.72-7.65-8.43
				l2.73-2.35C508.34,402.47,513.46,406.99,514.64,408.16z M522.99,392.64c-0.44,10.51-2,18.39-6.67,23.79
				c-0.78-0.72-2.81-2.23-3.9-2.81c4.58-4.58,5.71-11.95,5.95-21.15L522.99,392.64z M538.82,385.04v4.26h-22.71v-4.26H538.82z
				 M538.17,367.77v4.04h-21.07v-4.04H538.17z M536.2,411.38c1.06,0,5.24,0,6.71-0.03c-0.6,1.01-1.17,3.03-1.37,4.22h-5.66
				c-7.79,0-13.93-2.43-17.17-14.33l3.09-1.19C524.45,409.7,530.07,411.38,536.2,411.38z M522.39,374.25
				c4.7,2.04,10.99,5.41,14.22,7.83l-3.26,3.55c-2.99-2.42-9.16-5.96-13.98-8.23L522.39,374.25z M537.59,367.77l0.92-0.26l3.07,2
				c-2.92,4.39-7.71,8.87-12.22,11.59c-0.66-0.96-2-2.41-2.89-3.17c3.98-2.26,8.19-6.2,10.07-9.3v-0.86H537.59z M531.12,386.29
				v26.62l-4.55-2.14v-24.48H531.12z M540.63,397.65v4.25h-12.18v-4.25H540.63z M538.59,385.04l0.72-0.17l3.14,0.79
				c-1.02,3.45-2.33,7.4-3.64,9.86l-3.7-1.11c1.04-2.2,2.14-5.79,2.81-8.7v-0.67H538.59z"/>
		</g>
	</g>
</g>
</svg>
