<?xml version="1.0" encoding="utf-8"?>
<!-- Generator: Adobe Illustrator 25.2.3, SVG Export Plug-In . SVG Version: 6.00 Build 0)  -->
<svg version="1.1" id="圖層_1" xmlns="http://www.w3.org/2000/svg" xmlns:xlink="http://www.w3.org/1999/xlink" x="0px" y="0px"
	 viewBox="0 0 686 686" style="enable-background:new 0 0 686 686;" xml:space="preserve">
<style type="text/css">
	.st0{fill:#F7F8F8;}
	.st1{fill:#DCDDDD;}
	.st2{fill:#FFFFFF;}
	.st3{fill:#B5B5B6;}
	.st4{fill:#44BABC;}
	.st5{fill:#1D2088;}
</style>
<g>
	<g>
		<g>
			<rect x="0.72" y="0.22" class="st0" width="685.56" height="685.56"/>
		</g>
		<g>
			<polygon class="st1" points="686.28,0.22 621.95,64.55 621.95,334.55 686.28,334.55 			"/>
		</g>
		<g>
			<polygon class="st1" points="686.28,685.78 621.95,621.45 621.95,305.45 686.28,305.45 			"/>
		</g>
		<g>
			<polygon class="st2" points="0.72,0.22 65.05,64.55 335.05,64.55 335.05,0.22 			"/>
		</g>
		<g>
			<polygon class="st2" points="686.28,0.22 621.95,64.55 305.95,64.55 305.95,0.22 			"/>
		</g>
		<g>
			<polygon class="st3" points="686.28,685.78 621.95,621.45 351.95,621.45 351.95,685.78 			"/>
		</g>
		<g>
			<polygon class="st3" points="0.72,685.78 65.05,621.45 381.05,621.45 381.05,685.78 			"/>
		</g>
	</g>
	<g>
		<g>
			<path class="st4" d="M324.06,178.37h-7.55v-23.49h7.55v-7.43h7.43v-6.11h-7.43v-7.43h-7.55v-23.49h7.55v-7.43h7.43v-7.31h23.49
				v7.31h7.31v7.43h7.43v23.49h-7.43v7.43h-7.31v6.11h7.31v7.43h7.43v23.49h-7.43v7.43h-7.31v7.55h-23.49v-7.55h-7.43V178.37z
				 M353.66,140.02v-7.31h7.43v-20.97h-7.43v-7.43h-20.97v7.43h-7.31v20.97h7.31v7.31H353.66z M332.69,177.18v7.31h20.97v-7.31h7.43
				V156.2h-7.43v-7.43h-20.97v7.43h-7.31v20.97H332.69z"/>
		</g>
	</g>
	<g>
		<path class="st5" d="M145.39,310.34c-5.96,5.36-16.84,10.84-25.7,13.52c-0.55-1.28-1.66-3.13-2.65-4.27
			c8.76-2.03,19.53-7.07,24.81-11.9L145.39,310.34z M142.05,303.75c-5.17,3.89-14.55,8.21-21.59,10.42
			c-0.58-1.16-1.64-2.9-2.57-3.97c6.95-1.61,16.26-5.45,20.87-8.86L142.05,303.75z M144.87,292.9c-5.66,5.64-15.35,9.79-24.01,12.26
			c-0.52-0.99-1.84-3.07-2.7-4.03c8.44-1.9,17.65-5.4,22.48-10.02L144.87,292.9z M164.21,280.84v11.64H159v-7h-35.7v7h-5v-11.64
			H164.21z M156.48,289.71v4.4H125.6v-4.4H156.48z M138.84,295.76c10.53,8.88,10.19,24.5,5.32,28.32c-1.78,1.68-3.34,2.14-5.96,2.17
			c-1.19,0.03-2.85-0.02-4.5-0.08c-0.06-1.4-0.52-3.43-1.4-4.83c1.97,0.19,3.73,0.27,4.93,0.27c1.35,0,2.33-0.17,3.21-1.19
			c3-2.49,3.46-14.75-5.47-22.52L138.84,295.76z M141.96,275.8c1.18,1.96,2.52,4.59,2.96,6.33l-5.59,1.74
			c-0.44-1.74-1.57-4.52-2.72-6.53L141.96,275.8z M160.59,298.99c-4.66,3.71-10.83,7.88-15.52,10.43l-3.29-2.92
			c4.63-2.7,10.89-7.28,14.62-10.86L160.59,298.99z M166.53,319.85c-1.13,0.96-2.65,2.86-3.37,4.16
			c-7.25-3.36-12.24-10.15-14.92-18.61l4.49-1.07C155.03,311.27,159.88,317.2,166.53,319.85z"/>
		<path class="st5" d="M201.71,276.38c-0.28,10.25-0.68,37.1-23.44,49.79c-0.9-1.34-2.56-2.98-4.21-4.09
			c22.28-11.55,21.66-37.01,21.86-45.7H201.71z M224.48,321.53c-1.53,1.18-3,2.95-3.75,4.38c-21.67-10.22-23.71-37.39-24.47-42.38
			l4.9-0.53C201.61,287.07,203.61,312.24,224.48,321.53z"/>
		<path class="st5" d="M249.24,290.2v4.67h-17.23v-4.67H249.24z M243.28,276.26v50.03h-4.91v-50.03H243.28z M255.94,299.18
			c-0.29,12-1.73,21.36-8.31,27.28c-0.57-0.99-1.84-2.44-2.79-3.17c5.72-5,6.51-13.42,6.74-24.11H255.94z M260.35,304.52v3.95
			h-13.97v-3.95H260.35z M266.92,276.24c-0.79,11.15-3.72,18.47-15.08,22.81c-0.47-1.07-1.68-2.72-2.58-3.57
			c10.31-3.55,12.31-9.79,12.87-19.24H266.92z M275.73,281.89v4.16h-24.25v-4.16H275.73z M263.11,304.52c0,0,0,1.24-0.05,1.8
			c-0.35,12.29-0.74,16.8-1.85,18.29c-0.77,1.04-1.6,1.43-2.8,1.55c-0.99,0.17-2.54,0.18-4.18,0.13c-0.06-1.22-0.43-2.95-1.04-4.02
			c1.39,0.13,2.51,0.16,3.16,0.16c0.56,0,0.92-0.11,1.24-0.61c0.71-0.93,1.06-5,1.39-16.56v-0.76H263.11z M273.82,299.03
			c-0.29,12.22-1.79,21.41-8.65,27.22c-0.57-1.02-1.87-2.5-2.88-3.23c6-4.9,6.84-13.12,7.07-23.99H273.82z M278.61,304.52v3.95
			H264.4v-3.95H278.61z M279.49,281.89c0,0-0.08,1.25-0.17,1.87c-0.66,7.9-1.34,11.28-2.67,12.65c-0.97,1.04-1.99,1.38-3.5,1.5
			c-1.24,0.12-3.49,0.15-5.87,0.05c-0.08-1.36-0.58-3.16-1.3-4.31c2.16,0.21,4.25,0.24,5.12,0.24c0.8,0,1.26-0.05,1.68-0.49
			c0.85-0.83,1.46-3.72,2-10.88v-0.63H279.49z M281.39,304.52c0,0,0,1.27-0.03,1.83c-0.36,12.2-0.71,16.73-1.84,18.23
			c-0.81,1.04-1.63,1.43-2.86,1.58c-1.04,0.17-2.73,0.18-4.5,0.13c-0.08-1.28-0.49-3.01-1.1-4.16c1.51,0.19,2.78,0.19,3.43,0.19
			c0.61,0,0.96-0.11,1.32-0.61c0.68-0.91,1.02-4.92,1.33-16.44v-0.76H281.39z"/>
		<path class="st5" d="M314.36,310.71l0.47,4.59c-8.55,2.06-17.65,4.2-24.25,5.73l-0.89-5.21
			C295.79,314.7,305.34,312.67,314.36,310.71z M311.68,278.71v35.15h-4.76v-30.54h-8.84v33.96h-4.55v-38.57H311.68z M309.24,290.17
			v4.52h-13.33v-4.52H309.24z M309.24,301.56v4.49h-13.33v-4.49H309.24z M326.49,276.27c-0.05,21.51-0.11,40.22-14.89,50.12
			c-0.75-1.23-2.39-2.95-3.64-3.83c13.95-8.88,13.49-26.04,13.55-46.29H326.49z M335.63,288.23v4.83h-22.31v-4.83H335.63z
			 M338.38,288.23c0,0-0.03,1.76-0.03,2.39c-0.5,22.57-1.01,30.41-2.79,32.81c-1.14,1.63-2.35,2.13-4.17,2.38
			c-1.71,0.24-4.58,0.18-7.4,0.06c-0.11-1.42-0.67-3.54-1.54-4.88c2.9,0.21,5.53,0.24,6.67,0.24c0.93,0.02,1.5-0.14,2.01-0.85
			c1.38-1.67,1.9-9.54,2.35-31.07v-1.07H338.38z"/>
		<path class="st5" d="M374.15,302.54l0.37,4.6c-8.8,1.99-18.27,4.04-25.15,5.51l-1.36-5.15
			C354.45,306.43,364.66,304.43,374.15,302.54z M397.24,291.94v4.83h-48.33v-4.83H397.24z M374.04,281.07
			c-6.62,2.16-15.77,3.74-23.56,4.74c-0.23-1.22-0.9-3.12-1.5-4.28c7.58-1.08,16.19-2.87,21.5-4.77L374.04,281.07z M365.03,282.24
			v37.84c0,3.02-0.66,4.48-2.59,5.29c-1.9,0.81-4.95,0.99-9.39,0.96c-0.23-1.4-1.1-3.73-1.83-5.15c3.26,0.14,6.43,0.11,7.4,0.06
			c0.95-0.02,1.27-0.29,1.27-1.2v-37.8H365.03z M395.02,300.88c-5.42,9.95-14.27,18.34-24.15,23.54c-0.75-1.25-2.2-2.95-3.48-4.09
			c9.46-4.47,18.29-12.35,23.12-21.38L395.02,300.88z M381.19,276.69c-0.23,23.43,4.86,44.63,10.73,44.63c1.32,0,1.96-2.7,2.25-9.41
			c1.1,1.17,2.89,2.34,4.25,2.87c-0.85,9.21-2.59,11.73-7.01,11.73c-10.83,0-15.35-24.75-15.55-49.82H381.19z M387.89,277.7
			c3.04,2.62,6.73,6.33,8.43,8.87l-4.15,2.92c-1.53-2.56-5.07-6.42-8.14-9.15L387.89,277.7z"/>
		<path class="st5" d="M427.19,285.32v4.13h-20.83v-4.13H427.19z M424.9,292.63v3.95h-16.25v-3.95H424.9z M424.99,299.81v3.95
			h-16.34v-3.95H424.99z M413.06,307.13v18.48h-4.4v-18.48H413.06z M424.93,307.13v16.04h-14.02v-4.19h9.57v-7.7h-9.57v-4.16H424.93
			z M416.02,276.01c1.55,2.22,3.23,5.13,4.1,7.08l-4.12,2.3c-0.8-2.01-2.52-5.16-3.93-7.42L416.02,276.01z M449.37,299.91l0.87-0.2
			l3.2,1.35c-4.04,14.2-14.16,21.72-26.4,25.24c-0.52-1.34-1.67-3.43-2.59-4.57c11.18-2.63,20.68-9.61,23.97-21.02v-0.8H449.37z
			 M436.09,278.12v6.04c0,5.03-1.44,10.95-8.05,14.7c-0.64-1.02-2.39-3-3.31-3.72c5.87-3.17,6.67-7.38,6.67-11.12v-5.89H436.09z
			 M450.22,299.91v4.77h-23.75v-4.77H450.22z M456.36,321.52c-1.1,1.08-2.49,3.24-3.19,4.63c-11.71-2.97-19.98-10.08-24.77-20.48
			l4.36-1.51C436.73,312.84,445.1,319.16,456.36,321.52z M446.5,278.12v4.74h-14.17v-4.74H446.5z M448.7,278.12v12.22
			c0,1.54,0.08,2.1,0.77,2.1c0.55,0,2.25,0,2.8,0c0.68,0,1.79-0.11,2.47-0.31c0.08,1.28,0.19,3.14,0.37,4.31
			c-0.67,0.29-1.76,0.34-2.81,0.34c-0.7,0-2.57,0-3.26,0c-4.22,0-5.07-1.84-5.07-6.52v-12.13H448.7z"/>
		<path class="st5" d="M478.76,301.84c-1.44,10.94-4.78,19.29-10.91,24.6c-0.81-0.9-2.94-2.66-4.13-3.41
			c5.96-4.5,8.78-12.13,9.85-21.71L478.76,301.84z M511.82,282.16v12.57h-5.24v-7.72H471.2v7.72h-5.03v-12.57H511.82z M499.35,320.4
			c2.4,0,11.55,0,14.64-0.09c-0.78,1.22-1.64,3.66-1.87,5.18h-13.03c-12.7,0-21.3-2.51-25.94-15.88l4.16-1.48
			C480.94,318.65,488.99,320.37,499.35,320.4z M504.44,292.87v4.88h-30.76v-4.88H504.44z M489.65,275.8
			c1.27,2.14,2.67,5.04,3.18,6.97l-5.35,1.63c-0.44-1.87-1.67-4.88-2.9-7.17L489.65,275.8z M491.58,295.33v26.78l-5.3-0.69v-26.09
			H491.58z M507.14,305.55v4.8h-18.18v-4.8H507.14z"/>
		<path class="st5" d="M538.84,285.42l0.9-0.2l2.72,1.95c-3.87,9.75-11.72,18.73-19.21,23.57c-0.36-1.43-1.41-4.14-2.09-5.11
			c6.83-3.94,13.75-11.63,16.64-19.23v-0.97H538.84z M539.34,285.42v4.64h-16.67v-4.64H539.34z M532.06,276.09
			c2,2.1,4.13,4.97,5.12,6.95l-4.17,2.51c-0.93-2.02-2.98-5.1-4.9-7.29L532.06,276.09z M535.18,296.41v29.87h-4.98v-23.93
			L535.18,296.41z M543.28,305.77l-3.19,4.25c-1.75-2.52-6.05-7.55-8.07-9.65l2.95-2.55C536.57,299.08,541.97,304.44,543.28,305.77z
			 M571.97,319.37v5.01H540.8v-5.01H571.97z M570.74,292.84v4.92h-27.49v-4.92H570.74z M559.77,276.31v45.5h-5.22v-45.5H559.77z"/>
		<path class="st5" d="M129.95,370.59c-0.97,15.81-3.41,28.03-11.16,35.91c-0.58-0.99-2.32-3.05-3.35-3.95
			c6.99-6.65,8.95-18.11,9.66-32.15L129.95,370.59z M142.06,377.66V382h-25.84v-4.34H142.06z M139.1,368.76v22.08h-20.31v-4.34
			h15.58V373.1h-15.28v-4.34H139.1z M126.46,395.8v20.43h-4.65V395.8H126.46z M139.95,395.8v17.65h-16.22v-4.46h11.25v-8.76h-11.25
			v-4.43H139.95z M166.3,399.1v4.8h-24.87v-4.8H166.3z M165.15,376.6v4.64h-22.53v-4.64H165.15z M147.12,366.52
			c1.76,2.7,3.31,6.31,3.84,8.77l-4.38,1.62c-0.44-2.48-1.9-6.21-3.53-8.99L147.12,366.52z M164.17,387.51v4.7h-20.82v-4.7H164.17z
			 M156.06,378.89v37.33h-4.92v-37.33H156.06z M164.29,367.25c-1.45,3.29-3.02,6.9-4.34,9.31l-4.22-1.12
			c1.26-2.54,2.86-6.53,3.61-9.37L164.29,367.25z"/>
		<path class="st5" d="M223.5,392.53v5.13h-48.72v-5.13H223.5z M220.41,369.64v5.06h-42.79v-5.06H220.41z M185.79,376.92
			c2.03,3.73,4.11,8.61,4.82,11.71l-4.93,1.61c-0.67-3.08-2.58-8.11-4.52-11.93L185.79,376.92z M201.66,371.7v44.47h-5.3V371.7
			H201.66z M217.67,378.15c-1.98,4.28-4.39,9.09-6.36,12.16l-4.44-1.38c1.89-3.28,4.16-8.47,5.35-12.22L217.67,378.15z"/>
		<path class="st5" d="M235.25,383.87c1.33-0.28,2.66-1.4,4.47-3.14c1.93-1.77,8.07-8.5,12.06-15.1l5.13,2.21
			c-5.04,7.05-11.12,13.7-16.79,18.33v0.14c0,0-3.17,1.54-3.17,2.5C236.7,387.8,235.86,385.24,235.25,383.87z M236.88,384.85
			l3.6-1.87l33.91-1.38c0.05,1.4,0.26,3.5,0.51,4.57c-31.9,1.68-35.48,1.78-37.97,2.65L236.88,384.85z M274.79,392.98v23.11h-5.45
			v-18.22h-24.8v18.31h-5.21v-23.2H274.79z M271.96,408.38v4.94h-30.09v-4.94H271.96z M266,371.75
			c5.13,4.65,11.51,11.31,14.35,15.82l-4.36,3.17c-2.64-4.56-8.79-11.44-13.98-16.32L266,371.75z"/>
		<path class="st5" d="M297.11,374.85v39.9h-4.67v-39.9H297.11z M309.58,389.59v4.46h-14.4v-4.46H309.58z M311.9,374.85v35.74
			h-16.48v-4.55h11.81v-26.7h-11.81v-4.49H311.9z M305.98,366.96c-1.15,3.47-2.51,7.26-3.59,9.73l-4.1-0.97
			c0.84-2.7,1.77-6.78,2.14-9.67L305.98,366.96z M324.95,367.17c-2.05,8-5.38,16.05-9.07,21.21c-0.9-0.82-3.02-2.28-4.21-2.95
			c3.66-4.68,6.64-12.08,8.37-19.4L324.95,367.17z M321.46,387c2.88,3.79,6.55,8.98,8.26,12.17l-4.33,2.69
			c-1.57-3.29-5.09-8.65-7.92-12.59L321.46,387z M335.56,374.57v4.7h-16.22v-4.7H335.56z M338.53,374.57c0,0,0,1.79-0.03,2.45
			c-0.79,24.55-1.47,33.03-3.67,35.76c-1.34,1.8-2.68,2.31-4.72,2.57c-1.92,0.24-5.15,0.16-8.24,0c-0.11-1.42-0.76-3.57-1.69-4.95
			c3.5,0.3,6.74,0.32,8.05,0.32c1.08,0,1.7-0.17,2.33-0.9c1.77-1.91,2.56-11.01,3.21-34.23v-1.03H338.53z"/>
		<path class="st5" d="M362.04,368.3v4.58h-7.8v43.18h-4.31V368.3H362.04z M361.57,368.3l0.72-0.2l3.17,1.93
			c-1.45,4.47-3.27,9.83-4.95,14.07c3.56,4.41,4.33,8.29,4.33,11.57c0,3.17-0.63,5.49-2.17,6.68c-0.77,0.61-1.72,0.91-2.81,1.08
			c-1.01,0.14-2.29,0.14-3.5,0.09c-0.02-1.22-0.42-3.16-1.11-4.43c1.06,0.08,1.98,0.13,2.73,0.05c0.57-0.02,1.13-0.16,1.56-0.45
			c0.72-0.55,1.02-1.93,1.02-3.54c0-2.8-0.84-6.41-4.3-10.51c1.76-4.83,3.54-11.41,4.51-14.95v-1.4H361.57z M371.27,406.21
			c-0.93,3.01-2.27,6.83-4,9.26l-3.96-1.8c1.78-2.33,3.32-6.08,4.17-8.98L371.27,406.21z M397.82,394.22v2.89h-32.08v-2.89H397.82z
			 M397.12,369.49c-7.74,1.96-19.68,2.95-29.57,3.22c-0.11-1.01-0.63-2.54-1.09-3.46c9.7-0.39,21.27-1.43,27.68-3.02L397.12,369.49z
			 M397.56,383.42v3.31h-31.01v-3.31H397.56z M395.27,388.77v13.9h-27.9v-3.1h23.35v-7.71h-23.11v-3.1H395.27z M395.52,377.44v3.28
			h-27.24v-3.28H395.52z M372.8,372.36c0.88,1.14,2.03,2.78,2.59,3.78l-3.85,1.63c-0.53-1.06-1.6-2.75-2.47-4L372.8,372.36z
			 M376.58,404.61v6.05c0,1.15,0.29,1.34,2.2,1.34c0.83,0,5.13,0,6.27,0c1.39,0,1.69-0.38,1.86-3.12c0.88,0.6,2.71,1.21,3.92,1.47
			c-0.46,4.34-1.72,5.47-5.23,5.47c-1.05,0-6.37,0-7.34,0c-4.98,0-6.16-1.13-6.16-5.13v-6.08H376.58z M379.76,401.5
			c2.16,1.71,4.93,4.16,6.38,5.66l-2.84,2.63c-1.47-1.64-4.29-4.29-6.29-6L379.76,401.5z M381.84,371.78
			c0.9,1.39,1.93,3.3,2.44,4.46l-3.87,1.61c-0.44-1.26-1.45-3.26-2.26-4.73L381.84,371.78z M383.98,378.9v6.05h-4.76v-6.05H383.98z
			 M394.48,372.22c-1.22,2.51-3,5.51-4.38,7.41c-0.8-0.55-2.49-1.43-3.49-1.87c1.56-1.9,3.02-4.42,4.05-6.67L394.48,372.22z
			 M392.92,404.52c1.92,2.79,4.12,6.43,5.21,8.74l-3.99,1.84c-1.03-2.39-3.23-6.25-5.01-9.08L392.92,404.52z"/>
		<path class="st5" d="M419.62,384.66c-2.5,7.79-7.17,17.22-11.77,22.29c-0.51-1.46-1.75-3.6-2.59-4.9
			c4.33-4.29,9-12.38,11.18-18.85L419.62,384.66z M429.39,370.96c-5.77,2.1-14.09,3.59-21.16,4.46c-0.17-1.16-0.83-2.88-1.38-3.98
			c6.91-1.01,14.85-2.71,19.73-4.68L429.39,370.96z M429.64,381.33v4.77h-22.62v-4.77H429.64z M421.13,370.85v45.29h-4.95v-45.29
			H421.13z M429.42,395.34l-3.03,4.19c-1.48-2.68-5.85-8.67-7.72-10.92l2.34-2.17C422.61,387.87,428.2,393.84,429.42,395.34z
			 M425.77,408.13c1.44-0.49,2.54-3.13,4.05-7.41c1.54-4.07,6.05-19.4,8.21-33.1l5.45,1c-2.57,14.55-6.86,30.09-11.23,41.35v0.08
			c0,0-4.72,2.05-4.75,3.11C427.25,412.14,426.35,409.61,425.77,408.13z M427.3,408.67l2.81-1.72l21.09-2.98
			c0.12,1.46,0.51,3.55,0.81,4.63c-20.1,3.17-22.73,3.67-24.5,4.56L427.3,408.67z M447.21,388.46c3.54,7.85,7.48,18.03,8.95,24.29
			l-5.2,2.13c-1.37-6.29-5.05-16.73-8.47-24.7L447.21,388.46z"/>
		<path class="st5" d="M474.26,380.93c-1.56,8.4-4.84,18.91-8.36,24.49c-0.51-1.52-1.62-3.8-2.42-5.11
			c3.35-4.65,6.66-13.66,8.08-20.61L474.26,380.93z M481.89,376.4v4.74H464.8v-4.74H481.89z M476.37,366.13v50.03h-4.46v-50.03
			H476.37z M482.24,392.09l-2.82,3.54c-1.1-2.51-4.18-8.18-5.51-10.27l2.26-1.81C477.31,384.86,481.34,390.68,482.24,392.09z
			 M491.98,388.77c-2.43,5.21-6.26,10.46-10.1,13.78c-0.42-0.91-1.76-3.17-2.55-4.14c3.37-2.73,6.61-6.79,8.52-11.01L491.98,388.77z
			 M492.07,370.12v3.83h-10.74v-3.83H492.07z M496.08,377.41v10.65h-12.87v-10.65H496.08z M512.58,392.2v3.32h-23.36v20.71h-4.58
			v-21.86l2.11-2.17h2.47H512.58z M513.65,410.64v3.71h-26.7v-3.71H513.65z M486.98,384.78h5.16v-4.11h-5.16V384.78z M510.44,398.24
			v3.43H487.2v-3.43H510.44z M510.44,404.41v3.41H487.2v-3.41H510.44z M494.85,366.13v10.25h-4.43v-10.25H494.85z M499.62,388.31
			c0.8,1.87,1.68,4.32,2.07,5.88l-4.5,1.43c-0.34-1.64-1.21-4.23-1.93-6.11L499.62,388.31z M500.75,394.17v19.12h-4.46v-19.12
			H500.75z M511.68,377.41v10.65h-13.06v-10.65H511.68z M504.26,366.13v10.16h-4.49v-10.16H504.26z M514.03,370.12v3.83h-12.1v-3.83
			H514.03z M502.44,384.78h5.29v-4.11h-5.29V384.78z"/>
		<path class="st5" d="M537.55,368.32v4.58h-8.47v43.18h-4.49v-47.77H537.55z M537.49,368.32l0.75-0.2l3.34,1.93
			c-1.51,4.47-3.39,9.83-5.07,14.07c3.62,4.41,4.45,8.29,4.45,11.57c0,3.17-0.66,5.49-2.28,6.68c-0.77,0.58-1.78,0.91-2.93,1.08
			c-1.01,0.14-2.35,0.14-3.57,0.09c-0.02-1.22-0.45-3.16-1.19-4.43c1.09,0.08,2.04,0.13,2.81,0.05c0.58-0.02,1.14-0.16,1.59-0.45
			c0.73-0.55,1.02-1.93,1.02-3.54c0-2.8-0.82-6.44-4.36-10.51c1.79-4.83,3.64-11.41,4.61-14.95v-1.4H537.49z M541.57,412.18
			c0.96-0.57,2.21-1.85,2.21-4.2v-39.54h5v43.05c0,0-4.99,2.97-4.99,4.79C543.42,415.15,542.35,413.12,541.57,412.18z
			 M543.37,411.82l2.24-1.76l11.85-2.72c-0.03,1.43,0.05,3.52,0.23,4.63c-10.9,2.88-12.76,3.56-13.9,4.31L543.37,411.82z
			 M567.9,368.44v24.21h-21.63v-4.43h16.68v-15.34h-16.68v-4.43H567.9z M565.68,378.37v4.19h-19.05v-4.19H565.68z M572.29,411.49
			c-1.13,1.01-2.7,3.03-3.45,4.42c-8.76-4.47-13.58-13.51-16.12-25.09l4.17-0.78C559.15,399.9,564,407.99,572.29,411.49z
			 M571.1,397.45c-3.08,2.5-7.05,5.19-10.03,6.88l-2.72-3.22c2.86-1.75,7.02-4.89,9.41-7.25L571.1,397.45z"/>
	</g>
</g>
</svg>
