<?xml version="1.0" encoding="utf-8"?>
<!-- Generator: Adobe Illustrator 25.2.3, SVG Export Plug-In . SVG Version: 6.00 Build 0)  -->
<svg version="1.1" id="圖層_1" xmlns="http://www.w3.org/2000/svg" xmlns:xlink="http://www.w3.org/1999/xlink" x="0px" y="0px"
	 viewBox="0 0 686 686" style="enable-background:new 0 0 686 686;" xml:space="preserve">
<style type="text/css">
	.st0{fill:#00A0E9;}
	.st1{fill:#036EB8;}
	.st2{fill:#69D8FF;}
	.st3{fill:#0054A8;}
	.st4{fill:#FFFFFF;}
	.st5{fill:#1D2088;}
</style>
<g>
	<g>
		<g>
			<rect x="0.72" y="0.22" class="st0" width="685.56" height="685.56"/>
		</g>
		<polygon class="st1" points="621.95,64.55 621.95,305.45 621.95,334.55 621.95,621.45 686.28,685.78 686.28,334.55 686.28,305.45 
			686.28,0.22 		"/>
		<polygon class="st2" points="335.05,0.22 305.95,0.22 0.72,0.22 65.05,64.55 305.95,64.55 335.05,64.55 621.95,64.55 686.28,0.22 
					"/>
		<polygon class="st3" points="621.95,621.45 381.05,621.45 351.95,621.45 65.05,621.45 0.72,685.78 351.95,685.78 381.05,685.78 
			686.28,685.78 		"/>
	</g>
	<g>
		<g>
			<path class="st4" d="M313.39,169.75h7.43v-7.43h7.31v-14.86h7.07v-14.74h7.31v-14.86h7.31v-14.86h7.31v-7.31h8.39v74.07h7.31
				v8.63h-7.31v14.98h-8.39v-14.98h-43.75V169.75z M357.14,169.75v-50.58h-5.99v14.74h-7.31v14.86h-7.31v14.86h-7.31v6.11H357.14z"
				/>
		</g>
	</g>
	<g>
		<path class="st5" d="M142.23,302.54l0.37,4.6c-8.8,1.99-18.27,4.04-25.15,5.51l-1.36-5.15
			C122.54,306.43,132.74,304.43,142.23,302.54z M165.32,291.94v4.83h-48.33v-4.83H165.32z M142.12,281.07
			c-6.62,2.16-15.77,3.74-23.56,4.74c-0.23-1.22-0.9-3.12-1.5-4.28c7.58-1.08,16.19-2.87,21.5-4.77L142.12,281.07z M133.11,282.24
			v37.84c0,3.02-0.66,4.48-2.59,5.29c-1.91,0.81-4.95,0.99-9.39,0.96c-0.23-1.4-1.1-3.73-1.83-5.15c3.26,0.14,6.43,0.11,7.4,0.06
			c0.95-0.02,1.27-0.29,1.27-1.2v-37.8H133.11z M163.11,300.88c-5.42,9.95-14.27,18.34-24.15,23.54c-0.75-1.25-2.2-2.95-3.48-4.09
			c9.46-4.47,18.29-12.35,23.12-21.38L163.11,300.88z M149.28,276.69c-0.23,23.43,4.86,44.63,10.73,44.63c1.32,0,1.96-2.7,2.25-9.41
			c1.1,1.17,2.89,2.34,4.25,2.87c-0.85,9.21-2.59,11.73-7.01,11.73c-10.82,0-15.35-24.75-15.55-49.82H149.28z M155.97,277.7
			c3.04,2.62,6.73,6.33,8.43,8.87l-4.15,2.92c-1.53-2.56-5.07-6.42-8.14-9.15L155.97,277.7z"/>
		<path class="st5" d="M188.05,295.21c-2.42,8.55-7.05,18.62-11.95,23.92c-0.54-1.46-1.81-3.5-2.67-4.76
			c4.52-4.68,9.11-13.17,11.13-20.37L188.05,295.21z M198.73,292.25v4.74h-24.06v-4.74H198.73z M198.6,280.73
			c-6,2.2-14.75,3.73-22.13,4.6c-0.23-1.13-0.87-2.88-1.45-4.01c7.13-0.97,15.39-2.63,20.22-4.58L198.6,280.73z M189.96,281.13
			v45.11h-5.1v-45.11H189.96z M198.68,308.16l-3.02,4.22c-1.76-3.06-6.59-9.63-8.63-12.2l2.5-2.46
			C191.23,299.38,197.35,306.46,198.68,308.16z M221.18,281.28v42.17h-5.22v-37.28h-10.59v37.66h-4.98v-42.54H221.18z
			 M218.74,314.54v4.89h-16.49v-4.89H218.74z"/>
		<path class="st5" d="M241.19,278.95v19.34c0,8.48-0.71,20.45-5.65,28.11c-0.87-0.78-2.94-2.06-4.13-2.55
			c4.67-7.22,5.04-17.66,5.04-25.53v-19.37H241.19z M252.43,303.25v4.61h-14.02v-4.61H252.43z M252.48,278.95v4.67h-13.99v-4.67
			H252.48z M252.48,291.08v4.52h-13.99v-4.52H252.48z M254.53,278.95v40.85c0,2.45-0.46,3.82-2.02,4.63
			c-1.56,0.78-3.92,0.9-7.44,0.87c-0.17-1.28-0.83-3.36-1.46-4.6c2.28,0.08,4.5,0.08,5.2,0.06c0.72-0.02,0.96-0.25,0.96-0.96v-40.85
			H254.53z M264.81,278.95v18.44c0,8.77-0.85,21.17-6.64,29.13c-0.88-0.84-3.01-2.14-4.2-2.66c5.51-7.46,5.99-18.34,5.99-26.46
			v-18.44H264.81z M276.77,303.25v4.61h-14.63v-4.61H276.77z M276.75,278.95v4.67h-14.42v-4.67H276.75z M276.75,291.08v4.52h-14.42
			v-4.52H276.75z M279.33,278.95v40.94c0,2.71-0.52,4.19-2.24,5.06c-1.72,0.84-4.41,0.96-8.51,0.96c-0.17-1.42-0.88-3.72-1.55-5.05
			c2.73,0.14,5.46,0.11,6.26,0.06c0.83-0.02,1.12-0.29,1.12-1.1v-40.87H279.33z"/>
		<path class="st5" d="M310.98,276.21c-0.38,7.2-1.26,34.53-16.86,48.27c-1.05-1.3-2.72-2.6-4.42-3.57
			c15.49-12.49,15.69-39.02,16-44.69H310.98z M338.5,284.83v4.95h-46.84v-4.95H338.5z M328.84,296.25l0.93-0.23l3.5,1.53
			c-4.47,16.24-15.77,24.62-29.68,28.76c-0.62-1.31-1.86-3.28-2.9-4.33c12.73-3.24,23.52-11.26,27.18-24.78v-0.94H328.84z
			 M339.89,321.57c-1.13,1.1-2.59,3.24-3.29,4.64c-16.16-3.44-26.12-12.14-31.62-26.16l4.43-1.3
			C314.1,310.9,324.17,318.78,339.89,321.57z M328.39,296.25v4.94h-23.34l1.46-4.94H328.39z"/>
		<path class="st5" d="M371.98,277.51c-3.89,12.64-10.56,25.4-21.66,33.19c-0.55-1.38-1.75-3.6-2.56-4.81
			c9.74-6.64,15.98-18.64,18.91-29.66L371.98,277.51z M396.88,284.22v4.91h-47.63v-4.91H396.88z M361.08,298.62v27.55h-5.13v-27.55
			H361.08z M396.8,320.25v4.76h-32.55v-4.76H396.8z M394.73,301.49v4.74h-28.38v-4.74H394.73z M383.14,291.7v31.09h-5.13V291.7
			H383.14z"/>
		<path class="st5" d="M416.87,302.06l0.83-0.11l2.21,0.89c-1.62,11.53-5.61,19.39-11.18,23.59c-0.66-1.01-2.37-2.75-3.35-3.45
			c5.22-3.69,8.74-10.55,10-20.1v-0.82H416.87z M405.74,302.52c0.85-0.22,1.72-0.63,2.65-1.66c1.54-1.6,6.3-8.76,7.99-11.66v-0.17
			l1.39-0.59l3.28,1.4c-2.41,3.67-6.96,10.61-9.92,14.07c0,0-3.62,1.77-3.62,2.99C407.22,305.75,406.25,303.49,405.74,302.52z
			 M417.98,288.77v4.16h-11.55v-4.16H417.98z M407.5,303.13l2.11-1.06h8.3l-0.03,4.04h-7.12c-1.34,0-2.82,0.35-3.26,0.79V303.13z
			 M411.87,276.32c2.24,2.63,4.87,6.1,6.17,8.33l-4.1,2.51c-1.23-2.3-3.87-6.05-6-8.74L411.87,276.32z M436.86,321.04
			c5.73,0,14.05-0.26,19.86-0.81c-0.75,1.07-1.39,3.38-1.65,4.75c-5.32,0.33-12.18,0.47-18.28,0.47c-12.6,0-19.53-1.54-23.56-11.07
			l3.4-1.45C419.78,320.1,426.49,321.01,436.86,321.04z M428.15,285.43v7.67c0,7.12-0.74,17.21-6.32,24.32
			c-0.71-0.87-2.19-2.24-3.16-2.85c4.82-6.44,5.35-15.33,5.35-21.53v-7.61H428.15z M437.54,283.44v4.25h-17.99v-4.25H437.54z
			 M429.69,276.25c0.99,2.25,2.1,5.18,2.59,7.09l-4.61,1.07c-0.46-1.96-1.49-5-2.43-7.29L429.69,276.25z M436.89,292.94
			c0,0-0.03,1.33-0.03,1.92c-0.52,14.8-1.02,20.04-2.33,21.75c-0.81,1.15-1.72,1.54-2.99,1.74c-1.04,0.14-2.72,0.15-4.45,0.1
			c-0.08-1.27-0.52-3.06-1.12-4.16c1.5,0.14,2.74,0.14,3.42,0.14c0.62,0.02,1.02-0.09,1.37-0.66c0.87-1.14,1.36-6.02,1.79-20.01
			v-0.82H436.89z M434.22,292.94v4.22h-7.85v-4.22H434.22z M446.15,277.15c-1.54,5.63-4.1,11.48-6.82,15.25
			c-0.81-0.75-2.57-2.12-3.58-2.76c2.65-3.42,4.86-8.54,6.11-13.64L446.15,277.15z M455.9,301.04v4.1h-18v-4.1H455.9z
			 M449.05,297.61v15.83c0,2.11-0.33,3.37-1.87,4.06c-1.44,0.72-3.57,0.78-6.62,0.78c-0.17-1.25-0.83-3.05-1.46-4.26
			c2.14,0.05,4.16,0.05,4.77,0.03c0.65,0,0.81-0.16,0.81-0.67v-15.77H449.05z M452.03,290.26v3.82h-12.29v-3.82H452.03z
			 M455.97,282.04v4.28h-15.81v-4.28H455.97z M451.73,290.26l0.84-0.26l2.76,2.08c-2.24,2.93-5.43,6.1-8.21,8.18
			c-0.57-0.84-1.75-2.03-2.44-2.66c2.24-1.7,4.77-4.54,6.01-6.54v-0.8H451.73z"/>
		<path class="st5" d="M470.75,285.18v14.94c0,7.41-0.58,18.38-4.04,25.56c-0.72-0.81-2.57-2.24-3.52-2.71
			c3.04-6.65,3.31-16.06,3.31-22.85v-14.94H470.75z M491.35,285.18v3.43h-22.88v-3.43H491.35z M493.05,319.83v3.65
			c-7.88,0.74-16.13,1.5-22.04,2l-0.53-3.85C476.13,321.24,484.74,320.56,493.05,319.83z M487.08,290.95l0.37,2.78l-15.52,1.49
			l-0.37-2.81L487.08,290.95z M493.45,301.34v3.34h-21.26v-3.34H493.45z M491.89,306.59v8.55h-18.43v-8.55H491.89z M478.82,315.6
			c0.76,1.88,1.59,4.35,1.93,5.92l-3.71,0.82c-0.31-1.63-1.09-4.17-1.79-6.09L478.82,315.6z M481.51,276.24v10.37h-4.74v-10.37
			H481.51z M477.34,312.47h10.44v-3.19h-10.44V312.47z M481.85,288.26v6.95c0,1.2,0.13,1.62,1.22,1.62c0.77,0,3.8,0,4.64,0
			c0.94,0,2.72-0.06,3.49-0.28c0.08,1.07,0.16,2.01,0.31,2.97c-0.72,0.23-2.28,0.28-3.59,0.28c-1.1,0-5,0-6.01,0
			c-3.55,0-4.21-1.55-4.21-4.64v-6.89H481.85z M492.84,279.3v3.43H479.1v-3.43H492.84z M490.3,316.06
			c-1.21,2.31-2.57,4.71-3.64,6.35l-3.34-0.76c0.96-1.81,2.14-4.48,2.73-6.31L490.3,316.06z M490.69,285.18l0.71-0.14l2.99,0.58
			c-0.57,2.82-1.41,6.05-2.16,8.14l-3.67-0.74c0.53-1.88,1.14-4.83,1.5-7.26v-0.58H490.69z M513.33,298.64
			c-3.06,10.34-9.48,20.89-17.16,26.15c-0.87-1.13-2.38-2.58-3.63-3.42c7.78-4.66,14.15-14.73,16.97-24.75L513.33,298.64z
			 M513.52,289.51l0.58,4.47l-19.92,2.63l-0.63-4.5L513.52,289.51z M502.1,276.5c0.21,23.56,2.69,43.53,6.64,43.8
			c0.89,0,1.54-2.76,1.87-7.69c0.78,1.02,2.73,2.32,3.58,2.79c-1.2,8.7-3.45,10.87-5.49,10.82c-8.47-0.28-10.7-21.23-11.33-49.71
			H502.1z M507.85,277.2c1.93,2.74,4.48,6.5,5.71,8.73l-4.01,2.19c-1.14-2.31-3.54-6.21-5.48-9.07L507.85,277.2z"/>
		<path class="st5" d="M568.93,285.77v26.13h-5.31v-21.12h-33.54v21.39h-5.1v-26.4H568.93z M566.63,303.95v5.01h-38.98v-5.01H566.63
			z M549.51,276.24v50.03h-5.36v-50.03H549.51z"/>
		<path class="st5" d="M195.36,375.21v4.13h-20.92v-4.13H195.36z M193.37,382.52v3.95h-16.64v-3.95H193.37z M193.43,389.7v3.95
			h-16.7v-3.95H193.43z M181.14,397.02v18.48h-4.4v-18.48H181.14z M193.43,397.02v16.04h-14.45v-4.19h9.96v-7.7h-9.96v-4.16H193.43z
			 M184.37,365.9c1.55,2.22,3.23,5.13,4.1,7.08l-4.12,2.3c-0.8-2.01-2.52-5.16-3.93-7.42L184.37,365.9z M223.65,378.24v5.01h-27.84
			v-5.01H223.65z M202.2,387.76c2.66,3.92,5.15,9.07,6.16,12.59l-4.62,1.99c-0.87-3.51-3.31-8.9-5.83-12.85L202.2,387.76z
			 M217.43,366.42v43.28c0,3.2-0.73,4.69-2.66,5.51c-1.9,0.9-5.02,1.08-9.91,1.05c-0.25-1.46-1.04-3.83-1.76-5.34
			c3.5,0.14,6.8,0.14,7.81,0.11c0.99-0.08,1.4-0.35,1.4-1.37v-43.25H217.43z"/>
		<path class="st5" d="M249.07,375.21v4.13h-17v-4.13H249.07z M237.89,397.02v18.48h-4.16v-18.48H237.89z M247.54,382.52v3.95
			h-13.52v-3.95H247.54z M247.54,389.7v3.95h-13.52v-3.95H247.54z M247.91,397.02v16.04h-11.97v-4.19h7.75v-7.7h-7.75v-4.16H247.91z
			 M240.55,365.9c1.55,2.22,3.26,5.13,4.1,7.08l-4.12,2.3c-0.77-2.01-2.49-5.16-3.95-7.42L240.55,365.9z M268.73,368.51
			c-3.92,7.08-11.37,14.39-18.29,18.3c-0.66-1.45-1.92-3.55-3.04-4.77c6.69-3.08,13.89-9.71,17.39-16.18L268.73,368.51z
			 M276.82,389.42v4.25h-21.2v22.68h-4.19v-26.92H276.82z M277.28,400.09v4.25h-23.56v-4.25H277.28z M274.14,381.1v4.4h-18.23v-4.4
			H274.14z M263.07,391.43v23.46h-3.59v-23.46H263.07z M282.65,381.52c-1.16,1.07-2.77,3.19-3.58,4.61
			c-6.49-2.88-12.65-8.97-16.18-15.53l4.11-1.5C270.14,374.24,276.35,379.29,282.65,381.52z M270.57,391.43v23.46h-3.56v-23.46
			H270.57z M278.87,389.42v21.71c0,2.01-0.22,3.25-1.39,3.97s-2.73,0.78-4.82,0.78c-0.14-1.22-0.6-3.05-1.11-4.26
			c1.17,0.05,2.26,0.05,2.62,0.03c0.37,0,0.48-0.16,0.48-0.59v-21.64H278.87z"/>
		<path class="st5" d="M315.23,375.34l-0.05,4.75c-8.89,0.65-18.29,1.19-24.99,1.61l-0.54-5.11
			C296.14,376.34,305.94,375.85,315.23,375.34z M313.09,373.09v6.54c0,10.62-1.64,26.32-19.76,36.51c-0.76-1.16-2.45-2.98-3.64-3.85
			c16.97-9.19,18.4-23.31,18.4-32.69v-6.51H313.09z M297.23,366.38l5.37,0.32c-1.13,9.97-3.74,22.61-5.99,30.54l-4.95-1.6
			C293.9,388.23,296.42,375.86,297.23,366.38z M295.07,392.36c6.38,4.96,15.21,12.18,19.36,16.87l-3.77,3.94
			c-3.96-4.8-12.5-12.3-19-17.53L295.07,392.36z M337.16,371.83v42.15h-5.04v-37.3h-10.36v38.14h-4.83v-42.99H337.16z
			 M334.78,405.93v4.83h-15.25v-4.83H334.78z"/>
		<path class="st5" d="M364.8,367.63c-3.31,9.04-8.63,18.38-14.26,24.43c-0.46-1.2-1.9-3.96-2.79-5.19
			c4.88-5.01,9.49-12.88,12.25-20.74L364.8,367.63z M360.06,375.63l0.05,0.05v40.44h-5.09v-35.45L360.06,375.63z M398.17,371.13
			v4.89h-33.52v-4.89H398.17z M370.62,382.87v22.74h-4.8v-22.74H370.62z M383.25,382.87v19.08h-15.3v-4.46h10.54v-10.17h-10.54
			v-4.46H383.25z M394.5,372.9v36.84c0,3.26-0.74,4.71-2.87,5.55c-2.13,0.78-5.76,0.93-10.92,0.9c-0.2-1.45-1.01-3.72-1.76-5.22
			c3.95,0.16,7.83,0.14,9,0.09c1.1-0.02,1.45-0.32,1.45-1.36v-36.8H394.5z"/>
		<path class="st5" d="M417.21,391.96l0.83-0.11l2.21,0.89c-1.65,11.56-5.76,19.42-11.42,23.59c-0.69-1.01-2.37-2.75-3.38-3.45
			c5.34-3.69,8.98-10.52,10.27-20.1v-0.82H417.21z M405.59,392.44c0.82-0.22,1.72-0.6,2.68-1.66c1.6-1.6,6.6-8.73,8.39-11.63v-0.17
			l1.39-0.59l3.21,1.46c-2.5,3.67-7.27,10.52-10.31,13.98c0,0-3.62,1.77-3.62,2.96C407.04,395.68,406.07,393.41,405.59,392.44z
			 M417.98,378.66v4.16h-11.55v-4.16H417.98z M407.32,393.02l2.11-1.06h8.3L417.7,396h-7.12c-1.34,0-2.82,0.35-3.26,0.79V393.02z
			 M411.99,366.15c2.39,2.63,5.17,6.07,6.57,8.3l-4.01,2.69c-1.32-2.3-4.17-6.05-6.42-8.75L411.99,366.15z M436.86,410.93
			c5.73,0,14.05-0.26,19.86-0.81c-0.75,1.07-1.39,3.38-1.65,4.75c-5.32,0.33-12.18,0.47-18.28,0.47c-12.6,0-19.53-1.54-23.56-11.07
			l3.4-1.45C419.78,409.99,426.49,410.9,436.86,410.93z M451.76,384.54v3.95h-24.71v19.56h-4.49v-23.51H451.76z M449.31,367.89
			v18.16h-4.61v-14.3h-13.64v14.3h-4.49v-18.16H449.31z M434.64,391.4v13.59h-3.77V391.4H434.64z M444.97,391.4v11.67h-11.78v-3.38
			h7.96v-4.87h-7.96v-3.43H444.97z M446.81,375.68v3.37h-7.62v7.59h-3.8v-10.96H446.81z M453.52,384.54v18.83
			c0,2.15-0.36,3.32-1.86,4.01c-1.42,0.69-3.59,0.72-6.68,0.72c-0.17-1.22-0.74-2.92-1.28-4.07c1.97,0.08,3.84,0.08,4.39,0.05
			c0.59-0.02,0.77-0.19,0.77-0.72v-18.83H453.52z"/>
		<path class="st5" d="M471.37,368.35v47.9h-4.88v-47.9H471.37z M483.58,375.27v3.28h-14.46v-3.28H483.58z M486.79,368.35v17.01
			h-17.25v-3.56h12.45v-9.9h-12.45v-3.56H486.79z M474.25,397.33c0.84-0.08,1.78-0.65,2.88-1.5c1.15-0.83,5.1-4.22,7.74-7.7
			l2.66,1.85c-3.14,3.37-6.74,6.55-10.24,8.72v0.11c0,0-2.05,0.88-2.05,1.6C475.1,399.74,474.61,398.18,474.25,397.33z
			 M474.39,390.82c0.59-0.11,1.19-0.41,1.78-0.95c0.59-0.56,2.71-2.77,3.88-5.09l3.09,1.6c-1.68,2.29-3.73,4.45-5.53,5.78v0.08
			c0,0-2.11,1.02-2.11,1.77C475.3,393.3,474.81,391.66,474.39,390.82z M475.18,398.16l1.54-0.95l9.44-0.82
			c0.05,0.76,0.25,1.83,0.38,2.45c-9.11,0.97-10.52,1.24-11.31,1.6L475.18,398.16z M475.47,391.86l1.57-0.87l7.1-0.29
			c-0.27,0.76-0.59,1.85-0.69,2.44c-6.06,0.38-7.32,0.6-7.95,0.9L475.47,391.86z M479.39,401.37v4.87h6.25v3.01h-9.53v-7.89H479.39z
			 M487.3,400.52v5.02c0,4.16-1.01,8.01-7.82,10.38c-0.43-0.85-1.55-2.24-2.34-2.9c5.82-1.75,6.58-4.66,6.58-7.58v-4.93H487.3z
			 M486.06,393.8c0.96,1.92,2.13,4.46,2.64,5.92l-2.69,1.02c-0.51-1.59-1.59-4.24-2.55-6.19L486.06,393.8z M488.93,397.39
			c0.84-0.11,1.78-0.65,2.88-1.53c1.17-0.83,5.1-4.28,7.74-7.79l2.69,1.85c-3.14,3.43-6.77,6.64-10.27,8.84v0.12
			c0,0-2.05,0.88-2.05,1.6C489.78,399.8,489.29,398.24,488.93,397.39z M489.01,390.88c0.62-0.11,1.22-0.41,1.78-0.95
			c0.59-0.56,2.71-2.77,3.9-5.09l3.07,1.6c-1.65,2.29-3.7,4.45-5.53,5.78v0.08c0,0-2.11,1.02-2.11,1.77
			C489.92,393.36,489.43,391.72,489.01,390.88z M489.86,398.19l1.54-0.95l9.47-0.82c0.03,0.76,0.22,1.83,0.36,2.45
			c-9.11,0.97-10.49,1.24-11.31,1.6L489.86,398.19z M490.09,391.89l1.57-0.87l7.1-0.29c-0.25,0.76-0.57,1.85-0.67,2.44
			c-6.09,0.38-7.32,0.6-7.97,0.9L490.09,391.89z M494.03,400.52v14.95h-3.67v-14.95H494.03z M509.36,371.91H495.9v9.9h13.46v3.56
			h-18.32v-17.01h18.32V371.91z M500.25,406.25v3.01h-7.19v-3.01H500.25z M508.65,375.27v3.28h-14.74v-3.28H508.65z M500.58,393.77
			c1.08,1.92,2.31,4.46,2.88,5.92l-2.65,1.11c-0.57-1.59-1.75-4.24-2.74-6.19L500.58,393.77z M501.81,401.39v9.46h-3.41v-9.46
			H501.81z M511.78,368.35v41.76c0,2.63-0.44,4.11-2.06,4.98c-1.6,0.84-4,0.93-7.46,0.93c-0.19-1.37-0.82-3.69-1.49-5.02
			c2.2,0.08,4.42,0.08,5.15,0.06c0.7-0.02,0.92-0.27,0.92-0.99v-41.72H511.78z"/>
	</g>
</g>
</svg>
