<?xml version="1.0" encoding="utf-8"?>
<!-- Generator: Adobe Illustrator 25.2.3, SVG Export Plug-In . SVG Version: 6.00 Build 0)  -->
<svg version="1.1" id="圖層_1" xmlns="http://www.w3.org/2000/svg" xmlns:xlink="http://www.w3.org/1999/xlink" x="0px" y="0px"
	 viewBox="0 0 686 686" style="enable-background:new 0 0 686 686;" xml:space="preserve">
<style type="text/css">
	.st0{fill:#00A0E9;}
	.st1{fill:#036EB8;}
	.st2{fill:#69D8FF;}
	.st3{fill:#0054A8;}
	.st4{fill:#FFFFFF;}
	.st5{fill:#1D2088;}
</style>
<g>
	<g>
		<g>
			<rect x="-0.2" y="-0.3" class="st0" width="686.39" height="686.39"/>
		</g>
		<g>
			<polygon class="st1" points="686.2,-0.3 621.79,64.1 621.79,334.43 686.2,334.43 			"/>
		</g>
		<g>
			<polygon class="st1" points="686.2,686.09 621.79,621.68 621.79,305.3 686.2,305.3 			"/>
		</g>
		<g>
			<polygon class="st2" points="-0.2,-0.3 64.21,64.1 334.54,64.1 334.54,-0.3 			"/>
		</g>
		<g>
			<polygon class="st2" points="686.2,-0.3 621.79,64.1 305.4,64.1 305.4,-0.3 			"/>
		</g>
		<g>
			<polygon class="st3" points="686.2,686.09 621.79,621.68 351.46,621.68 351.46,686.09 			"/>
		</g>
		<g>
			<polygon class="st3" points="-0.2,686.09 64.21,621.68 380.6,621.68 380.6,686.09 			"/>
		</g>
	</g>
	<g>
		<g>
			<g>
				<path class="st4" d="M323.53,178.07h-7.56v-8.64h8.88v7.44h7.32v7.32h21v-7.32h7.44v-21h-6.12v7.44h-23.52v-7.44h-7.44v-7.44
					h-7.56v-38.4h7.56v-7.44h7.44v-7.32h23.52v7.32h7.32v7.44h7.44v68.04h-7.44v7.44h-7.32v7.56h-23.52v-7.56h-7.44V178.07z
					 M353.17,154.55v-7.44h7.44v-35.76h-7.44v-7.44h-21v7.44h-7.32v35.76h7.32v7.44H353.17z"/>
			</g>
		</g>
		<g>
			<path class="st5" d="M191.71,240.05v4.13h-18.43v-4.13H191.71z M179.77,262.17v18.38h-4.25v-18.38H179.77z M190.43,247.51v3.95
				h-14.79v-3.95H190.43z M190.43,254.79v3.95h-14.79v-3.95H190.43z M181.73,231.31c1.96,2.09,3.94,5,4.87,6.99l-4.07,2.28
				c-0.85-2.06-2.83-5.17-4.71-7.36L181.73,231.31z M190.49,262.17v15.99h-12.5v-4.1h8.25v-7.8h-8.25v-4.1H190.49z M207.29,244.57
				c-3.03,5.59-8.54,10.84-13.92,13.52c-0.72-1.13-2.17-2.87-3.21-3.74c5.18-2.14,10.52-6.57,13.22-11.17L207.29,244.57z
				 M205.01,259.15c-0.57,10.71-2.31,18.12-11.66,22.2c-0.52-1.14-1.84-2.87-2.86-3.74c8.07-3.33,9.26-9.43,9.72-18.46H205.01z
				 M223.35,241.41v4.35h-30.62v-4.35H223.35z M221.39,235.06c-6.98,1.82-17.44,2.76-26.12,3.03c-0.14-1.13-0.75-2.84-1.23-3.91
				c8.39-0.41,18.36-1.36,24.01-2.83L221.39,235.06z M211.53,257.7v4.38h-17.11v-4.38H211.53z M210.1,235.89v20.49h-4.74v-20.49
				H210.1z M211.44,243.01c4.11,3.35,9.44,8.07,12.01,11.16l-3.59,2.9c-2.4-3.09-7.61-8.01-11.75-11.53L211.44,243.01z
				 M221.98,264.41c0,0-0.08,1.25-0.17,1.87c-0.61,8.43-1.26,12-2.57,13.43c-0.95,1.02-1.98,1.38-3.48,1.53
				c-1.3,0.09-3.76,0.1-6.33-0.03c-0.08-1.28-0.58-3.08-1.27-4.29c2.3,0.24,4.55,0.26,5.44,0.26c0.84,0,1.31-0.05,1.77-0.49
				c0.82-0.85,1.41-3.88,1.88-11.65v-0.63H221.98z M215.92,257.7c-0.73,3.71-1.62,7.99-2.38,10.84h-4.64
				c0.79-2.98,1.67-7.27,2.23-10.84H215.92z M218.81,264.41v4.13h-7.88l0.88-4.13H218.81z"/>
			<path class="st5" d="M248.7,232.47c-3.67,9.13-9.5,18.48-15.55,24.52c-0.48-1.2-1.87-3.93-2.76-5.16
				c5.32-5.03,10.47-12.88,13.54-20.88L248.7,232.47z M243.27,240.62l0.05,0.05v40.71h-4.88v-35.93L243.27,240.62z M266.47,231.35
				v24.19c0,10.7-2.23,20.94-18.4,25.74c-0.61-1.13-2.08-3.18-3.13-4.25c15.39-3.7,16.49-12.52,16.49-21.52v-24.16H266.47z
				 M281.55,236.76v4.67h-34.52v-4.67H281.55z M282.22,276.65c-1.07,1.1-2.38,3.15-3.04,4.56c-14.43-2.01-25.03-7.57-30.84-17.58
				l4.21-1.34C257.51,270.48,268.2,275.21,282.22,276.65z M279.93,246.07v15.37h-31.5v-15.37H279.93z M253.1,257.18h21.92v-6.89
				H253.1V257.18z"/>
			<path class="st5" d="M306.14,232.77c-3.53,9.18-9.1,18.58-14.96,24.7c-0.49-1.23-1.9-3.99-2.8-5.2c5.14-5.08,10.03-13,12.93-21
				L306.14,232.77z M300.52,240.8l0.05,0.05v40.26h-4.86v-35.48L300.52,240.8z M334.21,240.44l1.95,4.45l-32.12,12.63l-1.95-4.51
				L334.21,240.44z M313.7,236.8v35.51c0,3.18,0.62,3.8,4.36,3.8c1.8,0,10.72,0,12.88,0c3.27,0,3.84-1.43,4.28-7.69
				c1.18,0.81,3.19,1.65,4.58,1.93c-0.76,7.76-2.31,10.34-8.58,10.34c-1.67,0-11.83,0-13.4,0c-6.93,0-8.94-1.72-8.94-8.42V236.8
				H313.7z M325.18,231.25v37.56h-4.61v-37.56H325.18z M332.19,241.65l1.89-1.41l3.84,1.22l-0.2,0.85
				c-0.21,7.81-0.8,18.1-1.87,24.62l-4.19-1.19c0.72-5.94,1.06-16.36,1.12-24.1H332.19z"/>
			<path class="st5" d="M375.18,231.21c-0.28,10.26-0.68,37.13-23.46,49.83c-0.9-1.35-2.56-2.98-4.21-4.1
				c22.3-11.56,21.68-37.04,21.88-45.73H375.18z M397.97,276.4c-1.53,1.18-3,2.95-3.76,4.38c-21.69-10.23-23.73-37.42-24.49-42.41
				l4.9-0.53C375.07,241.91,377.08,267.09,397.97,276.4z"/>
			<path class="st5" d="M422.06,232.77c-3.53,9.18-9.1,18.58-14.96,24.7c-0.49-1.23-1.9-3.99-2.8-5.2c5.14-5.08,10.03-13,12.93-21
				L422.06,232.77z M416.62,240.8l0.05,0.05v40.26h-4.86v-35.48L416.62,240.8z M455.69,265.46v3.98h-36.13v-3.98H455.69z
				 M451.65,258.63l-0.17,3.57c-10.92,0.35-22.42,0.67-30.39,0.83l-0.43-3.94C428.37,259.07,440.34,258.86,451.65,258.63z
				 M455.14,235.04v3.8h-34.24v-3.8H455.14z M453.22,241.46v14.63h-30.12v-14.63H453.22z M428.65,268.9
				c2.43,2.05,5.42,5.04,6.84,7.08l-4.02,2.68c-1.28-2.05-4.12-5.19-6.58-7.41L428.65,268.9z M427.79,247.32h20.54v-2.87h-20.54
				V247.32z M427.79,253.08h20.54v-2.9h-20.54V253.08z M440.44,231.5v29.1l-4.95,0.48V231.5H440.44z M448.36,261.1v15.1
				c0,2.49-0.5,3.71-2.35,4.38c-1.84,0.69-4.64,0.66-8.68,0.66c-0.23-1.28-0.89-3.05-1.49-4.32c2.92,0.11,5.71,0.11,6.55,0.06
				c0.83-0.02,1.05-0.24,1.05-0.91V261.1H448.36z M448.03,254.59c2.9,2.17,6.43,5.36,8.12,7.58l-3.68,2.17
				c-1.54-2.19-4.95-5.53-7.86-7.86L448.03,254.59z"/>
			<path class="st5" d="M474.84,256.92l0.83-0.11l2.21,0.89c-1.65,11.57-5.77,19.44-11.43,23.62c-0.69-1.01-2.38-2.76-3.39-3.45
				c5.34-3.69,8.99-10.53,10.28-20.12v-0.82H474.84z M463.21,257.4c0.82-0.22,1.72-0.6,2.68-1.66c1.61-1.6,6.61-8.74,8.39-11.64
				v-0.17l1.39-0.59l3.22,1.46c-2.51,3.68-7.27,10.53-10.32,13.99c0,0-3.62,1.77-3.62,2.96
				C464.66,260.64,463.69,258.37,463.21,257.4z M475.61,243.61v4.16h-11.56v-4.16H475.61z M464.95,257.98l2.11-1.06h8.31l-0.03,4.04
				h-7.13c-1.34,0-2.82,0.35-3.26,0.79V257.98z M469.62,231.09c2.39,2.63,5.18,6.07,6.57,8.31l-4.01,2.69
				c-1.33-2.3-4.18-6.05-6.43-8.75L469.62,231.09z M494.51,275.9c5.74,0,14.07-0.26,19.88-0.81c-0.75,1.07-1.39,3.39-1.65,4.76
				c-5.32,0.33-12.19,0.47-18.29,0.47c-12.61,0-19.54-1.54-23.58-11.08l3.41-1.45C477.41,274.97,484.14,275.87,494.51,275.9z
				 M498.36,243.19v7.36c0,6.86-1.9,16.35-15.76,23.03c-0.7-1.07-2.28-2.73-3.47-3.62c13.33-5.71,14.19-13.91,14.19-19.47v-7.3
				H498.36z M512.45,252.44v4.7h-32.67v-4.7H512.45z M511.13,240.8v4.65h-29.78v-4.65H511.13z M488.17,231.12
				c1.66,2.55,3.85,6.04,4.91,8.15l-4.55,1.94c-0.96-2.13-3.04-5.79-4.67-8.46L488.17,231.12z M496.26,256.48
				c5.18,4.11,12.62,9.96,16.3,13.49l-3.6,3.61c-3.47-3.65-10.73-9.75-16.05-14.04L496.26,256.48z M508.2,232.64
				c-2.01,3.77-4.39,8.04-6.31,10.78l-4.07-1.44c1.83-2.92,4.05-7.6,5.26-10.91L508.2,232.64z"/>
			<path class="st5" d="M217.43,322.7c-3.11,9.25-8.18,18.83-13.7,25.12c-0.4-1.23-1.72-4.12-2.55-5.41
				c4.7-5.16,8.98-13.12,11.56-21.12L217.43,322.7z M213.08,330.39l0.05,0.05v40.82h-4.86V335.2L213.08,330.39z M250.77,324.12v46.6
				h-4.88v-42.11h-22.37v42.55h-4.7v-47.04H250.77z M248.4,363.46v4.49h-27.08v-4.49H248.4z M244.34,335.93v3.83h-18.95v-3.83
				H244.34z M242.55,345.15v14.51h-15.29v-14.51H242.55z M231.05,356.01h7.54v-7.21h-7.54V356.01z M236.74,330.05v17.23h-4.04
				v-17.23H236.74z"/>
			<path class="st5" d="M276.81,332.44v4.01H260.9v-4.01H276.81z M281.63,364.41c-4.41,2.71-11.32,5.31-16.76,6.8
				c-0.86-1-2.65-2.9-3.79-3.8c5.61-1.11,12.08-3.03,15.88-5.13L281.63,364.41z M275.47,324.06v3.86h-13.39v-3.86H275.47z
				 M303.67,340.42v21.9h-35.66v-21.9H303.67z M272.95,346.7h25.58v-3.06h-25.58V346.7z M272.95,352.88h25.58v-3.08h-25.58V352.88z
				 M272.95,359.12h25.58v-3.16h-25.58V359.12z M294.58,327.28v1.99c0,4-1.95,8.84-17.19,10.9c-0.49-1.16-1.76-2.93-2.69-3.86
				c13.73-1.47,15.18-4.73,15.18-7.25v-1.78H294.58z M288.37,321.87c-1.46,4.49-4.13,8.84-6.99,11.61c-0.84-0.75-2.73-2-3.83-2.61
				c2.82-2.47,5.09-6.2,6.32-10.02L288.37,321.87z M305.25,324.57v3.83h-22.08v-3.83H305.25z M293.65,362.15
				c5.7,1.86,12.04,4.33,15.82,6.09l-4.57,2.82c-3.33-1.76-9.06-4.24-14.68-6.17L293.65,362.15z M310.47,335.92
				c-1.01,0.96-2.25,2.82-2.83,4.1c-8.06-1.1-14.11-4.12-17.23-9.22l3.63-0.76C296.78,333.4,302.87,335.39,310.47,335.92z
				 M304.32,324.57l0.78-0.23l3.47,1.12c-1.38,2.88-3.16,6.12-4.75,8.15l-3.98-1.44c1.24-1.84,2.78-4.64,3.68-6.96v-0.65H304.32z"/>
			<path class="st5" d="M343.59,357.83l0.44,4.87c-8.23,1.84-17.09,3.74-23.47,5.13l-0.98-5.25
				C325.58,361.51,334.87,359.66,343.59,357.83z M367.38,329.41v5.04h-47.51v-5.04H367.38z M342.13,338.63v16.73h-19.4v-16.73
				H342.13z M327.43,351.02h9.72V343h-9.72V351.02z M365.47,339c-4.6,14.42-12.56,25.53-23.44,32.38c-0.79-1.02-2.84-3.03-3.98-3.95
				c10.77-6,18.28-16.37,22.31-29.65L365.47,339z M351.23,321.2c-0.22,23.24,4.96,44.71,10.7,44.71c1.37,0,1.99-2.83,2.3-9.87
				c1.13,1.2,3.01,2.43,4.44,2.96c-0.85,9.69-2.69,12.24-7.23,12.24c-10.88,0-15.46-25.22-15.7-50.04H351.23z M357.1,321.13
				c3.11,1.35,6.97,3.61,8.88,5.38l-3.19,3.5c-1.82-1.79-5.59-4.21-8.73-5.74L357.1,321.13z"/>
			<path class="st5" d="M386.72,360.17c-1.41,3.23-3.76,6.86-5.88,9.12c-0.78-0.73-2.52-2.06-3.53-2.73
				c2.04-2.02,3.94-4.89,5.12-7.65L386.72,360.17z M406.92,341.1v4.01h-29.49v-4.01H406.92z M405.06,322.98v15.11h-25.08v-15.11
				H405.06z M404.36,347.42v10.72h-23.74v-10.72H404.36z M394.77,356.28v10.02c0,2.25-0.36,3.34-1.91,4.02
				c-1.52,0.66-3.65,0.69-6.63,0.69c-0.23-1.3-0.86-2.98-1.49-4.17c1.96,0.05,3.75,0.05,4.3,0.03c0.61,0,0.75-0.19,0.75-0.67v-9.92
				H394.77z M384.82,328.96h15.2v-2.72h-15.2V328.96z M384.82,334.81h15.2v-2.74h-15.2V334.81z M385.36,354.67h14.05v-3.76h-14.05
				V354.67z M393.65,337.99c0.86,1.27,1.76,3.09,2.12,4.39l-5.03,1.14c-0.3-1.21-1.14-3.12-1.91-4.5L393.65,337.99z M400.34,358.82
				c1.81,2.55,3.95,5.99,4.88,8.15l-3.83,1.92c-0.87-2.24-2.86-5.8-4.67-8.45L400.34,358.82z M426.67,353.9
				c-4.14,7.09-10.94,13.12-18.25,16.92c-0.81-1.23-2.27-2.92-3.52-3.94c6.8-3.11,13.52-8.62,17.05-14.74L426.67,353.9z
				 M424.15,324.04c-3.68,5.04-9.19,9.83-14.28,12.96c-0.84-1.08-2.35-2.59-3.65-3.53c4.67-2.6,10.17-7.07,13.12-11.38
				L424.15,324.04z M425.6,338.69c-3.97,5.35-10.11,10.39-15.75,13.66c-0.78-1.13-2.27-2.65-3.55-3.61c5.22-2.71,11.37-7.4,14.63-12
				L425.6,338.69z"/>
			<path class="st5" d="M450.93,322.77c-3.32,9.13-8.59,18.56-14.22,24.7c-0.49-1.23-1.93-3.96-2.82-5.2
				c4.89-5.13,9.46-13.06,12.21-21L450.93,322.77z M445.53,331.13l0.05,0.05v39.88h-4.86v-35.1L445.53,331.13z M463.19,322.02
				c-2.97,5.67-7.42,11.63-13.79,16.45c-0.63-1.05-2.09-2.66-3.09-3.36c5.78-4.05,9.89-9.55,12.12-14L463.19,322.02z M466.14,343.74
				c-3.77,3.73-10.53,7.72-15.8,9.63c-0.6-0.98-1.82-2.45-2.71-3.23c5.27-1.54,11.89-4.83,15.31-7.98L466.14,343.74z M470.09,356.31
				c-4.51,5.11-12.58,9.97-19.42,12.35c-0.69-1.1-1.97-2.73-2.95-3.57c6.85-1.98,14.82-6.17,18.91-10.46L470.09,356.31z
				 M467.15,350.87c-3.87,3.81-10.9,7.79-16.33,9.75c-0.63-0.98-1.84-2.45-2.74-3.26c5.42-1.54,12.31-4.86,15.88-8.07L467.15,350.87
				z M481.25,332.49v12.08h-29.39v-12.08H481.25z M456.36,340.79h20.21v-4.51h-20.21V340.79z M471.43,324.92v3.89H458.1v-3.89
				H471.43z M464.14,344.61c9.14,6.94,9.5,20.49,5.6,24.24c-1.51,1.62-2.98,2.08-5.1,2.11c-1,0.03-2.21-0.02-3.45-0.1
				c-0.08-1.22-0.42-3.13-1.21-4.38c1.43,0.16,2.72,0.22,3.66,0.22c1.09,0,1.9-0.15,2.58-1.11c2.4-2.4,2.12-13.11-5.54-18.97
				L464.14,344.61z M468.61,333.88v8.62h-4.59v-8.62H468.61z M470.66,324.92l0.93-0.26l2.89,2.18c-1.94,3.18-4.78,6.7-7.23,9.02
				c-0.61-0.87-1.85-2.18-2.6-2.85c1.81-1.88,3.95-5.07,4.96-7.23v-0.86H470.66z M482.17,348.59c-3.83,2.29-8.71,4.68-12.36,6.12
				l-2.6-2.73c3.56-1.59,8.56-4.5,11.48-6.62L482.17,348.59z M485.13,364.04c-1.07,0.87-2.54,2.61-3.24,3.8
				c-4.56-3.36-7.88-9.79-9.65-16.57l3.85-0.97C477.69,355.93,480.95,361.42,485.13,364.04z"/>
			<path class="st5" d="M222.72,414.81v5.16h-48.49v-5.16H222.72z M184.5,427.07v24.78h-4.95v-24.78H184.5z M202.06,427.07v20.54
				h-20.42v-4.88h15.35v-10.79h-15.35v-4.86H202.06z M216.24,416.28v38.07c0,3.33-0.81,4.98-3.13,5.82
				c-2.38,0.87-6.23,0.94-11.67,0.94c-0.31-1.49-1.34-4.02-2.15-5.46c4.14,0.22,8.7,0.17,9.99,0.15c1.2-0.05,1.62-0.4,1.62-1.54
				v-37.98H216.24z"/>
			<path class="st5" d="M239.7,430.4v12.84c0,5.59-0.66,13.18-4.46,18.1c-0.68-0.98-2.58-2.85-3.56-3.48
				c3.02-4.2,3.31-10.02,3.31-14.68V430.4H239.7z M232.78,423.05c0.93-0.2,1.83-0.99,2.91-2.17c1.07-1.16,4.54-5.47,6.69-9.81
				l5.18,1.6c-2.93,4.7-6.79,9.49-10.18,12.52v0.08c0,0-2.99,1.53-2.99,2.47C234.14,426.72,233.33,424.33,232.78,423.05z
				 M234.25,424.01l2.52-1.52l16.87-1.24c0.18,1.3,0.62,3.04,0.96,4.09c-16.52,1.49-18.74,1.8-20.2,2.4L234.25,424.01z
				 M252.41,430.4v4.32H237.4v-4.32H252.41z M251.18,444.25l0.98,3.15c-4.01,2.57-8.13,5.17-11.64,7.3l-1.65-4.36
				C242.01,448.96,246.61,446.59,251.18,444.25z M242.34,437.12c2.58,1.66,5.99,4.02,7.76,5.49l-2.74,2.74
				c-1.7-1.58-5.08-4.08-7.67-5.83L242.34,437.12z M254.63,430.4v25.71c0,2.31-0.47,3.47-2.04,4.19c-1.59,0.66-3.98,0.72-7.33,0.72
				c-0.23-1.19-0.95-2.95-1.58-4.09c2.28,0.11,4.5,0.08,5.21,0.06c0.73,0,0.92-0.22,0.92-0.89V430.4H254.63z M251.35,415.02
				c2.47,3.83,5.46,9.02,6.81,12.24l-4.43,1.89c-1.2-3.28-4.1-8.64-6.54-12.58L251.35,415.02z M264.18,411.16v16.45
				c0,1.97,0.39,2.68,2.13,2.68c1.43,0,7.56,0,9.11,0c1.38,0,3.62-0.12,4.73-0.37c0.08,1.33,0.28,3.22,0.48,4.38
				c-1,0.29-3.11,0.37-5.09,0.37c-1.57,0-8.16,0-9.35,0c-5.53,0-7.04-1.94-7.04-7.19v-16.34H264.18z M264.18,436.39v17.71
				c0,1.86,0.44,2.17,2.83,2.17c1.04,0,6.26,0,7.71,0c2.06,0,2.44-0.96,2.69-6.44c1.09,0.81,3.13,1.59,4.52,1.88
				c-0.6,7.09-2,9.06-6.76,9.06c-1.3,0-7.59,0-8.8,0c-5.76,0-7.22-1.5-7.22-6.64v-17.74H264.18z M278.24,418.17v4.43h-16.02v-4.43
				H278.24z M278.74,442.38v4.58h-16.5v-4.58H278.74z"/>
			<path class="st5" d="M300.87,412.02c-1.86,7.24-4.95,14.27-8.67,18.84c-0.72-0.78-2.59-2.26-3.57-2.9
				c3.54-4.08,6.27-10.4,7.82-16.89L300.87,412.02z M296.49,424.81v14.5c0,6.62-0.59,15.93-4.17,21.99
				c-0.69-0.63-2.42-1.71-3.38-2.08c3.37-5.77,3.68-13.84,3.68-19.91v-14.5H296.49z M309.04,424.81v3.83h-14.39v-3.83H309.04z
				 M309.04,433.87v3.71h-14.39v-3.71H309.04z M309.04,443.02v3.86h-14.39v-3.86H309.04z M305.01,415.85v3.86h-7.89v-3.86H305.01z
				 M302.99,426.64v17.85h-3.28v-17.85H302.99z M310.26,424.81v31.56c0,2.08-0.43,3.36-1.84,4.06c-1.39,0.72-3.46,0.81-6.82,0.81
				c-0.14-1.13-0.79-2.99-1.4-4.09c2.36,0.08,4.49,0.08,5.15,0.06c0.69-0.05,0.88-0.24,0.88-0.9v-31.5H310.26z M304.46,415.85
				l0.84-0.26l2.73,1.85c-1.33,3.58-3.28,7.74-4.96,10.46c-0.63-0.84-1.86-2.08-2.63-2.66c1.17-2.31,2.47-6.06,3.07-8.59v-0.8
				H304.46z M321.38,425.3c-2.14,5.2-5.7,10.27-9.33,13.51c-0.69-0.81-2.34-2.41-3.32-3.14c3.47-2.78,6.57-7.1,8.36-11.54
				L321.38,425.3z M328.52,452.46l0.09,3.2c-6.04,0.7-12.12,1.41-16.83,1.94l-0.72-3.71C315.52,453.6,321.98,453.03,328.52,452.46z
				 M338.2,413.26v12.52h-26.49v-12.52H338.2z M330.65,437.97v10.75h-18v-10.75H330.65z M335.2,429.37v3.95h-20.08l1.96-3.95H335.2z
				 M315.63,422.05h3.64v-5.07h-3.64V422.05z M316.15,445.61h10.86v-4.56h-10.86V445.61z M323.34,434.17v20.08l-3.68,0.71v-20.79
				H323.34z M322.84,422.05h3.79v-5.07h-3.79V422.05z M328.37,449.4c1.24,2.19,2.55,5.14,3.11,7.01l-3.18,1.12
				c-0.5-1.98-1.76-4.98-2.92-7.23L328.37,449.4z M338.45,429.37c0,0-0.03,1.5-0.03,2.04c-0.42,19.53-0.8,25.81-2.09,27.72
				c-0.83,1.34-1.77,1.73-3.11,1.91c-1.15,0.21-2.82,0.18-4.59,0.1c-0.08-1.07-0.49-2.74-1.06-3.77c1.48,0.13,2.75,0.13,3.47,0.13
				c0.61,0,0.99-0.11,1.37-0.8c0.88-1.34,1.26-7.61,1.63-26.3v-1.03H338.45z M330.22,422.05h3.87v-5.07h-3.87V422.05z"/>
			<path class="st5" d="M364.08,432.92c-2.98,5.63-8.67,12.16-13.68,15.75c-0.82-1.3-2.3-3.02-3.56-4
				c4.94-2.92,10.56-8.86,13.31-14.11L364.08,432.92z M367.48,414.35c-4.12,6.4-10.43,12.47-16.79,16.84
				c-0.78-1.09-2.36-2.73-3.49-3.61c6.28-4.14,12.45-10.38,16.09-16.19L367.48,414.35z M351.85,411.25
				c11.97,8.59,13.48,18.77,13.48,29.2c0,7.92-0.71,14.81-3.25,18.17c-0.86,1.16-2.07,1.85-3.53,2.14
				c-2.38,0.52-4.98,0.52-7.88,0.36c-0.05-1.67-0.62-3.64-1.64-5.13c3.28,0.3,5.79,0.25,7.25,0.08c0.95-0.13,1.48-0.46,1.99-1.13
				c1.41-1.86,1.99-7.47,1.99-14.58c0-9.97-1.6-18.46-12.05-26.16L351.85,411.25z M375.5,415.19v37.01c0,3.09,0.54,3.65,3.59,3.65
				c1.53,0,8.63,0,10.37,0c2.93,0,3.42-1.73,3.82-9c1.27,0.89,3.4,1.8,4.82,2.15c-0.7,8.69-2.23,11.77-8.3,11.77
				c-1.52,0-9.78,0-11.2,0c-6.31,0-8.3-1.78-8.3-8.62v-36.96H375.5z M392.41,415.19v4.92h-20.39v-4.92H392.41z M394.48,415.19v19.45
				c0,2.71-0.56,4.21-2.6,5.05c-2.06,0.78-5.38,0.81-10.08,0.81c-0.21-1.51-0.93-3.64-1.6-5.06c3.45,0.14,6.98,0.14,7.94,0.09
				c0.99-0.02,1.26-0.24,1.26-1.01v-19.33H394.48z"/>
			<path class="st5" d="M408.43,426.18c3.39,1.33,7.91,3.64,10.17,5.42l-2.85,4.25c-2.13-1.81-6.56-4.32-10.04-5.85L408.43,426.18z
				 M417.83,439.81l3.73,3.38c-2.86,5.69-6.48,12.19-9.7,17.33l-4.31-3.46C410.44,452.97,414.66,446.01,417.83,439.81z
				 M411.54,411.66c3.46,1.39,8.01,3.78,10.3,5.56l-2.97,4.24c-2.15-1.89-6.61-4.48-10.15-6.07L411.54,411.66z M454.31,433.49v4.83
				h-32.37v-4.83H454.31z M422.96,454.48c1.17-0.31,2.18-1.54,3.52-3.53c1.36-1.89,5.69-9.4,8.17-16.45l5.5,1.76
				c-3.28,7.49-7.78,15.14-11.98,20.42v0.12c0,0-3.42,1.78-3.42,2.78C424.48,458.48,423.6,455.91,422.96,454.48z M452.21,419.83
				v4.83h-27.98v-4.83H452.21z M424.56,455.53l2.73-1.69l21.2-2.35c-0.03,1.37,0.13,3.38,0.3,4.46
				c-19.87,2.47-22.42,2.87-24.05,3.62L424.56,455.53z M440.59,411.06v25.57h-5.16v-25.57H440.59z M445.59,443.45
				c3.75,4.74,7.77,11.1,9.31,15.41l-4.53,2.3c-1.37-4.22-5.23-10.83-8.9-15.72L445.59,443.45z"/>
			<path class="st5" d="M480.24,424.89c-3.7,6.41-9.53,13.24-14.71,17.61c-0.42-1.11-1.73-3.82-2.53-5.05
				c4.65-3.51,9.76-8.95,12.83-14.38L480.24,424.89z M479.71,413.09c-3.32,4.83-8.57,9.99-13.41,13.25
				c-0.55-1.16-1.81-3.22-2.62-4.24c4.19-2.7,8.87-7.17,11.17-10.88L479.71,413.09z M475.56,429.11l0.21,0.11v31.92h-4.8v-27.46
				L475.56,429.11z M513.18,448.73v4.44h-34.2v-4.44H513.18z M513.73,424.58v4.4h-33.86v-4.4H513.73z M510.77,440.62v4.26h-29.51
				v-4.26H510.77z M510.09,416.56v20.46H482v-4.22h23.19v-12.02h-22.95v-4.22H510.09z M498.11,411.08v50.07h-4.94v-50.07H498.11z"/>
		</g>
	</g>
</g>
</svg>
