<?xml version="1.0" encoding="utf-8"?>
<!-- Generator: Adobe Illustrator 25.2.3, SVG Export Plug-In . SVG Version: 6.00 Build 0)  -->
<svg version="1.1" id="圖層_1" xmlns="http://www.w3.org/2000/svg" xmlns:xlink="http://www.w3.org/1999/xlink" x="0px" y="0px"
	 viewBox="0 0 686 686" style="enable-background:new 0 0 686 686;" xml:space="preserve">
<style type="text/css">
	.st0{fill:#F7F8F8;}
	.st1{fill:#DCDDDD;}
	.st2{fill:#FFFFFF;}
	.st3{fill:#B5B5B6;}
	.st4{fill:#44BABC;}
	.st5{fill:#1D2088;}
</style>
<g>
	<g>
		<g>
			<rect x="-0.2" y="-0.2" class="st0" width="686.39" height="686.39"/>
		</g>
		<g>
			<polygon class="st1" points="686.2,-0.2 621.79,64.21 621.79,334.54 686.2,334.54 			"/>
		</g>
		<g>
			<polygon class="st1" points="686.2,686.2 621.79,621.79 621.79,305.4 686.2,305.4 			"/>
		</g>
		<g>
			<polygon class="st2" points="-0.2,-0.2 64.21,64.21 334.54,64.21 334.54,-0.2 			"/>
		</g>
		<g>
			<polygon class="st2" points="686.2,-0.2 621.79,64.21 305.4,64.21 305.4,-0.2 			"/>
		</g>
		<g>
			<polygon class="st3" points="686.2,686.2 621.79,621.79 351.46,621.79 351.46,686.2 			"/>
		</g>
		<g>
			<polygon class="st3" points="-0.2,686.2 64.21,621.79 380.6,621.79 380.6,686.2 			"/>
		</g>
	</g>
	<g>
		<g>
			<path class="st4" d="M330.97,169.53h7.32v-22.32h7.44v-22.2h7.44v-14.88h7.44v-6.12h-44.64v-8.64h53.28v16.08h-7.44v14.88h-7.32
				v22.2h-7.44v22.2h-7.44v22.44h-8.64V169.53z"/>
		</g>
	</g>
	<g>
		<path class="st5" d="M249.78,235.72c-10.74,14.96-27.05,26.26-44.25,33.17c-0.78-1.14-2.59-3.36-3.68-4.46
			c17.49-6.26,33.36-17.18,43.11-31.15L249.78,235.72z M251.83,249.36v4.71h-48.76v-4.71H251.83z M238.84,238.17v4.65h-30.96v-4.65
			H238.84z M222.63,258.32v14.55c0,2.11,0.77,2.48,5.26,2.48c2.06,0,11.68,0,14.39,0c3.78,0,4.39-1,4.83-6.85
			c1.24,0.84,3.44,1.59,4.95,1.88c-0.82,7.74-2.54,9.67-9.49,9.67c-1.83,0-13.11,0-14.86,0c-8.14,0-10.44-1.49-10.44-7.12v-14.61
			H222.63z M245.72,261.67v4.56H220.6v-4.56H245.72z M226.06,231.17v9.41h-5.1v-9.41H226.06z M225.66,240.33v10.48h-4.71v-10.48
			H225.66z"/>
		<path class="st5" d="M267.21,239.25v40.3h-4.58v-40.3H267.21z M279.31,239.25v15.6h-14.73v-4.37h10.15v-6.88h-10.15v-4.35H279.31z
			 M279.8,259.21V276h-15.1v-4.35h10.55v-8.09H264.7v-4.35H279.8z M274.75,231.79c-1.19,3.34-2.69,7.06-3.92,9.48l-4.04-0.82
			c0.88-2.65,1.94-6.55,2.36-9.31L274.75,231.79z M310.23,233.87v4.65h-29.1v-4.65H310.23z M306.41,244.4v4.59h-18.67v24.09h-4.65
			V244.4H306.41z M298.04,235.97v45.27h-4.8v-45.27H298.04z M308.72,244.4v23.76c0,2.16-0.33,3.47-1.75,4.23
			c-1.37,0.78-3.27,0.84-6.1,0.84c-0.14-1.31-0.76-3.2-1.37-4.44c1.7,0.05,3.26,0.05,3.74,0.03c0.55,0,0.71-0.19,0.71-0.72v-23.7
			H308.72z"/>
		<path class="st5" d="M343.6,267.93l0.44,4.87c-8.23,1.84-17.09,3.74-23.47,5.13l-0.98-5.25
			C325.58,271.62,334.87,269.76,343.6,267.93z M367.38,239.51v5.04h-47.51v-5.04H367.38z M342.13,248.74v16.73h-19.4v-16.73H342.13z
			 M327.43,261.12h9.72v-8.01h-9.72V261.12z M365.47,249.11c-4.6,14.42-12.56,25.53-23.44,32.38c-0.79-1.02-2.84-3.03-3.98-3.95
			c10.77-6,18.28-16.37,22.31-29.65L365.47,249.11z M351.23,231.31c-0.22,23.24,4.96,44.71,10.7,44.71c1.37,0,1.99-2.83,2.3-9.87
			c1.13,1.2,3.01,2.43,4.44,2.96c-0.85,9.69-2.69,12.24-7.23,12.24c-10.88,0-15.46-25.22-15.7-50.04H351.23z M357.1,231.23
			c3.11,1.35,6.97,3.61,8.88,5.38l-3.19,3.5c-1.82-1.79-5.59-4.21-8.73-5.74L357.1,231.23z"/>
		<path class="st5" d="M405.87,265.3c-5.96,5.36-16.85,10.85-25.72,13.53c-0.55-1.28-1.66-3.14-2.65-4.27
			c8.77-2.03,19.55-7.07,24.83-11.91L405.87,265.3z M402.52,258.71c-5.17,3.9-14.56,8.22-21.61,10.43c-0.58-1.16-1.64-2.9-2.57-3.97
			c6.96-1.61,16.28-5.46,20.88-8.87L402.52,258.71z M405.34,247.85c-5.66,5.64-15.37,9.8-24.03,12.27
			c-0.52-0.99-1.84-3.07-2.71-4.03c8.44-1.9,17.67-5.41,22.5-10.03L405.34,247.85z M424.7,235.78v11.65h-5.22v-7h-35.73v7h-5v-11.65
			H424.7z M416.96,244.65v4.4h-30.91v-4.4H416.96z M399.31,250.71c10.54,8.89,10.2,24.52,5.32,28.34c-1.78,1.68-3.34,2.14-5.96,2.17
			c-1.19,0.03-2.85-0.02-4.5-0.08c-0.06-1.4-0.52-3.43-1.4-4.83c1.97,0.19,3.73,0.27,4.94,0.27c1.35,0,2.33-0.17,3.22-1.19
			c3-2.49,3.46-14.76-5.48-22.54L399.31,250.71z M402.43,230.73c1.18,1.96,2.52,4.59,2.97,6.34l-5.6,1.74
			c-0.44-1.74-1.57-4.52-2.72-6.54L402.43,230.73z M421.08,253.95c-4.66,3.71-10.84,7.88-15.53,10.44l-3.29-2.92
			c4.64-2.7,10.9-7.28,14.63-10.87L421.08,253.95z M427.03,274.82c-1.13,0.96-2.65,2.86-3.37,4.17
			c-7.26-3.37-12.25-10.16-14.93-18.63l4.49-1.07C415.51,266.24,420.37,272.17,427.03,274.82z"/>
		<path class="st5" d="M483.94,257.13v4.53h-48.61v-4.53H483.94z M448.81,260.01v16.89l-5.51,4.52c-0.34-1.25-1.37-3.83-2.24-5.08
			c1.14-0.58,2.71-1.79,2.71-3.98v-12.35H448.81z M443,277.34l2.31-1.74l16.96-3.73c-0.22,1.34-0.38,3.44-0.35,4.52
			c-15.25,3.69-17.33,4.21-18.61,4.94L443,277.34z M478.47,233.2v4.26h-28.6v21.35h-5.22v-25.6H478.47z M476.89,241.37v4.04h-29.44
			v-4.04H476.89z M476.89,249.2v4.04h-29.44v-4.04H476.89z M485.17,276.46c-1.11,1.1-2.54,3.21-3.21,4.58
			c-13.2-2.96-21.38-10.21-25.88-21.69l4.67-1.17C464.49,267.85,472.67,274.18,485.17,276.46z M481.84,264.45
			c-4.01,2.95-9.22,5.96-13.26,7.87l-3.42-2.67c3.96-2,9.39-5.4,12.55-8.03L481.84,264.45z"/>
		<path class="st5" d="M188.17,346.8c-1.45,10.95-4.78,19.31-10.92,24.62c-0.81-0.9-2.94-2.66-4.13-3.41
			c5.97-4.51,8.79-12.14,9.86-21.73L188.17,346.8z M221.25,327.1v12.58h-5.25v-7.73h-35.4v7.73h-5.04V327.1H221.25z M208.77,365.37
			c2.4,0,11.56,0,14.65-0.09c-0.78,1.22-1.64,3.67-1.88,5.19h-13.04c-12.71,0-21.32-2.51-25.96-15.89l4.17-1.48
			C190.35,363.62,198.41,365.34,208.77,365.37z M213.87,337.82v4.88h-30.79v-4.88H213.87z M199.07,320.73
			c1.27,2.14,2.67,5.04,3.18,6.97l-5.35,1.63c-0.44-1.87-1.67-4.89-2.91-7.17L199.07,320.73z M201,340.28v26.8l-5.31-0.69v-26.11
			H201z M216.57,350.51v4.8h-18.2v-4.8H216.57z"/>
		<path class="st5" d="M243.35,360.44c-1.97,4.06-5.14,8.25-8.05,10.92c-0.93-0.85-2.94-2.3-4.12-3c2.95-2.31,5.74-5.84,7.32-9.29
			L243.35,360.44z M257.96,353.75v4.5h-26.63v-4.5H257.96z M258.13,328.01v4.5h-26.11v-4.5H258.13z M241.06,321.81v33.64h-4.62
			v-33.64H241.06z M252,336.6v3.98h-13.34v-3.98H252z M252.03,345.08v4.01h-13.34v-4.01H252.03z M250.28,358.95
			c2.14,2.42,4.74,5.76,5.92,7.97l-4.16,2.41c-1.04-2.18-3.57-5.72-5.68-8.25L250.28,358.95z M254.26,321.81v33.64h-4.71v-33.64
			H254.26z M265.2,323.75v19.71c0,8.4-0.68,20.36-5.42,28.03c-0.84-0.9-2.94-2.41-4.07-2.91c4.33-7.11,4.69-17.36,4.69-25.12v-19.71
			H265.2z M277.13,348.54v4.59h-14.65v-4.59H277.13z M277.05,323.75v4.65h-14.53v-4.65H277.05z M277.05,336.05v4.53h-14.53v-4.53
			H277.05z M279.74,323.75v41.52c0,2.69-0.55,4.15-2.25,4.96c-1.68,0.84-4.33,0.96-8.33,0.93c-0.17-1.36-0.86-3.6-1.52-4.9
			c2.62,0.11,5.3,0.08,6.11,0.06c0.79-0.02,1.08-0.27,1.08-1.1v-41.46H279.74z"/>
		<path class="st5" d="M331.09,325.2v5.04h-38.43v-5.04H331.09z M317.41,340.12v24.98c0,3.14-0.78,4.61-3.16,5.38
			c-2.36,0.78-6.07,0.87-11.45,0.84c-0.27-1.49-1.22-3.74-2.04-5.16c4.22,0.16,8.5,0.14,9.74,0.09c1.16-0.02,1.55-0.32,1.55-1.26
			v-24.88H317.41z M330.98,325.2l1.16-0.29l4.03,2.99c-5.32,5.79-13.43,12.09-20.73,15.85c-0.78-1.08-2.39-2.75-3.41-3.62
			c6.54-3.34,14.16-9.42,17.54-13.64v-1.28H330.98z"/>
		<path class="st5" d="M359.87,322.15c-1.99,7.36-5.29,14.46-9.15,19.02c-0.78-0.78-2.68-2.35-3.75-3.02
			c3.78-4.08,6.7-10.46,8.3-17.01L359.87,322.15z M355.35,334.96v14.35c0,6.72-0.65,16.05-4.56,22.08
			c-0.75-0.69-2.63-1.86-3.62-2.29c3.67-5.68,4.01-13.72,4.01-19.82v-14.32H355.35z M368.46,334.96v3.86h-15.34v-3.86H368.46z
			 M368.46,343.98v3.74h-15.34v-3.74H368.46z M368.46,353.21v3.89h-15.34v-3.89H368.46z M364.64,326.09v3.95h-8.77v-3.95H364.64z
			 M362.97,336.92v17.85h-3.53v-17.85H362.97z M364.4,326.09l0.69-0.2l2.95,1.84c-1.19,3.41-3.23,7.5-4.88,10.12
			c-0.84-0.63-2.28-1.5-3.2-1.94c1.3-2.44,2.76-6.4,3.46-8.99v-0.83H364.4z M371.32,334.96v31.12c0,2.22-0.46,3.59-1.96,4.35
			c-1.5,0.72-3.69,0.81-7.27,0.81c-0.17-1.19-0.89-3.17-1.49-4.33c2.49,0.08,4.79,0.08,5.51,0.06c0.69-0.02,0.95-0.24,0.95-0.96
			v-31.05H371.32z M384.37,325.32c-0.83,7.65-2.96,13.79-10.7,17.25c-0.54-1.08-1.75-2.71-2.77-3.5c6.58-2.76,8.17-7.77,8.83-13.75
			H384.37z M380.21,342.81c-1.03,4.98-2.88,9.93-5.06,13.14c-0.87-0.61-2.8-1.58-3.86-2.04c2.23-3,3.82-7.49,4.65-11.93
			L380.21,342.81z M397.75,356.98v4.46h-25.53v-4.46H397.75z M393.22,323.92v4.26h-20.68v-4.26H393.22z M396.74,346.77v4.37h-20.43
			v-4.37H396.74z M387.89,341.53v29.55h-4.86v-29.55H387.89z M396.31,323.92c0,0-0.03,1.16-0.08,1.76
			c-0.33,8.86-0.81,12.46-1.98,13.8c-0.8,0.98-1.72,1.37-3.1,1.52c-1.15,0.15-3.33,0.15-5.57,0.05c-0.08-1.3-0.52-3.07-1.16-4.2
			c1.96,0.19,3.71,0.22,4.43,0.22c0.71,0.02,1.17-0.06,1.52-0.5c0.66-0.8,1.05-3.81,1.38-12v-0.66H396.31z"/>
		<path class="st5" d="M424.85,344.6l0.64,4.56c-6.63,2.15-13.71,4.37-19.1,6.07l-1-5.21C410.27,348.83,417.72,346.68,424.85,344.6z
			 M418.54,338.51v27.15c0,2.55-0.58,3.83-2.27,4.58c-1.76,0.75-4.28,0.84-8.06,0.84c-0.26-1.31-1.07-3.29-1.78-4.56
			c2.69,0.11,5.29,0.11,6.05,0.05c0.8-0.02,1.07-0.26,1.07-0.96v-27.11H418.54z M421.94,324.62v4.73h-15.26v-4.73H421.94z
			 M421.49,324.62l1.04-0.29l3.25,2.36c-2.44,4.93-6.08,10.87-9.24,14.62c-0.67-0.9-2.12-2.19-2.98-2.8
			c2.5-3.37,5.39-9.08,6.74-12.79v-1.1H421.49z M454.16,348.5c-5.79,10.2-15.94,18.43-28.9,22.91c-0.62-1.17-2.04-3.15-2.97-4.2
			c12.33-3.89,22.29-11.62,26.71-20.5L454.16,348.5z M450.51,338.16c-4.87,8.73-13.3,16.75-23.34,21.4
			c-0.61-1.08-1.95-2.94-2.84-3.9c9.46-4.09,17.64-11.58,21.38-19.12L450.51,338.16z M455.68,328.14v4.68h-30.19v-4.68H455.68z
			 M426.31,342.66c1.2-0.25,2.87-0.64,3.73-1.66c1.2-1.34,4.88-7.91,6.15-10.37h5.32c-2.02,3.55-5.76,10.28-7.95,13.7
			c0,0-5.92,1.7-5.92,3.07C427.44,346.19,426.74,343.82,426.31,342.66z M427.58,343.74l2.56-1.46l15.53-0.81
			c-0.54,1.25-1.17,3.18-1.42,4.2c-13.27,0.89-15.34,1.23-16.61,1.74L427.58,343.74z M441.24,320.8c1.33,2.29,2.66,5.33,3.03,7.36
			l-5.11,1.73c-0.37-2.04-1.53-5.21-2.77-7.58L441.24,320.8z M444.35,357.86c3.7,2.97,8.67,7.22,11.06,10l-3.96,3.26
			c-2.27-2.83-7.04-7.33-10.77-10.45L444.35,357.86z"/>
		<path class="st5" d="M513.27,366.2v4.01h-49.18v-4.01H513.27z M513.03,333.79v4.11h-48.76v-4.11H513.03z M509.72,324.86v4.07
			h-41.95v-4.07H509.72z M509.34,359.32v3.74h-41.31v-3.74H509.34z M507.4,340.4v15.95h-37.38V340.4H507.4z M474.82,346.81h27.56
			v-3.22h-27.56V346.81z M474.82,353.12h27.56v-3.27h-27.56V353.12z M480.19,328.66c1.17,1.61,2.25,3.81,2.68,5.3l-5.05,1.46
			c-0.35-1.51-1.4-3.85-2.43-5.5L480.19,328.66z M489.85,320.58c1.05,1.63,2.15,3.78,2.73,5.14l-4.91,1.47
			c-0.49-1.47-1.64-3.76-2.56-5.43L489.85,320.58z M491.09,342.34v25.52h-5.04v-25.52H491.09z M502.2,329.81
			c-1.27,2.3-2.55,4.48-3.62,6.01l-4.75-0.99c0.99-1.73,2.31-4.29,2.96-6.05L502.2,329.81z"/>
		<path class="st5" d="M179.33,446.98c-0.48,4.72-1.43,9.82-2.5,13.16c-0.87-0.46-2.68-1.09-3.66-1.37
			c1.21-3.24,1.91-8.07,2.33-12.45L179.33,446.98z M173.32,427.7c0.91-0.25,1.85-1.32,2.89-2.96c1.12-1.56,4.62-7.68,6.62-13.49
			l4.18,1.78c-2.6,5.93-6.13,12.18-9.56,16.46v0.09c0,0-2.7,1.43-2.7,2.34C174.53,431.01,173.84,428.88,173.32,427.7z M173.7,440
			c1.17-0.28,2.32-1.64,3.94-3.67c1.7-2,7.12-9.84,10.46-17.32l3.83,2.39c-3.88,7.44-9.06,15.03-14.1,20.46v0.11
			c0,0-2.75,1.39-2.75,2.29C174.91,443.35,174.19,441.18,173.7,440z M174.67,428.54l2.03-1.34l9.18-0.73
			c-0.24,1.18-0.42,2.86-0.45,3.79c-8.3,0.89-9.79,1.23-10.68,1.67L174.67,428.54z M174.94,440.81l2.05-1.42l14.09-1.95
			c-0.15,1.13-0.21,2.8-0.16,3.72c-12.88,2.04-14.73,2.51-15.84,3.1L174.94,440.81z M184.73,446.03c0.67,3.63,1.28,8.29,1.48,11.41
			l-3.71,0.94c-0.08-3.16-0.67-7.89-1.25-11.53L184.73,446.03z M190.01,432.18c1.43,3.3,2.97,7.66,3.64,10.22l-3.68,1.51
			c-0.56-2.67-2.06-7.14-3.38-10.5L190.01,432.18z M190.31,444.56c1.26,3.31,2.54,7.56,3.14,10.33l-3.45,1.28
			c-0.5-2.86-1.81-7.19-2.93-10.5L190.31,444.56z M219.09,413.64v4.47h-20.53v43.26h-4.58v-47.73H219.09z M216.49,428.15v3.92
			h-16.74v-3.92H216.49z M216.02,437.27v3.95H200.2v-3.95H216.02z M204.23,419.43c1.23,2.29,2.29,5.44,2.65,7.44l-3.18,1.14
			c-0.3-2.06-1.33-5.23-2.48-7.58L204.23,419.43z M206.15,439.32v6.33c0,1.29,0.18,1.76,1.17,1.76c0.84,0,4.57,0,5.42,0
			c0.88,0,2.39-0.06,3.19-0.28c0.08,1.09,0.19,2.63,0.34,3.61c-0.74,0.25-2.16,0.28-3.41,0.28c-1.02,0-5.12,0-5.93,0
			c-4.02,0-4.9-1.5-4.9-5.42v-6.28H206.15z M208.47,431.84c0.8,1.44,1.76,3.41,2.17,4.62l-3.68,1.45c-0.38-1.32-1.26-3.35-2.03-4.85
			L208.47,431.84z M215.2,420.52c-1.04,3.16-2.14,6.81-3.13,9.16l-2.93-0.93c0.83-2.49,1.97-6.5,2.43-9.21L215.2,420.52z
			 M222.21,413.64v42.33c0,2.48-0.44,3.73-1.95,4.51c-1.51,0.72-3.8,0.84-7.17,0.81c-0.17-1.19-0.74-3.21-1.34-4.42
			c2.12,0.11,4.28,0.08,4.95,0.08c0.7-0.05,0.92-0.27,0.92-1v-42.33H222.21z"/>
		<path class="st5" d="M252.98,449.22l0.5,4.53c-7.51,1.87-15.46,3.76-21.36,5.17l-0.89-4.94
			C236.71,452.97,245.05,451.05,252.98,449.22z M238.06,435.06v19.61h-4.23v-19.61H238.06z M252.05,413.34v17.18h-18.04v-17.18
			H252.05z M238.5,426.12h8.84v-8.37h-8.84V426.12z M246.19,428.57v24.42h-4.58v-24.42H246.19z M252.57,437.7v4.5h-9.22v-4.5H252.57
			z M274.02,416.53l0.92-0.2l3.23,1.39c-4.04,13.38-13.59,22.14-24.17,26.64c-0.61-1.16-1.91-2.94-2.92-3.87
			c9.63-3.63,18.74-12.12,22.04-23.1v-0.86H274.02z M266.39,412.33c-2.4,7.3-6.4,14.24-10.84,18.71c-0.82-0.9-2.82-2.56-3.98-3.32
			c4.34-3.9,7.96-10.1,9.96-16.59L266.39,412.33z M278.08,441.47v19.54h-4.89v-15.2h-12.11v15.36h-4.71v-19.71H278.08z
			 M282.3,439.39c-1.04,0.96-2.5,2.98-3.2,4.29c-11.1-4.6-18.19-14.23-21.51-22.07l3.4-2.5
			C264.12,426.66,271.27,435.53,282.3,439.39z M275.88,454.82v4.44H258.4v-4.44H275.88z M274.92,416.53v4.38h-14.01v-4.38H274.92z"
			/>
		<path class="st5" d="M306.75,412.58c-3.67,9.13-9.5,18.48-15.54,24.52c-0.48-1.2-1.87-3.93-2.76-5.16
			c5.32-5.03,10.47-12.88,13.54-20.88L306.75,412.58z M301.32,420.72l0.05,0.05v40.71h-4.88v-35.93L301.32,420.72z M324.52,411.46
			v24.19c0,10.7-2.23,20.94-18.4,25.75c-0.61-1.13-2.08-3.18-3.13-4.25c15.39-3.7,16.49-12.52,16.49-21.52v-24.16H324.52z
			 M339.61,416.87v4.67h-34.52v-4.67H339.61z M340.27,456.76c-1.07,1.1-2.38,3.15-3.04,4.56c-14.43-2.01-25.03-7.57-30.84-17.58
			l4.21-1.34C315.56,450.58,326.25,455.31,340.27,456.76z M337.98,426.17v15.37h-31.5v-15.37H337.98z M311.15,437.29h21.92v-6.89
			h-21.92V437.29z"/>
		<path class="st5" d="M358.6,414.89v19.52c0,8.4-0.99,20-7.53,27.18c-0.79-0.98-2.87-2.7-4-3.34c5.96-6.64,6.48-16.26,6.48-23.87
			v-19.49H358.6z M390.77,440.25v4.83h-34.51v-4.83H390.77z M390.62,414.89v4.88h-34.14v-4.88H390.62z M390.62,427.42v4.79h-34.14
			v-4.79H390.62z M375.53,416.8v43.93h-5.16V416.8H375.53z M393.78,414.89v39.98c0,2.98-0.69,4.47-2.66,5.27
			c-2.01,0.81-5.21,0.91-10.23,0.85c-0.2-1.35-1.01-3.58-1.7-4.92c3.48,0.17,7.1,0.11,8.12,0.09s1.4-0.35,1.4-1.34v-39.94H393.78z"
			/>
		<path class="st5" d="M414.25,439.72v4.27c0,4.33-0.79,11.53-5.07,16.15c-0.89-0.75-2.75-1.88-3.91-2.4
			c3.77-4.12,4.34-10.24,4.34-13.87v-4.15H414.25z M420.26,437.98v4.61h-14.46v-4.61H420.26z M412.5,413.53v17.52h-4.67v-17.52
			H412.5z M421.01,426.49v4.59h-11.08v-4.59H421.01z M423.83,411.17v50.07h-4.8v-50.07H423.83z M441.7,411.2v15.34
			c0,11.85-1.42,25.34-14.93,34.87c-0.7-1.17-2.36-3.07-3.46-3.91c12.27-8.54,13.47-20.64,13.47-30.96V411.2H441.7z M455.52,426.83
			v5.07h-29.87v-5.07H455.52z M456.25,456.9c-1.43,1.02-2.94,2.75-3.77,4.13c-12.12-7.69-13.83-24-14.66-32.15l4.71-0.37
			C443.05,435.81,444.68,450.02,456.25,456.9z M447.86,412.73c2.6,2.92,5.5,6.88,6.78,9.56l-4.34,2.21
			c-1.14-2.67-3.97-6.83-6.49-9.84L447.86,412.73z"/>
		<path class="st5" d="M466.17,426.32c3.67,1.15,8.43,3.29,10.82,5.04l-2.81,4.32c-2.27-1.79-6.92-4.12-10.67-5.49L466.17,426.32z
			 M476.58,439.57l3.73,3.13c-3.13,5.95-6.99,12.72-10.42,17.99l-4.34-3.21C468.65,453.22,473.17,445.99,476.58,439.57z
			 M469.73,411.47c3.44,1.24,7.89,3.42,10.07,5.23l-2.97,4.21c-2.06-1.87-6.38-4.22-9.89-5.66L469.73,411.47z M492.61,435.73
			c-0.51,12.73-2.21,21.03-13.23,25.63c-0.55-1.23-1.99-3.18-3.09-4.11c9.8-3.78,10.88-10.57,11.32-21.51H492.61z M510.74,413.61
			v22.54h-28.38v-22.54H510.74z M487.34,431.39h18.18v-13.04h-18.18V431.39z M503.05,435.79v18.48c0,1.73,0.2,1.99,1.4,1.99
			c0.51,0,2.82,0,3.45,0c1.24,0,1.45-1.18,1.61-7.97c1.04,0.84,3.14,1.68,4.5,2.03c-0.46,8.22-1.7,10.51-5.61,10.51
			c-0.91,0-3.96,0-4.8,0c-4.57,0-5.65-1.59-5.65-6.53v-18.52H503.05z"/>
	</g>
</g>
</svg>
