<?xml version="1.0" encoding="utf-8"?>
<!-- Generator: Adobe Illustrator 25.2.3, SVG Export Plug-In . SVG Version: 6.00 Build 0)  -->
<svg version="1.1" id="圖層_1" xmlns="http://www.w3.org/2000/svg" xmlns:xlink="http://www.w3.org/1999/xlink" x="0px" y="0px"
	 viewBox="0 0 686 686" style="enable-background:new 0 0 686 686;" xml:space="preserve">
<style type="text/css">
	.st0{fill:#F7F8F8;}
	.st1{fill:#DCDDDD;}
	.st2{fill:#FFFFFF;}
	.st3{fill:#B5B5B6;}
	.st4{fill:#44BABC;}
	.st5{fill:#1D2088;}
</style>
<g>
	<g>
		<g>
			<rect x="0.72" y="0.22" class="st0" width="685.56" height="685.56"/>
		</g>
		<g>
			<polygon class="st1" points="686.28,0.22 621.95,64.55 621.95,334.55 686.28,334.55 			"/>
		</g>
		<g>
			<polygon class="st1" points="686.28,685.78 621.95,621.45 621.95,305.45 686.28,305.45 			"/>
		</g>
		<g>
			<polygon class="st2" points="0.72,0.22 65.05,64.55 335.05,64.55 335.05,0.22 			"/>
		</g>
		<g>
			<polygon class="st2" points="686.28,0.22 621.95,64.55 305.95,64.55 305.95,0.22 			"/>
		</g>
		<g>
			<polygon class="st3" points="686.28,685.78 621.95,621.45 351.95,621.45 351.95,685.78 			"/>
		</g>
		<g>
			<polygon class="st3" points="0.72,685.78 65.05,621.45 381.05,621.45 381.05,685.78 			"/>
		</g>
	</g>
	<g>
		<g>
			<path class="st4" d="M324.06,178.37h-7.55v-8.63h8.87v7.43h7.31v7.31h20.97v-7.31h7.43V156.2h-6.11v7.43h-23.49v-7.43h-7.43
				v-7.43h-7.55v-38.35h7.55v-7.43h7.43v-7.31h23.49v7.31h7.31v7.43h7.43v67.96h-7.43v7.43h-7.31v7.55h-23.49v-7.55h-7.43V178.37z
				 M353.66,154.88v-7.43h7.43v-35.72h-7.43v-7.43h-20.97v7.43h-7.31v35.72h7.31v7.43H353.66z"/>
		</g>
	</g>
	<g>
		<path class="st5" d="M171.22,257.59l0.37,4.6c-8.8,1.99-18.27,4.04-25.15,5.51l-1.36-5.15
			C151.53,261.48,161.73,259.48,171.22,257.59z M194.31,247v4.83h-48.33V247H194.31z M171.11,236.12
			c-6.62,2.16-15.77,3.74-23.56,4.74c-0.23-1.22-0.9-3.12-1.5-4.28c7.58-1.08,16.19-2.87,21.5-4.77L171.11,236.12z M162.1,237.29
			v37.84c0,3.02-0.66,4.48-2.59,5.29c-1.9,0.81-4.95,0.99-9.39,0.96c-0.23-1.4-1.1-3.73-1.83-5.15c3.26,0.14,6.43,0.11,7.4,0.06
			c0.95-0.02,1.27-0.29,1.27-1.2v-37.8H162.1z M192.09,255.93c-5.42,9.95-14.27,18.34-24.15,23.54c-0.75-1.25-2.2-2.95-3.48-4.09
			c9.46-4.47,18.29-12.35,23.12-21.38L192.09,255.93z M178.27,231.75c-0.23,23.43,4.86,44.63,10.73,44.63c1.32,0,1.96-2.7,2.25-9.41
			c1.1,1.17,2.89,2.34,4.25,2.87c-0.85,9.21-2.59,11.73-7.01,11.73c-10.83,0-15.35-24.75-15.55-49.82H178.27z M184.96,232.75
			c3.04,2.62,6.73,6.33,8.43,8.87l-4.15,2.92c-1.53-2.56-5.07-6.42-8.14-9.15L184.96,232.75z"/>
		<path class="st5" d="M227.03,232.56c-3.89,12.64-10.56,25.4-21.66,33.19c-0.55-1.38-1.75-3.6-2.56-4.81
			c9.74-6.64,15.98-18.64,18.91-29.66L227.03,232.56z M251.93,239.28v4.91H204.3v-4.91H251.93z M216.13,253.67v27.55H211v-27.55
			H216.13z M251.85,275.3v4.76H219.3v-4.76H251.85z M249.78,256.54v4.74H221.4v-4.74H249.78z M238.19,246.76v31.09h-5.13v-31.09
			H238.19z"/>
		<path class="st5" d="M277.94,240.48l0.9-0.2l2.72,1.95c-3.87,9.75-11.72,18.73-19.21,23.57c-0.36-1.43-1.41-4.14-2.09-5.11
			c6.83-3.94,13.75-11.63,16.64-19.23v-0.97H277.94z M278.43,240.48v4.64h-16.67v-4.64H278.43z M271.15,231.14
			c2,2.1,4.13,4.97,5.12,6.95l-4.17,2.51c-0.93-2.02-2.98-5.1-4.9-7.29L271.15,231.14z M274.27,251.47v29.87h-4.98v-23.93
			L274.27,251.47z M282.37,260.83l-3.19,4.25c-1.75-2.52-6.05-7.55-8.07-9.65l2.95-2.55C275.66,254.14,281.06,259.5,282.37,260.83z
			 M311.07,274.43v5.01h-31.17v-5.01H311.07z M309.84,247.9v4.92h-27.49v-4.92H309.84z M298.86,231.36v45.5h-5.22v-45.5H298.86z"/>
		<path class="st5" d="M332.88,235.76c-0.97,15.81-3.41,28.03-11.16,35.91c-0.58-0.99-2.32-3.05-3.35-3.95
			c7-6.65,8.95-18.11,9.66-32.15L332.88,235.76z M344.99,242.83v4.34h-25.84v-4.34H344.99z M342.03,233.93V256h-20.31v-4.34h15.58
			v-13.39h-15.28v-4.34H342.03z M329.39,260.96v20.43h-4.65v-20.43H329.39z M342.88,260.96v17.65h-16.22v-4.46h11.25v-8.76h-11.25
			v-4.43H342.88z M369.23,264.26v4.8h-24.87v-4.8H369.23z M368.08,241.76v4.64h-22.53v-4.64H368.08z M350.05,231.69
			c1.76,2.7,3.31,6.31,3.84,8.77l-4.38,1.62c-0.44-2.48-1.9-6.21-3.53-8.99L350.05,231.69z M367.1,252.67v4.7h-20.82v-4.7H367.1z
			 M358.99,244.06v37.33h-4.92v-37.33H358.99z M367.22,232.41c-1.45,3.29-3.02,6.9-4.34,9.31l-4.22-1.12
			c1.26-2.54,2.86-6.53,3.61-9.37L367.22,232.41z"/>
		<path class="st5" d="M426.43,257.69v5.13h-48.72v-5.13H426.43z M423.34,234.81v5.06h-42.79v-5.06H423.34z M388.72,242.08
			c2.03,3.73,4.11,8.61,4.82,11.71l-4.93,1.61c-0.67-3.08-2.58-8.11-4.52-11.93L388.72,242.08z M404.59,236.87v44.47h-5.3v-44.47
			H404.59z M420.6,243.32c-1.98,4.28-4.39,9.09-6.36,12.16l-4.44-1.38c1.89-3.28,4.16-8.47,5.35-12.22L420.6,243.32z"/>
		<path class="st5" d="M438.18,249.04c1.33-0.28,2.66-1.4,4.47-3.14c1.93-1.77,8.07-8.5,12.06-15.1l5.13,2.21
			c-5.04,7.05-11.12,13.7-16.79,18.33v0.14c0,0-3.17,1.54-3.17,2.5C439.63,252.96,438.79,250.41,438.18,249.04z M439.81,250.01
			l3.61-1.87l33.91-1.38c0.05,1.4,0.26,3.5,0.51,4.57c-31.9,1.68-35.48,1.78-37.97,2.65L439.81,250.01z M477.72,258.14v23.11h-5.45
			v-18.22h-24.8v18.31h-5.21v-23.2H477.72z M474.89,273.54v4.94h-30.08v-4.94H474.89z M468.93,236.91
			c5.13,4.65,11.51,11.31,14.35,15.82l-4.36,3.17c-2.64-4.56-8.79-11.44-13.98-16.32L468.93,236.91z"/>
		<path class="st5" d="M542.42,273.64v5.13h-48.84v-5.13H542.42z M518.92,232.05v44.38h-5.43v-44.38H518.92z M538.68,248.22v5.13
			h-22.29v-5.13H538.68z"/>
		<path class="st5" d="M221.7,324.28c-3.06,9.34-8.47,17.39-14.79,22.48c-0.9-1.02-3.09-2.92-4.3-3.79
			c6.29-4.4,11.18-11.67,13.75-19.98L221.7,324.28z M227.52,342.78c-1.15,11.94-3.75,23.13-19.25,28.8
			c-0.64-1.38-2.12-3.47-3.32-4.58c14.29-4.71,16.07-14.31,17.04-24.22H227.52z M241.52,341.34v4.95h-30.13v-4.95H241.52z
			 M237.36,322.09v4.76h-12.04v-4.76H237.36z M245.15,341.34c0,0-0.03,1.66-0.08,2.32c-0.7,16.59-1.41,22.9-3.29,25.03
			c-1.23,1.55-2.54,2-4.52,2.21c-1.82,0.21-5.1,0.18-8.41,0.03c-0.08-1.54-0.76-3.7-1.69-5.15c3.31,0.29,6.42,0.34,7.72,0.34
			c1.04,0,1.68-0.14,2.25-0.74c1.37-1.41,2.09-7.53,2.68-23.09v-0.95H245.15z M238.21,322.09c2.61,8.24,8.33,16,15.53,19.89
			c-1.1,1.08-2.82,3.25-3.66,4.68c-7.56-4.79-13.42-13.26-16.38-21.81h-1.2v-2.76H238.21z"/>
		<path class="st5" d="M310.31,356.74v4.4h-48.44v-4.4H310.31z M309.52,325.6v4.34H262.5v-4.34H309.52z M300.31,347.12v4.04h-33.29
			v-4.04H300.31z M303.39,332.97v11.34h-34.32v-11.34H303.39z M288.65,353.91v12.44c0,2.65-0.77,3.78-2.98,4.42
			c-2.18,0.6-5.48,0.57-10.27,0.57c-0.32-1.31-1.07-3-1.76-4.21c3.42,0.14,7.36,0.11,8.3,0.09c1.01-0.05,1.31-0.27,1.31-1.06v-12.25
			H288.65z M274.14,340.68H298v-4.06h-23.86V340.68z M287.06,320.8c1.14,2.06,2.23,4.82,2.61,6.64l-5.44,1.08
			c-0.38-1.76-1.35-4.63-2.34-6.78L287.06,320.8z M300.6,347.09l1.13-0.23l3.31,2.9c-5.31,2.92-12.45,5.46-19.3,7
			c-0.57-0.85-1.78-2.16-2.49-2.88c5.82-1.28,12.6-3.71,15.95-5.82v-0.97H300.6z"/>
		<path class="st5" d="M368.55,351.56v3.97h-49.08v-3.97H368.55z M366.97,324.75v3.74h-45.75v-3.74H366.97z M363.53,331.55v3.65
			h-38.52v-3.65H363.53z M362.03,358.07v13.17h-5.24v-9.62h-25.3v9.67h-5.03v-13.22H362.03z M360.93,337.54v10.24h-33.46v-10.24
			H360.93z M358.83,366.12v3.56h-29.24v-3.56H358.83z M335.68,347.15c1.04,1.43,1.98,3.42,2.35,4.77l-4.89,1.43
			c-0.26-1.38-1.17-3.51-2.09-5L335.68,347.15z M332.32,344.5h23.47v-3.64h-23.47V344.5z M346.48,321.12v11.86h-5.21v-11.86H346.48z
			 M357.47,347.92c-1.24,2.1-2.54,4-3.54,5.34l-4.38-1.01c0.85-1.55,1.9-3.76,2.37-5.29L357.47,347.92z"/>
		<path class="st5" d="M387.39,343.04c-2.04,5.02-5.35,10.3-8.57,13.71c-0.39-0.78-1.61-2.66-2.31-3.48
			c2.87-2.9,5.67-7.12,7.29-11.39L387.39,343.04z M386.24,324.29v3.76h-9.42v-3.76H386.24z M389.76,332.07v9.89h-10.84v-9.89H389.76
			z M403.44,346.07v3.55h-18.05v21.64h-4v-21.08l3.56-4.12h0.45H403.44z M382.08,339.19h4.4v-4.31h-4.4V339.19z M403.1,365.09v3.58
			h-19.25v-3.58H403.1z M388.47,321.15v9.89h-4.4v-9.89H388.47z M402.35,352.32v3.37h-17.73v-3.37H402.35z M402.72,358.56v3.35
			h-18.1v-3.35H402.72z M393.82,342.06c1.01,1.41,2.07,3.33,2.38,4.63l-3.56,1.54c-0.33-1.35-1.23-3.33-2.2-4.82L393.82,342.06z
			 M395.7,348.41V366h-4.19v-17.58H395.7z M403.16,332.04v9.89h-10.79v-9.89H403.16z M398.13,321.15v9.89h-4.43v-9.89H398.13z
			 M395.5,339.1h4.38v-4.22h-4.38V339.1z M405.23,324.26v3.76h-9.7v-3.76H405.23z M413.28,321.87c-1.26,9.54-3.48,18.69-6.94,24.63
			c-0.84-0.85-2.88-2.41-3.96-3.1c3.29-5.26,5.19-13.67,6.14-22.28L413.28,321.87z M416.83,335.98v3.25
			c0,8.87-0.88,22.14-10.64,32.29c-0.75-1.08-2.49-2.66-3.64-3.39c9.07-9.18,9.79-21.01,9.79-28.99v-3.16H416.83z M423.73,329.19
			v4.67h-14.85v-4.67H423.73z M427.62,367.29c-1.04,0.93-2.58,2.86-3.29,4.23c-6.51-4.93-9.9-14.87-11.71-26.31l3.79-0.78
			C418.02,354.29,421.5,363.28,427.62,367.29z M423.37,329.19l0.74-0.2l3.14,0.97c-1.02,5.06-2.47,10.86-3.85,14.51l-3.71-1.19
			c1.09-3.38,2.33-8.89,2.99-13.25v-0.84H423.37z"/>
		<path class="st5" d="M442.06,329.9v39.9h-4.67v-39.9H442.06z M454.53,344.65v4.46h-14.4v-4.46H454.53z M456.85,329.9v35.74h-16.48
			v-4.55h11.81v-26.7h-11.81v-4.49H456.85z M450.93,322.01c-1.15,3.47-2.51,7.26-3.58,9.73l-4.1-0.97c0.84-2.7,1.77-6.78,2.14-9.67
			L450.93,322.01z M469.9,322.22c-2.05,8-5.38,16.05-9.07,21.21c-0.9-0.82-3.02-2.28-4.21-2.95c3.65-4.68,6.64-12.08,8.37-19.4
			L469.9,322.22z M466.41,342.05c2.88,3.79,6.55,8.98,8.26,12.17l-4.33,2.69c-1.57-3.29-5.09-8.65-7.92-12.59L466.41,342.05z
			 M480.51,329.62v4.7h-16.22v-4.7H480.51z M483.48,329.62c0,0,0,1.79-0.03,2.45c-0.79,24.55-1.47,33.03-3.67,35.76
			c-1.34,1.8-2.68,2.31-4.72,2.57c-1.92,0.24-5.15,0.16-8.24,0c-0.11-1.42-0.76-3.57-1.69-4.95c3.5,0.3,6.74,0.32,8.05,0.32
			c1.08,0,1.7-0.17,2.33-0.9c1.77-1.91,2.56-11.01,3.21-34.23v-1.03H483.48z"/>
		<path class="st5" d="M213.24,450.15c-1.41,3.23-3.76,6.85-5.87,9.11c-0.78-0.73-2.52-2.06-3.52-2.72
			c2.04-2.02,3.94-4.88,5.11-7.64L213.24,450.15z M233.42,431.09v4h-29.46v-4H233.42z M231.56,412.98v15.1h-25.05v-15.1H231.56z
			 M230.86,437.4v10.71h-23.72V437.4H230.86z M221.28,446.25v10.01c0,2.24-0.36,3.33-1.91,4.02c-1.51,0.66-3.65,0.69-6.63,0.69
			c-0.23-1.3-0.86-2.98-1.49-4.16c1.95,0.05,3.74,0.05,4.3,0.03c0.61,0,0.75-0.19,0.75-0.67v-9.91H221.28z M211.34,418.96h15.19
			v-2.72h-15.19V418.96z M211.34,424.81h15.19v-2.74h-15.19V424.81z M211.87,444.65h14.04v-3.76h-14.04V444.65z M220.16,427.98
			c0.86,1.27,1.76,3.09,2.12,4.39l-5.03,1.14c-0.3-1.21-1.14-3.12-1.91-4.49L220.16,427.98z M226.85,448.79
			c1.81,2.54,3.95,5.98,4.87,8.14l-3.83,1.91c-0.87-2.24-2.86-5.79-4.66-8.45L226.85,448.79z M253.14,443.88
			c-4.13,7.08-10.93,13.11-18.24,16.91c-0.81-1.23-2.27-2.92-3.52-3.94c6.79-3.11,13.51-8.61,17.04-14.73L253.14,443.88z
			 M250.63,414.05c-3.68,5.04-9.18,9.83-14.27,12.95c-0.84-1.08-2.35-2.59-3.65-3.53c4.67-2.59,10.16-7.06,13.11-11.37
			L250.63,414.05z M252.09,428.68c-3.97,5.35-10.11,10.38-15.74,13.65c-0.78-1.13-2.26-2.65-3.54-3.6
			c5.21-2.71,11.36-7.4,14.62-11.99L252.09,428.68z"/>
		<path class="st5" d="M274.85,411.76v18.36c0,10.99-0.89,22.5-8.83,31.21c-0.84-1.22-2.68-3.08-3.84-3.96
			c6.79-7.64,7.55-17.77,7.55-27.25v-18.36H274.85z M301.14,437.1v24.04h-5.34V442.2h-24.57v-5.1H301.14z M299.27,423.98v5.12H271.4
			v-5.12H299.27z M299.27,411.12v15.93H294v-15.93H299.27z"/>
		<path class="st5" d="M344.1,447.81l0.44,4.86c-8.23,1.83-17.07,3.74-23.45,5.12l-0.98-5.24
			C326.11,451.48,335.39,449.63,344.1,447.81z M367.87,419.41v5.03H320.4v-5.03H367.87z M342.64,428.62v16.72h-19.38v-16.72H342.64z
			 M327.95,441h9.71v-8.01h-9.71V441z M365.96,429c-4.6,14.41-12.55,25.5-23.42,32.35c-0.79-1.02-2.83-3.03-3.97-3.95
			c10.76-6,18.26-16.35,22.29-29.62L365.96,429z M351.74,411.21c-0.22,23.22,4.95,44.67,10.69,44.67c1.37,0,1.99-2.83,2.3-9.86
			c1.13,1.2,3.01,2.43,4.44,2.96c-0.85,9.68-2.68,12.23-7.22,12.23c-10.87,0-15.45-25.2-15.68-50H351.74z M357.6,411.13
			c3.11,1.35,6.97,3.61,8.88,5.37l-3.18,3.5c-1.82-1.78-5.58-4.21-8.72-5.73L357.6,411.13z"/>
		<path class="st5" d="M426.18,428.28v4.58h-48.29v-4.58H426.18z M423.6,415.76v4.55h-42.67v-4.55H423.6z M419.6,436.99v24.14h-5.31
			v-19.86H390.1v19.96H385v-24.24H419.6z M392.94,420.41c1.54,2.35,2.83,5.56,3.25,7.71l-5.28,1.26c-0.33-2.19-1.56-5.53-2.94-7.94
			L392.94,420.41z M416.09,446.01v3.97h-27.85v-3.97H416.09z M416.13,454.98v4.28h-27.85v-4.28H416.13z M403.19,410.58
			c1.3,1.94,2.42,4.61,2.82,6.42l-5.47,1.11c-0.31-1.81-1.4-4.63-2.57-6.63L403.19,410.58z M416.89,421.45
			c-1.46,3.08-3.06,6.42-4.4,8.61l-4.8-1.2c1.23-2.35,2.78-6.07,3.56-8.67L416.89,421.45z"/>
		<path class="st5" d="M455.05,448.78c-3.91,4.71-10.78,8.77-17.21,10.69c-0.75-1.3-2.27-3.23-3.39-4.22
			c6.2-1.43,12.93-4.54,16.4-8.11L455.05,448.78z M484.26,441.17v4.28H435.7v-4.28H484.26z M436.04,434.15
			c1.04-0.22,2.07-1.31,3.39-2.92c1.35-1.53,5.9-7.68,8.62-13.52l3.67,2.03c-3.36,5.92-7.8,11.92-12.06,16.15v0.11
			c0,0-2.29,1.21-2.29,2.02C437.19,437.2,436.53,435.21,436.04,434.15z M436.16,423.59c0.74-0.17,1.45-1,2.2-2.17
			c0.76-1.15,3.26-5.62,4.53-9.88l4.02,1.43c-1.83,4.46-4.51,9.17-6.92,12.21v0.11c0,0-2.51,1.26-2.51,2.11
			C437.26,426.58,436.62,424.63,436.16,423.59z M437.25,435.02l1.94-1.25l11.13-1.3c-0.15,1.01-0.24,2.5-0.22,3.31
			c-10.17,1.39-11.76,1.75-12.73,2.25L437.25,435.02z M437.4,424.42l1.88-1.19l7.68-0.71c-0.21,1.04-0.3,2.5-0.33,3.31
			c-6.94,0.85-8.37,1.16-9.14,1.57L437.4,424.42z M450.08,428.35c0.86,2.94,1.66,6.75,1.98,9.26l-3.53,0.91
			c-0.26-2.56-1.06-6.43-1.81-9.4L450.08,428.35z M467.36,416.04v20.83h-14.62v-20.83H467.36z M462.83,411.6
			c-0.92,2.37-1.86,4.9-2.58,6.55l-3.46-0.83c0.56-1.9,1.15-4.67,1.36-6.55L462.83,411.6z M457.14,424.6h5.67v-4.72h-5.67V424.6z
			 M457.14,433.04h5.67v-4.8h-5.67V433.04z M462.64,438.19v22.84h-5.12v-22.84H462.64z M468.81,446.65
			c5.14,2.64,12.01,6.67,15.45,9.46l-3.24,3.72c-3.26-2.87-9.99-7.12-15.24-9.94L468.81,446.65z M467.78,423.92
			c0.76-0.14,1.45-1.02,2.2-2.25c0.8-1.17,3.33-5.79,4.63-10.16l4.19,1.28c-1.88,4.68-4.67,9.61-7.13,12.79v0.08
			c0,0-2.54,1.32-2.54,2.19C468.91,427,468.27,424.99,467.78,423.92z M468.29,434.51c1.03-0.22,2.08-1.29,3.41-2.86
			c1.38-1.57,5.99-7.65,8.73-13.46l3.81,2.09c-3.45,5.87-7.93,11.86-12.23,16.01v0.14c0,0-2.39,1.23-2.39,2.08
			C469.41,437.67,468.77,435.6,468.29,434.51z M469.01,424.73l1.95-1.2l8.76-0.89c-0.21,1.07-0.3,2.63-0.33,3.47
			c-7.93,0.97-9.4,1.33-10.26,1.75L469.01,424.73z M469.53,435.47l2.03-1.22l11.29-1.09c-0.18,1.04-0.33,2.56-0.31,3.37
			c-10.29,1.18-11.94,1.51-12.92,1.98L469.53,435.47z M482.07,429.14c0.96,2.8,1.93,6.45,2.38,8.81l-3.51,1.06
			c-0.36-2.47-1.31-6.14-2.18-8.97L482.07,429.14z"/>
	</g>
</g>
</svg>
