<?xml version="1.0" encoding="utf-8"?>
<!-- Generator: Adobe Illustrator 25.2.3, SVG Export Plug-In . SVG Version: 6.00 Build 0)  -->
<svg version="1.1" id="圖層_1" xmlns="http://www.w3.org/2000/svg" xmlns:xlink="http://www.w3.org/1999/xlink" x="0px" y="0px"
	 viewBox="0 0 686 686" style="enable-background:new 0 0 686 686;" xml:space="preserve">
<style type="text/css">
	.st0{fill:#DCDDDD;}
	.st1{fill:#B5B5B6;}
	.st2{fill:#FFFFFF;}
	.st3{fill:#9FA0A0;}
	.st4{fill:#2EA7E0;}
	.st5{fill:#4DCDFF;}
	.st6{fill:#EEB73D;}
</style>
<g>
	<g>
		<g>
			<g>
				
					<rect x="0.22" y="0.22" transform="matrix(-1 -1.224647e-16 1.224647e-16 -1 686 685.9999)" class="st0" width="685.56" height="685.56"/>
			</g>
			<g>
				<polygon class="st1" points="0.22,0.22 0.22,351.45 0.22,380.55 0.22,685.78 64.55,621.45 64.55,380.55 64.55,351.45 
					64.55,64.55 				"/>
			</g>
			<g>
				<polygon class="st2" points="621.45,621.45 380.55,621.45 351.45,621.45 64.55,621.45 0.22,685.78 351.45,685.78 380.55,685.78 
					685.78,685.78 				"/>
			</g>
			<g>
				<polygon class="st3" points="334.55,0.22 305.45,0.22 0.22,0.22 64.55,64.55 305.45,64.55 334.55,64.55 621.45,64.55 
					685.78,0.22 				"/>
			</g>
		</g>
	</g>
	<g>
		<g>
			<g>
				<polygon class="st4" points="437.78,178.16 248.21,178.16 153.43,342.33 343,507.84 532.57,342.33 				"/>
			</g>
			<g>
				<polygon class="st5" points="248.21,178.16 343,343 437.78,178.16 				"/>
			</g>
			<g>
				<polygon class="st5" points="153.43,342.33 248.21,342.33 343,507.84 				"/>
			</g>
			<g>
				<polygon class="st5" points="343,343 343,507.84 437.78,343 				"/>
			</g>
		</g>
		<g>
			<g>
				<rect x="465.72" y="245.02" class="st6" width="33.43" height="33.43"/>
			</g>
			<g>
				<rect x="499.15" y="211.59" class="st6" width="33.43" height="33.43"/>
			</g>
			<g>
				<rect x="432.29" y="211.59" class="st6" width="33.43" height="33.43"/>
			</g>
			<g>
				<rect x="465.72" y="178.16" class="st6" width="33.43" height="33.43"/>
			</g>
		</g>
		<g>
			<g>
				<rect x="186.85" y="406.48" class="st6" width="33.43" height="33.43"/>
			</g>
			<g>
				<rect x="220.28" y="373.05" class="st6" width="33.43" height="33.43"/>
			</g>
			<g>
				<rect x="153.43" y="373.05" class="st6" width="33.43" height="33.43"/>
			</g>
			<g>
				<rect x="186.85" y="339.63" class="st6" width="33.43" height="33.43"/>
			</g>
		</g>
	</g>
</g>
</svg>
