<?xml version="1.0" encoding="utf-8"?>
<!-- Generator: Adobe Illustrator 25.2.3, SVG Export Plug-In . SVG Version: 6.00 Build 0)  -->
<svg version="1.1" id="圖層_1" xmlns="http://www.w3.org/2000/svg" xmlns:xlink="http://www.w3.org/1999/xlink" x="0px" y="0px"
	 viewBox="0 0 2160 3840" style="enable-background:new 0 0 2160 3840;" xml:space="preserve">
<style type="text/css">
	.st0{fill:#E9EDF6;}
	.st1{fill:#DCDDDD;}
	.st2{fill:#B8C2C8;}
	.st3{fill:#1D2088;}
	.st4{fill:#EEB73D;}
	.st5{fill:#FFFFFF;}
	.st6{fill:#2EA7E0;}
	.st7{fill:#4DCDFF;}
	.st8{fill:#EF8220;}
	.st9{fill:#1D2087;}
	.st10{fill:#B5B5B6;}
	.st11{fill:#9FA0A0;}
	.st12{fill:#44BABC;}
</style>
<g>
	<g>
		<rect x="0" class="st0" width="2160" height="3840"/>
	</g>
	<g>
		<g>
			<rect x="0" class="st1" width="2160" height="3840"/>
		</g>
		<g>
			<g>
				<rect x="39.79" y="43.62" class="st1" width="2082.38" height="3758.18"/>
			</g>
			<g>
				<path class="st2" d="M2109.34,56.45v3732.52H52.63V56.45H2109.34 M2135.01,30.79H26.96v3783.84h2108.04V30.79L2135.01,30.79z"/>
			</g>
		</g>
		<g>
			<g>
				<rect x="39.79" y="733.58" class="st3" width="2082.38" height="3068.22"/>
			</g>
			<g>
				<g>
					<path class="st2" d="M2109.34,746.41v3042.56H52.63V746.41H2109.34 M2135.01,720.75H26.96v3093.89h2108.04V720.75
						L2135.01,720.75z"/>
				</g>
			</g>
		</g>
	</g>
	<g>
		<path class="st4" d="M1925.32,1498.81H237.68c-57.03,0-103.25-46.23-103.25-103.25v-314.14c0-57.03,46.23-103.25,103.25-103.25
			h1687.64c57.03,0,103.25,46.23,103.25,103.25v314.14C2028.58,1452.58,1982.35,1498.81,1925.32,1498.81z"/>
	</g>
	<g>
		<path class="st5" d="M572.66,1162.89h15.55l39.78,158.03H612.4L572.66,1162.89z"/>
		<path class="st5" d="M720.82,1161.11v145.29h-17.9v-145.29H720.82z M752.81,1179.89v10.92h-40.24v-10.92H752.81z M765.02,1161.11
			v48.82h-50.7v-12.13h32.71v-24.44h-32.71v-12.25H765.02z M743.83,1276.27c-1.42,9.5-4,18.94-10.41,24.68l-10.08-6.59
			c5.31-4.77,8.24-12.94,9.38-21.08L743.83,1276.27z M804.91,1216.99v10.51h-54.16v38.47h-15.03v-48.98H804.91z M797.46,1260.17
			v10.51h-61.73v-10.51H797.46z M800.4,1232.31v8.92h-55.88v-8.92H800.4z M801.02,1246.16v8.92h-56.5v-8.92H801.02z M757.25,1275.84
			c1.4,6.81,1.97,15.7,1.59,21.23l-10.17,1.46c0.66-5.72,0.29-14.45-0.83-21.39L757.25,1275.84z M771.65,1274.22
			c2.18,5.85,3.85,13.62,4.22,18.54l-9.35,2.47c-0.21-5.12-1.63-12.89-3.62-18.86L771.65,1274.22z M778.62,1223.23v42.99h-14.41
			v-42.99H778.62z M829.85,1173.36h-36.12v24.33h36.12v12.13h-54.37v-48.71h54.37V1173.36z M784.56,1272.23
			c2.73,4.07,5.18,9.9,6.23,13.6l-8.24,2.99c-0.8-3.95-3.12-9.85-5.66-14.2L784.56,1272.23z M809.95,1260.17c0,0,0,3.29-0.16,5.13
			c-0.89,20.35-1.95,28.78-4.96,32.29c-2.26,2.72-5.14,3.9-8.72,4.15c-3.02,0.37-8.23,0.5-13.53,0.18
			c-0.29-3.44-1.64-8.35-3.31-11.38c4.14,0.39,7.51,0.52,9.31,0.39c1.63,0.12,2.63-0.16,3.59-1.25c1.49-1.99,2.31-8.83,3.03-27.51
			v-1.99H809.95z M826.3,1179.89v10.92h-40.66v-10.92H826.3z M838.93,1161.11v126.04c0,8.47-1.49,13.17-6.57,16.13
			c-5.04,2.8-12.31,3.17-22.21,3.17c-0.48-4.65-2.78-12.42-5.08-16.85c5.2,0.29,10.99,0.16,12.86,0.12c1.96-0.04,2.59-0.8,2.59-2.79
			v-125.83H838.93z"/>
		<path class="st5" d="M893.19,1162.11v144.17h-18.28v-144.17H893.19z M924.81,1182.45v11.66h-40.24v-11.66H924.81z M937.02,1162.11
			v52.2h-50.7v-12.88h32.71v-26.44h-32.71v-12.88H937.02z M899.54,1248.21c2.52-0.29,5.28-1.92,8.51-4.39
			c3.31-2.44,14.61-12.1,22.04-22.14l9.22,6.59c-8.81,9.4-19.45,18.52-29.67,24.77v0.41c0,0-6.64,3.06-6.64,5.41
			C902.47,1256.58,900.8,1251.15,899.54,1248.21z M899.75,1228.71c1.76-0.41,3.61-1.24,5.28-2.84c1.67-1.55,7.62-7.55,10.87-14.11
			l10.83,5.73c-4.73,6.2-10.81,12.28-16.12,16.01v0.28c0,0-6.98,3.51-6.98,5.98C902.94,1237.27,901.17,1231.64,899.75,1228.71z
			 M902.76,1251.2l4.93-3.17l26.89-2.58c0.16,2.65,0.76,6.23,1.21,8.35c-26.07,3.11-30.32,4-32.78,5.18L902.76,1251.2z
			 M903.5,1232.57l5.05-2.88l20.53-0.83c-0.8,2.56-1.76,6.27-1.99,8.26c-17.63,1.12-21.49,1.85-23.47,2.77L903.5,1232.57z
			 M915.56,1261v13.79h17.27v10.63h-29.02V1261H915.56z M938.26,1258.3v15.53c0,12.73-3.1,24.69-23.53,31.64
			c-1.51-3.03-5.57-8.12-8.35-10.45c16.63-4.92,18.88-13.15,18.88-21.56v-15.15H938.26z M935.69,1238.33
			c2.47,5.73,5.39,13.33,6.64,17.74l-9.67,3.27c-1.15-4.77-3.88-12.7-6.26-18.54L935.69,1238.33z M942.55,1228.96
			c1.79-0.41,3.65-1.25,5.28-2.84c1.67-1.55,7.62-7.55,10.91-14.11l10.79,5.73c-4.69,6.2-10.77,12.28-16.12,16.01v0.28
			c0,0-6.98,3.51-6.98,5.98C945.74,1237.52,943.97,1231.89,942.55,1228.96z M942.59,1248.46c2.53-0.41,5.28-1.92,8.52-4.52
			c3.34-2.44,14.61-12.35,22.04-22.52l9.35,6.59c-8.9,9.65-19.57,18.89-29.79,25.27v0.41c0,0-6.64,3.06-6.64,5.41
			C945.53,1256.83,943.85,1251.4,942.59,1248.46z M958.96,1258.3v45.94h-13.29v-45.94H958.96z M945.81,1251.33l4.93-3.17l26.92-2.58
			c0.12,2.65,0.73,6.23,1.18,8.35c-26.07,3.11-30.29,4-32.78,5.18L945.81,1251.33z M946.31,1232.7l5.05-2.88l20.53-0.83
			c-0.76,2.56-1.72,6.27-1.95,8.26c-17.67,1.12-21.49,1.85-23.5,2.77L946.31,1232.7z M1001.85,1174.99h-36.12v26.44h36.12v12.88
			h-54.37v-52.2h54.37V1174.99z M975.22,1274.79v10.63h-19.38v-10.63H975.22z M998.8,1182.45v11.66h-40.66v-11.66H998.8z
			 M980.97,1261.04v28.83h-12.25v-28.83H980.97z M978.26,1238.21c2.88,5.73,6.14,13.33,7.55,17.74l-9.46,3.65
			c-1.4-4.76-4.51-12.69-7.1-18.54L978.26,1238.21z M1010.81,1162.11v122.17c0,9.1-1.37,14.42-6.82,17.63
			c-5.41,3.17-12.81,3.55-23.46,3.55c-0.6-5.15-2.9-13.79-5.32-18.72c5.82,0.28,12.24,0.28,14.36,0.25c2.08-0.04,2.72-0.8,2.72-2.92
			v-121.96H1010.81z"/>
		<path class="st5" d="M1071.89,1179.96v47.07c0,24.03-2.61,59.51-17.21,81.12c-3.3-3.83-11.92-10.85-16.32-13.11
			c12.37-19.16,13.38-47.24,13.38-68.16v-46.91H1071.89z M1100.47,1216.14v17.53h-36.95v-17.53H1100.47z M1188.02,1179.96v18.87
			h-123.45v-18.87H1188.02z M1111.76,1216.14c0,0-0.12,4.86-0.12,7.07c-0.59,33.87-1.42,48.17-5.09,53.01
			c-3.17,4.04-6.5,5.47-11.15,6.25c-4.25,0.66-11.18,0.75-18.72,0.61c-0.28-5.65-2.39-13.18-5.18-17.96
			c5.8,0.55,11.17,0.67,13.79,0.67c2.15,0,3.63-0.41,4.87-1.94c1.97-2.67,2.56-13.75,2.98-44.85v-2.87H1111.76z M1179.47,1211.88
			c-13.42,41.64-36.96,74.16-68.72,93.74c-2.8-4.08-9.8-12.12-13.92-15.82c30.71-16.55,52.27-45.52,63.27-82.56L1179.47,1211.88z
			 M1136.9,1156.12c-1.14,65.36,13.62,129.4,29.79,129.4c3.69,0,5.65-8.11,6.48-28.26c4.36,4.45,11.19,8.91,16.34,10.85
			c-3.03,29.83-9.46,36.97-24.39,36.97c-34.86,0-47.95-76.01-48.38-148.96H1136.9z M1152.8,1154.44
			c8.83,4.57,20.52,11.85,26.37,17.24l-12.33,12.88c-5.26-5.51-16.67-13.37-25.65-18.56L1152.8,1154.44z"/>
		<path class="st5" d="M1274.83,1243.12l2.48,18.21c-21.33,6.37-44.41,12.8-62.1,17.65l-4.56-19.99
			C1226.88,1255.65,1251.72,1249.27,1274.83,1243.12z M1273.25,1173.2v18.15h-60.4v-18.15H1273.25z M1252.66,1180.66v80.47h-18.99
			v-80.47H1252.66z M1317.63,1158.52c-0.32,66.66-0.55,119.41-48.42,147.93c-2.76-4.95-8.8-12.01-13.54-15.56
			c44.11-24.78,42.15-70.47,42.47-132.38H1317.63z M1347.37,1190.01v18.37h-71.75v-18.37H1347.37z M1357.26,1190.01
			c0,0,0,6.27-0.12,8.73c-1.86,65.08-3.58,88.76-9.36,96.39c-4.13,5.82-8.13,7.62-14.18,8.53c-5.46,0.87-14.22,0.84-23.04,0.54
			c-0.32-5.43-2.64-13.63-5.97-18.9c8.45,0.71,16.23,0.75,19.84,0.75c3.02,0,4.65-0.57,6.41-2.74c4.23-5.01,6-28.57,7.54-89.39v-3.9
			H1357.26z"/>
		<path class="st5" d="M1404.29,1279.18c0-8.35,6.07-14.1,14.14-14.1c8.07,0,14.14,5.75,14.14,14.1c0,8.35-6.07,14.21-14.14,14.21
			C1410.23,1293.38,1404.29,1287.52,1404.29,1279.18z M1405.96,1196.02l-0.75-23.81h26.43l-0.75,23.81l-4.24,54.71h-16.46
			L1405.96,1196.02z"/>
		<path class="st5" d="M1560.83,1162.89h15.55l-39.74,158.03h-15.71L1560.83,1162.89z"/>
	</g>
	<g>
		<g>
			<g>
				<g>
					<rect x="181.42" y="376.31" class="st3" width="545" height="236.12"/>
				</g>
				<g>
					<path class="st2" d="M713.59,389.14v210.45H194.25V389.14H713.59 M739.25,363.48H168.58v261.78h570.67V363.48L739.25,363.48z"
						/>
				</g>
			</g>
			<g>
				<g>
					<g>
						<polygon class="st6" points="493.46,180.62 414.37,180.62 374.83,249.11 453.91,318.16 533,249.11 						"/>
					</g>
					<g>
						<polygon class="st7" points="414.37,180.62 453.91,249.39 493.46,180.62 						"/>
					</g>
					<g>
						<polygon class="st7" points="374.83,249.11 414.37,249.11 453.91,318.16 						"/>
					</g>
					<g>
						<polygon class="st7" points="453.91,249.39 453.91,318.16 493.46,249.39 						"/>
					</g>
				</g>
				<g>
					<g>
						<rect x="505.11" y="208.51" class="st4" width="13.95" height="13.95"/>
					</g>
					<g>
						<rect x="519.05" y="194.57" class="st4" width="13.95" height="13.95"/>
					</g>
					<g>
						<rect x="491.16" y="194.57" class="st4" width="13.95" height="13.95"/>
					</g>
					<g>
						<rect x="505.11" y="180.62" class="st4" width="13.95" height="13.95"/>
					</g>
				</g>
				<g>
					<g>
						<rect x="388.78" y="275.87" class="st4" width="13.95" height="13.95"/>
					</g>
					<g>
						<rect x="402.72" y="261.93" class="st4" width="13.95" height="13.95"/>
					</g>
					<g>
						<rect x="374.83" y="261.93" class="st4" width="13.95" height="13.95"/>
					</g>
					<g>
						<rect x="388.78" y="247.98" class="st4" width="13.95" height="13.95"/>
					</g>
				</g>
			</g>
		</g>
		<g>
			<g>
				<g>
					<rect x="1443.73" y="376.31" class="st3" width="545" height="236.12"/>
				</g>
				<g>
					<path class="st2" d="M1975.9,389.14v210.45h-519.34V389.14H1975.9 M2001.56,363.48h-570.67v261.78h570.67V363.48
						L2001.56,363.48z"/>
				</g>
			</g>
			<g>
				<g>
					<polygon class="st8" points="1828.99,194.39 1799.51,202.51 1806.67,232.23 1784.9,210.76 1762.74,231.83 1770.45,202.24 
						1741.13,193.57 1770.6,185.46 1763.45,155.73 1785.21,177.2 1807.38,156.14 1799.67,185.73 					"/>
				</g>
				<g>
					<circle class="st9" cx="1708.79" cy="258.34" r="65.33"/>
				</g>
				<g>
					<path class="st9" d="M1735.37,218.8c-0.64,0-1.28-0.2-1.84-0.6c-1.39-1.02-1.69-2.96-0.68-4.35
						c0.48-0.66,11.91-16.05,28.78-11.29c14.49,4.09,20.31-9.22,20.56-9.79c0.67-1.59,2.5-2.33,4.09-1.66
						c1.59,0.67,2.33,2.5,1.66,4.09c-2.79,6.57-12.21,17.82-28,13.36c-12.66-3.57-21.66,8.45-22.04,8.96
						C1737.28,218.36,1736.33,218.8,1735.37,218.8z"/>
				</g>
				<g>
					<rect x="1715.85" y="291.5" class="st5" width="13.95" height="13.95"/>
				</g>
				<g>
					<rect x="1729.8" y="277.56" class="st5" width="13.95" height="13.95"/>
				</g>
				<g>
					<rect x="1743.74" y="263.61" class="st5" width="13.95" height="13.95"/>
				</g>
				<g>
					<rect x="1701.91" y="277.56" class="st5" width="13.95" height="13.95"/>
				</g>
				<g>
					<rect x="1715.85" y="263.61" class="st5" width="13.95" height="13.95"/>
				</g>
			</g>
		</g>
	</g>
	<g>
		<g>
			<g>
				<g>
					
						<rect x="1424.17" y="1730.97" transform="matrix(-1 -1.224647e-16 1.224647e-16 -1 3534.7234 4148.3335)" class="st1" width="686.39" height="686.39"/>
				</g>
				<g>
					<polygon class="st10" points="1424.17,1730.97 1424.17,2082.63 1424.17,2111.76 1424.17,2417.36 1488.57,2352.96 
						1488.57,2111.76 1488.57,2082.63 1488.57,1795.38 					"/>
				</g>
				<g>
					<polygon class="st5" points="2046.15,2352.96 1804.96,2352.96 1775.83,2352.96 1488.57,2352.96 1424.17,2417.36 
						1775.83,2417.36 1804.96,2417.36 2110.56,2417.36 					"/>
				</g>
				<g>
					<polygon class="st11" points="1758.9,1730.97 1729.76,1730.97 1424.17,1730.97 1488.57,1795.38 1729.76,1795.38 
						1758.9,1795.38 2046.15,1795.38 2110.56,1730.97 					"/>
				</g>
			</g>
		</g>
		<g>
			<g>
				<polygon class="st8" points="2003.47,1958.85 1928.44,1979.51 1946.66,2055.17 1891.25,2000.52 1834.84,2054.13 
					1854.46,1978.82 1779.83,1956.76 1854.86,1936.11 1836.64,1860.45 1892.05,1915.1 1948.46,1861.49 1928.84,1936.8 				"/>
			</g>
			<g>
				<circle class="st9" cx="1697.53" cy="2121.61" r="166.28"/>
			</g>
			<g>
				<path class="st9" d="M1765.19,2020.98c-1.62,0-3.26-0.49-4.67-1.52c-3.55-2.58-4.33-7.55-1.75-11.1c0.3-0.42,7.6-10.34,20-18.8
					c16.93-11.55,35.33-14.99,53.25-9.93c36.89,10.41,51.71-23.48,52.32-24.92c1.71-4.04,6.37-5.93,10.41-4.22
					c4.04,1.71,5.93,6.37,4.22,10.41c-7.08,16.73-31.07,45.36-71.26,34.02c-32.41-9.15-55.86,22.47-56.09,22.79
					C1770.06,2019.85,1767.64,2020.98,1765.19,2020.98z"/>
			</g>
			<g>
				<rect x="1715.5" y="2206.03" class="st5" width="35.5" height="35.5"/>
			</g>
			<g>
				<rect x="1751" y="2170.53" class="st5" width="35.5" height="35.5"/>
			</g>
			<g>
				<rect x="1786.49" y="2135.04" class="st5" width="35.5" height="35.5"/>
			</g>
			<g>
				<rect x="1680.01" y="2170.53" class="st5" width="35.5" height="35.5"/>
			</g>
			<g>
				<rect x="1715.5" y="2135.04" class="st5" width="35.5" height="35.5"/>
			</g>
		</g>
	</g>
	<g>
		<g>
			<g>
				<g>
					
						<rect x="1424.17" y="2417.36" transform="matrix(-1 -1.224647e-16 1.224647e-16 -1 3534.7234 5521.1167)" class="st1" width="686.39" height="686.39"/>
				</g>
				<g>
					<polygon class="st10" points="1424.17,2417.36 1424.17,2769.02 1424.17,2798.16 1424.17,3103.75 1488.57,3039.35 
						1488.57,2798.16 1488.57,2769.02 1488.57,2481.77 					"/>
				</g>
				<g>
					<polygon class="st5" points="2046.15,3039.35 1804.96,3039.35 1775.83,3039.35 1488.57,3039.35 1424.17,3103.75 
						1775.83,3103.75 1804.96,3103.75 2110.56,3103.75 					"/>
				</g>
				<g>
					<polygon class="st11" points="1758.9,2417.36 1729.76,2417.36 1424.17,2417.36 1488.57,2481.77 1729.76,2481.77 
						1758.9,2481.77 2046.15,2481.77 2110.56,2417.36 					"/>
				</g>
			</g>
		</g>
		<g>
			<g>
				<polygon class="st8" points="2003.47,2645.24 1928.44,2665.9 1946.66,2741.56 1891.25,2686.91 1834.84,2740.52 1854.46,2665.21 
					1779.83,2643.16 1854.86,2622.5 1836.64,2546.84 1892.05,2601.49 1948.46,2547.88 1928.84,2623.19 				"/>
			</g>
			<g>
				<circle class="st9" cx="1697.53" cy="2808" r="166.28"/>
			</g>
			<g>
				<path class="st9" d="M1765.19,2707.37c-1.62,0-3.26-0.49-4.67-1.52c-3.55-2.58-4.33-7.55-1.75-11.1c0.3-0.42,7.6-10.34,20-18.8
					c16.93-11.55,35.33-14.99,53.25-9.93c36.89,10.42,51.71-23.48,52.32-24.92c1.71-4.04,6.37-5.93,10.41-4.22
					c4.04,1.71,5.93,6.37,4.22,10.41c-7.08,16.73-31.07,45.36-71.26,34.02c-32.41-9.15-55.86,22.47-56.09,22.79
					C1770.06,2706.24,1767.64,2707.37,1765.19,2707.37z"/>
			</g>
			<g>
				<rect x="1715.5" y="2892.42" class="st5" width="35.5" height="35.5"/>
			</g>
			<g>
				<rect x="1751" y="2856.92" class="st5" width="35.5" height="35.5"/>
			</g>
			<g>
				<rect x="1786.49" y="2821.43" class="st5" width="35.5" height="35.5"/>
			</g>
			<g>
				<rect x="1680.01" y="2856.92" class="st5" width="35.5" height="35.5"/>
			</g>
			<g>
				<rect x="1715.5" y="2821.43" class="st5" width="35.5" height="35.5"/>
			</g>
		</g>
	</g>
	<g>
		<g>
			<g>
				<g>
					
						<rect x="737.77" y="1730.97" transform="matrix(-1 -1.224647e-16 1.224647e-16 -1 2161.9409 4148.3335)" class="st1" width="686.39" height="686.39"/>
				</g>
				<g>
					<polygon class="st10" points="737.77,1730.97 737.77,2082.63 737.77,2111.76 737.77,2417.36 802.18,2352.96 802.18,2111.76 
						802.18,2082.63 802.18,1795.38 					"/>
				</g>
				<g>
					<polygon class="st5" points="1359.76,2352.96 1118.57,2352.96 1089.44,2352.96 802.18,2352.96 737.77,2417.36 1089.44,2417.36 
						1118.57,2417.36 1424.17,2417.36 					"/>
				</g>
				<g>
					<polygon class="st11" points="1072.51,1730.97 1043.37,1730.97 737.77,1730.97 802.18,1795.38 1043.37,1795.38 
						1072.51,1795.38 1359.76,1795.38 1424.17,1730.97 					"/>
				</g>
			</g>
		</g>
		<g>
			<g>
				<polygon class="st8" points="1317.08,1958.85 1242.05,1979.51 1260.27,2055.17 1204.86,2000.52 1148.44,2054.13 
					1168.07,1978.82 1093.44,1956.76 1168.47,1936.11 1150.25,1860.45 1205.66,1915.1 1262.07,1861.49 1242.45,1936.8 				"/>
			</g>
			<g>
				<circle class="st9" cx="1011.14" cy="2121.61" r="166.28"/>
			</g>
			<g>
				<path class="st9" d="M1078.8,2020.97c-1.63,0-3.27-0.5-4.68-1.53c-3.53-2.59-4.31-7.54-1.74-11.08
					c0.3-0.42,7.6-10.34,19.99-18.8c16.93-11.55,35.34-14.99,53.25-9.93c36.86,10.41,51.71-23.48,52.32-24.92
					c1.71-4.04,6.38-5.93,10.41-4.22c4.04,1.71,5.93,6.37,4.22,10.41c-7.08,16.72-31.09,45.36-71.26,34.02
					c-13.3-3.75-26.61-1.23-39.6,7.5c-10.25,6.9-16.44,15.22-16.5,15.3C1083.65,2019.85,1081.24,2020.97,1078.8,2020.97z"/>
			</g>
			<g>
				<rect x="1029.11" y="2206.03" class="st5" width="35.5" height="35.5"/>
			</g>
			<g>
				<rect x="1064.61" y="2170.53" class="st5" width="35.5" height="35.5"/>
			</g>
			<g>
				<rect x="1100.1" y="2135.04" class="st5" width="35.5" height="35.5"/>
			</g>
			<g>
				<rect x="993.62" y="2170.53" class="st5" width="35.5" height="35.5"/>
			</g>
			<g>
				<rect x="1029.11" y="2135.04" class="st5" width="35.5" height="35.5"/>
			</g>
		</g>
	</g>
	<g>
		<g>
			<g>
				<g>
					
						<rect x="51.38" y="1730.97" transform="matrix(-1 -1.224647e-16 1.224647e-16 -1 789.1581 4148.3335)" class="st1" width="686.39" height="686.39"/>
				</g>
				<g>
					<polygon class="st10" points="51.38,1730.97 51.38,2082.63 51.38,2111.76 51.38,2417.36 115.79,2352.96 115.79,2111.76 
						115.79,2082.63 115.79,1795.38 					"/>
				</g>
				<g>
					<polygon class="st5" points="673.37,2352.96 432.18,2352.96 403.04,2352.96 115.79,2352.96 51.38,2417.36 403.04,2417.36 
						432.18,2417.36 737.77,2417.36 					"/>
				</g>
				<g>
					<polygon class="st11" points="386.11,1730.97 356.98,1730.97 51.38,1730.97 115.79,1795.38 356.98,1795.38 386.11,1795.38 
						673.37,1795.38 737.77,1730.97 					"/>
				</g>
			</g>
		</g>
		<g>
			<g>
				<polygon class="st8" points="630.69,1958.85 555.66,1979.51 573.88,2055.17 518.47,2000.52 462.05,2054.13 481.68,1978.82 
					407.04,1956.76 482.08,1936.11 463.86,1860.45 519.27,1915.1 575.68,1861.49 556.06,1936.8 				"/>
			</g>
			<g>
				<circle class="st9" cx="324.75" cy="2121.61" r="166.28"/>
			</g>
			<g>
				<path class="st9" d="M392.4,2020.97c-1.63,0-3.27-0.5-4.68-1.53c-3.53-2.59-4.31-7.54-1.74-11.08c0.3-0.42,7.6-10.34,19.99-18.8
					c16.93-11.55,35.34-14.99,53.25-9.93c36.86,10.41,51.71-23.48,52.32-24.92c1.71-4.04,6.38-5.93,10.41-4.22
					c4.04,1.71,5.93,6.37,4.22,10.41c-7.08,16.73-31.08,45.36-71.26,34.02c-13.3-3.75-26.61-1.23-39.6,7.5
					c-10.25,6.9-16.44,15.22-16.5,15.3C397.26,2019.85,394.85,2020.97,392.4,2020.97z"/>
			</g>
			<g>
				<rect x="342.72" y="2206.03" class="st5" width="35.5" height="35.5"/>
			</g>
			<g>
				<rect x="378.21" y="2170.53" class="st5" width="35.5" height="35.5"/>
			</g>
			<g>
				<rect x="413.71" y="2135.04" class="st5" width="35.5" height="35.5"/>
			</g>
			<g>
				<rect x="307.22" y="2170.53" class="st5" width="35.5" height="35.5"/>
			</g>
			<g>
				<rect x="342.72" y="2135.04" class="st5" width="35.5" height="35.5"/>
			</g>
		</g>
	</g>
	<g>
		<g>
			<g>
				<g>
					
						<rect x="737.77" y="2417.36" transform="matrix(-1 -1.224647e-16 1.224647e-16 -1 2161.9407 5521.1162)" class="st1" width="686.39" height="686.39"/>
				</g>
				<g>
					<polygon class="st10" points="737.77,2417.36 737.77,2769.02 737.77,2798.16 737.77,3103.75 802.18,3039.35 802.18,2798.16 
						802.18,2769.02 802.18,2481.77 					"/>
				</g>
				<g>
					<polygon class="st5" points="1359.76,3039.35 1118.57,3039.35 1089.44,3039.35 802.18,3039.35 737.77,3103.75 1089.44,3103.75 
						1118.57,3103.75 1424.17,3103.75 					"/>
				</g>
				<g>
					<polygon class="st11" points="1072.51,2417.36 1043.37,2417.36 737.77,2417.36 802.18,2481.77 1043.37,2481.77 
						1072.51,2481.77 1359.76,2481.77 1424.17,2417.36 					"/>
				</g>
			</g>
		</g>
		<g>
			<g>
				<g>
					<polygon class="st6" points="1175.87,2595.52 986.07,2595.52 891.17,2759.89 1080.97,2925.6 1270.77,2759.89 					"/>
				</g>
				<g>
					<polygon class="st7" points="986.07,2595.52 1080.97,2760.56 1175.87,2595.52 					"/>
				</g>
				<g>
					<polygon class="st7" points="891.17,2759.89 986.07,2759.89 1080.97,2925.6 					"/>
				</g>
				<g>
					<polygon class="st7" points="1080.97,2760.56 1080.97,2925.6 1175.87,2760.56 					"/>
				</g>
			</g>
			<g>
				<g>
					<rect x="1203.84" y="2662.46" class="st4" width="33.47" height="33.47"/>
				</g>
				<g>
					<rect x="1237.31" y="2628.99" class="st4" width="33.47" height="33.47"/>
				</g>
				<g>
					<rect x="1170.37" y="2628.99" class="st4" width="33.47" height="33.47"/>
				</g>
				<g>
					<rect x="1203.84" y="2595.52" class="st4" width="33.47" height="33.47"/>
				</g>
			</g>
			<g>
				<g>
					<rect x="924.64" y="2824.12" class="st4" width="33.47" height="33.47"/>
				</g>
				<g>
					<rect x="958.1" y="2790.65" class="st4" width="33.47" height="33.47"/>
				</g>
				<g>
					<rect x="891.17" y="2790.65" class="st4" width="33.47" height="33.47"/>
				</g>
				<g>
					<rect x="924.64" y="2757.18" class="st4" width="33.47" height="33.47"/>
				</g>
			</g>
		</g>
	</g>
	<g>
		<g>
			<g>
				<g>
					
						<rect x="51.38" y="2417.36" transform="matrix(-1 -1.224647e-16 1.224647e-16 -1 789.1581 5521.1162)" class="st1" width="686.39" height="686.39"/>
				</g>
				<g>
					<polygon class="st10" points="51.38,2417.36 51.38,2769.02 51.38,2798.16 51.38,3103.75 115.79,3039.35 115.79,2798.16 
						115.79,2769.02 115.79,2481.77 					"/>
				</g>
				<g>
					<polygon class="st5" points="673.37,3039.35 432.18,3039.35 403.04,3039.35 115.79,3039.35 51.38,3103.75 403.04,3103.75 
						432.18,3103.75 737.77,3103.75 					"/>
				</g>
				<g>
					<polygon class="st11" points="386.11,2417.36 356.98,2417.36 51.38,2417.36 115.79,2481.77 356.98,2481.77 386.11,2481.77 
						673.37,2481.77 737.77,2417.36 					"/>
				</g>
			</g>
		</g>
		<g>
			<g>
				<g>
					<polygon class="st6" points="489.48,2595.52 299.68,2595.52 204.77,2759.89 394.58,2925.6 584.38,2759.89 					"/>
				</g>
				<g>
					<polygon class="st7" points="299.68,2595.52 394.58,2760.56 489.48,2595.52 					"/>
				</g>
				<g>
					<polygon class="st7" points="204.77,2759.89 299.68,2759.89 394.58,2925.6 					"/>
				</g>
				<g>
					<polygon class="st7" points="394.58,2760.56 394.58,2925.6 489.48,2760.56 					"/>
				</g>
			</g>
			<g>
				<g>
					<rect x="517.45" y="2662.46" class="st4" width="33.47" height="33.47"/>
				</g>
				<g>
					<rect x="550.91" y="2628.99" class="st4" width="33.47" height="33.47"/>
				</g>
				<g>
					<rect x="483.98" y="2628.99" class="st4" width="33.47" height="33.47"/>
				</g>
				<g>
					<rect x="517.45" y="2595.52" class="st4" width="33.47" height="33.47"/>
				</g>
			</g>
			<g>
				<g>
					<rect x="238.24" y="2824.12" class="st4" width="33.47" height="33.47"/>
				</g>
				<g>
					<rect x="271.71" y="2790.65" class="st4" width="33.47" height="33.47"/>
				</g>
				<g>
					<rect x="204.77" y="2790.65" class="st4" width="33.47" height="33.47"/>
				</g>
				<g>
					<rect x="238.24" y="2757.18" class="st4" width="33.47" height="33.47"/>
				</g>
			</g>
		</g>
	</g>
	<g>
		<g>
			<g>
				<g>
					
						<rect x="51.38" y="3103.75" transform="matrix(-1 -1.224647e-16 1.224647e-16 -1 789.1515 6893.8994)" class="st1" width="686.39" height="686.39"/>
				</g>
				<g>
					<polygon class="st10" points="51.38,3103.75 51.38,3455.41 51.38,3484.55 51.38,3790.15 115.79,3725.74 115.79,3484.55 
						115.79,3455.41 115.79,3168.16 					"/>
				</g>
				<g>
					<polygon class="st5" points="673.37,3725.74 432.17,3725.74 403.04,3725.74 115.79,3725.74 51.38,3790.15 403.04,3790.15 
						432.17,3790.15 737.77,3790.15 					"/>
				</g>
				<g>
					<polygon class="st11" points="386.11,3103.75 356.98,3103.75 51.38,3103.75 115.79,3168.16 356.98,3168.16 386.11,3168.16 
						673.37,3168.16 737.77,3103.75 					"/>
				</g>
			</g>
		</g>
		<g>
			<g>
				<g>
					<polygon class="st6" points="489.47,3281.91 299.67,3281.91 204.77,3446.28 394.57,3611.99 584.37,3446.28 					"/>
				</g>
				<g>
					<polygon class="st7" points="299.67,3281.91 394.57,3446.95 489.47,3281.91 					"/>
				</g>
				<g>
					<polygon class="st7" points="204.77,3446.28 299.67,3446.28 394.57,3611.99 					"/>
				</g>
				<g>
					<polygon class="st7" points="394.57,3446.95 394.57,3611.99 489.47,3446.95 					"/>
				</g>
			</g>
			<g>
				<g>
					<rect x="517.44" y="3348.85" class="st4" width="33.47" height="33.47"/>
				</g>
				<g>
					<rect x="550.91" y="3315.38" class="st4" width="33.47" height="33.47"/>
				</g>
				<g>
					<rect x="483.97" y="3315.38" class="st4" width="33.47" height="33.47"/>
				</g>
				<g>
					<rect x="517.44" y="3281.91" class="st4" width="33.47" height="33.47"/>
				</g>
			</g>
			<g>
				<g>
					<rect x="238.24" y="3510.51" class="st4" width="33.47" height="33.47"/>
				</g>
				<g>
					<rect x="271.71" y="3477.04" class="st4" width="33.47" height="33.47"/>
				</g>
				<g>
					<rect x="204.77" y="3477.04" class="st4" width="33.47" height="33.47"/>
				</g>
				<g>
					<rect x="238.24" y="3443.57" class="st4" width="33.47" height="33.47"/>
				</g>
			</g>
		</g>
	</g>
	<g>
		<g>
			<g>
				<g>
					
						<rect x="737.77" y="3103.75" transform="matrix(-1 -1.224647e-16 1.224647e-16 -1 2161.9409 6893.8994)" class="st1" width="686.39" height="686.39"/>
				</g>
				<g>
					<polygon class="st10" points="737.77,3103.75 737.77,3455.41 737.77,3484.55 737.77,3790.15 802.18,3725.74 802.18,3484.55 
						802.18,3455.41 802.18,3168.16 					"/>
				</g>
				<g>
					<polygon class="st5" points="1359.76,3725.74 1118.57,3725.74 1089.44,3725.74 802.18,3725.74 737.77,3790.15 1089.44,3790.15 
						1118.57,3790.15 1424.17,3790.15 					"/>
				</g>
				<g>
					<polygon class="st11" points="1072.51,3103.75 1043.37,3103.75 737.77,3103.75 802.18,3168.16 1043.37,3168.16 
						1072.51,3168.16 1359.76,3168.16 1424.17,3103.75 					"/>
				</g>
			</g>
		</g>
		<g>
			<g>
				<g>
					<polygon class="st6" points="1175.87,3281.91 986.07,3281.91 891.17,3446.28 1080.97,3611.99 1270.77,3446.28 					"/>
				</g>
				<g>
					<polygon class="st7" points="986.07,3281.91 1080.97,3446.95 1175.87,3281.91 					"/>
				</g>
				<g>
					<polygon class="st7" points="891.17,3446.28 986.07,3446.28 1080.97,3611.99 					"/>
				</g>
				<g>
					<polygon class="st7" points="1080.97,3446.95 1080.97,3611.99 1175.87,3446.95 					"/>
				</g>
			</g>
			<g>
				<g>
					<rect x="1203.84" y="3348.85" class="st4" width="33.47" height="33.47"/>
				</g>
				<g>
					<rect x="1237.31" y="3315.38" class="st4" width="33.47" height="33.47"/>
				</g>
				<g>
					<rect x="1170.37" y="3315.38" class="st4" width="33.47" height="33.47"/>
				</g>
				<g>
					<rect x="1203.84" y="3281.91" class="st4" width="33.47" height="33.47"/>
				</g>
			</g>
			<g>
				<g>
					<rect x="924.64" y="3510.51" class="st4" width="33.47" height="33.47"/>
				</g>
				<g>
					<rect x="958.1" y="3477.04" class="st4" width="33.47" height="33.47"/>
				</g>
				<g>
					<rect x="891.17" y="3477.04" class="st4" width="33.47" height="33.47"/>
				</g>
				<g>
					<rect x="924.64" y="3443.57" class="st4" width="33.47" height="33.47"/>
				</g>
			</g>
		</g>
	</g>
	<g>
		<g>
			<g>
				<g>
					
						<rect x="1424.17" y="3103.75" transform="matrix(-1 -1.224647e-16 1.224647e-16 -1 3534.7229 6893.8994)" class="st1" width="686.39" height="686.39"/>
				</g>
				<g>
					<polygon class="st10" points="1424.17,3103.75 1424.17,3455.41 1424.17,3484.55 1424.17,3790.15 1488.57,3725.74 
						1488.57,3484.55 1488.57,3455.41 1488.57,3168.16 					"/>
				</g>
				<g>
					<polygon class="st5" points="2046.15,3725.74 1804.96,3725.74 1775.83,3725.74 1488.57,3725.74 1424.17,3790.15 
						1775.83,3790.15 1804.96,3790.15 2110.56,3790.15 					"/>
				</g>
				<g>
					<polygon class="st11" points="1758.9,3103.75 1729.76,3103.75 1424.17,3103.75 1488.57,3168.16 1729.76,3168.16 
						1758.9,3168.16 2046.15,3168.16 2110.56,3103.75 					"/>
				</g>
			</g>
		</g>
		<g>
			<g>
				<g>
					<polygon class="st6" points="1862.26,3281.91 1672.46,3281.91 1577.56,3446.28 1767.36,3611.99 1957.16,3446.28 					"/>
				</g>
				<g>
					<polygon class="st7" points="1672.46,3281.91 1767.36,3446.95 1862.26,3281.91 					"/>
				</g>
				<g>
					<polygon class="st7" points="1577.56,3446.28 1672.46,3446.28 1767.36,3611.99 					"/>
				</g>
				<g>
					<polygon class="st7" points="1767.36,3446.95 1767.36,3611.99 1862.26,3446.95 					"/>
				</g>
			</g>
			<g>
				<g>
					<rect x="1890.23" y="3348.85" class="st4" width="33.47" height="33.47"/>
				</g>
				<g>
					<rect x="1923.7" y="3315.38" class="st4" width="33.47" height="33.47"/>
				</g>
				<g>
					<rect x="1856.76" y="3315.38" class="st4" width="33.47" height="33.47"/>
				</g>
				<g>
					<rect x="1890.23" y="3281.91" class="st4" width="33.47" height="33.47"/>
				</g>
			</g>
			<g>
				<g>
					<rect x="1611.03" y="3510.51" class="st4" width="33.47" height="33.47"/>
				</g>
				<g>
					<rect x="1644.5" y="3477.04" class="st4" width="33.47" height="33.47"/>
				</g>
				<g>
					<rect x="1577.56" y="3477.04" class="st4" width="33.47" height="33.47"/>
				</g>
				<g>
					<rect x="1611.03" y="3443.57" class="st4" width="33.47" height="33.47"/>
				</g>
			</g>
		</g>
	</g>
	<g>
		<g>
			<g>
				<g>
					<rect x="852.49" y="160.09" class="st1" width="465.17" height="465.17"/>
				</g>
				<g>
					<polygon class="st1" points="1317.66,160.09 1274.01,203.74 1274.01,386.94 1317.66,386.94 					"/>
				</g>
				<g>
					<polygon class="st1" points="1317.66,625.26 1274.01,581.61 1274.01,367.19 1317.66,367.19 					"/>
				</g>
				<g>
					<polygon class="st5" points="852.49,160.09 896.13,203.74 1079.33,203.74 1079.33,160.09 					"/>
				</g>
				<g>
					<polygon class="st5" points="1317.66,160.09 1274.01,203.74 1059.59,203.74 1059.59,160.09 					"/>
				</g>
				<g>
					<polygon class="st10" points="1317.66,625.26 1274.01,581.61 1090.81,581.61 1090.81,625.26 					"/>
				</g>
				<g>
					<polygon class="st10" points="852.49,625.26 896.13,581.61 1110.55,581.61 1110.55,625.26 					"/>
				</g>
			</g>
			<g>
				<g>
					<g>
						<path class="st12" d="M1234.6,497.77c-12.33,41.74-42.92,3.01-98.2,3.01c-55.27,0-100.08-28.69-100.08-86.25
							s44.86-88.62,100.08-86.25C1216.93,331.75,1259.76,412.58,1234.6,497.77z"/>
					</g>
					<g>
						<path class="st9" d="M1084.64,484.8c-37.38,0-88.25,47.52-117.45,10.01c-28.47-36.59,13.89-93.17,117.45-93.17
							s145.92,56.58,117.45,93.17C1172.9,532.33,1122.02,484.8,1084.64,484.8z"/>
					</g>
					<g>
						<circle class="st5" cx="1036.33" cy="438.7" r="24.87"/>
					</g>
					<g>
						<circle class="st5" cx="1084.64" cy="436.75" r="24.87"/>
					</g>
					<g>
						<circle class="st5" cx="1133.17" cy="439.79" r="24.87"/>
					</g>
					<g>
						<path class="st12" d="M1084.64,392.67c35.22,0,65.98,5.88,91.44,17.48c24.92,11.36,43.11,27.61,52.59,47
							c11.29,23.1,8.71,48.87-6.91,68.94c-9.53,12.25-26.92,26.3-55.7,23.74c-16.39-1.46-32.1-7.76-47.3-13.85
							c-12.61-5.05-25.65-10.27-34.13-10.27c-8.48,0-21.52,5.22-34.13,10.27c-15.2,6.09-30.92,12.38-47.3,13.85
							c-28.77,2.57-46.17-11.49-55.7-23.74c-15.62-20.07-18.2-45.84-6.91-68.94c9.48-19.39,27.67-35.65,52.59-47
							C1018.66,398.55,1049.42,392.67,1084.64,392.67z M1173,500.27c4.78,0,6.91-1.6,9.41-4.81c4.03-5.18,4.48-10.23,1.46-16.4
							c-4.22-8.63-14.6-17.2-28.47-23.52c-18.65-8.5-43.12-12.99-70.76-12.99c-27.64,0-52.11,4.49-70.76,12.99
							c-13.87,6.32-24.25,14.89-28.47,23.52c-3.02,6.17-2.56,11.22,1.46,16.4c2.89,3.72,5.3,5.28,11.9,4.69
							c9.08-0.81,21.34-5.72,33.19-10.47c17-6.81,34.58-13.85,52.67-13.85s35.67,7.04,52.67,13.85
							c11.85,4.75,24.11,9.66,33.19,10.47C1171.41,500.23,1172.24,500.27,1173,500.27z"/>
					</g>
				</g>
				<g>
					<ellipse class="st5" cx="1082.17" cy="388.39" rx="16.46" ry="22.32"/>
					<path class="st5" d="M1082.17,413.88c-10.82,0-19.63-11.43-19.63-25.49s8.8-25.49,19.63-25.49c10.82,0,19.62,11.43,19.62,25.49
						S1092.99,413.88,1082.17,413.88z M1082.17,369.24c-7.33,0-13.29,8.59-13.29,19.16s5.96,19.16,13.29,19.16
						c7.33,0,13.29-8.59,13.29-19.16S1089.5,369.24,1082.17,369.24z"/>
				</g>
				<g>
					<ellipse class="st5" cx="1134.91" cy="388.39" rx="16.46" ry="22.32"/>
					<path class="st5" d="M1134.91,413.88c-10.82,0-19.63-11.43-19.63-25.49s8.8-25.49,19.63-25.49c10.82,0,19.62,11.43,19.62,25.49
						S1145.73,413.88,1134.91,413.88z M1134.91,369.24c-7.33,0-13.29,8.59-13.29,19.16s5.96,19.16,13.29,19.16
						c7.33,0,13.29-8.59,13.29-19.16S1142.24,369.24,1134.91,369.24z"/>
				</g>
				<g>
					<ellipse class="st5" cx="1187.65" cy="388.39" rx="16.46" ry="22.32"/>
					<path class="st5" d="M1187.65,413.88c-10.82,0-19.63-11.43-19.63-25.49s8.8-25.49,19.63-25.49c10.82,0,19.62,11.43,19.62,25.49
						S1198.47,413.88,1187.65,413.88z M1187.65,369.24c-7.33,0-13.29,8.59-13.29,19.16s5.96,19.16,13.29,19.16
						c7.33,0,13.29-8.59,13.29-19.16S1194.98,369.24,1187.65,369.24z"/>
				</g>
				<g>
					<path class="st12" d="M1144.15,344.23c-3.18,0-6.07-2.16-6.87-5.38l0,0c-0.07-0.28-7.22-27.74-33.58-41.25
						c-22.63-11.6-52.78-10.06-89.63,4.58c-3.63,1.44-7.75-0.33-9.2-3.97c-1.45-3.64,0.33-7.75,3.97-9.2
						c40.92-16.25,75.08-17.57,101.53-3.91c32.09,16.57,40.33,48.99,40.66,50.36c0.93,3.8-1.4,7.63-5.2,8.56
						C1145.28,344.17,1144.71,344.23,1144.15,344.23z"/>
				</g>
				<g>
					<g>
						<g>
							<g>
								<circle class="st5" cx="1006.12" cy="334.9" r="24"/>
							</g>
							<g>
								<circle class="st5" cx="975.96" cy="305.21" r="24"/>
							</g>
							<g>
								<circle class="st5" cx="994.87" cy="267.36" r="24"/>
							</g>
							<g>
								<circle class="st5" cx="1036.71" cy="273.64" r="24"/>
							</g>
							<g>
								<circle class="st5" cx="1043.67" cy="315.39" r="24"/>
							</g>
						</g>
						<g>
							<circle class="st5" cx="1011.46" cy="299.3" r="26.9"/>
						</g>
					</g>
					<g>
						<rect x="990.76" y="299.3" class="st4" width="20.7" height="20.7"/>
					</g>
					<g>
						<rect x="1011.46" y="278.6" class="st4" width="20.7" height="20.7"/>
					</g>
				</g>
				<g>
					<path class="st3" d="M1091.86,405.42c-1,0-1.98-0.47-2.6-1.35l-19.39-27.73c-1-1.43-0.65-3.41,0.78-4.41
						c1.43-1,3.4-0.65,4.41,0.78l19.39,27.73c1,1.43,0.65,3.41-0.78,4.41C1093.12,405.24,1092.49,405.42,1091.86,405.42z"/>
				</g>
				<g>
					<path class="st3" d="M1072.47,405.42c-0.63,0-1.26-0.19-1.81-0.57c-1.43-1-1.78-2.98-0.78-4.41l19.39-27.73
						c1-1.43,2.98-1.78,4.41-0.78c1.43,1,1.78,2.98,0.78,4.41l-19.39,27.73C1074.45,404.95,1073.47,405.42,1072.47,405.42z"/>
				</g>
				<g>
					<path class="st3" d="M1144.61,405.42c-1,0-1.98-0.47-2.6-1.35l-19.39-27.73c-1-1.43-0.65-3.41,0.78-4.41
						c1.43-1,3.4-0.65,4.41,0.78l19.39,27.73c1,1.43,0.65,3.41-0.78,4.41C1145.87,405.24,1145.23,405.42,1144.61,405.42z"/>
				</g>
				<g>
					<path class="st3" d="M1125.22,405.42c-0.63,0-1.26-0.19-1.81-0.57c-1.43-1-1.78-2.98-0.78-4.41l19.39-27.73
						c1-1.43,2.98-1.78,4.41-0.78c1.43,1,1.78,2.98,0.78,4.41l-19.39,27.73C1127.2,404.95,1126.21,405.42,1125.22,405.42z"/>
				</g>
				<g>
					<path class="st3" d="M1197.35,405.42c-1,0-1.98-0.47-2.6-1.35l-19.39-27.73c-1-1.43-0.65-3.41,0.78-4.41
						c1.43-1,3.4-0.65,4.41,0.78l19.39,27.73c1,1.43,0.65,3.41-0.78,4.41C1198.61,405.24,1197.98,405.42,1197.35,405.42z"/>
				</g>
				<g>
					<path class="st3" d="M1177.96,405.42c-0.63,0-1.26-0.19-1.81-0.57c-1.43-1-1.78-2.98-0.78-4.41l19.39-27.73
						c1-1.43,2.98-1.78,4.41-0.78c1.43,1,1.78,2.98,0.78,4.41l-19.39,27.73C1179.94,404.95,1178.96,405.42,1177.96,405.42z"/>
				</g>
			</g>
		</g>
	</g>
</g>
</svg>
