<?xml version="1.0" encoding="utf-8"?>
<!-- Generator: Adobe Illustrator 25.2.3, SVG Export Plug-In . SVG Version: 6.00 Build 0)  -->
<svg version="1.1" id="圖層_1" xmlns="http://www.w3.org/2000/svg" xmlns:xlink="http://www.w3.org/1999/xlink" x="0px" y="0px"
	 viewBox="0 0 2160 3840" style="enable-background:new 0 0 2160 3840;" xml:space="preserve">
<style type="text/css">
	.st0{fill:#DCDDDD;}
	.st1{fill:#B8C2C8;}
	.st2{fill:#1D2088;}
	.st3{fill:#FFFFFF;}
	.st4{fill:#2EA7E0;}
	.st5{fill:#4DCDFF;}
	.st6{fill:#EEB73D;}
	.st7{fill:#EF8220;}
	.st8{fill:#1D2087;}
	.st9{fill:none;stroke:#1D2087;stroke-width:6.2416;stroke-linecap:round;stroke-linejoin:round;stroke-miterlimit:10;}
	.st10{fill:#B5B5B6;}
	.st11{fill:#44BABC;}
</style>
<g>
	<rect x="0.98" class="st0" width="2160" height="3840"/>
	<g>
		<rect x="40.78" y="43.62" class="st0" width="2082.38" height="3758.18"/>
		<path class="st1" d="M2110.33,56.45v3732.52H53.61V56.45H2110.33 M2135.99,30.79H27.95v3783.84h2108.05V30.79L2135.99,30.79z"/>
	</g>
	<g>
		<rect x="40.78" y="733.58" class="st2" width="2082.38" height="3068.22"/>
		<g>
			<path class="st1" d="M2110.33,746.41v3042.56H53.61V746.41H2110.33 M2135.99,720.75H27.95v3093.89h2108.05V720.75L2135.99,720.75
				z"/>
		</g>
	</g>
	<g>
		<path class="st3" d="M1923.82,1498.81H236.18c-57.03,0-103.25-46.23-103.25-103.25v-314.14c0-57.03,46.23-103.25,103.25-103.25
			h1687.64c57.03,0,103.25,46.23,103.25,103.25v314.14C2027.08,1452.58,1980.85,1498.81,1923.82,1498.81z"/>
		<g>
			<g>
				<path class="st2" d="M568.6,1150.91l1.98-0.27l6.02,2.06c-2.7,22.75-9.53,38.86-19.76,47.39c-1.6-2.49-5.65-6.93-7.96-8.61
					c9.11-7.26,14.72-20.71,16.69-38.64v-1.92H568.6z M550.39,1152.32c1.62-0.51,3.12-1.3,4.69-3.45
					c2.36-2.84,9.31-16.73,11.88-22.45v-0.4l2.92-1.21l7.72,2.59c-3.65,7.22-10.55,21.33-15.07,28.1c0,0-8.19,4.02-8.19,6.86
					C553.71,1159.73,551.49,1154.51,550.39,1152.32z M569.55,1125.5v10.1h-17.76v-10.1H569.55z M562.54,1101.05
					c4.73,4.96,10.44,11.5,13.35,15.72l-9.49,6.64c-2.67-4.42-8.43-11.71-13.06-16.89L562.54,1101.05z M554.33,1153.19l4.38-2.28
					h11.7v9.83h-10.02c-2.15,0-5.16,0.74-6.06,1.62V1153.19z M609.88,1187.2c11.59,0.08,29.37-0.65,41.59-1.9
					c-1.81,2.68-3.53,8.33-4.15,11.84c-11.21,0.61-25.02,0.99-37.66,0.99c-24.96,0-38.27-3.26-46.16-23.55l8.46-3.4
					C577.71,1185.44,590.33,1187.2,609.88,1187.2z M592.31,1104.96v18.32c0,14.67-1.97,36.98-11.85,51.64
					c-1.52-2.14-5.65-6.08-7.62-7.33c8.57-13.11,9.47-31.46,9.47-44.39v-18.24H592.31z M610.64,1145.11v34.19h-24.96v-34.19H610.64z
					 M609.96,1104.96v31.46h-21.4v-9.58h11.57v-12.31h-11.57v-9.58H609.96z M594.93,1170.78h5.86v-17.16h-5.86V1170.78z
					 M649.25,1138.11v10.1h-36.93v-10.1H649.25z M648.57,1112.78v9.99h-35.44v-9.99H648.57z M648.43,1155.83v9.99h-35.14v-9.99
					H648.43z M624.57,1122.99c1.95,3.9,3.77,9.11,4.38,12.57l-8.96,2.8c-0.45-3.51-2.1-8.94-3.92-13.01L624.57,1122.99z
					 M632.01,1100.5c2.28,4.43,4.45,10.27,5.45,14.07l-10.77,3.51c-0.73-3.98-2.9-10.08-4.88-14.58L632.01,1100.5z M636.84,1141.76
					v39.65h-11.48v-39.65H636.84z M646.94,1125.22c-2.7,6.01-5.51,12.58-7.87,16.83l-8.25-2.25c2.11-4.68,4.61-11.87,5.85-16.92
					L646.94,1125.22z"/>
				<path class="st2" d="M681.79,1104.63v95.24h-12.4v-95.24H681.79z M702.3,1119.04v8.26h-26.58v-8.26H702.3z M710.34,1104.63
					v37.57h-33.42v-9.08h21.53v-19.48h-21.53v-9H710.34z M708.59,1151.21v20.26c0,6.79-2.82,20.7-13.94,28.33
					c-1.77-2.22-5.54-5.59-8.12-7.27c8.96-5.53,11.24-15.7,11.24-21.14v-20.18H708.59z M741.26,1165.65v10.34H686.7v-10.34H741.26z
					 M739.51,1147.66v9.99h-51.22v-9.99H739.51z M753.01,1113.64h-23.72v19.73h23.72v9.08h-35.77v-37.82h35.77V1113.64z
					 M729.55,1150.75v47.15h-11.17v-47.15H729.55z M751.47,1119.04v8.26h-26.68v-8.26H751.47z M758.98,1104.63v80.47
					c0,6.39-1.12,9.93-4.95,12.05c-3.92,2.09-9.4,2.42-17.52,2.34c-0.38-3.4-2.04-9.25-3.74-12.53c4.67,0.19,9.95,0.19,11.58,0.17
					c1.61-0.02,2.14-0.63,2.14-2.16v-80.33H758.98z"/>
				<path class="st2" d="M790.75,1171.91c-0.74,9.37-2.4,19.39-4.46,25.89c-2.12-1.14-6.48-2.6-8.81-3.25
					c2.29-6.19,3.45-15.62,4.08-24.18L790.75,1171.91z M777.83,1132.43c1.89-0.56,3.71-2.56,5.68-5.69
					c2.1-3.01,8.54-14.76,12.09-25.94l10.12,4.28c-4.76,11.35-11.66,23.5-18.19,31.75v0.25c0,0-6.23,3.41-6.23,5.46
					C780.76,1140.37,779.08,1135.28,777.83,1132.43z M778.63,1156.84c2.52-0.65,4.7-3.19,7.93-7.19
					c3.36-3.91,13.89-19.41,20.23-34.24l9.19,5.93c-7.34,14.47-17.64,29.35-27.65,40.06v0.27c0,0-6.34,3.37-6.34,5.41
					C781.56,1164.92,779.8,1159.69,778.63,1156.84z M781.06,1134.47l4.63-3.17l17.81-1.24c-0.6,2.85-1.09,6.92-1.18,9.2
					c-15.95,1.56-19.1,2.31-21.02,3.28L781.06,1134.47z M781.59,1158.79l4.6-3.23l26.85-3.71c-0.35,2.74-0.58,6.81-0.47,9.04
					c-24.29,3.9-28.21,4.94-30.57,6.2L781.59,1158.79z M801.32,1169.66c1.29,7.05,2.42,16.04,2.82,22.11l-8.86,2.34
					c-0.13-6.15-1.23-15.34-2.28-22.38L801.32,1169.66z M811.56,1142.52c2.62,6.35,5.6,14.8,6.95,19.73l-8.84,3.7
					c-1.02-5.2-3.86-13.86-6.27-20.37L811.56,1142.52z M812.02,1166.53c2.4,6.41,4.81,14.58,5.98,19.94l-8.3,3.15
					c-0.92-5.54-3.36-13.96-5.46-20.37L812.02,1166.53z M866.82,1105.08v10.98h-37.38v83.89H818.2v-94.87H866.82z M861.42,1134.19
					v9.5h-30.07v-9.5H861.42z M861.01,1152.57v9.52h-29.17v-9.52H861.01z M840.33,1118.1c2.1,4.31,3.88,10.19,4.44,13.95l-7.55,2.65
					c-0.4-3.86-2.1-9.83-4.07-14.24L840.33,1118.1z M845.06,1157.75v10.74c0,2.32,0.28,3.25,1.93,3.25c1.3,0,6.11,0,7.47,0
					c1.66,0,4.56-0.17,6.08-0.65c0.19,2.6,0.4,6.22,0.75,8.61c-1.52,0.56-4.23,0.65-6.56,0.65c-1.74,0-7.23,0-8.87,0
					c-9.01,0-10.88-3.42-10.88-11.97v-10.64H845.06z M848.66,1142.93c1.31,2.52,2.88,5.98,3.55,8.12l-8.99,3.32
					c-0.59-2.35-2.03-5.97-3.26-8.66L848.66,1142.93z M860.32,1120.48c-1.97,6-3.84,12.64-5.55,17l-7.05-2.07
					c1.4-4.71,3.25-12.07,3.96-17.1L860.32,1120.48z M874.79,1105.08v82.34c0,5.6-0.9,8.52-4.23,10.39c-3.33,1.77-8,2.04-14.73,2.01
					c-0.38-2.97-1.73-7.85-3.16-10.72c3.66,0.21,7.73,0.19,9.02,0.19c1.37-0.11,1.8-0.53,1.8-1.93v-82.29H874.79z"/>
				<path class="st2" d="M935.08,1174.37l1.22,11.2c-14.96,3.68-30.99,7.44-43.06,10.24l-2.14-12.18
					C902.29,1181.68,919.23,1177.96,935.08,1174.37z M906.09,1147.14v38.49h-10.32v-38.49H906.09z M933.16,1104.53v35.11h-36.58
					v-35.11H933.16z M907.58,1128.82h13.94v-13.48h-13.94V1128.82z M922.61,1135.28v47.22h-11.25v-47.22H922.61z M934.19,1152.04
					v11.06h-18.32v-11.06H934.19z M975.02,1110.61l2.22-0.46l8.03,3.42c-7.65,26.52-25.51,43.4-47.02,52.5
					c-1.49-2.88-4.67-7.26-7.14-9.54c19.05-6.99,35.79-23.18,41.71-43.86v-2.06H975.02z M962.84,1103.43
					c-4.67,14.23-12.55,28-21.13,36.71c-2.07-2.26-6.99-6.37-9.82-8.21c8.27-7.36,15.19-19.18,18.89-31.46L962.84,1103.43z
					 M984.38,1160.39v38.84h-12.13v-28.19h-19.94v28.51h-11.64v-39.16H984.38z M992.53,1153.91c-2.55,2.42-6.2,7.46-7.89,10.7
					c-21.75-8.46-35.56-26.93-42.09-42.53l8.56-5.56C957.18,1130.83,970.94,1147.18,992.53,1153.91z M979.16,1185.09v10.9h-33.33
					v-10.9H979.16z M977.22,1110.61v10.73H950.4v-10.73H977.22z"/>
				<path class="st2" d="M1041.74,1118.12v10.01h-36.65v-10.01H1041.74z M1019.85,1162.07v36.33h-10.34v-36.33H1019.85z
					 M1039.32,1132.98v9.58h-29.48v-9.58H1039.32z M1039.32,1147.4v9.58h-29.48v-9.58H1039.32z M1022.67,1100.69
					c3.92,4.22,7.93,10.02,9.84,14.03l-10.06,5.51c-1.73-4.13-5.73-10.46-9.47-14.92L1022.67,1100.69z M1039.55,1162.07v31.99
					h-23.92v-9.93h13.51V1172h-13.51v-9.93H1039.55z M1072.48,1128.26c-5.77,10.54-15.87,20.39-26.26,25.5
					c-1.77-2.74-5.3-7.04-7.85-9.16c9.78-3.9,19.54-11.61,24.52-19.71L1072.48,1128.26z M1068.93,1156.21
					c-0.93,21.11-3.9,35.7-22.62,43.93c-1.25-2.86-4.45-7.19-6.92-9.37c15.4-6.38,16.99-17.52,17.71-34.56H1068.93z M1104.11,1120.3
					v10.65h-60.2v-10.65H1104.11z M1101.13,1109.9c-14.39,3.63-34.78,5.24-51.83,5.55c-0.35-2.74-1.79-6.95-2.95-9.53
					c16.41-0.67,35.42-2.33,46.76-5.15L1101.13,1109.9z M1079.85,1152.68v10.73h-32.71v-10.73H1079.85z M1079.14,1110.78v39.56
					h-11.72v-39.56H1079.14z M1102.29,1165.75c0,0-0.19,2.86-0.38,4.32c-1.13,16.18-2.4,23.43-5.05,26.35
					c-2.09,2.32-4.31,3.15-7.37,3.5c-2.6,0.25-7.22,0.31-12.12,0.13c-0.19-3.21-1.41-7.61-3.09-10.54c4,0.45,7.83,0.47,9.61,0.47
					c1.51,0,2.44-0.11,3.37-1.01c1.49-1.57,2.59-7.34,3.43-21.76v-1.46H1102.29z M1082.51,1124.4c7.51,6.19,17.49,15.04,22.17,20.97
					l-8.8,7.12c-4.31-5.99-13.95-15.24-21.55-21.86L1082.51,1124.4z M1090.65,1152.68c-1.4,7.91-3.17,17.02-4.65,23.08h-11.36
					c1.56-6.3,3.28-15.47,4.3-23.08H1090.65z M1094.22,1165.75v10.01h-14.85l2.02-10.01H1094.22z"/>
				<path class="st2" d="M1154.25,1145.89l1.52,11.43c-11.99,3.4-24.82,6.88-34.91,9.55l-3.14-12.18
					C1127.17,1152.68,1141.1,1149.23,1154.25,1145.89z M1154.48,1120.53v11.75h-35.17v-11.75H1154.48z M1144.33,1100.57v86.01
					c0,5.99-1.09,9.13-4.58,10.98c-3.57,1.93-8.55,2.28-15.95,2.26c-0.38-3.19-2-8.19-3.49-11.45c4.09,0.19,8.45,0.19,9.8,0.16
					c1.46,0,2.01-0.51,2.01-2.01v-85.96H1144.33z M1187.2,1154.42c-1.53,21.27-5.6,36.78-29.28,45.7c-1.33-3.11-4.61-7.65-7.31-9.91
					c20.18-6.93,22.35-19.04,23.52-35.79H1187.2z M1207.98,1149.78v11.66h-49.32v-11.66H1207.98z M1212.38,1104.72v37.15h-50.18
					v-37.15H1212.38z M1173.76,1130.78h26.3v-15h-26.3V1130.78z M1215.37,1149.78c0,0-0.08,3.46-0.17,5
					c-1.44,25.91-2.95,36.52-6.18,40.31c-2.3,2.88-4.74,3.82-8.15,4.32c-2.89,0.44-7.79,0.49-12.91,0.32
					c-0.27-3.65-1.55-8.63-3.59-11.89c4.38,0.36,8.43,0.47,10.34,0.47c1.68,0,2.71-0.27,3.75-1.39c2.07-2.23,3.4-11.39,4.52-35.17
					v-1.98H1215.37z"/>
				<path class="st2" d="M1248.45,1117.71v79.05h-11.5v-79.05H1248.45z M1270.87,1145.95v10.98h-27v-10.98H1270.87z
					 M1276.79,1117.71v71.22h-32.47v-11.17h20.98v-48.99h-20.98v-11.06H1276.79z M1265.81,1102.53c-2.4,7.16-5.1,14.67-7.21,19.63
					l-10.14-2.27c1.45-5.5,3-13.57,3.53-19.41L1265.81,1102.53z M1303.26,1103.47c-4.17,15.61-11.03,31.69-18.24,41.81
					c-2.26-2.07-7.51-5.72-10.42-7.38c7.07-8.92,13.06-23.31,16.44-37.29L1303.26,1103.47z M1295.77,1141.82
					c5.2,7.3,12.23,17.41,15.5,23.65l-10.75,6.6c-2.91-6.45-9.53-16.88-14.68-24.65L1295.77,1141.82z M1321.64,1116.91v11.58h-30.9
					v-11.58H1321.64z M1328.98,1116.91c0,0,0,4.19-0.08,5.73c-1.41,47.57-2.6,64.44-6.97,70.02c-2.95,4.09-5.9,5.22-10.23,5.9
					c-4,0.6-10.43,0.47-16.63,0.21c-0.21-3.45-1.91-8.84-4.19-12.3c6.81,0.61,13.15,0.63,15.87,0.63c2.11,0,3.3-0.38,4.6-1.83
					c3.43-3.66,4.78-21.83,5.89-65.93v-2.44H1328.98z"/>
				<path class="st2" d="M1373.95,1104.74v11.31h-13.26v83.48h-11.09v-94.79H1373.95z M1372.84,1104.74l1.77-0.46l8.3,4.61
					c-2.64,8.93-5.98,19.73-8.95,27.91c6.18,8.31,7.41,15.89,7.41,22.04c0,6.85-1.3,11.54-4.58,14c-1.68,1.28-3.72,1.95-5.96,2.33
					c-1.91,0.29-4.33,0.29-6.74,0.25c-0.11-3.05-1.02-7.8-2.75-10.9c1.75,0.13,3.15,0.15,4.44,0.11c1.07-0.02,1.98-0.26,2.79-0.81
					c1.18-0.96,1.74-3.32,1.74-6.45c0-4.99-1.22-11.85-6.95-19.31c2.86-9.33,5.98-23.12,7.46-29.76v-3.54H1372.84z M1414.8,1103.79
					c-6.64,15.87-17.38,30.86-28.16,40.36c-2.26-2.18-7.34-5.96-10.25-7.7c11.08-8.34,20.97-21.94,26.55-36.13L1414.8,1103.79z
					 M1412.62,1146.25c-7.67,4-17.18,7.59-25.2,10.13c-0.62-2.28-2.25-6.14-3.58-8.37c7.07-2.73,14.93-6.75,19.8-10.21
					L1412.62,1146.25z M1395.97,1148.01v51.25h-12.13v-51.25H1395.97z M1411.25,1164.29v10.1h-20.29v-10.1H1411.25z
					 M1434.36,1184.32v10.43h-43.19v-10.43H1434.36z M1432.03,1112.35v11.25h-34.32l5.6-11.25H1432.03z M1441.03,1145.06v54.32
					h-12.3v-43.89h-15.23v-10.43H1441.03z M1430.64,1112.35l1.95-0.54l8.54,5.39c-4.24,8.51-11.65,19.37-17.78,26.47
					c-2.45-1.93-6.53-4.63-9.36-6.07c5.45-6.42,11.49-16.56,13.89-22.84v-2.41H1430.64z M1434.35,1164.38v10.1h-19.74v-10.1H1434.35
					z"/>
				<path class="st2" d="M1488.73,1105.12v11.31h-13.08v83.48h-11.83v-94.79H1488.73z M1487.15,1105.12l1.77-0.46l8.54,4.86
					c-2.69,9.68-6.23,21.9-9.24,30.66c6.32,8.49,7.52,16.15,7.52,22.52c0,7.15-1.39,11.77-4.79,14.28c-1.7,1.2-3.77,1.97-6.13,2.27
					c-1.96,0.32-4.47,0.38-6.9,0.25c-0.11-3.15-1.02-8.07-2.75-11.36c1.79,0.26,3.21,0.26,4.52,0.21c1.11-0.02,2.16-0.34,2.89-0.97
					c1.31-0.96,1.78-3.2,1.78-6.41c0-5.12-1.16-12.08-6.91-19.54c2.85-9.82,6.14-25.56,7.61-32.35v-3.96H1487.15z M1521.62,1102.14
					v46.63c0,20.6-2.14,39.04-19.28,51.02c-2.07-2.8-6.67-7.3-9.56-9.2c14.76-10.06,16.62-24.73,16.62-41.9v-46.55H1521.62z
					 M1558.83,1151.35v11.89h-60.6v-11.89H1558.83z M1557.61,1121.36v11.8h-59.35v-11.8H1557.61z M1547.41,1101.97v97h-12.32v-97
					H1547.41z"/>
				<path class="st2" d="M1584.2,1164.89c8.87-2.85,13.74-7.96,13.74-14.08l-0.78-10.37l5.85,9.44c-1.7,1.62-3.94,2.35-6.29,2.35
					c-5.28,0-10.08-3.42-10.08-9.48c0-5.91,4.73-9.5,10.38-9.5c7.47,0,11.44,5.64,11.44,14.53c0,11.96-7.79,21.71-20.92,25.6
					L1584.2,1164.89z"/>
				<path class="st2" d="M743.02,1306.92c-11.15,22.15-31.66,45.31-52.76,57.84c-2.32-3.65-6.54-8.5-10.17-11.46
					c21.33-10.64,41.63-32.75,51.66-53.6L743.02,1306.92z M776.78,1297.59v13.06h-93.13v-13.06H776.78z M752.85,1276.77v82.38
					c0,7.88-1.7,11.46-6.49,13.49c-4.76,2.12-12,2.45-22.55,2.42c-0.54-3.79-2.58-9.78-4.42-13.54c6.64,0.38,14.22,0.35,16.37,0.33
					c2.2-0.11,3.04-0.74,3.04-2.77v-82.32H752.85z"/>
				<path class="st2" d="M812.15,1314.82v23.93c0,11.55-1.39,27.59-8.96,37.64c-1.72-2.39-6.49-7.01-8.87-8.53
					c5.71-8.34,6.2-20,6.2-29.27v-23.77H812.15z M795.44,1300.02c1.92-0.46,3.75-2.02,5.86-4.35c2.05-2.24,8.57-10.49,12.52-18.91
					l12.84,3.73c-5.67,9.25-13.63,18.91-20.32,24.83v0.19c0,0-6.94,3.72-6.94,5.91C798.78,1308.95,796.77,1303.17,795.44,1300.02z
					 M798.99,1302.33l5.8-3.6l32.85-2.59c0.49,3.18,1.55,7.47,2.37,10.03c-32.5,3.15-37.32,3.88-40.6,5.26L798.99,1302.33z
					 M835.48,1314.82v10.57h-29.02v-10.57H835.48z M832.16,1341.96l2.39,7.47c-7.2,5.11-14.56,10.18-21.12,14.54l-3.68-10.77
					C815.47,1350.7,823.78,1346.32,832.16,1341.96z M817.54,1328.32c4.22,3.16,9.99,7.69,12.93,10.45l-6.8,6.43
					c-2.78-2.97-8.46-7.8-12.68-11.2L817.54,1328.32z M840.82,1314.82v49.48c0,5.22-1.05,7.89-4.48,9.6
					c-3.46,1.6-8.23,1.77-14.68,1.77c-0.54-2.91-2.31-7.17-3.82-9.87c3.76,0.21,7.94,0.19,9.22,0.17c1.4,0,1.8-0.42,1.8-1.71v-49.42
					H840.82z M834.92,1284.54c4.38,7.66,10,18.08,12.58,24.46l-11.05,4.49c-2.23-6.48-7.61-17.28-11.9-25.27L834.92,1284.54z
					 M861.12,1277.02v30.38c0,3.89,0.64,5.32,3.93,5.32c2.62,0,12.69,0,15.57,0c2.94,0,7.51-0.27,9.86-0.83
					c0.19,3.26,0.65,7.91,1.11,10.79c-2.2,0.71-6.69,0.89-10.69,0.89c-2.91,0-13.69,0-16.23,0c-12.7,0-16.09-4.54-16.09-16.44v-30.1
					H861.12z M861.12,1326.55v33.29c0,3.83,0.75,4.35,4.88,4.35c1.76,0,9.72,0,12.09,0c3.55,0,4.29-1.78,4.8-11.59
					c2.6,1.95,7.66,3.88,11.09,4.59c-1.38,14.02-4.71,18.07-14.71,18.07c-2.75,0-12.55,0-15.12,0c-12.51,0-15.58-3.64-15.58-15.33
					v-33.38H861.12z M887.19,1289.53v10.84h-30.69v-10.84H887.19z M887.95,1337.12v11.19h-31.43v-11.19H887.95z"/>
				<path class="st2" d="M944.93,1321.39l1.49,11.68c-12.33,3.38-25.71,6.85-36.11,9.51l-3.27-12.16
					C916.84,1328.43,931.34,1324.9,944.93,1321.39z M945.35,1296.86v11.75h-36.95v-11.75H945.35z M933.94,1276.73v85.09
					c0,6.07-1.14,9.21-4.69,11.06c-3.57,1.95-8.68,2.28-16.17,2.28c-0.38-3.24-2-8.32-3.49-11.5c4.14,0.13,8.57,0.11,9.94,0.11
					c1.48-0.02,2.03-0.53,2.03-2.01v-85.03H933.94z M1001,1321.57c-9.57,20.98-28.4,41.15-49.03,50.94
					c-2.34-3.26-6.51-7.26-10.13-9.79c21.49-8.43,39.98-27.54,48.77-47.52L1001,1321.57z M1004.32,1299.3l1.25,11.78l-57.85,5.91
					l-1.25-12.11L1004.32,1299.3z M971.41,1277.25c0.79,45.77,7.12,80.64,20.92,82.71c2.45,0.27,3.8-4.92,4.52-16.28
					c2.47,2.75,8.11,6.17,10.6,7.37c-2.81,19.72-8.53,24.63-14.46,24.09c-26.03-2.68-32.69-40.26-34.54-97.88H971.41z
					 M985.05,1277.76c4.66,4.58,11.17,11.15,14.33,15.34l-10.26,7.06c-2.83-4.3-9.09-11.24-13.73-16.15L985.05,1277.76z"/>
				<path class="st2" d="M1078.47,1351.38l0.71,10.9c-18.61,3.56-38.72,7.19-53.13,9.77l-2.74-11.71
					C1037.17,1358.42,1058.6,1354.82,1078.47,1351.38z M1079.61,1282.94v10.92h-55.24v-10.92H1079.61z M1026.29,1310.27
					c1.67-0.46,3.34-2.14,5.01-4.53c1.62-2.34,6.66-11.01,9.41-19.65l12.3,4.55c-4.02,8.79-10.34,18.47-15.84,24.83v0.19
					c0,0-6.83,3.78-6.83,6.07C1029.63,1319.23,1027.64,1313.5,1026.29,1310.27z M1077.3,1331.51v10.98h-50.43v-10.98H1077.3z
					 M1030.09,1312.93l5.78-3.62l32.05-2.04c1.41,3.24,3.72,7.34,5.15,9.87c-34.54,2.8-39.35,3.17-42.74,4.59L1030.09,1312.93z
					 M1058.23,1322.06v42.74h-11.97v-42.74H1058.23z M1064.43,1293.69c5.58,7.02,12.23,16.5,14.98,22.81l-9.69,6.25
					c-2.52-6.33-8.83-16.27-14.32-23.64L1064.43,1293.69z M1095.42,1286.57v64.19h-11.72v-64.19H1095.42z M1116.33,1277.88v82.22
					c0,6.6-1.3,9.95-5.28,11.9c-4.1,1.95-10.11,2.37-18.37,2.37c-0.54-3.34-2.58-8.83-4.37-12.11c5.61,0.21,11.36,0.21,13.18,0.19
					c1.86-0.02,2.44-0.61,2.44-2.41v-82.16H1116.33z"/>
				<path class="st2" d="M1161.73,1280.34c-5.57,12.56-14.88,25.47-23.86,33.44c-0.51-2.78-2.74-9.8-4.14-12.94
					c7.37-5.77,15.05-15.08,19.54-24.8L1161.73,1280.34z M1171.3,1354.89l0.62,9.97c-11.77,2.92-24.46,5.83-33.96,8.08l-2.19-11.37
					C1144.55,1360.11,1158.25,1357.55,1171.3,1354.89z M1171.13,1321.82v10.73h-33.98v-10.73H1171.13z M1144.96,1336.3
					c1.64,5.75,3.11,13.26,3.61,18.12l-7.61,2.49c-0.28-5.05-1.67-12.64-3.12-18.48L1144.96,1336.3z M1167.65,1303.48v10.57h-25.03
					v-10.57H1167.65z M1159.61,1307.73v56.29l-9.6,1.9v-58.19H1159.61z M1155.17,1281.5c7.24,4.04,15.11,9.9,19.48,14.24l-4.68,10.2
					c-4.37-4.78-12.16-11.13-19.07-15.3L1155.17,1281.5z M1172.07,1337.72c-1.86,6.27-3.56,13.26-5.05,17.75l-6.55-2.26
					c1.22-4.92,2.72-12.57,3.28-17.88L1172.07,1337.72z M1198.41,1365.92c-7.67,3.6-17.59,7.63-24.71,10.41
					c-1.25-2.55-3.53-6.38-5.4-8.99c6.52-2.43,16-6.58,21.54-9.72L1198.41,1365.92z M1187.02,1302.52
					c-0.93,8.28-3.24,15.06-10.75,19.66c-1.02-1.98-3.48-5.01-5.38-6.34c5.41-3.01,7.04-7.83,7.59-13.32H1187.02z M1183.63,1278.86
					c-1.02,6.15-2.98,12.72-5.33,17.01c-1.44-1.08-4.65-2.86-6.4-3.65c2.33-4.15,3.68-9.64,4.46-14.94L1183.63,1278.86z
					 M1201.3,1295.76v7.93h-27v-7.93H1201.3z M1200.6,1283.52v7.71h-23.93l2.49-7.71H1200.6z M1227.29,1320.41v39.09h-48.76v-39.09
					H1227.29z M1193.46,1276.71v23.68h-8.34v-23.68H1193.46z M1186.85,1314.61c1.3-0.78,2.68-2.47,2.68-6.57v-6.85l7.76,0.4v13.02
					c0,0-7.24,4.2-7.24,6.96C1189.56,1319.65,1188.03,1316.2,1186.85,1314.61z M1189.14,1314.9l2.54-2.75l8.98-3.7
					c0.35,1.92,1.08,4.62,1.73,6.06c-8.99,4.45-11.23,5.84-12.34,7.06L1189.14,1314.9z M1190.25,1331.24h24.82v-3.64h-24.82V1331.24
					z M1190.25,1341.73h24.82v-3.69h-24.82V1341.73z M1190.25,1352.32h24.82v-3.79h-24.82V1352.32z M1215.55,1302.49
					c-0.63,8.45-2.81,14.62-10.57,18.52c-0.94-1.89-3.23-4.95-5.05-6.37c5.63-2.44,7.13-6.49,7.5-12.15H1215.55z M1212.96,1278.86
					c-1.08,6.15-3.01,12.78-5.49,17.01c-1.44-1-4.52-2.86-6.35-3.65c2.41-4.15,3.77-9.64,4.58-14.94L1212.96,1278.86z
					 M1234.14,1295.76v7.93h-31.03v-7.93H1234.14z M1211.18,1357.42c7.48,3.32,16.15,7.66,21.41,10.52l-6.3,8.51
					c-4.99-3.01-13.41-7.77-20.62-11.23L1211.18,1357.42z M1232.01,1283.52v7.46h-25.64l2.33-7.46H1232.01z M1223.03,1276.71v22.94
					h-8.45v-22.94H1223.03z M1225.78,1301.35v8.29c0,1.15,0,1.81,0.09,2.1c0.15,0.32,0.52,0.42,0.8,0.42c0.3,0,0.61,0,1.04,0
					c0.35,0,0.73-0.02,0.96-0.15c0.23-0.13,0.36-0.47,0.6-1.15c0.21-0.79,0.32-2.28,0.42-4.28c1.32,1.13,3.59,2.27,5.42,2.89
					c-0.19,2.54-0.56,5.27-1.15,6.31c-0.56,1.09-1.39,1.97-2.46,2.46c-0.99,0.48-2.4,0.75-3.6,0.75c-1.05,0-2.59,0-3.45,0
					c-1.93,0-3.98-0.54-5.16-1.86c-1.26-1.42-1.63-3.03-1.63-7.8v-7.98H1225.78z"/>
				<path class="st2" d="M1294.55,1294.24c-7.79,21.52-20.53,43.78-39.1,57.16c-2.07-2.86-6.26-7.49-8.96-9.83
					c17.07-11.64,28.99-32.48,34.47-50.73L1294.55,1294.24z M1344.82,1283.94v12.46h-93.45v-12.46H1344.82z M1338.8,1319.71v55.88
					h-13.56v-43.72h-42.63v44.14h-12.88v-56.29H1338.8z M1333.39,1357.4v12.22h-58.49v-12.22H1333.39z"/>
				<path class="st2" d="M1377.1,1285.89v71.81h-11.52v-71.81H1377.1z M1395.32,1285.89v62.4h-23.35v-11.66h11.85v-39.1h-11.85
					v-11.64H1395.32z M1411.5,1280.68v32.82c0,18.42-1.81,45.94-14.01,63.14c-2.01-1.95-6.89-5.38-9.6-6.54
					c11.45-16.12,12.37-39.68,12.37-56.6v-32.82H1411.5z M1457.41,1280.68v25.78h-52.03v-9.83h40.33v-6.13h-40.33v-9.83H1457.41z
					 M1461.04,1364.23v9.91h-55.62v-9.91H1461.04z M1460.76,1311.21v9.58h-52.97v-9.58H1460.76z M1410.93,1332.18
					c1.67-0.38,3.31-1.67,4.97-3.46c1.7-1.76,7.13-8.29,10.31-15.12l10.23,5.38c-4.26,6.41-10.25,13.36-15.67,17.94v0.19
					c0,0-6.2,3.28-6.2,5.33C1413.95,1340.18,1412.2,1335,1410.93,1332.18z M1457.38,1346.76v9.52h-46.14v-9.52H1457.38z
					 M1414.3,1334.51l5.22-3.29l30.25-1.71c0.95,2.82,2.64,6.67,3.61,8.87c-31.47,2.4-35.95,2.82-38.84,4.05L1414.3,1334.51z
					 M1439.33,1338.83v29.35h-11.39v-29.35H1439.33z M1448.03,1320.65c4.49,5.27,9.25,12.47,11.11,17.5l-9.19,4.16
					c-1.68-4.94-6.2-12.44-10.53-17.9L1448.03,1320.65z"/>
				<path class="st2" d="M1489.47,1358.13c0-5.52,4.01-9.31,9.34-9.31c5.33,0,9.34,3.8,9.34,9.31c0,5.52-4.01,9.39-9.34,9.39
					C1493.4,1367.51,1489.47,1363.64,1489.47,1358.13z M1490.58,1303.19l-0.49-15.73h17.46l-0.49,15.73l-2.8,36.14h-10.87
					L1490.58,1303.19z"/>
			</g>
		</g>
	</g>
	<g>
		<g>
			<g>
				<rect x="176.34" y="376.31" class="st2" width="545" height="236.12"/>
				<path class="st1" d="M708.51,389.14v210.45H189.18V389.14H708.51 M734.18,363.48H163.51v261.78h570.67V363.48L734.18,363.48z"/>
			</g>
			<g>
				<g>
					<polygon class="st4" points="488.38,180.62 409.3,180.62 369.76,249.11 448.84,318.16 527.93,249.11 					"/>
					<polygon class="st5" points="409.3,180.62 448.84,249.39 488.38,180.62 					"/>
					<polygon class="st5" points="369.76,249.11 409.3,249.11 448.84,318.16 					"/>
					<polygon class="st5" points="448.84,249.39 448.84,318.16 488.38,249.39 					"/>
				</g>
				<g>
					<rect x="500.04" y="208.51" class="st6" width="13.95" height="13.95"/>
					<rect x="513.98" y="194.57" class="st6" width="13.95" height="13.95"/>
					<rect x="486.09" y="194.57" class="st6" width="13.95" height="13.95"/>
					<rect x="500.04" y="180.62" class="st6" width="13.95" height="13.95"/>
				</g>
				<g>
					<rect x="383.71" y="275.87" class="st6" width="13.95" height="13.95"/>
					<rect x="397.65" y="261.93" class="st6" width="13.95" height="13.95"/>
					<rect x="369.76" y="261.93" class="st6" width="13.95" height="13.95"/>
					<rect x="383.71" y="247.98" class="st6" width="13.95" height="13.95"/>
				</g>
			</g>
		</g>
		<g>
			<g>
				<rect x="1438.65" y="376.31" class="st2" width="545" height="236.12"/>
				<path class="st1" d="M1970.82,389.14v210.45h-519.34V389.14H1970.82 M1996.49,363.48h-570.67v261.78h570.67V363.48
					L1996.49,363.48z"/>
			</g>
			<g>
				<polygon class="st7" points="1823.92,194.39 1794.44,202.51 1801.6,232.23 1779.83,210.76 1757.67,231.83 1765.38,202.24 
					1736.05,193.57 1765.53,185.46 1758.38,155.73 1780.14,177.2 1802.31,156.14 1794.6,185.73 				"/>
				<circle class="st8" cx="1703.72" cy="258.34" r="65.33"/>
				<path class="st9" d="M1730.3,215.68c0,0,10.44-14.34,25.41-10.12c15.45,4.36,22.9-8.34,24.28-11.58"/>
				<rect x="1710.78" y="291.5" class="st3" width="13.95" height="13.95"/>
				<rect x="1724.73" y="277.56" class="st3" width="13.95" height="13.95"/>
				<rect x="1738.67" y="263.61" class="st3" width="13.95" height="13.95"/>
				<rect x="1696.84" y="277.56" class="st3" width="13.95" height="13.95"/>
				<rect x="1710.78" y="263.61" class="st3" width="13.95" height="13.95"/>
			</g>
		</g>
	</g>
	<g>
		<g>
			<g>
				<rect x="847.49" y="160.17" class="st0" width="465.09" height="465.09"/>
			</g>
			<g>
				<polygon class="st0" points="1312.59,160.17 1268.94,203.81 1268.94,386.98 1312.59,386.98 				"/>
			</g>
			<g>
				<polygon class="st0" points="1312.59,625.26 1268.94,581.62 1268.94,367.24 1312.59,367.24 				"/>
			</g>
			<g>
				<polygon class="st3" points="847.49,160.17 891.13,203.81 1074.3,203.81 1074.3,160.17 				"/>
			</g>
			<g>
				<polygon class="st3" points="1312.59,160.17 1268.94,203.81 1054.56,203.81 1054.56,160.17 				"/>
			</g>
			<g>
				<polygon class="st10" points="1312.59,625.26 1268.94,581.62 1085.78,581.62 1085.78,625.26 				"/>
			</g>
			<g>
				<polygon class="st10" points="847.49,625.26 891.13,581.62 1105.52,581.62 1105.52,625.26 				"/>
			</g>
		</g>
		<g>
			<g>
				<g>
					<path class="st11" d="M1231.43,430.74c0,62.62-44.8,70.06-100.06,70.06s-100.06-28.69-100.06-86.23s44.8-86.23,100.06-86.23
						S1231.43,357.26,1231.43,430.74z"/>
				</g>
				<g>
					<path class="st8" d="M1079.61,426.11c37.37,0,88.24-47.51,117.43-10c28.47,36.58-13.89,93.15-117.43,93.15
						s-145.89-56.57-117.42-93.15C991.37,378.59,1042.24,426.11,1079.61,426.11z"/>
				</g>
				<g>
					<path class="st11" d="M1079.61,534.19c-35.21,0-65.97-5.88-91.42-17.48c-24.92-11.35-43.1-27.61-52.59-47
						c-11.29-23.09-8.71-48.86,6.9-68.93c9.53-12.24,26.92-26.3,55.69-23.73c16.38,1.46,32.1,7.76,47.3,13.84
						c12.61,5.05,25.64,10.27,34.12,10.27c8.48,0,21.51-5.22,34.12-10.27c15.2-6.09,30.91-12.38,47.3-13.84
						c28.77-2.57,46.16,11.49,55.69,23.73c15.61,20.07,18.2,45.84,6.9,68.93c-9.48,19.39-27.66,35.64-52.59,47
						C1145.58,528.31,1114.82,534.19,1079.61,534.19z M991.27,426.61c-4.78,0-6.91,1.6-9.41,4.81c-4.03,5.17-4.48,10.23-1.46,16.4
						c4.22,8.63,14.59,17.2,28.46,23.52c18.65,8.5,43.11,12.99,70.75,12.99s52.1-4.49,70.75-12.99
						c13.87-6.32,24.24-14.89,28.46-23.52c3.01-6.16,2.56-11.22-1.46-16.4c-2.89-3.72-5.3-5.28-11.9-4.69
						c-9.08,0.81-21.33,5.72-33.18,10.47c-17,6.81-34.57,13.85-52.66,13.85c-18.09,0-35.67-7.04-52.66-13.85
						c-11.85-4.75-24.1-9.66-33.18-10.47C992.86,426.65,992.03,426.61,991.27,426.61z"/>
				</g>
				<g>
					<circle class="st3" cx="1031.31" cy="438.73" r="24.86"/>
				</g>
				<g>
					<circle class="st3" cx="1079.61" cy="450.95" r="24.86"/>
				</g>
				<g>
					<circle class="st3" cx="1128.13" cy="439.82" r="24.86"/>
				</g>
				<g>
					<g>
						<path class="st11" d="M1079.58,451.04c-18.09,0-35.67-7.04-52.66-13.85c-11.85-4.75-24.1-9.66-33.18-10.47
							c-6.6-0.59-9.01,0.97-11.9,4.69c-2.13,2.73-3.24,5.42-3.39,8.22l-49.8-2.7c0.7-12.92,5.48-25.42,13.83-36.14
							c9.53-12.24,26.92-26.3,55.69-23.73c16.38,1.46,32.1,7.76,47.3,13.84c12.61,5.05,25.64,10.27,34.12,10.27
							c8.48,0,21.51-5.22,34.12-10.27c15.2-6.09,30.91-12.38,47.3-13.84c28.76-2.56,46.16,11.49,55.69,23.73
							c6.62,8.51,10.94,17.93,12.84,28l-49.01,9.25c-0.42-2.21-1.49-4.44-3.19-6.63c-2.89-3.72-5.3-5.28-11.9-4.69
							c-9.08,0.81-21.33,5.72-33.18,10.47C1115.25,444,1097.67,451.04,1079.58,451.04z"/>
					</g>
				</g>
			</g>
			<g>
				<ellipse class="st8" cx="1077.13" cy="388.43" rx="16.46" ry="22.32"/>
				<path class="st3" d="M1077.13,413.92c-10.82,0-19.62-11.43-19.62-25.48s8.8-25.48,19.62-25.48s19.62,11.43,19.62,25.48
					S1087.95,413.92,1077.13,413.92z M1077.13,369.28c-7.33,0-13.29,8.59-13.29,19.15s5.96,19.15,13.29,19.15
					s13.29-8.59,13.29-19.15S1084.46,369.28,1077.13,369.28z"/>
			</g>
			<g>
				<ellipse class="st8" cx="1129.87" cy="388.43" rx="16.46" ry="22.32"/>
				<path class="st3" d="M1129.87,413.92c-10.82,0-19.62-11.43-19.62-25.48s8.8-25.48,19.62-25.48s19.62,11.43,19.62,25.48
					S1140.69,413.92,1129.87,413.92z M1129.87,369.28c-7.33,0-13.29,8.59-13.29,19.15s5.96,19.15,13.29,19.15
					s13.29-8.59,13.29-19.15S1137.2,369.28,1129.87,369.28z"/>
			</g>
			<g>
				<ellipse class="st8" cx="1182.6" cy="388.43" rx="16.46" ry="22.32"/>
				<path class="st3" d="M1182.6,413.92c-10.82,0-19.62-11.43-19.62-25.48s8.8-25.48,19.62-25.48s19.62,11.43,19.62,25.48
					S1193.42,413.92,1182.6,413.92z M1182.6,369.28c-7.33,0-13.29,8.59-13.29,19.15s5.96,19.15,13.29,19.15s13.29-8.59,13.29-19.15
					S1189.93,369.28,1182.6,369.28z"/>
			</g>
			<g>
				<path class="st11" d="M1139.11,344.28c-3.18,0-6.07-2.16-6.87-5.39c-0.11-0.43-7.29-27.77-33.57-41.24
					c-22.63-11.6-52.78-10.06-89.61,4.58c-3.63,1.44-7.75-0.33-9.2-3.97c-1.44-3.63,0.33-7.75,3.97-9.2
					c40.91-16.25,75.07-17.57,101.51-3.91c32.09,16.57,40.32,48.98,40.65,50.35c0.93,3.8-1.4,7.63-5.2,8.56
					C1140.23,344.22,1139.67,344.28,1139.11,344.28z"/>
			</g>
			<g>
				<g>
					<g>
						<g>
							<circle class="st3" cx="1001.1" cy="334.95" r="23.99"/>
						</g>
						<g>
							<circle class="st3" cx="970.94" cy="305.27" r="23.99"/>
						</g>
						<g>
							<circle class="st3" cx="989.85" cy="267.42" r="23.99"/>
						</g>
						<g>
							<circle class="st3" cx="1031.69" cy="273.7" r="23.99"/>
						</g>
						<g>
							<circle class="st3" cx="1038.64" cy="315.44" r="23.99"/>
						</g>
					</g>
					<g>
						<circle class="st3" cx="1006.45" cy="299.35" r="26.9"/>
					</g>
				</g>
				<g>
					<rect x="985.75" y="299.35" class="st6" width="20.7" height="20.7"/>
				</g>
				<g>
					<rect x="1006.45" y="278.66" class="st6" width="20.7" height="20.7"/>
				</g>
			</g>
		</g>
	</g>
</g>
</svg>
