<?xml version="1.0" encoding="utf-8"?>
<!-- Generator: Adobe Illustrator 25.2.3, SVG Export Plug-In . SVG Version: 6.00 Build 0)  -->
<svg version="1.1" id="圖層_1" xmlns="http://www.w3.org/2000/svg" xmlns:xlink="http://www.w3.org/1999/xlink" x="0px" y="0px"
	 viewBox="0 0 2160 3840" style="enable-background:new 0 0 2160 3840;" xml:space="preserve">
<style type="text/css">
	.st0{fill:#E9EDF6;}
	.st1{fill:#DCDDDD;}
	.st2{fill:#B8C2C8;}
	.st3{fill:#1D2088;}
	.st4{fill:#FFFFFF;}
	.st5{fill:#B5B5B6;}
	.st6{fill:#44BABC;}
	.st7{fill:#1D2087;}
	.st8{fill:#EEB73D;}
	.st9{fill:#2EA7E0;}
	.st10{fill:#4DCDFF;}
	.st11{fill:#EF8220;}
</style>
<g>
	<rect y="0" class="st0" width="2160" height="3840"/>
</g>
<g>
	<g>
		<rect y="0" class="st1" width="2160" height="3840"/>
	</g>
	<g>
		<g>
			<rect x="39.79" y="43.62" class="st1" width="2082.38" height="3758.18"/>
		</g>
		<g>
			<path class="st2" d="M2109.34,56.45v3732.52H52.63V56.45H2109.34 M2135.01,30.79H26.96v3783.84h2108.05V30.79L2135.01,30.79z"/>
		</g>
	</g>
	<g>
		<g>
			<rect x="39.79" y="733.58" class="st3" width="2082.38" height="3068.22"/>
		</g>
		<g>
			<g>
				<path class="st2" d="M2109.34,746.41v3042.56H52.63V746.41H2109.34 M2135.01,720.75H26.96v3093.89h2108.05V720.75
					L2135.01,720.75z"/>
			</g>
		</g>
	</g>
</g>
<g>
	<path class="st3" d="M325.25,1235.64l3.06,12.95c-14.66,6.6-30.9,13.49-43.38,18.68l-4.58-14.06
		C291.64,1249.39,309.18,1242.31,325.25,1235.64z M306.72,1182.63l2.46,71.51l-13.83,0.54l-2.52-71.51L306.72,1182.63z
		 M374.42,1184.07c-5.22,49.83-18.5,79.57-54.59,95.84c-1.84-2.89-7.34-8.9-10.53-11.71c35.02-13.26,46.41-40.03,50.5-85.43
		L374.42,1184.07z M328.2,1189.55c7.14,8.03,14.11,18.83,17.36,26.46l-12.92,6.94c-2.77-7.65-9.86-19.27-16.61-27.54L328.2,1189.55z
		 M354.97,1234.07c10.03,10.49,24.17,25.05,30.43,34.64l-11.27,10.93c-5.78-9.84-19.21-25.08-29.33-36.28L354.97,1234.07z"/>
	<path class="st3" d="M500.16,1184.51v13.34H401.5v-13.34H500.16z M455.57,1196.42v83.06H441.4v-83.06H455.57z M457.88,1212.61
		c11.98,5.96,29.24,15.53,37.68,22.36l-9.76,12.12c-7.76-6.97-24.5-17.27-36.91-23.96L457.88,1212.61z"/>
	<path class="st3" d="M530.81,1186.15v75.15h-9.71v-75.15H530.81z M546.86,1186.15v64.76h-20.35v-12.05h10.36v-40.69h-10.36v-12.03
		H546.86z M567.42,1187.13v30.03c0,18.45-2.52,45.8-17.72,62.87c-1.47-2.23-5.6-6.5-7.65-7.97c13.56-15.66,14.78-38.18,14.78-55.01
		v-29.92H567.42z M579.63,1233.06v11.08h-29.88v-11.08H579.63z M578.16,1181.34v11.08h-28.33v-11.08H578.16z M578.54,1206.94v11.08
		h-28.68v-11.08H578.54z M583.99,1181.34c0,0,0,4.3-0.09,5.73c-0.37,60.71-0.37,81.27-3.2,86.3c-2.01,3.71-3.88,4.86-6.86,5.48
		c-2.81,0.71-6.15,0.71-10.04,0.55c-0.2-3.31-1.27-8.25-2.94-11.54c2.89,0.24,5.4,0.24,7.08,0.24c1.37,0.09,2.14-0.39,3.02-2.3
		c1.83-3.72,2.16-22.54,2.44-81.34v-3.13H583.99z M610.43,1181.34v10.65H599.3v87.82h-10.83v-98.48H610.43z M610.41,1181.34
		l1.55-0.39l8.03,4.58c-2.4,10.98-5.74,25.81-8.45,35.21c5.65,9.69,6.67,18.26,6.69,25.72c0,7.68-1.33,12.7-4.43,15.22
		c-1.49,1.25-3.45,1.97-5.68,2.36c-1.6,0.22-3.49,0.31-5.71,0.26c-0.02-3.09-0.64-7.78-2.26-11c1.34,0.07,2.44,0.07,3.47,0.05
		c0.88-0.02,1.75-0.29,2.44-1.06c1.06-1.11,1.44-3.9,1.44-7.72c0-6.09-0.73-14-5.91-22.79c2.63-10.85,5.56-29.04,6.78-36.41v-4.03
		H610.41z"/>
	<path class="st3" d="M688.77,1220.1l0.28,12.03c-18.25,2.27-37.82,4.48-51.87,6.13l-1.41-12.99
		C649.28,1224.15,669.75,1222.14,688.77,1220.1z M737.26,1264.28v13.14h-99.87v-13.14H737.26z M654.09,1187.75v39.92l-12.11,1
		v-40.93H654.09z M725.38,1241.26v12.65h-75.22v-12.65H725.38z M673.51,1176.45v50.23l-13.06,0.88v-51.11H673.51z M687.96,1193.11
		v11.77h-21.89v-11.77H687.96z M705.06,1176.45v41.1c0,4.27,0.58,4.89,4.72,4.89c1.72,0,9.59,0,11.86,0c3.53,0,4.21-1.92,4.71-12.65
		c2.79,2.12,8.32,4.3,11.96,5.12c-1.49,15.42-5.13,19.9-15.48,19.9c-2.75,0-12.45,0-14.98,0c-12.86,0-16.03-4.06-16.03-17.2v-41.16
		H705.06z M730.72,1193.22v11.77h-32.17v-11.77H730.72z"/>
	<path class="st3" d="M786.66,1239.23c-3.67,18.13-11.59,32.07-23.75,40.69c-1.98-2.44-6.99-7.25-9.93-9.26
		c11.24-6.88,17.92-18.59,20.51-33.33L786.66,1239.23z M854.39,1223.47v11.6h-97.46v-11.6H854.39z M843.84,1180.19v38.37h-76.7
		v-38.37H843.84z M822.28,1265.66c6.08,0.09,27.31,0,35.21-0.26c-1.86,2.94-3.81,8.77-4.46,12.56h-31.5
		c-25.34,0-40.42-4.47-49.44-27.46l10.99-3.6C789.07,1263.01,803.02,1265.58,822.28,1265.66z M779.94,1195.01h50.48v-5.46h-50.48
		V1195.01z M779.94,1209.19h50.48v-5.5h-50.48V1209.19z M813.41,1229.36v40.7h-13.34v-40.7H813.41z M847.37,1243.28v11.42h-41.16
		v-11.42H847.37z"/>
	<path class="st3" d="M885.49,1250.68c-0.77,9.75-2.5,20.18-4.64,26.94c-2.2-1.19-6.75-2.71-9.17-3.38
		c2.38-6.44,3.59-16.25,4.25-25.16L885.49,1250.68z M872.05,1209.6c1.97-0.59,3.86-2.66,5.92-5.93c2.19-3.13,8.89-15.36,12.58-26.99
		l10.53,4.46c-4.96,11.81-12.13,24.45-18.92,33.04v0.26c0,0-6.49,3.55-6.49,5.68C875.1,1217.87,873.35,1212.57,872.05,1209.6z
		 M872.88,1235c2.62-0.67,4.89-3.32,8.25-7.48c3.5-4.07,14.46-20.2,21.05-35.63l9.56,6.17c-7.63,15.05-18.35,30.54-28.77,41.68v0.28
		c0,0-6.6,3.5-6.6,5.63C875.93,1243.41,874.09,1237.96,872.88,1235z M875.4,1211.72l4.82-3.29l18.54-1.29
		c-0.62,2.96-1.14,7.2-1.23,9.58c-16.59,1.62-19.87,2.41-21.88,3.41L875.4,1211.72z M875.95,1237.03l4.79-3.37l27.94-3.86
		c-0.37,2.85-0.6,7.09-0.49,9.4c-25.27,4.06-29.36,5.14-31.8,6.45L875.95,1237.03z M896.49,1248.34c1.34,7.33,2.52,16.69,2.93,23.01
		l-9.22,2.44c-0.13-6.4-1.28-15.96-2.37-23.29L896.49,1248.34z M907.15,1220.1c2.72,6.61,5.83,15.4,7.23,20.53l-9.19,3.85
		c-1.06-5.41-4.02-14.42-6.52-21.2L907.15,1220.1z M907.62,1245.09c2.49,6.67,5.01,15.18,6.22,20.75l-8.63,3.28
		c-0.95-5.77-3.49-14.53-5.68-21.2L907.62,1245.09z M964.65,1181.14v11.43h-38.89v87.29h-11.71v-98.72H964.65z M959.03,1211.43v9.88
		h-31.29v-9.88H959.03z M958.6,1230.56v9.91h-30.35v-9.91H958.6z M937.08,1194.69c2.18,4.48,4.04,10.6,4.62,14.51l-7.86,2.75
		c-0.41-4.02-2.18-10.22-4.23-14.82L937.08,1194.69z M942.01,1235.95v11.18c0,2.42,0.29,3.38,2.01,3.38c1.35,0,6.36,0,7.78,0
		c1.72,0,4.74-0.17,6.33-0.67c0.2,2.71,0.42,6.48,0.78,8.96c-1.58,0.59-4.4,0.67-6.83,0.67c-1.81,0-7.52,0-9.23,0
		c-9.37,0-11.32-3.56-11.32-12.46v-11.07H942.01z M945.75,1220.53c1.37,2.62,3,6.23,3.7,8.45l-9.36,3.45
		c-0.61-2.44-2.11-6.21-3.39-9.01L945.75,1220.53z M957.88,1197.17c-2.05,6.24-3.99,13.15-5.77,17.69l-7.33-2.15
		c1.45-4.9,3.38-12.56,4.12-17.8L957.88,1197.17z M972.94,1181.14v85.69c0,5.82-0.94,8.86-4.4,10.81
		c-3.46,1.84-8.33,2.12-15.33,2.09c-0.39-3.09-1.8-8.17-3.29-11.16c3.81,0.22,8.05,0.2,9.39,0.2c1.43-0.11,1.87-0.55,1.87-2v-85.62
		H972.94z"/>
	<path class="st3" d="M1035.69,1253.24l1.27,11.66c-15.57,3.83-32.25,7.74-44.8,10.66l-2.23-12.67
		C1001.57,1260.85,1019.2,1256.98,1035.69,1253.24z M1005.53,1224.91v40.05h-10.74v-40.05H1005.53z M1033.69,1180.57v36.53h-38.07
		v-36.53H1033.69z M1007.08,1205.85h14.51v-14.02h-14.51V1205.85z M1022.72,1212.57v49.13h-11.71v-49.13H1022.72z M1034.77,1230.01
		v11.51h-19.07v-11.51H1034.77z M1077.25,1186.9l2.31-0.48l8.35,3.56c-7.97,27.6-26.54,45.16-48.93,54.63
		c-1.56-3-4.86-7.56-7.43-9.93c19.82-7.27,37.24-24.12,43.4-45.64v-2.14H1077.25z M1064.58,1179.43
		c-4.86,14.81-13.06,29.14-21.98,38.2c-2.16-2.35-7.28-6.63-10.21-8.55c8.6-7.66,15.81-19.96,19.66-32.74L1064.58,1179.43z
		 M1086.99,1238.7v40.42h-12.63v-29.34h-20.75v29.67h-12.11v-40.75H1086.99z M1095.47,1231.95c-2.66,2.52-6.45,7.77-8.21,11.13
		c-22.63-8.81-37-28.02-43.8-44.26l8.91-5.79C1058.69,1207.93,1073.01,1224.95,1095.47,1231.95z M1081.56,1264.4v11.34h-34.69
		v-11.34H1081.56z M1079.54,1186.9v11.17h-27.91v-11.17H1079.54z"/>
	<path class="st3" d="M1146.7,1194.71v10.42h-38.13v-10.42H1146.7z M1123.92,1240.45v37.8h-10.76v-37.8H1123.92z M1144.18,1210.17
		v9.97h-30.68v-9.97H1144.18z M1144.18,1225.18v9.97h-30.68v-9.97H1144.18z M1126.86,1176.57c4.08,4.39,8.25,10.43,10.24,14.6
		l-10.47,5.73c-1.8-4.3-5.97-10.88-9.85-15.53L1126.86,1176.57z M1144.41,1240.45v33.28h-24.89v-10.33h14.06v-12.62h-14.06v-10.33
		H1144.41z M1178.68,1205.26c-6,10.97-16.51,21.22-27.33,26.53c-1.84-2.85-5.51-7.32-8.17-9.53c10.18-4.05,20.34-12.08,25.51-20.51
		L1178.68,1205.26z M1174.99,1234.35c-0.96,21.96-4.06,37.15-23.53,45.71c-1.3-2.98-4.63-7.48-7.2-9.75
		c16.03-6.63,17.68-18.24,18.43-35.96H1174.99z M1211.59,1196.98v11.08h-62.64v-11.08H1211.59z M1208.5,1186.16
		c-14.98,3.78-36.19,5.45-53.94,5.78c-0.37-2.85-1.86-7.24-3.07-9.92c17.07-0.69,36.85-2.43,48.66-5.36L1208.5,1186.16z
		 M1186.36,1230.68v11.17h-34.04v-11.17H1186.36z M1185.61,1187.07v41.17h-12.2v-41.17H1185.61z M1209.71,1244.28
		c0,0-0.2,2.97-0.39,4.49c-1.17,16.84-2.49,24.38-5.25,27.42c-2.18,2.41-4.49,3.28-7.67,3.65c-2.7,0.26-7.51,0.32-12.61,0.14
		c-0.2-3.34-1.47-7.92-3.22-10.97c4.16,0.46,8.15,0.49,10,0.49c1.58,0,2.54-0.11,3.51-1.05c1.55-1.64,2.7-7.64,3.57-22.65v-1.52
		H1209.71z M1189.12,1201.24c7.81,6.44,18.2,15.65,23.07,21.82l-9.16,7.41c-4.48-6.23-14.52-15.86-22.42-22.75L1189.12,1201.24z
		 M1197.59,1230.68c-1.45,8.23-3.3,17.71-4.84,24.02h-11.82c1.62-6.55,3.41-16.09,4.47-24.02H1197.59z M1201.3,1244.28v10.42h-15.45
		l2.1-10.42H1201.3z"/>
	<path class="st3" d="M1263.78,1223.61l1.58,11.89c-12.48,3.54-25.82,7.16-36.32,9.94l-3.27-12.67
		C1235.61,1230.68,1250.11,1227.09,1263.78,1223.61z M1264.03,1197.22v12.22h-36.59v-12.22H1264.03z M1253.47,1176.45v89.5
		c0,6.23-1.14,9.5-4.77,11.42c-3.72,2.01-8.89,2.38-16.59,2.35c-0.39-3.32-2.08-8.52-3.64-11.92c4.26,0.2,8.79,0.2,10.2,0.17
		c1.52,0,2.09-0.53,2.09-2.09v-89.44H1253.47z M1298.08,1232.48c-1.59,22.14-5.82,38.27-30.47,47.55c-1.38-3.23-4.8-7.96-7.6-10.31
		c21-7.21,23.25-19.82,24.48-37.24H1298.08z M1319.7,1227.66v12.14h-51.32v-12.14H1319.7z M1324.28,1180.77v38.66h-52.22v-38.66
		H1324.28z M1284.09,1207.89h27.37v-15.61h-27.37V1207.89z M1327.39,1227.66c0,0-0.09,3.6-0.17,5.2c-1.5,26.96-3.07,38-6.43,41.95
		c-2.4,3-4.93,3.98-8.48,4.49c-3.01,0.45-8.1,0.51-13.43,0.33c-0.28-3.8-1.62-8.98-3.74-12.37c4.55,0.38,8.78,0.49,10.76,0.49
		c1.75,0,2.82-0.28,3.9-1.44c2.15-2.32,3.54-11.85,4.7-36.6v-2.06H1327.39z"/>
	<path class="st3" d="M1361.83,1194.28v82.25h-11.96v-82.25H1361.83z M1385.16,1223.67v11.43h-28.09v-11.43H1385.16z
		 M1391.32,1194.28v74.11h-33.79v-11.62h21.83v-50.97h-21.83v-11.51H1391.32z M1379.89,1178.49c-2.5,7.45-5.31,15.27-7.51,20.43
		l-10.56-2.36c1.51-5.72,3.12-14.12,3.67-20.19L1379.89,1178.49z M1418.86,1179.47c-4.34,16.24-11.48,32.97-18.98,43.51
		c-2.35-2.16-7.81-5.95-10.84-7.68c7.36-9.29,13.59-24.25,17.11-38.81L1418.86,1179.47z M1411.07,1219.38
		c5.41,7.6,12.73,18.12,16.12,24.61l-11.18,6.87c-3.03-6.71-9.92-17.56-15.28-25.65L1411.07,1219.38z M1437.99,1193.45v12.05h-32.16
		v-12.05H1437.99z M1445.63,1193.45c0,0,0,4.36-0.09,5.96c-1.46,49.5-2.71,67.05-7.26,72.86c-3.07,4.26-6.14,5.43-10.64,6.14
		c-4.16,0.62-10.86,0.49-17.31,0.22c-0.22-3.59-1.98-9.2-4.36-12.8c7.09,0.64,13.69,0.66,16.51,0.66c2.2,0,3.43-0.39,4.79-1.91
		c3.57-3.81,4.97-22.72,6.13-68.61v-2.53H1445.63z"/>
	<path class="st3" d="M1492.44,1180.79v11.77h-13.8v86.86h-11.54v-98.63H1492.44z M1491.28,1180.79l1.84-0.48l8.63,4.8
		c-2.75,9.29-6.23,20.53-9.32,29.04c6.43,8.65,7.71,16.53,7.71,22.93c0,7.13-1.36,12.01-4.77,14.56c-1.75,1.33-3.88,2.03-6.2,2.42
		c-1.99,0.31-4.51,0.31-7.01,0.26c-0.11-3.17-1.06-8.12-2.86-11.34c1.82,0.13,3.28,0.16,4.62,0.11c1.11-0.02,2.06-0.27,2.91-0.84
		c1.23-1,1.81-3.45,1.81-6.72c0-5.19-1.27-12.34-7.23-20.09c2.98-9.71,6.22-24.06,7.76-30.97v-3.69H1491.28z M1534.94,1179.8
		c-6.91,16.51-18.09,32.12-29.31,42c-2.35-2.27-7.64-6.2-10.67-8.01c11.53-8.67,21.82-22.83,27.63-37.59L1534.94,1179.8z
		 M1532.67,1223.98c-7.98,4.16-17.88,7.9-26.23,10.54c-0.65-2.38-2.34-6.39-3.72-8.71c7.35-2.84,15.54-7.03,20.61-10.62
		L1532.67,1223.98z M1515.35,1225.81v53.33h-12.63v-53.33H1515.35z M1531.25,1242.76v10.51h-21.12v-10.51H1531.25z M1555.3,1263.59
		v10.85h-44.95v-10.85H1555.3z M1552.87,1188.71v11.71h-35.71l5.83-11.71H1552.87z M1562.23,1222.74v56.52h-12.8v-45.67h-15.84
		v-10.85H1562.23z M1551.43,1188.71l2.03-0.56l8.89,5.61c-4.42,8.86-12.12,20.15-18.5,27.55c-2.55-2.01-6.8-4.81-9.74-6.32
		c5.67-6.69,11.96-17.23,14.45-23.76v-2.51H1551.43z M1555.29,1242.85v10.51h-20.54v-10.51H1555.29z"/>
	<path class="st3" d="M1611.89,1181.18v11.77h-13.61v86.86h-12.31v-98.63H1611.89z M1610.25,1181.18l1.84-0.48l8.89,5.06
		c-2.79,10.07-6.48,22.79-9.62,31.9c6.58,8.83,7.82,16.81,7.82,23.43c0,7.44-1.44,12.25-4.99,14.86c-1.77,1.25-3.92,2.05-6.38,2.36
		c-2.04,0.33-4.65,0.39-7.18,0.26c-0.11-3.28-1.06-8.4-2.86-11.82c1.87,0.27,3.34,0.27,4.71,0.22c1.16-0.02,2.25-0.35,3-1.01
		c1.37-1,1.85-3.33,1.85-6.67c0-5.32-1.21-12.57-7.19-20.33c2.96-10.22,6.39-26.59,7.92-33.66v-4.12H1610.25z M1646.12,1178.08
		v48.53c0,21.43-2.22,40.62-20.06,53.09c-2.16-2.92-6.94-7.59-9.95-9.58c15.35-10.46,17.3-25.73,17.3-43.6v-48.44H1646.12z
		 M1684.84,1229.29v12.37h-63.06v-12.37H1684.84z M1683.57,1198.08v12.28h-61.75v-12.28H1683.57z M1672.95,1177.91v100.94h-12.82
		v-100.94H1672.95z"/>
	<path class="st3" d="M1714.8,1185.98v74.94h-11.79v-74.94H1714.8z M1735.58,1186.03v66.06h-25.78v-12.8h14.33v-40.55h-14.33v-12.71
		H1735.58z M1755.06,1181.12v38.06c0,18.21-1.93,43.67-15.14,59.29c-2.18-2.09-7.45-5.46-10.47-6.85
		c12.41-14.52,13.48-36.07,13.48-52.45v-38.06H1755.06z M1799.57,1181.12v33.97h-49.54v-12.05h37.14v-9.89h-37.14v-12.03H1799.57z
		 M1772.5,1219.17v41.74c0,4.1,0.58,4.63,4.44,4.63c1.63,0,9.2,0,11.31,0c3.51,0,4.09-2.03,4.53-13.81
		c2.62,2.03,7.89,4.13,11.28,4.97c-1.32,15.93-4.7,20.43-14.69,20.43c-2.45,0-11.9,0-14.24,0c-12,0-15-3.78-15-16.17v-41.8H1772.5z
		 M1801.65,1232.21v10.42h-31.69v-10.42H1801.65z"/>
	<path class="st3" d="M1850.31,1206.88c0-5.53-3.63-9.01-9.35-9.01c-4.85,0-8.67,2.43-12.22,6.2l-8.96-8.23
		c5.71-6.52,13.58-11.04,23.12-11.04c13.29,0,22.98,6.88,22.98,21c0,15.6-19.19,20.81-17.55,36.32h-14.1
		C1831.59,1224.39,1850.31,1217.35,1850.31,1206.88z M1831.29,1260.84c0-6.02,4.23-10.53,10.06-10.53c5.74,0,10.08,4.5,10.08,10.53
		c0,5.97-4.34,10.56-10.08,10.56C1835.52,1271.4,1831.29,1266.81,1831.29,1260.84z"/>
</g>
<g>
	<g>
		<g>
			<rect x="852.49" y="160.09" class="st1" width="465.17" height="465.17"/>
		</g>
		<g>
			<polygon class="st1" points="1317.66,160.09 1274.01,203.74 1274.01,386.94 1317.66,386.94 			"/>
		</g>
		<g>
			<polygon class="st1" points="1317.66,625.26 1274.01,581.61 1274.01,367.19 1317.66,367.19 			"/>
		</g>
		<g>
			<polygon class="st4" points="852.49,160.09 896.13,203.74 1079.33,203.74 1079.33,160.09 			"/>
		</g>
		<g>
			<polygon class="st4" points="1317.66,160.09 1274.01,203.74 1059.59,203.74 1059.59,160.09 			"/>
		</g>
		<g>
			<polygon class="st5" points="1317.66,625.26 1274.01,581.61 1090.81,581.61 1090.81,625.26 			"/>
		</g>
		<g>
			<polygon class="st5" points="852.49,625.26 896.13,581.61 1110.55,581.61 1110.55,625.26 			"/>
		</g>
	</g>
	<g>
		<g>
			<g>
				<path class="st6" d="M1236.49,430.7c0,62.63-44.81,70.07-100.08,70.07c-55.27,0-100.08-28.69-100.08-86.25
					s44.81-86.25,100.08-86.25C1191.68,328.28,1236.49,357.21,1236.49,430.7z"/>
			</g>
			<g>
				<path class="st7" d="M1084.64,426.07c37.38,0,88.25-47.52,117.45-10.01c28.47,36.59-13.89,93.17-117.45,93.17
					s-145.92-56.58-117.45-93.17C996.39,378.55,1047.27,426.07,1084.64,426.07z"/>
			</g>
			<g>
				<path class="st6" d="M1084.64,534.17c-35.22,0-65.98-5.88-91.44-17.48c-24.92-11.36-43.11-27.61-52.59-47
					c-11.29-23.1-8.71-48.87,6.91-68.94c9.53-12.25,26.92-26.3,55.7-23.74c16.39,1.46,32.1,7.76,47.3,13.85
					c12.61,5.05,25.65,10.27,34.13,10.27s21.52-5.22,34.13-10.27c15.2-6.09,30.92-12.38,47.3-13.85
					c28.77-2.57,46.17,11.49,55.7,23.74c15.62,20.07,18.2,45.84,6.91,68.94c-9.48,19.39-27.67,35.65-52.59,47
					C1150.63,528.29,1119.86,534.17,1084.64,534.17z M996.29,426.57c-4.78,0-6.91,1.6-9.41,4.81c-4.03,5.18-4.48,10.23-1.46,16.4
					c4.22,8.63,14.6,17.2,28.47,23.52c18.65,8.5,43.12,12.99,70.76,12.99s52.11-4.49,70.76-12.99
					c13.87-6.32,24.25-14.89,28.47-23.52c3.02-6.17,2.56-11.22-1.46-16.4c-2.89-3.72-5.3-5.28-11.9-4.69
					c-9.08,0.81-21.34,5.72-33.19,10.47c-17,6.81-34.58,13.85-52.67,13.85s-35.67-7.04-52.67-13.85
					c-11.85-4.75-24.11-9.66-33.19-10.47C997.88,426.61,997.05,426.57,996.29,426.57z"/>
			</g>
			<g>
				<circle class="st4" cx="1036.33" cy="438.7" r="24.87"/>
			</g>
			<g>
				<circle class="st4" cx="1084.64" cy="450.92" r="24.87"/>
			</g>
			<g>
				<circle class="st4" cx="1133.17" cy="439.79" r="24.87"/>
			</g>
			<g>
				<g>
					<path class="st6" d="M1084.61,451.01c-18.1,0-35.67-7.04-52.67-13.85c-11.85-4.75-24.11-9.66-33.19-10.47
						c-6.6-0.59-9.01,0.97-11.9,4.69c-2.13,2.73-3.24,5.42-3.39,8.22l-49.81-2.7c0.7-12.93,5.48-25.43,13.83-36.15
						c9.53-12.25,26.92-26.3,55.7-23.74c16.39,1.46,32.1,7.76,47.3,13.85c12.61,5.05,25.65,10.27,34.13,10.27
						s21.52-5.22,34.13-10.27c15.2-6.09,30.92-12.38,47.3-13.85c28.77-2.56,46.17,11.49,55.7,23.74
						c6.62,8.51,10.94,17.93,12.84,28.01l-49.01,9.25c-0.42-2.21-1.49-4.44-3.19-6.63c-2.89-3.72-5.3-5.28-11.9-4.69
						c-9.08,0.81-21.34,5.72-33.19,10.47C1120.29,443.97,1102.71,451.01,1084.61,451.01z"/>
				</g>
			</g>
		</g>
		<g>
			<ellipse class="st7" cx="1082.17" cy="388.39" rx="16.46" ry="22.32"/>
			<path class="st4" d="M1082.17,413.88c-10.82,0-19.62-11.43-19.62-25.49s8.8-25.49,19.62-25.49s19.62,11.43,19.62,25.49
				S1092.99,413.88,1082.17,413.88z M1082.17,369.24c-7.33,0-13.29,8.59-13.29,19.16s5.96,19.16,13.29,19.16
				c7.33,0,13.29-8.59,13.29-19.16S1089.5,369.24,1082.17,369.24z"/>
		</g>
		<g>
			<ellipse class="st7" cx="1134.91" cy="388.39" rx="16.46" ry="22.32"/>
			<path class="st4" d="M1134.91,413.88c-10.82,0-19.62-11.43-19.62-25.49s8.8-25.49,19.62-25.49s19.62,11.43,19.62,25.49
				S1145.73,413.88,1134.91,413.88z M1134.91,369.24c-7.33,0-13.29,8.59-13.29,19.16s5.96,19.16,13.29,19.16s13.29-8.59,13.29-19.16
				S1142.24,369.24,1134.91,369.24z"/>
		</g>
		<g>
			<ellipse class="st7" cx="1187.65" cy="388.39" rx="16.46" ry="22.32"/>
			<path class="st4" d="M1187.65,413.88c-10.82,0-19.62-11.43-19.62-25.49s8.8-25.49,19.62-25.49s19.62,11.43,19.62,25.49
				S1198.48,413.88,1187.65,413.88z M1187.65,369.24c-7.33,0-13.29,8.59-13.29,19.16s5.96,19.16,13.29,19.16s13.29-8.59,13.29-19.16
				S1194.98,369.24,1187.65,369.24z"/>
		</g>
		<g>
			<path class="st6" d="M1144.15,344.23c-3.18,0-6.08-2.16-6.87-5.39c-0.12-0.47-7.31-27.78-33.58-41.24
				c-22.63-11.6-52.79-10.06-89.63,4.58c-3.64,1.44-7.75-0.33-9.2-3.97c-1.44-3.64,0.33-7.75,3.97-9.2
				c40.92-16.25,75.08-17.57,101.53-3.91c32.09,16.57,40.32,48.99,40.66,50.36c0.93,3.8-1.4,7.63-5.2,8.56
				C1145.27,344.17,1144.71,344.23,1144.15,344.23z"/>
		</g>
		<g>
			<g>
				<g>
					<g>
						<circle class="st4" cx="1006.12" cy="334.9" r="24"/>
					</g>
					<g>
						<circle class="st4" cx="975.96" cy="305.22" r="24"/>
					</g>
					<g>
						<circle class="st4" cx="994.87" cy="267.36" r="24"/>
					</g>
					<g>
						<circle class="st4" cx="1036.71" cy="273.64" r="24"/>
					</g>
					<g>
						<circle class="st4" cx="1043.67" cy="315.38" r="24"/>
					</g>
				</g>
				<g>
					<circle class="st4" cx="1011.46" cy="299.3" r="26.9"/>
				</g>
			</g>
			<g>
				<rect x="990.76" y="299.3" class="st8" width="20.7" height="20.7"/>
			</g>
			<g>
				<rect x="1011.46" y="278.6" class="st8" width="20.7" height="20.7"/>
			</g>
		</g>
	</g>
</g>
<g>
	<g>
		<g>
			<g>
				<rect x="181.42" y="376.31" class="st3" width="545" height="236.12"/>
			</g>
			<g>
				<path class="st2" d="M713.59,389.14v210.45H194.25V389.14H713.59 M739.25,363.48H168.58v261.78h570.67V363.48L739.25,363.48z"/>
			</g>
		</g>
		<g>
			<g>
				<g>
					<polygon class="st9" points="493.46,180.62 414.37,180.62 374.83,249.11 453.91,318.16 533,249.11 					"/>
				</g>
				<g>
					<polygon class="st10" points="414.37,180.62 453.91,249.39 493.46,180.62 					"/>
				</g>
				<g>
					<polygon class="st10" points="374.83,249.11 414.37,249.11 453.91,318.16 					"/>
				</g>
				<g>
					<polygon class="st10" points="453.91,249.39 453.91,318.16 493.46,249.39 					"/>
				</g>
			</g>
			<g>
				<g>
					<rect x="505.11" y="208.51" class="st8" width="13.95" height="13.95"/>
				</g>
				<g>
					<rect x="519.05" y="194.57" class="st8" width="13.95" height="13.95"/>
				</g>
				<g>
					<rect x="491.16" y="194.57" class="st8" width="13.95" height="13.95"/>
				</g>
				<g>
					<rect x="505.11" y="180.62" class="st8" width="13.95" height="13.95"/>
				</g>
			</g>
			<g>
				<g>
					<rect x="388.78" y="275.87" class="st8" width="13.95" height="13.95"/>
				</g>
				<g>
					<rect x="402.72" y="261.93" class="st8" width="13.95" height="13.95"/>
				</g>
				<g>
					<rect x="374.83" y="261.93" class="st8" width="13.95" height="13.95"/>
				</g>
				<g>
					<rect x="388.78" y="247.98" class="st8" width="13.95" height="13.95"/>
				</g>
			</g>
		</g>
	</g>
	<g>
		<g>
			<g>
				<rect x="1443.73" y="376.31" class="st3" width="545" height="236.12"/>
			</g>
			<g>
				<path class="st2" d="M1975.9,389.14v210.45h-519.34V389.14H1975.9 M2001.56,363.48h-570.67v261.78h570.67V363.48L2001.56,363.48
					z"/>
			</g>
		</g>
		<g>
			<g>
				<polygon class="st11" points="1828.99,194.39 1799.51,202.51 1806.67,232.23 1784.9,210.76 1762.74,231.83 1770.45,202.24 
					1741.13,193.57 1770.6,185.46 1763.45,155.73 1785.21,177.2 1807.38,156.14 1799.67,185.73 				"/>
			</g>
			<g>
				<circle class="st7" cx="1708.79" cy="258.34" r="65.33"/>
			</g>
			<g>
				<path class="st7" d="M1735.37,218.8c-0.64,0-1.28-0.19-1.83-0.6c-1.39-1.01-1.7-2.97-0.69-4.36
					c0.48-0.66,11.92-16.05,28.78-11.29c14.48,4.09,20.32-9.22,20.56-9.79c0.67-1.59,2.51-2.33,4.09-1.66
					c1.59,0.67,2.33,2.5,1.66,4.09c-2.78,6.57-12.22,17.82-28,13.36c-12.73-3.6-21.94,8.83-22.04,8.95
					C1737.29,218.36,1736.34,218.8,1735.37,218.8z"/>
			</g>
			<g>
				<rect x="1715.85" y="291.5" class="st4" width="13.95" height="13.95"/>
			</g>
			<g>
				<rect x="1729.8" y="277.56" class="st4" width="13.95" height="13.95"/>
			</g>
			<g>
				<rect x="1743.74" y="263.61" class="st4" width="13.95" height="13.95"/>
			</g>
			<g>
				<rect x="1701.91" y="277.56" class="st4" width="13.95" height="13.95"/>
			</g>
			<g>
				<rect x="1715.85" y="263.61" class="st4" width="13.95" height="13.95"/>
			</g>
		</g>
	</g>
</g>
<g>
	<g>
		<path class="st4" d="M1925.32,1498.81H237.68c-57.03,0-103.25-46.23-103.25-103.25v-314.14c0-57.03,46.23-103.25,103.25-103.25
			h1687.64c57.03,0,103.25,46.23,103.25,103.25v314.14C2028.58,1452.58,1982.35,1498.81,1925.32,1498.81z"/>
	</g>
	<g>
		<path class="st3" d="M771.53,1135.64l3.06,12.95c-14.66,6.6-30.9,13.49-43.38,18.68l-4.58-14.06
			C737.91,1149.39,755.44,1142.31,771.53,1135.64z M752.99,1082.63l2.46,71.51l-13.83,0.54l-2.52-71.51L752.99,1082.63z
			 M820.69,1084.07c-5.21,49.83-18.5,79.57-54.59,95.84c-1.84-2.89-7.34-8.9-10.53-11.71c35.02-13.26,46.41-40.03,50.5-85.43
			L820.69,1084.07z M774.47,1089.55c7.13,8.03,14.11,18.83,17.36,26.46l-12.92,6.94c-2.77-7.65-9.86-19.27-16.61-27.54
			L774.47,1089.55z M801.24,1134.07c10.03,10.49,24.17,25.05,30.43,34.64l-11.27,10.93c-5.78-9.84-19.21-25.08-29.33-36.28
			L801.24,1134.07z"/>
		<path class="st3" d="M946.43,1084.51v13.34h-98.66v-13.34H946.43z M901.84,1096.42v83.06h-14.17v-83.06H901.84z M904.15,1112.61
			c11.98,5.96,29.24,15.53,37.68,22.36l-9.76,12.12c-7.76-6.97-24.5-17.27-36.91-23.96L904.15,1112.61z"/>
		<path class="st3" d="M977.08,1086.15v75.15h-9.71v-75.15H977.08z M993.13,1086.15v64.76h-20.35v-12.05h10.36v-40.69h-10.36v-12.03
			H993.13z M1013.69,1087.13v30.03c0,18.45-2.52,45.8-17.72,62.87c-1.47-2.23-5.6-6.5-7.65-7.97
			c13.56-15.66,14.78-38.18,14.78-55.01v-29.92H1013.69z M1025.9,1133.06v11.08h-29.88v-11.08H1025.9z M1024.43,1081.34v11.08H996.1
			v-11.08H1024.43z M1024.81,1106.94v11.08h-28.68v-11.08H1024.81z M1030.26,1081.34c0,0,0,4.3-0.09,5.73
			c-0.37,60.71-0.37,81.27-3.2,86.3c-2.01,3.71-3.88,4.86-6.86,5.48c-2.81,0.71-6.14,0.71-10.04,0.55
			c-0.2-3.31-1.27-8.25-2.94-11.54c2.89,0.24,5.4,0.24,7.08,0.24c1.37,0.09,2.14-0.39,3.02-2.3c1.83-3.72,2.16-22.54,2.45-81.34
			v-3.13H1030.26z M1056.69,1081.34v10.65h-11.13v87.82h-10.82v-98.48H1056.69z M1056.68,1081.34l1.56-0.39l8.03,4.58
			c-2.4,10.98-5.74,25.81-8.45,35.21c5.65,9.69,6.67,18.26,6.69,25.72c0,7.68-1.33,12.7-4.43,15.22c-1.49,1.25-3.45,1.97-5.68,2.36
			c-1.6,0.22-3.49,0.31-5.71,0.26c-0.02-3.09-0.63-7.78-2.26-11c1.34,0.07,2.44,0.07,3.47,0.05c0.88-0.02,1.74-0.29,2.44-1.06
			c1.06-1.11,1.44-3.9,1.44-7.72c0-6.09-0.73-14-5.91-22.79c2.63-10.85,5.56-29.04,6.78-36.41v-4.03H1056.68z"/>
		<path class="st3" d="M1135.04,1120.1l0.28,12.03c-18.25,2.27-37.82,4.48-51.88,6.13l-1.41-12.99
			C1095.55,1124.15,1116.02,1122.14,1135.04,1120.1z M1183.53,1164.28v13.14h-99.87v-13.14H1183.53z M1100.36,1087.75v39.92
			l-12.11,1v-40.93H1100.36z M1171.65,1141.26v12.65h-75.22v-12.65H1171.65z M1119.78,1076.45v50.23l-13.06,0.88v-51.11H1119.78z
			 M1134.23,1093.11v11.77h-21.89v-11.77H1134.23z M1151.33,1076.45v41.1c0,4.27,0.58,4.89,4.72,4.89c1.72,0,9.59,0,11.86,0
			c3.53,0,4.21-1.92,4.71-12.65c2.79,2.12,8.31,4.3,11.96,5.12c-1.49,15.42-5.13,19.9-15.48,19.9c-2.75,0-12.45,0-14.98,0
			c-12.86,0-16.03-4.06-16.03-17.2v-41.16H1151.33z M1176.99,1093.22v11.77h-32.17v-11.77H1176.99z"/>
		<path class="st3" d="M1241.47,1105.17c-8.64,14.6-22.16,30.06-34,39.74c-1.84-2.78-6.33-8.73-8.99-11.43
			c11.21-7.84,23.24-20.6,30.47-33.1L1241.47,1105.17z M1237.45,1081.67c-8,10.43-19.89,21.81-30.42,29.14
			c-1.67-2.98-5.08-8.22-7.37-10.83c9.15-5.89,19.76-15.85,25.07-23.58L1237.45,1081.67z M1228.04,1114.58l1.68,0.65v64.62h-13.23
			v-53.66L1228.04,1114.58z M1302.55,1113.2v12.54h-61.32v-12.54H1302.55z M1299.65,1082.7v12.57h-53.73v-12.57H1299.65z
			 M1287.32,1116.96v47.5c0,7.05-1.36,10.77-6.2,12.8c-4.72,1.98-11.71,2.16-21.56,2.16c-0.48-3.86-2.23-9.59-4-13.41
			c6.26,0.31,13.59,0.31,15.57,0.26c2.03-0.02,2.71-0.49,2.71-2.12v-47.19H1287.32z"/>
		<path class="st3" d="M1346.84,1105.26v13.71c0,16.84-2.92,42.75-17.85,59.25c-2.07-2.4-7.4-6.61-10.12-8.02
			c13.93-15.07,15.51-36.68,15.51-51.4v-13.53H1346.84z M1410.73,1085.95c-21.73,5.44-55.68,7.36-83.32,7.43
			c-0.2-2.6-1.47-6.57-2.51-8.97c27.39-0.38,60.39-2.33,78.58-6.84L1410.73,1085.95z M1343.25,1092.27
			c2.89,3.09,6.16,7.27,7.56,10.33l-11.98,3.94c-1.15-2.81-4.15-7.33-6.94-10.47L1343.25,1092.27z M1356.53,1157.17
			c-1.57,7.52-3.98,16.18-8.12,21.59l-9.7-4.48c3.88-5.08,6.74-13.18,8.12-20.25L1356.53,1157.17z M1409.42,1139.09v10.91h-69.05
			v-10.91H1409.42z M1400.7,1122.09v10.51h-59.63v-10.51H1400.7z M1391.11,1105.26v10.48h-48.42v-10.48H1391.11z M1368.54,1155.61
			c1.42,5.93,2.12,13.76,1.95,18.76l-9.52,1.3c0.37-5-0.19-12.92-1.39-19.01L1368.54,1155.61z M1371.49,1090.76
			c2.82,3.05,5.69,7.28,6.79,10.43l-12.06,3.92c-0.98-2.89-3.63-7.4-6.21-10.67L1371.49,1090.76z M1381.82,1154.08
			c2.25,5.45,4.14,12.58,4.5,17.06l-9.04,2.13c-0.36-4.42-1.94-11.83-3.96-17.37L1381.82,1154.08z M1387.39,1105.26l2.01-0.5
			l8.83,0.87c-0.63,7.53-1.71,14.61-2.7,20.37l-11.96-1.19c1.1-6.09,2.11-13.78,2.55-18.29v-1.26H1387.39z M1407.31,1092.91
			c-4.23,5.4-8.57,11.02-12.02,14.62l-9.74-4.2c3.14-4.14,7.15-10.55,9.25-15.18L1407.31,1092.91z M1394.31,1151.89
			c2.44,3.98,4.99,9.38,5.89,12.98l-8.34,3.02c-0.82-3.55-3.2-9.24-5.55-13.33L1394.31,1151.89z M1418.61,1139.09
			c0,0-0.11,2.97-0.3,4.43c-1.25,20.04-2.75,28.27-5.52,31.36c-2.03,2.43-4.32,3.33-7.11,3.67c-2.54,0.34-6.73,0.43-11.24,0.25
			c-0.2-3.02-1.3-7.29-2.79-10.05c3.2,0.35,5.98,0.46,7.46,0.46c1.42,0,2.23-0.2,3.09-1.25c1.65-1.83,2.96-8.85,3.94-27.18v-1.69
			H1418.61z M1397.68,1122.09l1.95-0.5l8.98,1.04c-0.75,7.64-1.91,14.8-3.04,20.66l-12.16-1.27c1.27-6.17,2.4-14.06,2.92-18.57
			v-1.35H1397.68z"/>
		<path class="st3" d="M313.35,1283.82v13.34h-99.66v-13.34H313.35z M236.69,1309.45v51.25h-12.8v-51.25H236.69z M270.8,1309.45
			v42.81h-41.48v-12.56h28.4v-17.7h-28.4v-12.54H270.8z M300.59,1287.46v75.63c0,7.91-1.87,11.9-7.14,14.01
			c-5.44,2.27-13.5,2.5-24.81,2.5c-0.76-3.88-3.45-10.42-5.55-14.03c7.9,0.5,17.55,0.39,20.19,0.37c2.54-0.05,3.46-0.79,3.46-3.1
			v-75.37H300.59z"/>
		<path class="st3" d="M374.37,1335.64l3.06,12.95c-14.66,6.6-30.9,13.49-43.38,18.68l-4.58-14.06
			C340.75,1349.39,358.29,1342.31,374.37,1335.64z M355.83,1282.63l2.46,71.51l-13.83,0.54l-2.52-71.51L355.83,1282.63z
			 M423.53,1284.07c-5.22,49.83-18.5,79.57-54.59,95.84c-1.84-2.89-7.34-8.9-10.53-11.71c35.02-13.26,46.41-40.03,50.5-85.43
			L423.53,1284.07z M377.32,1289.55c7.14,8.03,14.11,18.83,17.37,26.46l-12.92,6.94c-2.77-7.65-9.86-19.27-16.61-27.54
			L377.32,1289.55z M404.08,1334.07c10.03,10.49,24.17,25.05,30.43,34.64l-11.27,10.93c-5.78-9.84-19.21-25.08-29.33-36.28
			L404.08,1334.07z"/>
		<path class="st3" d="M466.9,1328.83l2.06-0.28l6.27,2.14c-2.81,23.68-9.92,40.44-20.56,49.31c-1.67-2.6-5.88-7.21-8.28-8.96
			c9.48-7.55,15.32-21.56,17.37-40.21v-2H466.9z M447.96,1330.3c1.69-0.53,3.25-1.36,4.88-3.59c2.45-2.96,9.68-17.41,12.36-23.36
			v-0.42l3.04-1.26l8.03,2.69c-3.8,7.52-10.98,22.19-15.68,29.25c0,0-8.52,4.19-8.52,7.14
			C451.41,1338.01,449.11,1332.57,447.96,1330.3z M467.9,1302.39v10.51h-18.48v-10.51H467.9z M460.6,1276.95
			c4.93,5.16,10.86,11.96,13.9,16.36l-9.87,6.91c-2.77-4.59-8.77-12.18-13.59-17.57L460.6,1276.95z M452.06,1331.2l4.56-2.37h12.17
			v10.22h-10.43c-2.24,0-5.37,0.77-6.31,1.69V1331.2z M509.86,1366.59c12.06,0.09,30.57-0.67,43.28-1.98
			c-1.89,2.79-3.67,8.67-4.32,12.32c-11.67,0.64-26.04,1.03-39.19,1.03c-25.97,0-39.82-3.39-48.03-24.51l8.81-3.54
			C476.38,1364.76,489.52,1366.59,509.86,1366.59z M491.58,1281.02v19.06c0,15.27-2.05,38.48-12.34,53.73
			c-1.58-2.23-5.88-6.33-7.93-7.63c8.92-13.65,9.85-32.73,9.85-46.19v-18.98H491.58z M510.65,1322.8v35.58h-25.97v-35.58H510.65z
			 M509.94,1281.02v32.74h-22.26v-9.97h12.04v-12.81h-12.04v-9.97H509.94z M494.31,1349.51h6.09v-17.85h-6.09V1349.51z
			 M550.83,1315.52v10.51H512.4v-10.51H550.83z M550.12,1289.15v10.4h-36.88v-10.4H550.12z M549.97,1333.96v10.4h-36.57v-10.4
			H549.97z M525.15,1299.77c2.03,4.05,3.92,9.48,4.56,13.08l-9.32,2.92c-0.46-3.65-2.19-9.31-4.08-13.53L525.15,1299.77z
			 M532.89,1276.38c2.37,4.61,4.63,10.69,5.67,14.64l-11.21,3.65c-0.76-4.14-3.02-10.48-5.08-15.18L532.89,1276.38z M537.91,1319.31
			v41.26h-11.94v-41.26H537.91z M548.42,1302.1c-2.81,6.26-5.73,13.09-8.18,17.52l-8.58-2.34c2.2-4.87,4.8-12.35,6.09-17.6
			L548.42,1302.1z"/>
		<path class="st3" d="M610.85,1278.72c-8.47,14.58-19.91,28.92-36.07,40.9c-2.01-3.09-6.28-7.74-9.31-9.83
			c14.71-9.8,25.23-22.81,31.08-33.87L610.85,1278.72z M625.9,1311.84c-2.48,29.28-7.64,54.89-51.12,67.11
			c-1.36-3.37-4.58-8.31-7.47-11.12c40.27-10.19,42.64-31.53,44.62-55.99H625.9z M660.67,1303.96v37.57h-82.43v-37.57H660.67z
			 M591.46,1329.83h55.18v-14.18h-55.18V1329.83z M630.87,1283.68v10.74h-39.22l6.51-10.74H630.87z M629.88,1283.68l2.12-0.56
			l9.21,5.89c-4.28,7.47-11.68,17.23-17.68,23.33c-2.59-1.98-7.01-4.85-10.01-6.47c5.21-5.48,11.1-14.34,13.38-19.7v-2.49H629.88z
			 M636.05,1336.59v25.24c0,3.68,0.67,4.14,4.81,4.14c1.81,0,9.45,0,11.73,0c3.87,0,4.58-2,5.02-14.12
			c2.77,2.09,8.35,4.19,12.03,5.03c-1.43,16.33-4.9,20.79-15.82,20.79c-2.75,0-12.41,0-14.96,0c-13.29,0-16.54-3.84-16.54-15.68
			v-25.41H636.05z"/>
		<path class="st3" d="M719.84,1322.99l1.36,12.15c-11.38,3.52-23.84,7.08-33.55,9.82l-3.04-12.65
			C693.71,1330.25,707.24,1326.62,719.84,1322.99z M710.28,1276.45v88.61c0,6.43-1.19,9.69-4.91,11.73
			c-3.78,1.98-9.11,2.41-16.89,2.33c-0.48-3.34-2.17-8.72-3.75-12.09c4.25,0.11,8.94,0.11,10.37,0.09c1.52-0.02,2.09-0.55,2.09-2.11
			v-88.55H710.28z M720.5,1296.96v12.22h-35.1v-12.22H720.5z M787.68,1351.51v11.51h-69.87v-11.51H787.68z M782.46,1302.08v42.59
			h-59.5v-42.59H782.46z M735.44,1318.62h33.94v-6.58h-33.94V1318.62z M735.44,1334.68h33.94v-6.69h-33.94V1334.68z M758.94,1276.43
			v29.55h-13.06v-29.55H758.94z M758.99,1337.55v42.2h-13.05v-42.2H758.99z M785.81,1284.31v11.08h-31.62v-11.08H785.81z"/>
		<path class="st3" d="M859.94,1309.47c-7.71,32.62-22.29,56.25-45.26,70.13c-2.44-2.78-8.59-8.3-12.06-10.77
			c23.02-11.63,36.2-33.01,42.22-62.08L859.94,1309.47z M856.05,1282.57V1296h-31.21v-13.42H856.05z M863.21,1282.57
			c0,20.94,2.92,61.4,43.69,85.31c-3,2.35-8.35,8.17-10.64,11.51c-41.88-25.22-46.7-74.31-46.7-96.83H863.21z"/>
		<path class="st3" d="M934.61,1350.68c-0.77,9.75-2.5,20.18-4.64,26.94c-2.21-1.19-6.75-2.71-9.17-3.38
			c2.38-6.44,3.59-16.25,4.25-25.16L934.61,1350.68z M921.16,1309.6c1.97-0.59,3.86-2.66,5.92-5.93
			c2.19-3.13,8.89-15.36,12.58-26.99l10.53,4.46c-4.96,11.81-12.13,24.45-18.92,33.04v0.26c0,0-6.49,3.55-6.49,5.68
			C924.21,1317.87,922.46,1312.57,921.16,1309.6z M921.99,1335c2.62-0.67,4.89-3.32,8.25-7.48c3.49-4.07,14.46-20.2,21.05-35.63
			l9.56,6.17c-7.63,15.05-18.36,30.54-28.77,41.68v0.28c0,0-6.6,3.5-6.6,5.63C925.04,1343.41,923.21,1337.96,921.99,1335z
			 M924.52,1311.72l4.82-3.29l18.54-1.29c-0.62,2.96-1.14,7.2-1.22,9.58c-16.59,1.62-19.87,2.41-21.88,3.41L924.52,1311.72z
			 M925.07,1337.03l4.79-3.37l27.94-3.86c-0.37,2.85-0.6,7.09-0.49,9.4c-25.27,4.06-29.36,5.14-31.8,6.45L925.07,1337.03z
			 M945.6,1348.34c1.34,7.33,2.52,16.69,2.93,23.01l-9.22,2.44c-0.13-6.4-1.28-15.96-2.37-23.29L945.6,1348.34z M956.26,1320.1
			c2.72,6.61,5.83,15.4,7.23,20.53l-9.2,3.85c-1.06-5.41-4.02-14.42-6.52-21.2L956.26,1320.1z M956.73,1345.09
			c2.49,6.67,5.01,15.18,6.22,20.75l-8.63,3.28c-0.95-5.77-3.49-14.53-5.68-21.2L956.73,1345.09z M1013.76,1281.14v11.43h-38.89
			v87.29h-11.71v-98.72H1013.76z M1008.14,1311.43v9.88h-31.29v-9.88H1008.14z M1007.72,1330.56v9.91h-30.35v-9.91H1007.72z
			 M986.2,1294.69c2.18,4.48,4.04,10.6,4.62,14.51l-7.86,2.75c-0.41-4.02-2.18-10.22-4.23-14.82L986.2,1294.69z M991.12,1335.95
			v11.18c0,2.42,0.29,3.38,2.01,3.38c1.35,0,6.36,0,7.78,0c1.72,0,4.74-0.17,6.33-0.67c0.2,2.71,0.41,6.48,0.78,8.96
			c-1.58,0.59-4.4,0.67-6.83,0.67c-1.8,0-7.52,0-9.23,0c-9.38,0-11.32-3.56-11.32-12.46v-11.07H991.12z M994.86,1320.53
			c1.37,2.62,3,6.23,3.7,8.45l-9.36,3.45c-0.61-2.44-2.11-6.21-3.39-9.01L994.86,1320.53z M1006.99,1297.17
			c-2.05,6.24-3.99,13.15-5.77,17.69l-7.33-2.15c1.45-4.9,3.38-12.56,4.12-17.8L1006.99,1297.17z M1022.06,1281.14v85.69
			c0,5.82-0.94,8.86-4.4,10.81c-3.46,1.84-8.33,2.12-15.33,2.09c-0.39-3.09-1.8-8.17-3.29-11.16c3.81,0.22,8.05,0.2,9.39,0.2
			c1.43-0.11,1.87-0.55,1.87-2v-85.62H1022.06z"/>
		<path class="st3" d="M1084.8,1353.24l1.27,11.66c-15.57,3.83-32.24,7.74-44.8,10.66l-2.23-12.67
			C1050.68,1360.85,1068.31,1356.98,1084.8,1353.24z M1054.64,1324.91v40.05h-10.74v-40.05H1054.64z M1082.81,1280.57v36.53h-38.07
			v-36.53H1082.81z M1056.19,1305.85h14.51v-14.02h-14.51V1305.85z M1071.83,1312.57v49.13h-11.71v-49.13H1071.83z M1083.88,1330.01
			v11.51h-19.07v-11.51H1083.88z M1126.36,1286.9l2.31-0.48l8.35,3.56c-7.96,27.6-26.54,45.16-48.93,54.63
			c-1.55-3-4.86-7.56-7.43-9.93c19.82-7.27,37.24-24.12,43.4-45.64v-2.14H1126.36z M1113.69,1279.43
			c-4.86,14.81-13.06,29.14-21.98,38.2c-2.16-2.35-7.27-6.63-10.21-8.55c8.6-7.66,15.81-19.96,19.66-32.74L1113.69,1279.43z
			 M1136.11,1338.7v40.42h-12.63v-29.34h-20.75v29.67h-12.11v-40.75H1136.11z M1144.59,1331.95c-2.66,2.52-6.46,7.77-8.21,11.13
			c-22.63-8.81-37-28.02-43.8-44.26l8.9-5.79C1107.8,1307.93,1122.12,1324.95,1144.59,1331.95z M1130.67,1364.4v11.34h-34.69v-11.34
			H1130.67z M1128.65,1286.9v11.17h-27.9v-11.17H1128.65z"/>
		<path class="st3" d="M1195.81,1294.71v10.42h-38.13v-10.42H1195.81z M1173.03,1340.45v37.8h-10.76v-37.8H1173.03z
			 M1193.29,1310.17v9.97h-30.68v-9.97H1193.29z M1193.29,1325.18v9.97h-30.68v-9.97H1193.29z M1175.97,1276.57
			c4.08,4.39,8.25,10.43,10.24,14.6l-10.47,5.73c-1.8-4.3-5.96-10.88-9.85-15.53L1175.97,1276.57z M1193.53,1340.45v33.28h-24.89
			v-10.33h14.06v-12.62h-14.06v-10.33H1193.53z M1227.79,1305.26c-6,10.97-16.51,21.22-27.33,26.53c-1.84-2.85-5.51-7.32-8.17-9.53
			c10.18-4.05,20.34-12.08,25.52-20.51L1227.79,1305.26z M1224.1,1334.35c-0.96,21.96-4.06,37.15-23.54,45.71
			c-1.3-2.98-4.63-7.48-7.2-9.75c16.03-6.63,17.68-18.24,18.43-35.96H1224.1z M1260.7,1296.98v11.08h-62.64v-11.08H1260.7z
			 M1257.61,1286.16c-14.98,3.78-36.19,5.45-53.94,5.78c-0.37-2.85-1.86-7.24-3.07-9.92c17.07-0.69,36.85-2.43,48.66-5.36
			L1257.61,1286.16z M1235.47,1330.68v11.17h-34.04v-11.17H1235.47z M1234.72,1287.07v41.17h-12.2v-41.17H1234.72z M1258.82,1344.28
			c0,0-0.2,2.97-0.39,4.49c-1.17,16.84-2.49,24.38-5.26,27.42c-2.18,2.41-4.49,3.28-7.67,3.65c-2.7,0.26-7.51,0.32-12.61,0.14
			c-0.2-3.34-1.47-7.92-3.22-10.97c4.16,0.46,8.15,0.49,10,0.49c1.58,0,2.54-0.11,3.51-1.05c1.55-1.64,2.7-7.64,3.57-22.65v-1.52
			H1258.82z M1238.24,1301.24c7.82,6.44,18.2,15.65,23.07,21.82l-9.16,7.41c-4.48-6.23-14.52-15.86-22.42-22.75L1238.24,1301.24z
			 M1246.7,1330.68c-1.46,8.23-3.3,17.71-4.84,24.02h-11.82c1.62-6.55,3.41-16.09,4.47-24.02H1246.7z M1250.42,1344.28v10.42h-15.45
			l2.11-10.42H1250.42z"/>
		<path class="st3" d="M1312.9,1323.61l1.58,11.89c-12.48,3.54-25.82,7.16-36.32,9.94l-3.27-12.67
			C1284.73,1330.68,1299.22,1327.09,1312.9,1323.61z M1313.14,1297.22v12.22h-36.59v-12.22H1313.14z M1302.58,1276.45v89.5
			c0,6.23-1.14,9.5-4.77,11.42c-3.72,2.01-8.89,2.38-16.59,2.35c-0.39-3.32-2.08-8.52-3.64-11.92c4.26,0.2,8.79,0.2,10.2,0.17
			c1.52,0,2.09-0.53,2.09-2.09v-89.44H1302.58z M1347.19,1332.48c-1.59,22.14-5.82,38.27-30.46,47.55
			c-1.38-3.23-4.8-7.96-7.61-10.31c21-7.21,23.26-19.82,24.48-37.24H1347.19z M1368.81,1327.66v12.14h-51.32v-12.14H1368.81z
			 M1373.39,1280.77v38.66h-52.22v-38.66H1373.39z M1333.2,1307.89h27.37v-15.61h-27.37V1307.89z M1376.5,1327.66
			c0,0-0.09,3.6-0.17,5.2c-1.5,26.96-3.07,38-6.43,41.95c-2.4,3-4.93,3.98-8.47,4.49c-3.01,0.45-8.1,0.51-13.43,0.33
			c-0.28-3.8-1.62-8.98-3.74-12.37c4.55,0.38,8.78,0.49,10.76,0.49c1.75,0,2.82-0.28,3.9-1.44c2.15-2.32,3.54-11.85,4.7-36.6v-2.06
			H1376.5z"/>
		<path class="st3" d="M1410.94,1294.28v82.25h-11.96v-82.25H1410.94z M1434.27,1323.67v11.43h-28.09v-11.43H1434.27z
			 M1440.43,1294.28v74.11h-33.79v-11.62h21.83v-50.97h-21.83v-11.51H1440.43z M1429,1278.49c-2.49,7.45-5.31,15.27-7.51,20.43
			l-10.56-2.36c1.51-5.72,3.12-14.12,3.67-20.19L1429,1278.49z M1467.98,1279.47c-4.34,16.24-11.48,32.97-18.98,43.51
			c-2.35-2.16-7.81-5.95-10.84-7.68c7.36-9.29,13.59-24.25,17.11-38.81L1467.98,1279.47z M1460.19,1319.38
			c5.41,7.6,12.73,18.12,16.12,24.61l-11.18,6.87c-3.03-6.71-9.92-17.56-15.28-25.65L1460.19,1319.38z M1487.1,1293.45v12.05h-32.15
			v-12.05H1487.1z M1494.74,1293.45c0,0,0,4.36-0.09,5.96c-1.46,49.5-2.71,67.05-7.26,72.86c-3.07,4.26-6.14,5.43-10.64,6.14
			c-4.16,0.62-10.86,0.49-17.31,0.22c-0.22-3.59-1.98-9.2-4.36-12.8c7.09,0.64,13.69,0.66,16.51,0.66c2.2,0,3.43-0.39,4.79-1.91
			c3.57-3.81,4.97-22.72,6.13-68.61v-2.53H1494.74z"/>
		<path class="st3" d="M1541.55,1280.79v11.77h-13.8v86.86h-11.54v-98.63H1541.55z M1540.39,1280.79l1.84-0.48l8.63,4.8
			c-2.75,9.29-6.23,20.53-9.31,29.04c6.43,8.65,7.71,16.53,7.71,22.93c0,7.13-1.36,12.01-4.77,14.56c-1.75,1.33-3.88,2.03-6.2,2.42
			c-1.99,0.31-4.51,0.31-7.01,0.26c-0.11-3.17-1.06-8.12-2.86-11.34c1.82,0.13,3.28,0.16,4.62,0.11c1.11-0.02,2.06-0.27,2.91-0.84
			c1.23-1,1.8-3.45,1.8-6.72c0-5.19-1.27-12.34-7.23-20.09c2.98-9.71,6.22-24.06,7.76-30.97v-3.69H1540.39z M1584.06,1279.8
			c-6.91,16.51-18.09,32.12-29.3,42c-2.35-2.27-7.64-6.2-10.67-8.01c11.53-8.67,21.82-22.83,27.63-37.59L1584.06,1279.8z
			 M1581.79,1323.98c-7.98,4.16-17.88,7.9-26.23,10.54c-0.65-2.38-2.34-6.39-3.72-8.71c7.35-2.84,15.54-7.03,20.61-10.62
			L1581.79,1323.98z M1564.46,1325.81v53.33h-12.63v-53.33H1564.46z M1580.36,1342.76v10.51h-21.12v-10.51H1580.36z
			 M1604.41,1363.59v10.85h-44.95v-10.85H1604.41z M1601.99,1288.71v11.71h-35.71l5.83-11.71H1601.99z M1611.35,1322.74v56.52h-12.8
			v-45.67h-15.84v-10.85H1611.35z M1600.54,1288.71l2.03-0.56l8.89,5.61c-4.42,8.86-12.12,20.15-18.5,27.55
			c-2.55-2.01-6.8-4.81-9.74-6.32c5.67-6.69,11.96-17.23,14.45-23.76v-2.51H1600.54z M1604.4,1342.85v10.51h-20.54v-10.51H1604.4z"
			/>
		<path class="st3" d="M1661.01,1281.18v11.77h-13.61v86.86h-12.31v-98.63H1661.01z M1659.36,1281.18l1.84-0.48l8.89,5.06
			c-2.79,10.07-6.48,22.79-9.62,31.9c6.58,8.83,7.82,16.81,7.82,23.43c0,7.44-1.44,12.25-4.99,14.86c-1.77,1.25-3.93,2.05-6.38,2.36
			c-2.04,0.33-4.65,0.39-7.18,0.26c-0.11-3.28-1.06-8.4-2.86-11.82c1.87,0.27,3.34,0.27,4.71,0.22c1.16-0.02,2.25-0.35,3-1.01
			c1.37-1,1.86-3.33,1.86-6.67c0-5.32-1.21-12.57-7.19-20.33c2.96-10.22,6.39-26.59,7.91-33.66v-4.12H1659.36z M1695.23,1278.08
			v48.53c0,21.43-2.22,40.62-20.06,53.09c-2.16-2.92-6.95-7.59-9.95-9.58c15.35-10.46,17.3-25.73,17.3-43.6v-48.44H1695.23z
			 M1733.95,1329.29v12.37h-63.06v-12.37H1733.95z M1732.68,1298.08v12.28h-61.75v-12.28H1732.68z M1722.06,1277.91v100.94h-12.82
			v-100.94H1722.06z"/>
		<path class="st3" d="M1763.92,1285.98v74.94h-11.79v-74.94H1763.92z M1784.7,1286.03v66.06h-25.78v-12.8h14.33v-40.55h-14.33
			v-12.71H1784.7z M1804.18,1281.12v38.06c0,18.21-1.93,43.67-15.14,59.29c-2.18-2.09-7.45-5.46-10.47-6.85
			c12.41-14.52,13.48-36.07,13.48-52.45v-38.06H1804.18z M1848.68,1281.12v33.97h-49.54v-12.05h37.14v-9.89h-37.14v-12.03H1848.68z
			 M1821.61,1319.17v41.74c0,4.1,0.58,4.63,4.44,4.63c1.63,0,9.2,0,11.31,0c3.51,0,4.09-2.03,4.53-13.81
			c2.62,2.03,7.88,4.13,11.28,4.97c-1.32,15.93-4.7,20.43-14.69,20.43c-2.45,0-11.9,0-14.24,0c-12,0-15-3.78-15-16.17v-41.8H1821.61
			z M1850.76,1332.21v10.42h-31.69v-10.42H1850.76z"/>
		<path class="st3" d="M1914.31,1309.72c0-6.61-5.27-10.35-13.95-10.35c-6.73,0-12.17,3-17.57,8.65l-9.01-8.3
			c6.96-8.12,16.67-13.47,28.43-13.47c15.93,0,27.61,7.44,27.61,22.05c0,16.13-24.03,18.05-22.36,33.29h-14.21
			C1890.91,1324.3,1914.31,1320.42,1914.31,1309.72z M1890.7,1361.15c0-5.74,4.17-9.69,9.72-9.69s9.72,3.95,9.72,9.69
			c0,5.74-4.17,9.77-9.72,9.77C1894.79,1370.92,1890.7,1366.89,1890.7,1361.15z"/>
	</g>
</g>
</svg>
