<?xml version="1.0" encoding="utf-8"?>
<!-- Generator: Adobe Illustrator 25.2.3, SVG Export Plug-In . SVG Version: 6.00 Build 0)  -->
<svg version="1.1" id="圖層_1" xmlns="http://www.w3.org/2000/svg" xmlns:xlink="http://www.w3.org/1999/xlink" x="0px" y="0px"
	 viewBox="0 0 920 422" style="enable-background:new 0 0 920 422;" xml:space="preserve">
<style type="text/css">
	.st0{fill:#F7F8F8;}
	.st1{fill:#DCDDDD;}
	.st2{fill:#FFFFFF;}
	.st3{fill:#B5B5B6;}
	.st4{fill:#1D2088;}
</style>
<g>
	<g>
		<g>
			<g>
				<rect x="0.45" y="-0.11" class="st0" width="919.09" height="422"/>
			</g>
			<g>
				<polygon class="st1" points="919.55,-0.11 867.91,51.53 867.91,139.97 919.55,139.97 				"/>
			</g>
			<g>
				<polygon class="st1" points="919.55,421.89 867.91,370.26 867.91,116.61 919.55,116.61 				"/>
			</g>
			<g>
				<polygon class="st2" points="0.45,-0.11 52.09,51.53 268.81,51.53 268.81,-0.11 				"/>
			</g>
			<g>
				<polygon class="st2" points="919.55,-0.11 867.91,51.53 245.45,51.53 245.45,-0.11 				"/>
			</g>
			<g>
				<polygon class="st3" points="919.55,421.89 867.91,370.26 282.38,370.26 282.38,421.89 				"/>
			</g>
			<g>
				<polygon class="st3" points="0.45,421.89 52.09,370.26 305.74,370.26 305.74,421.89 				"/>
			</g>
		</g>
	</g>
	<g>
		<path class="st4" d="M372.07,192.27c-8.78,15.88-22.87,33.16-35.54,43.91c-1.24-3.47-5.08-12.08-7.41-15.96
			c10.66-8.08,22.31-20.9,29.32-33.51L372.07,192.27z M370.22,164.25c-7.97,12.06-20.31,24.88-31.69,32.92
			c-1.71-3.5-5.4-9.79-7.77-13.03c9.29-6.25,19.76-16.96,24.73-25.58L370.22,164.25z M361.21,200.44l0.7,0.33v78.03h-15.62v-63.4
			L361.21,200.44z M432.14,233.14l2.5-0.56l9.57,4.84c-12.6,24.6-40.52,36.58-71.21,42.07c-1.38-3.63-4.48-9.7-7.05-12.8
			c28.12-3.59,54.02-13.87,63.32-31.55v-2H432.14z M409.82,227.63c-7.4,13.05-20.12,24.23-32.68,31.09
			c-2.21-2.61-7.36-7.46-10.36-9.72c12.31-5.58,23.76-14.61,29.74-25.12L409.82,227.63z M402.24,161.95
			c-5.27,14.22-14.1,28.11-23.19,36.73c-2.67-2.51-8.64-6.97-11.97-8.98c8.98-7.37,16.75-19.21,20.94-31.35L402.24,161.95z
			 M451.95,264.84c-3.2,3.3-7.25,9.47-9.3,13.5c-32.72-6.03-57.95-20.81-72.72-44.87l11.17-3.97
			C393.83,248.33,419.68,260.65,451.95,264.84z M442.13,187.64v40.38h-59.6v-40.38H442.13z M434.24,233.14v11.12h-50.79l10.73-11.12
			H434.24z M449.34,170.1v12.22h-63.16l6.12-12.22H449.34z M396.19,203.09h31.69v-5.3h-31.69V203.09z M396.19,217.86h31.69v-5.35
			h-31.69V217.86z"/>
		<path class="st4" d="M477.61,195.23c7.22,3.38,18.66,8.98,24.32,12.5l-8.59,12.78c-5.26-3.69-16.39-9.85-24.04-13.88
			L477.61,195.23z M495.6,226.43l11.3,10.24c-6.8,13.5-14.95,28.14-22.69,40.65l-13.01-10.4
			C478.03,257.32,487.92,241.29,495.6,226.43z M484.17,160.02c7.17,3.58,18.31,9.3,23.83,12.82l-9.08,12.44
			c-5.14-3.78-16.06-9.96-23.43-14.19L484.17,160.02z M588.86,195.72v14.72h-81.78v-14.72H588.86z M584,170.43
			c-18.82,7.18-44.89,11.15-67.58,13.16c-0.66-3.7-2.67-9.71-4.38-13.11c21.8-2.16,45.96-6.41,60.2-12.1L584,170.43z M582.4,226.8
			v51.35h-14.65v-37.42h-38.6v37.99H515.1V226.8H582.4z M573.78,259.52v13.92h-48.6v-13.92H573.78z M556.07,172.8v62.08h-14.62
			V172.8H556.07z"/>
	</g>
</g>
</svg>
