<?xml version="1.0" encoding="utf-8"?>
<!-- Generator: Adobe Illustrator 25.2.3, SVG Export Plug-In . SVG Version: 6.00 Build 0)  -->
<svg version="1.1" id="圖層_1" xmlns="http://www.w3.org/2000/svg" xmlns:xlink="http://www.w3.org/1999/xlink" x="0px" y="0px"
	 viewBox="0 0 927 426" style="enable-background:new 0 0 927 426;" xml:space="preserve">
<style type="text/css">
	.st0{fill:#F7F8F8;}
	.st1{fill:#DCDDDD;}
	.st2{fill:#FFFFFF;}
	.st3{fill:#B5B5B6;}
	.st4{fill:#1D2087;stroke:#1D2087;stroke-width:0.8092;stroke-miterlimit:10;}
</style>
<g>
	<g id="圖層_2_2_">
		<g>
			<g>
				<g>
					<g>
						<g>
							<rect x="-0.24" y="0" class="st0" width="927.49" height="426"/>
						</g>
					</g>
					<g>
						<g>
							<polygon class="st1" points="927.24,0 875.13,52.12 875.13,141.4 927.24,141.4 							"/>
						</g>
					</g>
					<g>
						<g>
							<polygon class="st1" points="927.24,426 875.13,373.87 875.13,117.82 927.24,117.82 							"/>
						</g>
					</g>
					<g>
						<g>
							<polygon class="st2" points="-0.24,0 51.87,52.12 270.56,52.12 270.56,0 							"/>
						</g>
					</g>
					<g>
						<g>
							<polygon class="st2" points="927.24,0 875.13,52.12 247,52.12 247,0 							"/>
						</g>
					</g>
					<g>
						<g>
							<polygon class="st3" points="927.24,426 875.13,373.87 284.26,373.87 284.26,426 							"/>
						</g>
					</g>
					<g>
						<g>
							<polygon class="st3" points="-0.24,426 51.87,373.87 307.83,373.87 307.83,426 							"/>
						</g>
					</g>
				</g>
			</g>
		</g>
	</g>
	<g>
		<path class="st4" d="M249.47,197.8v-5.64H199.8v-11.54h49.67v-6.29c-12.45,0.52-25.43,1.05-39.06,1.57l-2.23-10.88
			c33.95-0.92,64.22-2.62,90.7-5.24l4.06,11.01c-12.32,1.05-25.69,1.97-39.84,2.75v7.08h49.94v11.54h-49.94v5.64h40.11v45.63h-40.11
			v6.16h45.35v10.75h-45.35v6.42h51.9v11.67H198.1v-11.67h51.38v-6.42h-44.82v-10.75h44.82v-6.16H209.5V197.8H249.47z
			 M249.47,215.36v-6.82h-26.74v6.82H249.47z M249.47,225.59h-26.74v7.08h26.74V225.59z M263.11,215.36h26.87v-6.82h-26.87V215.36z
			 M289.97,225.59h-26.87v7.08h26.87V225.59z"/>
		<path class="st4" d="M356.29,242.77c-3.01,13.37-7.21,24.91-12.71,34.74l-11.27-7.21c5.5-9.44,9.44-19.54,11.66-30.15
			L356.29,242.77z M334.8,211.96V199.5h13.37c-1.57-4.33-3.28-8.39-5.37-12.06l11.93-4.59c1.97,4.72,3.8,10.23,5.64,16.65h11.53
			c1.83-5.38,3.54-10.88,4.98-16.65l12.19,4.33c-1.44,4.46-3.01,8.52-4.85,12.32h12.84v12.46h-24.12v10.62h21.89v12.46h-21.89v46.54
			H359.3v-46.54h-22.41v-12.46h22.41v-10.62H334.8z M358.78,169.74c-1.57-3.28-3.28-6.29-5.11-9.05l14.15-2.36
			c1.57,3.41,3.01,7.21,4.59,11.41h23.85v12.59h-60.16v-12.59H358.78z M394.17,261.78l-11.4,4.46c-1.97-8.13-4.46-16.13-7.34-23.86
			l11.27-3.02C389.84,247.49,392.33,254.96,394.17,261.78z M452.23,172.89c-11.14,3.67-23.46,5.9-36.83,6.69v20.32h39.58v12.98
			h-12.06v68.31h-13.5v-68.31H415.4v12.32c-0.66,23.34-5.77,41.82-15.47,55.72l-9.83-10.36c7.47-10.88,11.53-25.96,12.06-45.36
			v-56.77c16.12-0.26,30.54-2.88,43.38-7.74L452.23,172.89z"/>
		<path class="st4" d="M527.72,206.45h-38.14V280h-13.63V162.79h51.77V206.45z M514.35,173.28h-24.77v6.95h24.77V173.28z
			 M489.58,195.83h24.77v-6.42h-24.77V195.83z M511.6,236.34v-11.41h-12.45V213.4h63.83v11.54h-11.14v11.41h15.2v11.8h-15.2v29.24
			h-12.45v-29.24H523c-0.92,6.69-2.49,12.32-4.85,16.91c-3.28,6.29-8.65,11.28-16.12,14.68l-6.68-10.75
			c6.16-3.15,10.35-7.08,12.58-11.8c1.05-2.62,1.97-5.64,2.62-9.05h-14.81v-11.8H511.6z M539.39,224.94h-15.6v11.41h15.6V224.94z
			 M534.93,206.19v-43.4h52.56v102c0,9.7-4.72,14.68-13.89,14.68c-4.59,0-9.17-0.26-13.76-0.52l-3.28-12.06
			c4.46,0.39,8.52,0.66,12.19,0.66c3.41,0,5.11-2.36,5.11-6.82v-54.54H534.93z M573.86,173.54H548.3v6.69h25.56V173.54z
			 M548.3,195.7h25.56v-6.29H548.3V195.7z"/>
		<path class="st4" d="M636.76,160.04c-1.05,8.39-2.1,16.13-3.15,23.34h18.35v7.47c-0.66,20.85-3.93,38.94-9.83,54.41
			c5.5,5.9,10.09,11.28,13.76,16L646.86,272c-3.15-4.2-6.82-8.65-11.01-13.37c-4.98,8.92-11.01,16.65-18.09,23.34l-8.65-10.88
			c7.08-6.29,12.84-13.77,17.43-22.42c-5.11-5.24-10.62-10.75-16.65-16.52c2.88-11.01,5.64-22.94,7.99-35.79h-8.78v-12.98h10.88
			c1.31-8,2.36-16.26,3.41-24.65L636.76,160.04z M639.39,196.35h-7.86c-2.23,12.59-4.46,23.07-6.82,31.6
			c2.62,2.49,5.24,4.98,7.6,7.34C636.24,223.76,638.6,210.78,639.39,196.35z M654.2,201.86c6.03-1.31,14.94-15.47,26.61-42.48
			l13.11,4.46c-6.82,14.55-13.76,27.01-20.84,37.23c11.8-0.79,23.2-2.1,34.34-3.8c-2.88-6.16-5.77-11.93-8.78-17.31l11.66-5.64
			c6.55,11.28,12.71,23.86,18.61,37.63l-12.58,6.16c-1.31-3.41-2.62-6.42-3.8-9.31c-16.78,2.36-35.52,4.06-56.1,5.38L654.2,201.86z
			 M720.78,281.18h-13.11v-7.08h-34.08v7.08h-12.98v-58.21h60.16V281.18z M707.67,261.25v-25.83h-34.08v25.83H707.67z"/>
	</g>
</g>
</svg>
