<?xml version="1.0" encoding="utf-8"?>
<!-- Generator: Adobe Illustrator 25.2.3, SVG Export Plug-In . SVG Version: 6.00 Build 0)  -->
<svg version="1.1" id="圖層_1" xmlns="http://www.w3.org/2000/svg" xmlns:xlink="http://www.w3.org/1999/xlink" x="0px" y="0px"
	 viewBox="0 0 2160 3840" style="enable-background:new 0 0 2160 3840;" xml:space="preserve">
<style type="text/css">
	.st0{fill:#E9EDF6;}
	.st1{fill:#DADEE8;}
	.st2{fill:#B8C2C8;}
	.st3{fill:#1D2087;}
	.st4{fill:#FFFFFF;}
	.st5{fill:#F7F8F8;}
	.st6{fill:#1D2088;}
	.st7{fill:#EF8220;}
	.st8{fill:none;stroke:#1D2087;stroke-width:5.7862;stroke-linecap:round;stroke-linejoin:round;stroke-miterlimit:10;}
	.st9{fill:#2EA7E0;}
	.st10{fill:#4DCDFF;}
	.st11{fill:#EEB73D;}
</style>
<g>
	<g>
		<g>
			<rect y="0" class="st0" width="2160" height="3840"/>
			<g>
				<rect y="0" class="st1" width="2160" height="3840"/>
			</g>
			<g>
				<rect x="20.41" y="312.78" class="st2" width="2119.18" height="3506.81"/>
				<g>
					<path class="st1" d="M2119.18,333.19v3465.99H40.82V333.19H2119.18 M2160,292.37H0V3840h2160V292.37L2160,292.37z"/>
				</g>
			</g>
			<g>
				<rect x="53.01" y="345.39" class="st3" width="2053.97" height="3441.6"/>
				<path class="st2" d="M2094.79,357.58v3417.21H65.21V357.58H2094.79 M2119.18,333.19H40.82v3465.99h2078.36V333.19
					L2119.18,333.19z"/>
			</g>
			<g>
				<rect x="20.37" y="20.37" class="st2" width="2119.27" height="293.2"/>
				<g>
					<path class="st1" d="M2119.27,40.73V293.2H40.73V40.73H2119.27 M2160,0H0v333.94h2160V0L2160,0z"/>
				</g>
			</g>
			<g>
				<g>
					<rect x="12.22" y="12.22" class="st3" width="309.5" height="309.5"/>
					<path class="st1" d="M309.5,24.44V309.5H24.44V24.44H309.5 M333.94,0H0v333.94h333.94V0L333.94,0z"/>
				</g>
				<g>
					<rect x="79.83" y="79.83" class="st1" width="34.85" height="34.85"/>
					<rect x="114.69" y="114.69" class="st1" width="34.85" height="34.85"/>
					<rect x="149.54" y="149.54" class="st1" width="34.85" height="34.85"/>
					<rect x="184.4" y="184.4" class="st1" width="34.85" height="34.85"/>
					<rect x="219.25" y="219.25" class="st1" width="34.85" height="34.85"/>
					
						<rect x="219.25" y="79.83" transform="matrix(-1.836970e-16 1 -1 -1.836970e-16 333.9363 -139.4161)" class="st1" width="34.85" height="34.85"/>
					
						<rect x="184.4" y="114.69" transform="matrix(-1.836970e-16 1 -1 -1.836970e-16 333.9363 -69.7081)" class="st1" width="34.85" height="34.85"/>
					
						<rect x="114.69" y="184.4" transform="matrix(-1.836970e-16 1 -1 -1.836970e-16 333.9363 69.7079)" class="st1" width="34.85" height="34.85"/>
					
						<rect x="79.83" y="219.25" transform="matrix(-1.836970e-16 1 -1 -1.836970e-16 333.9363 139.4159)" class="st1" width="34.85" height="34.85"/>
				</g>
			</g>
		</g>
	</g>
	<g>
		<g>
			<g>
				<path class="st4" d="M829.35,1123.47l2.5-0.34l6.67,2.71c-3.81,29.15-13.42,49.23-27.32,59.84c-2.02-3.12-7.34-8.55-10.36-10.67
					c12.8-9.03,20.89-25.94,23.72-49.11v-2.42H829.35z M801.81,1124.84c2.26-0.53,4.39-1.65,6.81-4.26
					c3.65-3.78,14.74-20.92,18.9-28.25v-0.48l4.06-1.66l9.93,4.13c-5.86,9.15-16.56,26.15-23.76,34.77c0,0-10.76,5.26-10.76,8.84
					C806.18,1134.51,803.31,1127.7,801.81,1124.84z M832.04,1091.06v12.75h-28.18v-12.75H832.04z M819.01,1060.1
					c5.5,6.39,11.97,14.89,15.25,20.4l-12.81,7.91c-3-5.71-9.46-15.03-14.7-21.7L819.01,1060.1z M807,1126.45l5.75-2.98h19.75
					l-0.1,12.41h-17.16c-3.19,0-7.09,0.91-8.23,2.05V1126.45z M878.04,1169.31c14.3,0,36.28-0.79,51.48-2.27
					c-2.26,3.25-4.33,10.46-5.11,14.76c-13.92,0.88-31.03,1.25-46.65,1.25c-31.02,0-47.6-4.11-57.46-29.72l10.69-4.26
					C838.14,1167.09,853.8,1169.2,878.04,1169.31z M859.72,1083.32v18.57c0,17.08-1.72,42.66-15.43,59.67
					c-2.08-2.68-6.64-7.05-9.59-8.93c11.18-14.91,12.36-36.52,12.36-50.95v-18.36H859.72z M881.56,1077.18v13.14h-44.83v-13.14
					H881.56z M864.3,1059.74c2.09,5.46,4.47,12.55,5.48,17.25l-14.39,3.06c-0.9-4.76-3.05-12.27-5-17.83L864.3,1059.74z
					 M881.15,1100.56c0,0-0.1,3.85-0.1,5.51c-1.11,35.61-2.27,48.9-5.43,53.22c-2.27,3.22-4.66,4.31-7.91,4.96
					c-2.76,0.45-6.97,0.52-11.52,0.46c-0.24-3.91-1.58-9.39-3.39-12.83c3.32,0.37,6,0.37,7.71,0.37c1.5,0.03,2.46-0.31,3.37-1.75
					c1.94-2.68,2.95-14.19,3.82-47.52v-2.42H881.15z M872.57,1100.56v12.96h-18.19v-12.96H872.57z M905.63,1062.87
					c-4.04,13.18-10.69,27.55-17.05,36.63c-2.47-2.33-7.85-6.63-10.97-8.62c6.08-7.98,11.63-20.12,14.77-31.69L905.63,1062.87z
					 M927.17,1120.47v12.62H883.2v-12.62H927.17z M911.69,1112.88v36.48c0,6.21-0.88,10.04-5.26,12.17
					c-4.11,2.15-9.7,2.36-17.2,2.36c-0.47-3.88-2.5-9.51-4.41-13.21c4.85,0.13,9.82,0.13,11.31,0.1c1.6,0,2-0.4,2-1.63v-36.27
					H911.69z M916.24,1094.38v11.61h-29.36v-11.61H916.24z M927.46,1073.32v13.17h-39.46v-13.17H927.46z M915.47,1094.38l2.57-0.79
					l8.43,6.45c-5.77,7.43-13.8,15.63-20.91,21.07c-1.71-2.57-5.31-6.32-7.43-8.23c5.31-4.24,11.31-11.36,14.11-16.11v-2.39H915.47z
					"/>
				<path class="st4" d="M964.91,1081.68v36.44c0,18.98-1.51,47.58-10.4,65.87c-2.15-2.47-7.92-7.05-10.76-8.49
					c7.51-16.65,8.1-40.37,8.1-57.39v-36.44H964.91z M1013.63,1081.68v10.25h-55.68v-10.25H1013.63z M1019.54,1167.35v11.06
					c-19.57,1.72-40.19,3.39-55.11,4.47l-1.45-11.64C977.3,1170.43,998.9,1168.92,1019.54,1167.35z M1003.94,1096.43l1.05,8.11
					l-38.03,3.44l-1.05-8.22L1003.94,1096.43z M1020.04,1122.24v9.94h-52.48v-9.94H1020.04z M1017.09,1135.88v21.39h-46.71v-21.39
					H1017.09z M985.18,1158.45c1.67,4.13,3.44,9.59,4.19,13.07l-11.27,2.35c-0.65-3.61-2.35-9.3-3.82-13.54L985.18,1158.45z
					 M991.51,1059.86v25.78H976.7v-25.78H991.51z M992.19,1090.29v16.34c0,2.82,0.3,4.01,3.12,4.01c1.82,0,7.71,0,9.74,0
					c2.49,0,7.44-0.21,9.46-0.82c0.24,3.26,0.4,5.82,0.85,8.81c-1.96,0.68-6.22,0.82-9.65,0.82c-2.89,0-11.53,0-14.38,0
					c-10.13,0-11.96-4.65-11.96-12.95v-16.21H992.19z M982.27,1149.63h22.2v-6.02h-22.2V1149.63z M1019.08,1066.59v10.25h-35.09
					v-10.25H1019.08z M1013.93,1159.54c-3.24,5.59-6.72,11.03-9.44,14.87l-10.21-2.14c2.33-4.31,5.12-10.35,6.51-14.62
					L1013.93,1159.54z M1011.61,1081.68l2.08-0.37l9.38,1.59c-1.44,7.36-3.55,15.84-5.34,21.28l-11.36-1.91
					c1.19-4.87,2.61-12.72,3.39-19v-1.59H1011.61z M1069.2,1117.16c-7.19,25.21-22.42,51.16-40.87,64.33
					c-2.68-3.46-7.42-8-11.3-10.57c18.91-11.44,33.73-35.79,40.36-60.01L1069.2,1117.16z M1069.51,1091.78l1.78,13.94l-49.49,6.66
					l-1.92-14.05L1069.51,1091.78z M1042.75,1060.46c0.26,56.72,6.14,105,14.49,105.67c1.97,0,3.3-6.22,3.98-17.59
					c2.36,3.2,8.52,7.48,11.04,8.92c-3.36,22.38-9.94,27.4-15.21,27.27c-21.96-0.74-27.59-50.91-29.04-124.26H1042.75z
					 M1057.35,1061.92c4.19,6.66,9.88,15.78,12.61,21.28l-12.5,6.64c-2.41-5.67-7.66-15.23-11.85-22.23L1057.35,1061.92z"/>
				<path class="st4" d="M1124.94,1061.23v48.22c0,25-3.08,55.78-25.43,74.16c-2.2-3.33-7.28-8.83-10.93-11.51
					c19.94-14.62,21.31-42.44,21.31-62.62v-48.25H1124.94z M1143.73,1111.37v14.52h-53.3v-14.52H1143.73z M1141.7,1080.43v14.11
					h-49.08v-14.11H1141.7z M1145.69,1153.52l-10.82,11.56c-5-8.14-16.11-22.8-21.89-29.55l9.8-7.48
					C1127.42,1132.19,1142.26,1149.42,1145.69,1153.52z M1171.7,1139.46c-2.15,20.85-7.65,36.74-32.16,45.92
					c-1.58-3.61-5.62-9.25-8.74-12c20.68-6.76,24.18-18.58,25.83-33.92H1171.7z M1207.39,1064.59v77.18h-59.51v-77.18H1207.39z
					 M1162.72,1086.47h29.25v-7.7h-29.25V1086.47z M1162.72,1107.06h29.25v-7.83h-29.25V1107.06z M1162.72,1127.59h29.25v-7.92
					h-29.25V1127.59z M1193.13,1136.76v27.97c0,3.68,0.22,4.11,2.19,4.11c0.77,0,3.69,0,4.61,0c2.15,0,2.61-1.82,2.98-16.06
					c2.84,2.5,9.23,4.91,13.14,5.93c-1.34,19.05-5.01,23.92-14.47,23.92c-2.3,0-6.69,0-8.89,0c-11.93,0-14.39-4.53-14.39-17.73
					v-28.15H1193.13z"/>
				<path class="st4" d="M1264.76,1157.29c-4.59,10.58-12.42,21.52-19.52,28.31c-3.06-2.75-9.66-7.42-13.44-9.54
					c7-5.73,13.6-14.61,17.19-23.17L1264.76,1157.29z M1295.08,1065.07v86.69h-54.71v-86.69H1295.08z M1255.49,1090.14h23.71v-10.89
					h-23.71V1090.14z M1255.49,1113.88h23.71v-11.12h-23.71V1113.88z M1255.49,1137.58h23.71v-11.08h-23.71V1137.58z
					 M1284.78,1153.02c6.04,7.05,12.16,16.52,15.02,23.19l-14.67,6.93c-2.49-6.69-8.51-16.96-14.31-24.32L1284.78,1153.02z
					 M1320.83,1076.17v75.51h-15.54v-75.51H1320.83z M1352.69,1062.58v103.28c0,9.4-1.94,13.82-7.38,16.46
					c-5.6,2.57-14.45,3.09-26.73,3.06c-0.71-4.55-3.25-12.01-5.62-16.55c8.82,0.37,17.46,0.34,20.28,0.31
					c2.54-0.03,3.58-0.83,3.58-3.37v-103.21H1352.69z"/>
			</g>
		</g>
		<path class="st5" d="M1862.26,1932.54H297.74c-52.87,0-95.72-42.86-95.72-95.72V1373c0-52.87,42.86-95.72,95.72-95.72h1564.53
			c52.87,0,95.72,42.86,95.72,95.72v463.82C1957.99,1889.68,1915.13,1932.54,1862.26,1932.54z"/>
		<g>
			<g>
				<path class="st6" d="M597.59,1485.86c-3.63,16.3-9.57,36.48-18.64,48.5c-3.18-2.31-9.09-5.37-12.65-6.81
					c8.71-11.05,14.27-30.01,16.56-44.16L597.59,1485.86z M625.38,1458.62v83.75c0,7.96-1.83,11.53-6.74,13.68
					c-5.03,2.08-12.49,2.5-23,2.42c-0.75-3.73-3.14-9.88-5.22-13.49c7.15,0.39,15.2,0.36,17.53,0.25c2.39-0.02,3.23-0.76,3.23-2.92
					v-83.69H625.38z M649.86,1482.27c8.87,15.3,17.77,35.02,20.52,48.56l-14.2,5.62c-2.22-13.13-10.42-33.57-19.01-49.46
					L649.86,1482.27z"/>
				<path class="st6" d="M707.71,1496.82c-1.5,14.07-4.17,32.91-7.84,45.2l-13.23-5.39c3.89-11.46,7.04-27.73,8.37-42.25
					L707.71,1496.82z M728.11,1488.02v50.36c0,5.2,0.86,5.97,6.12,5.97c2.51,0,12.57,0,15.45,0c5.53,0,6.44-3.4,7.22-20.36
					c3,2.27,8.68,4.61,12.18,5.52c-1.45,20.54-4.99,26.94-18.35,26.94c-3.05,0-15.3,0-18.11,0c-14.1,0-18.03-4.26-18.03-18.09
					v-50.33H728.11z M727.11,1458.75c9.87,6.22,23.6,15.76,30.13,22.51l-9.56,10.14c-5.97-6.72-19.28-17.01-29.4-23.84
					L727.11,1458.75z M774.51,1490.89c6.12,12.89,11.76,29.26,14.06,40.48l-13.14,5.44c-1.79-11.07-7.32-28.23-13.02-41.01
					L774.51,1490.89z"/>
				<path class="st6" d="M832.49,1461.37v11.57h-13.05v85.35h-10.74v-96.92H832.49z M831.26,1461.37l1.74-0.47l8.04,4.8
					c-2.7,9.13-6.03,20.01-9.07,28.37c6.32,8.58,7.58,16.24,7.58,22.62c0,7.01-1.33,11.71-4.6,14.31c-1.63,1.31-3.62,1.99-5.84,2.38
					c-1.87,0.3-4.35,0.3-6.81,0.25c-0.02-3.12-0.96-7.98-2.62-11.14c1.76,0.13,3.28,0.24,4.52,0.11c1.01-0.02,2.05-0.26,2.86-0.83
					c1.21-0.98,1.77-3.39,1.77-6.52c0-5.18-1.33-12.21-7.28-19.83c3.01-9.54,6.2-23.64,7.71-30.43v-3.62H831.26z M853.19,1538.48
					c-1.74,6.15-4.22,13.76-7.46,18.62l-9.85-4.34c3.35-4.71,6.3-12.09,7.85-18.03L853.19,1538.48z M906.05,1513.71v6.78h-65v-6.78
					H906.05z M904.92,1465.38c-16.29,4.23-40.58,6.14-60.75,6.52c-0.28-2.47-1.55-6.33-2.66-8.6c19.77-0.66,42.92-2.68,56.1-6.05
					L904.92,1465.38z M905.41,1491.75v7.96h-62.9v-7.96H905.41z M901.28,1502.79v28.73h-57.03v-7.37h45.55v-13.99h-45.09v-7.37
					H901.28z M901.42,1479.66v7.88h-55.61v-7.88H901.42z M856.62,1470.19c1.69,2.11,3.93,5.16,5.03,7.03l-9.64,3.96
					c-0.96-1.98-3.06-5.14-4.69-7.46L856.62,1470.19z M864.62,1534.76v10.82c0,2.45,0.56,2.8,3.93,2.8c1.43,0,8.17,0,10.12,0
					c2.53,0,3.09-0.82,3.48-5.99c2.13,1.47,6.71,3,9.71,3.63c-1.17,9.26-4.15,11.75-11.89,11.75c-2.3,0-10.81,0-12.97,0
					c-11.09,0-13.63-2.87-13.63-12.11v-10.9H864.62z M870.56,1527.64c4.16,3.28,9.48,8.01,12.28,10.91l-6.95,6.52
					c-2.82-3.21-8.25-8.4-12.09-11.74L870.56,1527.64z M874.75,1469.34c1.66,2.47,3.61,5.9,4.55,8.04l-9.66,3.93
					c-0.77-2.29-2.64-5.92-4.1-8.58L874.75,1469.34z M879.17,1483.23v12.16h-12.01v-12.16H879.17z M899.47,1470.71
					c-2.3,4.84-5.81,10.71-8.5,14.39c-1.94-1.42-6-3.65-8.41-4.79c2.92-3.53,5.68-8.27,7.51-12.41L899.47,1470.71z M896.93,1534.35
					c3.65,5.72,7.8,13.14,9.86,17.94l-9.94,4.49c-1.9-4.94-6.05-12.85-9.4-18.71L896.93,1534.35z"/>
				<path class="st6" d="M938.15,1521.94v9.2c0,7.49-1.1,19.78-7.95,27.48c-1.68-1.58-5.21-3.99-7.34-5.13
					c5.43-6.61,6.17-16.55,6.17-22.63v-8.92H938.15z M947.05,1517.96v10.49h-23.14v-10.49H947.05z M972.41,1463.54v10.66h-46.18
					v-10.66H972.41z M937.73,1484.71v16.49h9.73v10.3h-19.12v-26.79H937.73z M954.11,1483.47v32.57c0,13.33-0.94,31.34-7.1,42.85
					c-2.06-1.66-6.98-4.27-9.68-5.27c5.68-10.62,6.12-25.87,6.12-37.67v-32.48H954.11z M959.18,1457v22.7h-12.83V1457H959.18z
					 M1024.01,1483.47v10.89h-74.89v-10.89H1024.01z M989.14,1498.54v8.11h-22.33v40.44h-9.06v-48.55H989.14z M989.97,1538.91v8.11
					H961.9v-8.11H989.97z M989.49,1511.78v21.53h-26.44v-7.6h17.58v-6.32h-17.58v-7.6H989.49z M981.21,1503.29v12.17h-8.47v-12.17
					H981.21z M981.21,1529.71v12.24h-8.47v-12.24H981.21z M1022.96,1463.54v10.66H976.5v-10.66H1022.96z M1020.74,1500.2
					c-5.32,25.85-15.66,46.13-31.57,58.76c-1.89-2.08-6.64-6.09-9.36-7.81c15.81-10.95,25.16-29.56,29.45-52.84L1020.74,1500.2z
					 M1001.43,1477.26c-0.06,45.28,7.95,70.15,13.11,70.15c1.79-0.03,2.85-3.38,3.3-13.68c2.3,2.25,5.79,4.67,8.51,5.58
					c-1.45,16.35-4.89,19.41-12.76,19.41c-14.77,0-22.38-32.18-23.64-81.46H1001.43z M1003.29,1457.02v21.52h-12.83v-21.52H1003.29z
					 M1012.82,1473.35c3.34,2.1,7.43,5.35,9.3,7.83l-8.06,6.12c-1.7-2.49-5.52-6.03-8.85-8.32L1012.82,1473.35z"/>
				<path class="st6" d="M1059.16,1474.63v80.83h-11.76v-80.83H1059.16z M1082.09,1503.5v11.23h-27.61v-11.23H1082.09z
					 M1088.14,1474.63v72.82h-33.21v-11.42h21.45v-50.09h-21.45v-11.31H1088.14z M1076.91,1459.11c-2.45,7.32-5.21,15-7.38,20.07
					l-10.37-2.32c1.49-5.62,3.07-13.87,3.61-19.84L1076.91,1459.11z M1115.21,1460.07c-4.26,15.96-11.28,32.4-18.65,42.75
					c-2.31-2.12-7.68-5.85-10.65-7.54c7.23-9.12,13.35-23.83,16.81-38.13L1115.21,1460.07z M1107.55,1499.29
					c5.32,7.47,12.51,17.81,15.84,24.18l-10.99,6.75c-2.98-6.59-9.75-17.26-15.01-25.2L1107.55,1499.29z M1134,1473.81v11.84h-31.6
					v-11.84H1134z M1141.51,1473.81c0,0,0,4.28-0.08,5.86c-1.44,48.64-2.66,65.89-7.13,71.59c-3.02,4.19-6.03,5.34-10.46,6.04
					c-4.09,0.61-10.67,0.48-17.01,0.22c-0.21-3.53-1.95-9.04-4.28-12.58c6.96,0.63,13.45,0.65,16.22,0.65
					c2.16,0,3.37-0.38,4.71-1.87c3.51-3.75,4.89-22.33,6.02-67.42v-2.49H1141.51z"/>
				<path class="st6" d="M1196.39,1514.13l2.92,11.46c-11.33,5.59-23.52,11.45-33.36,15.9l-5.17-13
					C1169.63,1525.33,1183.37,1519.59,1196.39,1514.13z M1196.96,1482.16v12.24h-33.8v-12.24H1196.96z M1186.87,1458.59v71.66
					h-12.09v-71.66H1186.87z M1249.14,1476.75l4.69,11.07l-55.89,24.22l-4.84-11.43L1249.14,1476.75z M1216.17,1467.57v70.04
					c0,6.35,0.95,7.3,7.63,7.3c3.22,0,17.57,0,21.01,0c5.88,0,6.96-2.45,7.86-13.56c2.83,1.94,7.83,3.99,11.34,4.69
					c-1.62,15.32-5.47,20.43-18.11,20.43c-3.56,0-19.81,0-23.16,0c-14.77,0-18.92-3.97-18.92-18.91v-70H1216.17z M1237.29,1457.09
					v76.29h-12.15v-76.29H1237.29z M1244.77,1479.78l4.38-3.03l9.76,3.08l-0.49,1.96c-0.65,15.06-2.07,34.91-4.68,47.93l-10.54-2.97
					c1.58-11.56,2.53-31.82,2.76-46.97H1244.77z"/>
				<path class="st6" d="M1379.19,1475.89v24.45h-12.94v-14.89h-70.3v14.89h-12.35v-24.45H1379.19z M1373.7,1461.59v9.29h-85.28
					v-9.29H1373.7z M1369.55,1512.28v45.51h-13v-35.69h-50.72v36.64h-12.41v-46.46H1369.55z M1320.92,1498.61l0.45,7.33
					c-8.14,1.93-16.15,3.78-23.11,5.31l-3.22-9.05C1301.86,1501.45,1311.22,1500.04,1320.92,1498.61z M1302.01,1486.94
					c6.04,1.01,14.29,2.97,18.74,4.7l-3.4,7.02c-4.37-1.75-12.54-4.1-18.77-5.39L1302.01,1486.94z M1362.61,1528.34v9.54h-63.03
					v-9.54H1362.61z M1362.61,1544.33v9.79h-63.03v-9.79H1362.61z M1337.29,1464.75v43.55h-12.68v-43.55H1337.29z M1337.32,1519.63
					v30.96h-12.68v-30.96H1337.32z M1341.61,1497.64c8.06,0.89,19.2,3.24,25.09,5.24l-2.37,8.08c-5.8-2.08-16.97-4.82-25.22-6.06
					L1341.61,1497.64z M1364.29,1492.71c-5.89,2.41-13.85,4.22-19.42,5.25l-4.09-6.15c5.48-1.12,13.68-4.09,18.48-5.83
					L1364.29,1492.71z"/>
				<g>
					<polygon class="st7" points="1593.7,1455.28 1566.37,1462.8 1573.01,1490.36 1552.83,1470.46 1532.28,1489.98 1539.43,1462.55 
						1512.25,1454.52 1539.57,1446.99 1532.94,1419.44 1553.12,1439.34 1573.67,1419.82 1566.52,1447.25 					"/>
					<circle class="st3" cx="1482.27" cy="1514.56" r="60.56"/>
					<path class="st8" d="M1506.92,1475.01c0,0,9.68-13.3,23.55-9.38c14.33,4.04,21.23-7.73,22.51-10.73"/>
					<rect x="1488.82" y="1545.3" class="st4" width="12.93" height="12.93"/>
					<rect x="1501.74" y="1532.38" class="st4" width="12.93" height="12.93"/>
					<rect x="1514.67" y="1519.45" class="st4" width="12.93" height="12.93"/>
					<rect x="1475.89" y="1532.38" class="st4" width="12.93" height="12.93"/>
					<rect x="1488.82" y="1519.45" class="st4" width="12.93" height="12.93"/>
				</g>
			</g>
			<g>
				<path class="st6" d="M368.57,1699.3l1.53,11.94c-12.61,3.46-26.29,7.01-36.93,9.72l-3.34-12.43
					C339.85,1706.5,354.68,1702.89,368.57,1699.3z M369,1674.21v12.01h-37.79v-12.01H369z M357.34,1653.64v87
					c0,6.21-1.16,9.42-4.8,11.31c-3.66,2-8.87,2.33-16.53,2.33c-0.38-3.31-2.04-8.51-3.57-11.76c4.23,0.13,8.76,0.11,10.17,0.11
					c1.51-0.03,2.08-0.54,2.08-2.05v-86.94H357.34z M425.91,1699.48c-9.79,21.45-29.04,42.08-50.13,52.09
					c-2.4-3.33-6.65-7.43-10.36-10.01c21.98-8.62,40.88-28.16,49.87-48.58L425.91,1699.48z M429.3,1676.71l1.28,12.05l-59.15,6.04
					l-1.28-12.38L429.3,1676.71z M395.65,1654.17c0.81,46.8,7.28,82.46,21.39,84.57c2.51,0.28,3.89-5.03,4.62-16.65
					c2.53,2.82,8.29,6.31,10.84,7.53c-2.87,20.17-8.72,25.18-14.79,24.63c-26.61-2.74-33.42-41.16-35.32-100.09H395.65z
					 M409.59,1654.68c4.76,4.68,11.42,11.4,14.65,15.68l-10.49,7.22c-2.89-4.4-9.29-11.49-14.04-16.51L409.59,1654.68z"/>
				<path class="st6" d="M507.84,1729.96l0.72,11.14c-19.03,3.64-39.59,7.35-54.33,9.99l-2.8-11.97
					C465.6,1737.16,487.52,1733.48,507.84,1729.96z M509,1659.98v11.17h-56.48v-11.17H509z M454.48,1687.92
					c1.71-0.47,3.41-2.19,5.13-4.63c1.66-2.39,6.81-11.26,9.62-20.09l12.58,4.66c-4.12,8.99-10.58,18.88-16.19,25.39v0.19
					c0,0-6.99,3.86-6.99,6.21C457.9,1697.09,455.86,1691.23,454.48,1687.92z M506.64,1709.64v11.23h-51.57v-11.23H506.64z
					 M458.37,1690.64l5.91-3.71l32.77-2.08c1.44,3.31,3.8,7.51,5.27,10.09c-35.32,2.87-40.23,3.24-43.7,4.69L458.37,1690.64z
					 M487.14,1699.99v43.7H474.9v-43.7H487.14z M493.48,1670.97c5.7,7.18,12.51,16.87,15.32,23.32l-9.9,6.39
					c-2.58-6.47-9.02-16.63-14.64-24.17L493.48,1670.97z M525.17,1663.69v65.64h-11.99v-65.64H525.17z M546.54,1654.81v84.07
					c0,6.75-1.33,10.17-5.4,12.17c-4.2,2-10.33,2.42-18.78,2.42c-0.55-3.42-2.64-9.02-4.46-12.38c5.74,0.21,11.62,0.21,13.48,0.19
					c1.9-0.02,2.5-0.63,2.5-2.46v-84.01H546.54z"/>
				<path class="st7" d="M600.6,1748.87l12.02-16.44c7.36,7.2,16.64,13.16,28.66,13.16c13.61,0,23.09-8.05,23.09-22.24
					c0-14.05-8.9-22.07-21.92-22.07c-7.73,0-11.95,2.01-19.58,6.94l-11.88-7.71l3.62-63.34h69.72v21.75h-47.42l-2.44,27.66
					c5.14-2.4,9.72-3.53,15.66-3.53c21.93,0,40.17,12.39,40.17,39.52c0,27.94-21.62,44.07-45.53,44.07
					C624.08,1766.66,610.41,1758.54,600.6,1748.87z"/>
				<path class="st6" d="M777.23,1715.95c-5.44,13.01-14.32,27.48-24.34,35.11c-1.11-3.65-3.85-8.88-5.76-12.23
					c8.96-5.99,17.78-16.93,22.22-26.74L777.23,1715.95z M798.11,1707.75v11.76H749.8v-11.76H798.11z M797.04,1658.11v42.76h-44.77
					v-42.76H797.04z M762.34,1674.81h24.2v-6.82h-24.2V1674.81z M762.34,1691h24.2v-6.96h-24.2V1691z M779.1,1663.46v31.46h1.1
					v60.19h-11.73v-60.19h1.1v-31.46H779.1z M798.75,1734.01l-7.47,10.18c-4.29-5.51-14.51-15.69-19.7-20.42l6.31-5.69
					C782.05,1720.67,795.65,1731.26,798.75,1734.01z M821.83,1740.33c-5.43,5.54-14.59,11.75-22.02,15.07
					c-2.03-2.36-5.84-5.88-8.62-8.13c7.39-3.07,15.86-9.07,20.13-13.68L821.83,1740.33z M848.72,1657.98v10.89h-49.38v-10.89H848.72
					z M846.5,1676.48v57.38h-44.57v-57.38H846.5z M813.1,1692.74h21.76v-6.63H813.1V1692.74z M813.1,1708.47h21.76v-6.68H813.1
					V1708.47z M813.1,1724.23h21.76v-6.72H813.1V1724.23z M831.51,1665.5c-1.83,6.55-3.91,13.27-5.59,17.81l-10.38-1.85
					c0.98-5.04,2.15-12.27,2.4-17.47L831.51,1665.5z M835.37,1734.32c5.37,4.06,12.64,10.04,16.19,14.12l-10.01,6.92
					c-3.3-4.06-10.32-10.4-15.71-14.82L835.37,1734.32z"/>
				<path class="st6" d="M913.36,1744.7c-9.03,4.56-24.01,8.55-36.3,10.33c-1.78-2.33-5.28-6.24-7.79-8.49
					c12.2-1.62,27-5.33,34.02-8.82L913.36,1744.7z M964.67,1659.77v16.75h-12.15v-6.68h-69.5v6.68h-11.65v-16.75H964.67z
					 M914.84,1692.87l-0.11,8.02c-14.57,1.02-29.65,1.85-40.59,2.44l-0.85-8.55C883.8,1694.38,899.41,1693.64,914.84,1692.87z
					 M913.91,1673.49v7.29h-36.08v-7.29H913.91z M913.05,1684.07v6.44h-33.8v-6.44H913.05z M954.81,1704.8v36.06h-71.35v-36.06
					H954.81z M901.82,1676.45v20.25l-10.66,0.83v-21.07H901.82z M895.97,1714.76h45.65v-3.18h-45.65V1714.76z M895.97,1724.42h45.65
					v-3.31h-45.65V1724.42z M895.97,1734.09h45.65v-3.34h-45.65V1734.09z M922.03,1652.42c1.96,3.53,3.91,8.34,4.72,11.57
					l-13.75,3.28c-0.58-3.17-2.3-8.25-3.96-12L922.03,1652.42z M932.46,1670.98c-2.63,5.71-5.79,10.49-10.71,14.89
					c-1.74-1.83-4.93-4.08-7.23-5.08c4.26-3.33,7.36-7.49,9.11-11.26L932.46,1670.98z M962.7,1683.68v6.53h-46.94v-6.53H962.7z
					 M927.81,1691.1v4.44h22.29v-4.44h9.48v10.94h-40.81v-10.94H927.81z M931.13,1737.86c12.13,3.05,26.19,7.12,34.51,10.01
					l-11.18,7.4c-7.13-2.98-19.53-7.11-31.8-10.42L931.13,1737.86z M956.01,1674.17v6.51h-33.04l3.88-6.51H956.01z M944.09,1676.96
					v21.18h-10.66v-21.18H944.09z"/>
				<path class="st6" d="M1033.44,1671.54c-7.96,22.01-20.99,44.76-39.98,58.44c-2.12-2.92-6.4-7.65-9.16-10.05
					c17.46-11.9,29.64-33.21,35.25-51.87L1033.44,1671.54z M1084.83,1661v12.75h-95.55V1661H1084.83z M1078.68,1697.58v57.14h-13.86
					v-44.71h-43.59v45.13h-13.17v-57.56H1078.68z M1073.15,1736.11v12.49h-59.8v-12.49H1073.15z"/>
				<path class="st6" d="M1362.23,1698.85l1.61,12.34c-13.27,3.64-27.6,7.43-38.73,10.27l-3.51-12.94
					C1332.08,1706.37,1347.68,1702.49,1362.23,1698.85z M1362.12,1674.21v12.26h-39.4v-12.26H1362.12z M1349.88,1653.64v86.57
					c0,6.35-1.23,9.65-4.94,11.62c-3.76,2.08-8.96,2.42-16.79,2.42c-0.38-3.39-2.13-8.82-3.77-12.24c4.26,0.19,8.87,0.19,10.27,0.17
					c1.51,0,2.08-0.54,2.08-2.05v-86.48H1349.88z M1422.71,1661.81v13h-58.85v-13H1422.71z M1405.38,1666.51v71.74
					c0,7.47-1.67,11.43-6.61,13.68c-4.96,2.31-12.19,2.56-22.31,2.56c-0.66-3.98-3.14-10.47-5.2-14.16
					c6.74,0.47,14.81,0.38,17.11,0.34c2.16-0.02,2.98-0.67,2.98-2.64v-71.51H1405.38z"/>
				<path class="st6" d="M1465.03,1731.3c-3.53,9.16-9.56,18.41-15.56,24.12c-2.31-2.14-7.51-5.75-10.37-7.39
					c5.85-4.82,10.83-12.41,13.58-19.85L1465.03,1731.3z M1486.5,1657.83v69.53h-40.33v-69.53H1486.5z M1458.35,1677.92h15.38v-9.79
					h-15.38V1677.92z M1458.35,1697.46h15.38v-9.9h-15.38V1697.46z M1458.35,1717.03h15.38v-10.01h-15.38V1717.03z M1477.78,1727.95
					c4.7,5.2,9.53,12.21,11.72,17.08l-10.9,5.55c-2.05-5-6.8-12.52-11.25-17.97L1477.78,1727.95z M1513.4,1655.76
					c-3.96,21.06-11.25,40.46-21.55,52.61c-2.25-2.29-7.89-6.89-10.93-8.84c9.78-10.3,15.9-27.58,18.95-46L1513.4,1655.76z
					 M1534.5,1681.91c-5.29,36.38-17.16,59.77-44.2,73.51c-1.28-3.12-5.14-9.19-7.58-12.06c24.34-10.97,34.38-31.43,38.26-62.92
					L1534.5,1681.91z M1543.3,1743.41c-3.03,2.67-7.15,7.97-9.15,11.62c-24.39-12.54-35.17-37.68-41.4-70.89l12.02-2.08
					C1509.84,1710.24,1520.72,1733.44,1543.3,1743.41z M1541.73,1672.93v12.24h-44.57v-12.24H1541.73z"/>
				<path class="st6" d="M1572.87,1676.33c-0.09,9.72-1.73,22.56-4.59,30.83l-10.02-3.78c2.76-7.08,4.37-19.09,4.76-28.35
					L1572.87,1676.33z M1585.94,1653.61v101.46h-12.52v-101.46H1585.94z M1592.51,1671.34c2.89,6.3,6.37,14.62,7.84,19.62
					l-9.89,4.68c-1.3-5.31-4.53-13.94-7.29-20.42L1592.51,1671.34z M1644.67,1658.26l2.33-0.47l8.27,3.38
					c-8.92,28.4-30.48,42.19-57.93,48.84c-1.28-3.2-4.03-8.21-6.39-10.82c24.45-4.63,44.46-17.35,51.27-39.03v-1.91H1644.67z
					 M1660.57,1740.9v11.65h-67.02v-11.65H1660.57z M1645.07,1658.26v11.31h-46.77v-11.31H1645.07z M1655.8,1716.64v11.48h-57.43
					v-11.48H1655.8z M1661.99,1698.3c-2.8,2.61-6.36,7.76-8.17,11.15c-23.44-5.96-40.1-18.99-50.09-38.49l10.99-3.61
					C1622.78,1682.87,1639.68,1693.92,1661.99,1698.3z M1633.81,1706.6v40.87h-13.02v-40.87H1633.81z"/>
				<path class="st6" d="M1737.27,1715.11v9.14h-59.32v-9.14H1737.27z M1705.28,1655.81v21.13h-23.76v-21.13H1705.28z
					 M1732.54,1680.34v31.67h-50.08v-31.67H1732.54z M1731.28,1727.51v26.15h-12.32v-17.36h-22.77v18.75h-11.82v-27.54H1731.28z
					 M1724.22,1742.26v8.98h-33.85v-8.98H1724.22z M1690.41,1669.65h5.56v-6.49h-5.56V1669.65z M1693.89,1692.51h26.73v-4.48h-26.73
					V1692.51z M1693.89,1704.32h26.73v-4.53h-26.73V1704.32z M1712.26,1683.76v25.2h-10.49v-25.2H1712.26z M1733.49,1655.81v21.13
					h-24.63v-21.13H1733.49z M1717.9,1669.65h6.03v-6.49h-6.03V1669.65z M1760.46,1653.65v29.75c0,21.2-2.86,51.08-22.75,71.75
					c-2.08-2.59-6.59-6.85-9.74-8.91c19.06-17.85,19.91-44.93,19.91-62.84v-29.75H1760.46z M1778.96,1682.67v11.9h-44.87v-11.9
					H1778.96z M1780.94,1744.67c-2.89,2.34-7.09,7.21-9.08,10.66c-12.78-13.51-17.97-37.01-20.94-63.84l10.44-1.53
					C1763.94,1712.64,1769.34,1733.78,1780.94,1744.67z M1771.36,1656.96c3.54,5.73,7.12,13.35,8.34,18.41l-10.79,4.17
					c-0.98-5.03-4.29-12.9-7.66-18.82L1771.36,1656.96z"/>
				<path class="st6" d="M1811.07,1736.86c0-5.64,4.1-9.52,9.55-9.52c5.45,0,9.55,3.88,9.55,9.52s-4.1,9.6-9.55,9.6
					C1815.08,1746.46,1811.07,1742.5,1811.07,1736.86z M1812.2,1680.69l-0.51-16.08h17.85l-0.51,16.08l-2.86,36.96h-11.12
					L1812.2,1680.69z"/>
				<g>
					<g>
						<polygon class="st9" points="1241.75,1654.79 1168.44,1654.79 1131.78,1718.28 1205.1,1782.29 1278.41,1718.28 						"/>
						<polygon class="st10" points="1168.44,1654.79 1205.1,1718.54 1241.75,1654.79 						"/>
						<polygon class="st10" points="1131.78,1718.28 1168.44,1718.28 1205.1,1782.29 						"/>
						<polygon class="st10" points="1205.1,1718.54 1205.1,1782.29 1241.75,1718.54 						"/>
					</g>
					<g>
						<rect x="1252.56" y="1680.64" class="st11" width="12.93" height="12.93"/>
						<rect x="1265.48" y="1667.71" class="st11" width="12.93" height="12.93"/>
						<rect x="1239.63" y="1667.71" class="st11" width="12.93" height="12.93"/>
						<rect x="1252.56" y="1654.79" class="st11" width="12.93" height="12.93"/>
					</g>
					<g>
						<rect x="1144.71" y="1743.09" class="st11" width="12.93" height="12.93"/>
						<rect x="1157.64" y="1730.16" class="st11" width="12.93" height="12.93"/>
						<rect x="1131.78" y="1730.16" class="st11" width="12.93" height="12.93"/>
						<rect x="1144.71" y="1717.23" class="st11" width="12.93" height="12.93"/>
					</g>
				</g>
			</g>
		</g>
	</g>
</g>
</svg>
