<?xml version="1.0" encoding="utf-8"?>
<!-- Generator: Adobe Illustrator 25.2.3, SVG Export Plug-In . SVG Version: 6.00 Build 0)  -->
<svg version="1.1" id="圖層_1" xmlns="http://www.w3.org/2000/svg" xmlns:xlink="http://www.w3.org/1999/xlink" x="0px" y="0px"
	 viewBox="0 0 1146 526" style="enable-background:new 0 0 1146 526;" xml:space="preserve">
<style type="text/css">
	.st0{fill:#F7F8F8;}
	.st1{fill:#DCDDDD;}
	.st2{fill:#FFFFFF;}
	.st3{fill:#B5B5B6;}
	.st4{fill:#1D2088;}
</style>
<g>
	<g>
		<g>
			<g>
				<rect class="st0" width="1146" height="526"/>
			</g>
			<g>
				<polygon class="st1" points="1146,0 1081.62,64.36 1081.62,174.59 1146,174.59 				"/>
			</g>
			<g>
				<polygon class="st1" points="1146,526 1081.62,461.64 1081.62,145.48 1146,145.48 				"/>
			</g>
			<g>
				<polygon class="st2" points="0,0 64.38,64.36 334.61,64.36 334.61,0 				"/>
			</g>
			<g>
				<polygon class="st2" points="1146,0 1081.62,64.36 305.49,64.36 305.49,0 				"/>
			</g>
			<g>
				<polygon class="st3" points="1146,526 1081.62,461.64 351.53,461.64 351.53,526 				"/>
			</g>
			<g>
				<polygon class="st3" points="0,526 64.38,461.64 380.65,461.64 380.65,526 				"/>
			</g>
		</g>
	</g>
	<g>
		<path class="st4" d="M266.49,203.67v144.06h-18.77V203.67H266.49z M297.53,225.47v12.49H257.3v-12.49H297.53z M309.7,203.67v56.83
			h-50.58v-13.74h32.59v-29.47h-32.59v-13.62H309.7z M307.04,274.13v30.65c0,10.27-4.27,31.31-21.09,42.85
			c-2.67-3.36-8.39-8.45-12.29-11c13.56-8.36,17.01-23.75,17.01-31.98v-30.53H307.04z M356.49,295.97v15.65h-82.57v-15.65H356.49z
			 M353.82,268.75v15.11h-77.51v-15.11H353.82z M374.26,217.29h-35.9v29.85h35.9v13.74h-54.14v-57.21h54.14V217.29z M338.75,273.43
			v71.32h-16.9v-71.32H338.75z M371.92,225.47v12.49h-40.37v-12.49H371.92z M383.29,203.67V325.4c0,9.66-1.69,15.02-7.49,18.22
			c-5.92,3.17-14.23,3.67-26.51,3.54c-0.57-5.15-3.08-13.99-5.66-18.96c7.06,0.28,15.06,0.28,17.53,0.25
			c2.43-0.04,3.23-0.96,3.23-3.27V203.67H383.29z"/>
		<path class="st4" d="M469.89,220.11v19.54c0,30.64-4.14,76.37-46.2,107.76c-2.67-3.95-8.89-10.01-12.91-12.89
			c38.5-27.64,41.96-68.25,41.96-95v-19.42H469.89z M477.05,229.05l-0.16,16.08c-22.45,1.65-46.25,3.06-63.73,4.23l-1.8-17.05
			C428.29,231.66,453.19,230.29,477.05,229.05z M431.01,198.35l17.7,1.1c-3.29,29.78-11.08,66.89-17.81,90.77l-16.21-5.5
			C421.37,262.79,428.64,226.61,431.01,198.35z M425.43,272.01c16.58,13.76,40.99,33.75,52.03,46.51l-11.81,15.06
			c-10.67-13.26-34.08-34.14-50.96-48.86L425.43,272.01z M471.57,253.66c3.56-0.94,6.45-4.39,10.24-10.05
			c3.89-5.42,15.31-26.15,22-46.06l20.02,5.29c-8.99,21.57-21.73,43.47-33.13,58.48v0.41c0,0-12.87,6.21-12.87,9.81
			C476.79,267.76,473.71,258.59,471.57,253.66z M477.33,256.4l10.34-6.23l64.48-4.32c0.91,5.3,2.6,12.71,3.95,16.79
			c-63.08,5.51-71.95,6.36-78.27,8.89L477.33,256.4z M553.89,280.46v66.97h-18.36v-50.08h-39.21v50.22h-17.49v-67.11H553.89z
			 M544.11,324.29v16.86H491v-16.86H544.11z M537.97,220.1c11.13,14,21.93,32.58,26.67,45.41l-16.51,8.78
			c-4.09-12.9-14.92-32.48-25.44-46.6L537.97,220.1z"/>
		<path class="st4" d="M616.28,273.67l2.99-0.41l7.99,3.24c-4.56,34.92-16.08,58.96-32.73,71.67c-2.42-3.74-8.8-10.24-12.41-12.78
			c15.34-10.82,25.03-31.07,28.42-58.81v-2.9H616.28z M583.3,275.3c2.7-0.64,5.26-1.97,8.16-5.1c4.37-4.53,17.65-25.06,22.65-33.84
			v-0.57l4.86-1.99l11.89,4.95c-7.02,10.96-19.84,31.32-28.46,41.64c0,0-12.89,6.3-12.89,10.59
			C588.53,286.89,585.1,278.74,583.3,275.3z M619.52,234.86v15.27h-33.76v-15.27H619.52z M603.9,197.78
			c6.59,7.66,14.34,17.83,18.27,24.42l-15.35,9.47c-3.59-6.84-11.34-18-17.61-25.99L603.9,197.78z M589.51,277.24l6.88-3.58h23.66
			l-0.12,14.86h-20.56c-3.82,0-8.5,1.08-9.87,2.45V277.24z M674.62,328.57c17.13,0,43.47-0.94,61.68-2.72
			c-2.71,3.9-5.18,12.53-6.13,17.68c-16.68,1.05-37.17,1.49-55.89,1.49c-37.16,0-57.02-4.93-68.84-35.59l12.81-5.11
			C626.82,325.9,645.58,328.44,674.62,328.57z M652.67,225.59v22.24c0,20.46-2.06,51.09-18.48,71.46c-2.49-3.2-7.96-8.44-11.48-10.7
			c13.39-17.86,14.81-43.74,14.81-61.01v-21.99H652.67z M678.83,218.24v15.74h-53.71v-15.74H678.83z M658.16,197.35
			c2.5,6.54,5.36,15.03,6.56,20.66l-17.24,3.66c-1.08-5.7-3.65-14.69-5.99-21.35L658.16,197.35z M678.35,246.23
			c0,0-0.12,4.61-0.12,6.6c-1.33,42.64-2.72,58.56-6.5,63.74c-2.72,3.86-5.58,5.16-9.48,5.94c-3.31,0.53-8.36,0.62-13.8,0.55
			c-0.29-4.68-1.89-11.25-4.06-15.36c3.98,0.44,7.19,0.44,9.23,0.44c1.8,0.04,2.95-0.37,4.03-2.1c2.33-3.21,3.53-16.99,4.58-56.91
			v-2.9H678.35z M668.07,246.23v15.52h-21.79v-15.52H668.07z M707.68,201.09c-4.84,15.78-12.8,33-20.42,43.87
			c-2.96-2.79-9.4-7.94-13.14-10.33c7.28-9.55,13.93-24.1,17.7-37.96L707.68,201.09z M733.48,270.07v15.11H680.8v-15.11H733.48z
			 M714.93,260.99v43.69c0,7.44-1.05,12.03-6.3,14.58c-4.93,2.58-11.62,2.83-20.61,2.83c-0.57-4.65-2.99-11.39-5.29-15.83
			c5.81,0.16,11.76,0.16,13.55,0.12c1.92,0,2.4-0.48,2.4-1.95v-43.44H714.93z M720.39,238.83v13.9h-35.17v-13.9H720.39z
			 M733.82,213.61v15.77h-47.28v-15.77H733.82z M719.46,238.83l3.08-0.94l10.1,7.73c-6.92,8.9-16.53,18.71-25.05,25.24
			c-2.05-3.08-6.36-7.57-8.9-9.86c6.36-5.08,13.55-13.61,16.91-19.29v-2.87H719.46z"/>
		<path class="st4" d="M778.7,223.62v43.64c0,22.73-1.81,56.98-12.46,78.89c-2.58-2.95-9.49-8.44-12.89-10.17
			c8.99-19.93,9.7-48.35,9.7-68.73v-43.64H778.7z M837.07,223.62v12.28h-66.7v-12.28H837.07z M844.15,326.22v13.24
			c-23.44,2.06-48.15,4.06-66.03,5.36l-1.74-13.94C793.55,329.91,819.43,328.1,844.15,326.22z M825.46,241.29l1.26,9.72l-45.56,4.12
			l-1.26-9.84L825.46,241.29z M844.75,272.2v11.91h-62.88V272.2H844.75z M841.22,288.53v25.62h-55.96v-25.62H841.22z M802.98,315.56
			c2.01,4.95,4.12,11.48,5.02,15.65l-13.5,2.81c-0.78-4.33-2.82-11.14-4.58-16.22L802.98,315.56z M810.57,197.49v30.88h-17.74
			v-30.88H810.57z M811.38,233.94v19.57c0,3.37,0.36,4.8,3.73,4.8c2.18,0,9.24,0,11.67,0c2.99,0,8.91-0.25,11.33-0.98
			c0.29,3.9,0.48,6.97,1.01,10.55c-2.35,0.82-7.45,0.98-11.56,0.98c-3.47,0-13.82,0-17.23,0c-12.14,0-14.32-5.57-14.32-15.51v-19.41
			H811.38z M799.51,304.99h26.6v-7.21h-26.6V304.99z M843.6,205.55v12.28h-42.04v-12.28H843.6z M837.43,316.87
			c-3.88,6.7-8.05,13.21-11.31,17.81l-12.23-2.56c2.79-5.17,6.13-12.39,7.8-17.5L837.43,316.87z M834.65,223.62l2.49-0.45l11.24,1.9
			c-1.72,8.82-4.25,18.97-6.4,25.49l-13.61-2.29c1.42-5.83,3.13-15.23,4.07-22.75v-1.9H834.65z M903.64,266.11
			c-8.62,30.2-26.86,61.27-48.96,77.04c-3.2-4.15-8.89-9.58-13.53-12.66c22.65-13.7,40.42-42.86,48.35-71.86L903.64,266.11z
			 M904.01,235.71l2.14,16.7l-59.29,7.98l-2.3-16.82L904.01,235.71z M871.95,198.2c0.32,67.93,7.35,125.75,17.36,126.55
			c2.36,0,3.96-7.45,4.77-21.07c2.83,3.83,10.21,8.96,13.23,10.68c-4.02,26.8-11.91,32.82-18.22,32.66
			c-26.31-0.89-33.05-60.97-34.79-148.82H871.95z M889.45,199.96c5.02,7.98,11.84,18.9,15.1,25.49l-14.98,7.96
			c-2.89-6.79-9.17-18.24-14.2-26.63L889.45,199.96z"/>
	</g>
</g>
</svg>
