<?xml version="1.0" encoding="utf-8"?>
<!-- Generator: Adobe Illustrator 25.2.3, SVG Export Plug-In . SVG Version: 6.00 Build 0)  -->
<svg version="1.1" id="圖層_1" xmlns="http://www.w3.org/2000/svg" xmlns:xlink="http://www.w3.org/1999/xlink" x="0px" y="0px"
	 viewBox="0 0 1146 526" style="enable-background:new 0 0 1146 526;" xml:space="preserve">
<style type="text/css">
	.st0{fill:#F7F8F8;}
	.st1{fill:#DCDDDD;}
	.st2{fill:#FFFFFF;}
	.st3{fill:#B5B5B6;}
	.st4{fill:#1D2087;}
</style>
<g id="圖層_2_1_">
	<g>
		<g>
			<g>
				<g>
					<g>
						<rect x="-0.21" y="-0.19" class="st0" width="1146.42" height="526.38"/>
					</g>
				</g>
				<g>
					<g>
						<polygon class="st1" points="1146.21,-0.19 1081.8,64.21 1081.8,174.53 1146.21,174.53 						"/>
					</g>
				</g>
				<g>
					<g>
						<polygon class="st1" points="1146.21,526.19 1081.8,461.78 1081.8,145.39 1146.21,145.39 						"/>
					</g>
				</g>
				<g>
					<g>
						<polygon class="st2" points="-0.21,-0.19 64.2,64.21 334.52,64.21 334.52,-0.19 						"/>
					</g>
				</g>
				<g>
					<g>
						<polygon class="st2" points="1146.21,-0.19 1081.8,64.21 305.39,64.21 305.39,-0.19 						"/>
					</g>
				</g>
				<g>
					<g>
						<polygon class="st3" points="1146.21,526.19 1081.8,461.78 351.45,461.78 351.45,526.19 						"/>
					</g>
				</g>
				<g>
					<g>
						<polygon class="st3" points="-0.21,526.19 64.2,461.78 380.58,461.78 380.58,526.19 						"/>
					</g>
				</g>
			</g>
		</g>
		<g>
			<g>
				<path class="st4" d="M275,273.67l2.99-0.41l9.21,3.37c-5.35,35.46-18.54,59.02-37.16,71.23c-2.42-3.65-8.68-10.24-12.29-12.79
					c17.3-10.45,28.67-30.34,32.63-58.5v-2.9L275,273.67L275,273.67z M238.68,275.44c2.58-0.64,5.26-1.85,8.32-5.14
					c4.69-4.53,19.16-24.92,24.6-33.7v-0.57l4.9-1.99l11.65,5.24c-7.5,10.97-21.38,30.93-30.48,41.26c0,0-12.89,6.3-12.89,10.47
					C243.79,287.03,240.35,278.87,238.68,275.44z M275.74,234.83v15.28h-33.91v-15.28H275.74z M244.77,277.25l6.89-3.58h24.16
					l-0.12,14.87h-21.02c-3.86,0-8.53,1.08-9.9,2.46L244.77,277.25L244.77,277.25z M260.05,197.43
					c7.66,7.63,16.68,17.65,21.43,24.09l-14.57,10.64c-4.44-6.81-13.67-17.97-21.05-25.94L260.05,197.43z M330.62,328.61
					c17.1,0,43.49-0.98,61.67-2.72c-2.71,3.9-5.22,12.58-6.16,17.76c-16.65,1.05-37.11,1.49-55.84,1.49
					c-37.14,0-56.97-4.96-68.79-35.66l12.85-5.15C282.88,325.95,301.68,328.49,330.62,328.61z M325.17,203.05
					c-8.36,23.49-21.92,47.4-36.76,62.58c-1.67-3.67-6.5-12.01-9.4-15.77c12.53-12.46,23.91-31.68,30.5-51.33L325.17,203.05z
					 M385.18,222.97v15.28h-70.24v77.27h-17.16v-77.58l14.12-14.98h3.03h70.25V222.97z M379.18,248.73v14.5H306.1v-14.5H379.18z
					 M387.73,299.77v15.75h-81.51v-15.75H387.73z M379.43,274.02v14.54h-72.45v-14.54H379.43z M348.97,199.72
					c4.44,7.84,9.02,18.44,10.68,25.21l-16.59,5.04c-1.44-6.69-5.61-17.57-9.77-25.82L348.97,199.72z M352.83,228.99v78.68h-16.62
					v-78.68H352.83z"/>
			</g>
			<g>
				<path class="st4" d="M494.73,245.51c-11.22,47.46-32.43,81.83-65.84,102.02c-3.55-4.04-12.49-12.08-17.55-15.66
					c33.48-16.92,52.66-48.02,61.42-90.32L494.73,245.51z M489.07,206.38v19.53h-45.41v-19.53H489.07z M499.48,206.38
					c0,30.46,4.25,89.32,63.56,124.11c-4.37,3.42-12.15,11.89-15.48,16.75c-60.93-36.68-67.94-108.1-67.94-140.86H499.48z"/>
			</g>
			<g>
				<path class="st4" d="M616.3,273.67l2.99-0.41l8,3.24c-4.57,34.94-16.08,59-32.74,71.72c-2.42-3.74-8.8-10.24-12.42-12.79
					c15.34-10.83,25.04-31.09,28.43-58.86v-2.9H616.3z M583.3,275.31c2.7-0.64,5.26-1.97,8.16-5.1
					c4.37-4.53,17.66-25.08,22.66-33.86v-0.57l4.86-1.99l11.9,4.95c-7.02,10.97-19.85,31.34-28.47,41.67c0,0-12.89,6.3-12.89,10.6
					C588.54,286.91,585.1,278.75,583.3,275.31z M619.53,234.83v15.28h-33.77v-15.28H619.53z M603.91,197.73
					c6.6,7.66,14.35,17.85,18.28,24.44l-15.36,9.48c-3.59-6.84-11.34-18.01-17.62-26.01L603.91,197.73z M589.52,277.25l6.89-3.58
					h23.67l-0.12,14.87H599.4c-3.82,0-8.5,1.08-9.87,2.46v-13.75H589.52z M674.65,328.61c17.14,0,43.49-0.94,61.7-2.72
					c-2.71,3.9-5.18,12.54-6.13,17.69c-16.69,1.05-37.19,1.49-55.91,1.49c-37.17,0-57.04-4.93-68.86-35.62l12.81-5.11
					C626.84,325.95,645.6,328.49,674.65,328.61z M652.7,225.56v22.25c0,20.47-2.06,51.13-18.49,71.51
					c-2.49-3.21-7.96-8.45-11.49-10.71c13.4-17.87,14.82-43.77,14.82-61.06v-22h15.16V225.56z M678.87,218.2v15.75h-53.73V218.2
					H678.87z M658.19,197.3c2.5,6.54,5.36,15.04,6.57,20.67l-17.25,3.67c-1.08-5.71-3.65-14.7-6-21.37L658.19,197.3z M678.39,246.22
					c0,0-0.12,4.61-0.12,6.6c-1.33,42.67-2.72,58.61-6.5,63.78c-2.72,3.86-5.59,5.16-9.48,5.95c-3.31,0.53-8.36,0.62-13.8,0.55
					c-0.29-4.68-1.89-11.26-4.06-15.37c3.98,0.44,7.19,0.44,9.24,0.44c1.8,0.04,2.95-0.37,4.04-2.1c2.33-3.22,3.53-17.01,4.58-56.96
					v-2.9h16.1V246.22z M668.11,246.22v15.53h-21.8v-15.53H668.11z M707.72,201.04c-4.84,15.8-12.81,33.02-20.43,43.9
					c-2.96-2.8-9.4-7.95-13.15-10.33c7.28-9.56,13.93-24.11,17.7-37.98L707.72,201.04z M733.54,270.08v15.12h-52.71v-15.12H733.54z
					 M714.98,260.99v43.72c0,7.44-1.05,12.04-6.3,14.59c-4.93,2.58-11.62,2.83-20.62,2.83c-0.57-4.65-2.99-11.4-5.29-15.84
					c5.81,0.16,11.76,0.16,13.56,0.12c1.92,0,2.4-0.48,2.4-1.96v-43.47L714.98,260.99L714.98,260.99z M720.44,238.81v13.91h-35.19
					v-13.91H720.44z M733.88,213.58v15.78h-47.29v-15.78H733.88z M719.52,238.81l3.08-0.94l10.1,7.73
					c-6.92,8.91-16.54,18.73-25.06,25.25c-2.05-3.08-6.36-7.57-8.91-9.87c6.36-5.08,13.56-13.62,16.92-19.31v-2.87h3.87V238.81z"/>
			</g>
			<g>
				<path class="st4" d="M778.78,223.59v43.67c0,22.75-1.81,57.02-12.47,78.95c-2.58-2.96-9.49-8.45-12.9-10.17
					c9-19.95,9.71-48.38,9.71-68.78v-43.67H778.78z M837.17,223.59v12.29h-66.73v-12.29H837.17z M844.25,326.26v13.25
					c-23.45,2.06-48.16,4.07-66.05,5.36l-1.74-13.95C793.63,329.95,819.52,328.14,844.25,326.26z M825.55,241.27l1.26,9.72
					l-45.58,4.12l-1.26-9.85L825.55,241.27z M844.85,272.2v11.91h-62.9V272.2H844.85z M841.32,288.55v25.64h-55.98v-25.64H841.32z
					 M803.07,315.59c2.01,4.95,4.12,11.49,5.02,15.66l-13.5,2.81c-0.78-4.33-2.82-11.15-4.58-16.23L803.07,315.59z M810.65,197.45
					v30.9H792.9v-30.9H810.65z M811.47,233.92v19.58c0,3.38,0.36,4.8,3.74,4.8c2.19,0,9.24,0,11.68,0c2.99,0,8.92-0.25,11.33-0.98
					c0.29,3.9,0.48,6.98,1.01,10.56c-2.35,0.82-7.46,0.98-11.56,0.98c-3.47,0-13.82,0-17.24,0c-12.14,0-14.33-5.57-14.33-15.52
					v-19.42L811.47,233.92L811.47,233.92z M799.59,305.02h26.6v-7.21h-26.6V305.02z M843.7,205.51v12.29h-42.06v-12.29H843.7z
					 M837.53,316.91c-3.88,6.7-8.06,13.22-11.31,17.82l-12.24-2.56c2.79-5.17,6.13-12.4,7.8-17.52L837.53,316.91z M834.75,223.59
					l2.49-0.45l11.24,1.9c-1.73,8.82-4.25,18.98-6.4,25.51l-13.61-2.29c1.42-5.83,3.13-15.25,4.07-22.77v-1.9H834.75z
					 M903.76,266.11c-8.62,30.22-26.87,61.31-48.98,77.1c-3.21-4.15-8.89-9.58-13.54-12.67c22.66-13.71,40.43-42.89,48.37-71.92
					L903.76,266.11z M904.14,235.69l2.14,16.71l-59.31,7.98l-2.3-16.84L904.14,235.69z M872.06,198.16
					c0.32,67.98,7.35,125.84,17.36,126.64c2.36,0,3.96-7.46,4.77-21.09c2.83,3.83,10.21,8.96,13.24,10.69
					c-4.02,26.82-11.91,32.84-18.22,32.68c-26.32-0.89-33.06-61.01-34.8-148.92L872.06,198.16L872.06,198.16z M889.56,199.91
					c5.02,7.98,11.84,18.91,15.11,25.51l-14.98,7.96c-2.89-6.79-9.18-18.26-14.2-26.65L889.56,199.91z"/>
			</g>
		</g>
	</g>
</g>
</svg>
