<?xml version="1.0" encoding="utf-8"?>
<!-- Generator: Adobe Illustrator 25.2.3, SVG Export Plug-In . SVG Version: 6.00 Build 0)  -->
<svg version="1.1" id="圖層_1" xmlns="http://www.w3.org/2000/svg" xmlns:xlink="http://www.w3.org/1999/xlink" x="0px" y="0px"
	 viewBox="0 0 2160 3840" style="enable-background:new 0 0 2160 3840;" xml:space="preserve">
<style type="text/css">
	.st0{opacity:0.85;}
	.st1{fill:#1D2087;}
	.st2{fill:#F7F8F8;}
	.st3{fill:#1D2088;}
	.st4{fill:#EF8220;}
	.st5{fill:#FFFFFF;}
</style>
<g>
	<g class="st0">
		<rect class="st1" width="2160" height="3840"/>
	</g>
	<g>
		<g>
			<path class="st2" d="M1924.81,2112.01H237.16c-57.03,0-103.25-46.23-103.25-103.25v-500.32c0-57.03,46.23-103.25,103.25-103.25
				h1687.64c57.03,0,103.25,46.23,103.25,103.25v500.32C2028.06,2065.79,1981.83,2112.01,1924.81,2112.01z"/>
		</g>
		<g>
			<path class="st3" d="M451.44,1687.79c-0.77,9.75-2.5,20.18-4.64,26.94c-2.21-1.19-6.75-2.71-9.17-3.38
				c2.38-6.44,3.59-16.25,4.25-25.16L451.44,1687.79z M438,1646.71c1.97-0.59,3.86-2.66,5.91-5.93c2.19-3.13,8.89-15.36,12.58-26.99
				l10.53,4.46c-4.96,11.81-12.13,24.45-18.92,33.04v0.26c0,0-6.49,3.55-6.49,5.68C441.05,1654.98,439.3,1649.68,438,1646.71z
				 M438.83,1672.11c2.62-0.67,4.89-3.32,8.25-7.48c3.49-4.07,14.46-20.2,21.05-35.63l9.56,6.17
				c-7.63,15.05-18.35,30.54-28.77,41.68v0.28c0,0-6.6,3.5-6.6,5.63C441.88,1680.52,440.05,1675.08,438.83,1672.11z M441.36,1648.83
				l4.82-3.29l18.54-1.29c-0.62,2.96-1.14,7.2-1.23,9.58c-16.59,1.62-19.87,2.41-21.88,3.41L441.36,1648.83z M441.91,1674.14
				l4.78-3.37l27.94-3.86c-0.37,2.85-0.6,7.09-0.49,9.4c-25.28,4.06-29.36,5.14-31.81,6.45L441.91,1674.14z M462.44,1685.46
				c1.34,7.33,2.52,16.69,2.93,23.01l-9.22,2.44c-0.13-6.4-1.28-15.96-2.37-23.29L462.44,1685.46z M473.1,1657.21
				c2.72,6.61,5.83,15.4,7.23,20.53l-9.2,3.85c-1.06-5.41-4.02-14.42-6.52-21.2L473.1,1657.21z M473.57,1682.2
				c2.49,6.67,5.01,15.18,6.22,20.75l-8.63,3.28c-0.95-5.77-3.49-14.53-5.68-21.2L473.57,1682.2z M530.6,1618.25v11.43h-38.89v87.29
				H480v-98.72H530.6z M524.98,1648.54v9.88h-31.29v-9.88H524.98z M524.56,1667.68v9.91h-30.35v-9.91H524.56z M503.04,1631.8
				c2.19,4.48,4.04,10.6,4.62,14.51l-7.86,2.75c-0.41-4.02-2.18-10.22-4.23-14.82L503.04,1631.8z M507.96,1673.06v11.18
				c0,2.42,0.29,3.38,2.01,3.38c1.35,0,6.36,0,7.78,0c1.72,0,4.74-0.17,6.33-0.67c0.2,2.71,0.42,6.48,0.78,8.96
				c-1.58,0.59-4.4,0.67-6.83,0.67c-1.81,0-7.52,0-9.23,0c-9.37,0-11.32-3.56-11.32-12.46v-11.07H507.96z M511.7,1657.64
				c1.37,2.62,3,6.23,3.7,8.45l-9.36,3.45c-0.61-2.44-2.11-6.21-3.39-9.01L511.7,1657.64z M523.83,1634.28
				c-2.05,6.24-3.99,13.15-5.78,17.69l-7.33-2.15c1.45-4.9,3.38-12.56,4.12-17.8L523.83,1634.28z M538.9,1618.25v85.69
				c0,5.82-0.94,8.86-4.4,10.81c-3.46,1.84-8.33,2.12-15.33,2.09c-0.39-3.09-1.8-8.17-3.29-11.16c3.81,0.22,8.04,0.2,9.39,0.2
				c1.43-0.11,1.87-0.55,1.87-2v-85.62H538.9z"/>
			<path class="st3" d="M601.64,1690.35l1.27,11.66c-15.57,3.83-32.25,7.74-44.8,10.66l-2.23-12.67
				C567.52,1697.97,585.15,1694.09,601.64,1690.35z M571.48,1662.02v40.05h-10.74v-40.05H571.48z M599.65,1617.68v36.53h-38.07
				v-36.53H599.65z M573.03,1642.96h14.51v-14.02h-14.51V1642.96z M588.67,1649.68v49.13h-11.71v-49.13H588.67z M600.72,1667.12
				v11.51h-19.07v-11.51H600.72z M643.2,1624.01l2.31-0.48l8.35,3.56c-7.96,27.6-26.54,45.16-48.93,54.63
				c-1.55-3-4.86-7.56-7.43-9.93c19.82-7.27,37.24-24.12,43.41-45.64v-2.14H643.2z M630.53,1616.54
				c-4.86,14.81-13.06,29.14-21.98,38.2c-2.15-2.35-7.27-6.63-10.21-8.55c8.6-7.66,15.81-19.96,19.66-32.74L630.53,1616.54z
				 M652.94,1675.81v40.42h-12.63v-29.34h-20.75v29.67h-12.11v-40.75H652.94z M661.43,1669.06c-2.66,2.52-6.46,7.77-8.21,11.13
				c-22.63-8.81-37-28.02-43.8-44.26l8.9-5.79C624.64,1645.04,638.96,1662.06,661.43,1669.06z M647.51,1701.51v11.34h-34.68v-11.34
				H647.51z M645.49,1624.01v11.17h-27.9v-11.17H645.49z"/>
			<path class="st3" d="M712.65,1631.82v10.42h-38.13v-10.42H712.65z M689.87,1677.56v37.8h-10.76v-37.8H689.87z M710.13,1647.28
				v9.97h-30.68v-9.97H710.13z M710.13,1662.29v9.97h-30.68v-9.97H710.13z M692.81,1613.68c4.08,4.39,8.25,10.43,10.24,14.6
				l-10.47,5.73c-1.8-4.3-5.96-10.88-9.85-15.53L692.81,1613.68z M710.37,1677.56v33.28h-24.89v-10.33h14.06v-12.62h-14.06v-10.33
				H710.37z M744.63,1642.37c-6,10.97-16.51,21.22-27.33,26.53c-1.84-2.85-5.51-7.32-8.17-9.53c10.18-4.05,20.34-12.08,25.52-20.51
				L744.63,1642.37z M740.94,1671.46c-0.96,21.96-4.06,37.15-23.54,45.71c-1.3-2.98-4.63-7.48-7.2-9.75
				c16.03-6.63,17.68-18.24,18.43-35.96H740.94z M777.55,1634.09v11.08H714.9v-11.08H777.55z M774.45,1623.27
				c-14.98,3.78-36.19,5.45-53.94,5.78c-0.37-2.85-1.86-7.24-3.07-9.92c17.07-0.69,36.85-2.43,48.66-5.36L774.45,1623.27z
				 M752.31,1667.79v11.17h-34.04v-11.17H752.31z M751.56,1624.18v41.17h-12.2v-41.17H751.56z M775.66,1681.39
				c0,0-0.2,2.97-0.39,4.49c-1.17,16.84-2.49,24.38-5.26,27.42c-2.18,2.41-4.49,3.28-7.67,3.65c-2.7,0.26-7.51,0.32-12.61,0.14
				c-0.2-3.34-1.47-7.92-3.22-10.97c4.16,0.46,8.15,0.49,10,0.49c1.57,0,2.54-0.11,3.51-1.05c1.55-1.64,2.7-7.64,3.56-22.65v-1.52
				H775.66z M755.08,1638.35c7.82,6.44,18.2,15.65,23.07,21.82l-9.16,7.41c-4.48-6.23-14.52-15.86-22.42-22.75L755.08,1638.35z
				 M763.54,1667.79c-1.46,8.23-3.3,17.71-4.84,24.02h-11.82c1.62-6.55,3.41-16.09,4.47-24.02H763.54z M767.26,1681.39v10.42H751.8
				l2.11-10.42H767.26z"/>
			<path class="st3" d="M829.74,1660.72l1.58,11.89c-12.48,3.54-25.82,7.16-36.32,9.94l-3.27-12.67
				C801.57,1667.79,816.06,1664.2,829.74,1660.72z M829.99,1634.33v12.22h-36.6v-12.22H829.99z M819.42,1613.56v89.5
				c0,6.23-1.14,9.5-4.77,11.42c-3.72,2.01-8.89,2.38-16.6,2.35c-0.39-3.32-2.08-8.52-3.64-11.92c4.26,0.2,8.79,0.2,10.2,0.17
				c1.52,0,2.09-0.53,2.09-2.09v-89.44H819.42z M864.03,1669.59c-1.59,22.14-5.82,38.27-30.46,47.55c-1.38-3.23-4.8-7.96-7.61-10.31
				c21-7.21,23.26-19.82,24.48-37.24H864.03z M885.65,1664.77v12.14h-51.32v-12.14H885.65z M890.24,1617.88v38.66h-52.22v-38.66
				H890.24z M850.04,1645h27.37v-15.61h-27.37V1645z M893.34,1664.77c0,0-0.09,3.6-0.17,5.2c-1.5,26.96-3.07,38-6.43,41.95
				c-2.4,3-4.93,3.98-8.47,4.49c-3.01,0.45-8.1,0.51-13.43,0.33c-0.28-3.8-1.62-8.98-3.73-12.37c4.55,0.38,8.78,0.49,10.76,0.49
				c1.75,0,2.82-0.28,3.9-1.44c2.15-2.32,3.54-11.85,4.7-36.6v-2.06H893.34z"/>
			<path class="st3" d="M927.78,1631.4v82.25h-11.96v-82.25H927.78z M951.11,1660.78v11.43h-28.1v-11.43H951.11z M957.27,1631.4
				v74.11h-33.79v-11.62h21.83v-50.97h-21.83v-11.51H957.27z M945.84,1615.6c-2.49,7.45-5.3,15.27-7.51,20.43l-10.56-2.36
				c1.51-5.72,3.12-14.12,3.67-20.19L945.84,1615.6z M984.82,1616.58c-4.34,16.24-11.48,32.97-18.98,43.51
				c-2.35-2.16-7.81-5.95-10.84-7.68c7.36-9.29,13.59-24.25,17.11-38.81L984.82,1616.58z M977.02,1656.49
				c5.41,7.6,12.73,18.12,16.12,24.61l-11.18,6.87c-3.03-6.71-9.92-17.56-15.28-25.65L977.02,1656.49z M1003.94,1630.56v12.05
				h-32.16v-12.05H1003.94z M1011.58,1630.56c0,0,0,4.36-0.09,5.96c-1.46,49.5-2.71,67.05-7.26,72.86
				c-3.07,4.26-6.14,5.43-10.64,6.14c-4.16,0.62-10.86,0.49-17.31,0.22c-0.22-3.59-1.98-9.2-4.36-12.8
				c7.09,0.64,13.69,0.66,16.51,0.66c2.2,0,3.43-0.39,4.79-1.91c3.57-3.81,4.97-22.72,6.13-68.61v-2.53H1011.58z"/>
			<path class="st3" d="M1131.64,1670.18v12.91h-101.07v-12.91H1131.64z M1121.64,1624.26c-22.65,5.85-54.37,8.53-81.28,9.48
				c-0.37-3.37-1.98-8.7-3.26-11.61c26.53-1.09,56.87-3.97,74.95-8.81L1121.64,1624.26z M1125.1,1644.57v12.63h-86.96v-12.63H1125.1
				z M1088.06,1628.87v72.22c0,7.82-1.97,11.31-7.26,13.34c-5.31,2.03-13.32,2.38-24.54,2.27c-0.85-3.71-3.37-9.6-5.4-13.08
				c8.17,0.31,17.36,0.28,19.95,0.26c2.51-0.02,3.47-0.79,3.47-3.02v-71.98H1088.06z"/>
			<path class="st3" d="M1155.03,1644.18c6.87,2.56,16.3,7.17,21.02,10.8l-7.36,10.99c-4.31-3.72-13.55-8.8-20.62-11.9
				L1155.03,1644.18z M1172.86,1671.92l9.69,8.78c-5.83,11.57-12.81,24.13-19.45,34.86l-11.16-8.92
				C1157.79,1698.41,1166.27,1684.66,1172.86,1671.92z M1161.83,1614.75c6.88,2.74,16.24,7.54,20.95,11.17l-7.7,10.86
				c-4.28-3.85-13.44-9.13-20.52-12.34L1161.83,1614.75z M1247.85,1657.94v12.46h-66.19v-12.46H1247.85z M1183.53,1701.1
				c2.62-0.76,4.58-3.1,7.21-7.17c2.65-3.85,10.75-19.2,15.14-33.58l14.4,4.43c-6.2,15.39-15.29,31.2-23.59,42.08v0.28
				c0,0-8.54,4.62-8.54,7.07C1187.44,1711.44,1185.18,1704.81,1183.53,1701.1z M1243.85,1629.95v12.45h-57.76v-12.45H1243.85z
				 M1187.64,1703.76l6.63-4.14l41-4.37c-0.09,3.54,0.24,8.72,0.64,11.52c-38.28,4.78-44.01,5.67-47.76,7.43L1187.64,1703.76z
				 M1221.29,1613.54v52.55h-13.4v-52.55H1221.29z M1231.72,1679.47c7.39,9.62,15.39,22.41,18.34,31.37l-11.82,5.98
				c-2.49-8.7-10-22.08-17.26-32.13L1231.72,1679.47z"/>
			<path class="st3" d="M1328.03,1617.64c-13.56,12.95-35.38,22.18-55.92,27.6c-1.49-3.09-4.26-7.25-7-10.08
				c19.68-4.06,41.65-12.03,53.25-22.84L1328.03,1617.64z M1291.84,1694.12c-3.57,6.98-8.41,14.71-14.55,19.86l-10.79-6.94
				c5.96-4.41,11.31-11.48,14.35-17.9L1291.84,1694.12z M1289.16,1645.31v15.06c0,8.99-1.31,20.26-8.79,27.3
				c-1.9-2-6.92-5.78-9.58-7.1c6.35-5.99,6.94-13.85,6.94-20.46v-14.8H1289.16z M1312.96,1645.31v8.34h-30.63v-8.34H1312.96z
				 M1309.57,1657.14v6.62h-25.13v-6.62H1309.57z M1309.65,1667.27v6.62h-25.13v-6.62H1309.65z M1308.71,1689.64v11.51
				c0,2.93,0.84,3.23,5.62,3.23c2.11,0,11.14,0,13.95,0c3.74,0,4.53-1.06,4.95-8.59c2.62,1.89,8.03,3.76,11.51,4.41
				c-1.49,12.39-5.04,15.46-15.21,15.46c-2.92,0-14.05,0-16.84,0c-13.86,0-17.03-3.45-17.03-14.33v-11.68H1308.71z M1317.26,1645.31
				v31.09c0,4.77-0.96,6.88-4.26,8.31c-3.13,1.41-7.55,1.41-13.5,1.41c-0.56-2.57-2.17-6.04-3.4-8.37c3.29,0.2,7.01,0.2,8.05,0.09
				c1.19,0,1.6-0.33,1.6-1.43v-31.09H1317.26z M1337.28,1632.68v8.85h-40.16v-8.85H1337.28z M1318.28,1681.56
				c5.14,3.38,12.2,8.47,15.82,11.87l-9.27,7.48c-3.2-3.37-10.17-8.86-15.29-12.63L1318.28,1681.56z M1369.39,1634.04
				c-2.74,2.61-5.96,6.97-7.52,10.59c-11.66-3.12-27.65-8.22-48.21-21.28l9.33-5.61
				C1341.44,1627.79,1357.74,1631.68,1369.39,1634.04z M1336.4,1647.7v26.61h-11.6v-26.61H1336.4z M1357.86,1645.26v30.48
				c0,5.14-0.81,7.76-4.22,9.43c-3.41,1.69-7.64,1.86-13.46,1.86c-0.56-3.22-2.34-7.5-3.75-10.26c3.16,0.11,6.54,0.11,7.58,0.09
				c1.15-0.02,1.48-0.35,1.48-1.37v-30.23H1357.86z M1352.69,1688.51c6.01,5.79,12.38,13.83,14.93,19.81l-11.5,5.6
				c-2.15-5.72-8.15-14.21-14.05-20.29L1352.69,1688.51z"/>
			<path class="st3" d="M1440.93,1667.47c-10.78,19.43-28.47,36.27-48.04,45.32c-2.09-3.37-6.34-8.67-9.34-11.39
				c19.02-7.36,37.12-22.28,46.37-38.17L1440.93,1667.47z M1418.84,1643.3c-4.08,16.03-11.93,29.77-22.13,38.3
				c-2.18-2.35-7.28-6.69-10.21-8.61c9.74-7.06,16.43-18.69,19.52-32.13L1418.84,1643.3z M1483.93,1627.33v12.88h-95.69v-12.88
				H1483.93z M1409.91,1650.99c4.96,4.13,12.16,10.19,15.69,13.92l-8.79,9.3c-3.24-3.98-10.22-10.35-15.26-14.93L1409.91,1650.99z
				 M1442.3,1613.59v103.25h-13.94v-103.25H1442.3z M1487.89,1700.58c-3.28,2.83-7.62,8.39-9.8,12.1
				c-19.15-8.83-36.51-25.42-47.21-44.25l10.86-4.32C1450.98,1679.32,1468.95,1693.61,1487.89,1700.58z M1470.66,1643.19
				c-3.01,13.12-9.01,24.84-16.42,32.16c-2.52-2.01-8.13-5.42-11.24-6.92c7.46-6.23,12.6-16.5,14.87-27.57L1470.66,1643.19z
				 M1462.78,1651.85c6.8,5.19,17.17,12.96,22.27,17.73l-9.14,9.09c-4.64-4.9-14.66-13.1-21.73-18.88L1462.78,1651.85z"/>
			<path class="st3" d="M1564.53,1617.64c-13.56,12.95-35.38,22.18-55.92,27.6c-1.49-3.09-4.26-7.25-7-10.08
				c19.68-4.06,41.65-12.03,53.25-22.84L1564.53,1617.64z M1528.34,1694.12c-3.57,6.98-8.41,14.71-14.55,19.86l-10.79-6.94
				c5.96-4.41,11.31-11.48,14.35-17.9L1528.34,1694.12z M1525.66,1645.31v15.06c0,8.99-1.31,20.26-8.79,27.3
				c-1.9-2-6.92-5.78-9.58-7.1c6.35-5.99,6.94-13.85,6.94-20.46v-14.8H1525.66z M1549.46,1645.31v8.34h-30.63v-8.34H1549.46z
				 M1546.07,1657.14v6.62h-25.13v-6.62H1546.07z M1546.15,1667.27v6.62h-25.13v-6.62H1546.15z M1545.21,1689.64v11.51
				c0,2.93,0.84,3.23,5.62,3.23c2.11,0,11.14,0,13.95,0c3.74,0,4.53-1.06,4.95-8.59c2.62,1.89,8.03,3.76,11.51,4.41
				c-1.49,12.39-5.04,15.46-15.21,15.46c-2.92,0-14.05,0-16.84,0c-13.86,0-17.03-3.45-17.03-14.33v-11.68H1545.21z M1553.76,1645.31
				v31.09c0,4.77-0.96,6.88-4.26,8.31c-3.13,1.41-7.55,1.41-13.5,1.41c-0.56-2.57-2.17-6.04-3.4-8.37c3.29,0.2,7.01,0.2,8.05,0.09
				c1.19,0,1.6-0.33,1.6-1.43v-31.09H1553.76z M1573.78,1632.68v8.85h-40.16v-8.85H1573.78z M1554.78,1681.56
				c5.14,3.38,12.2,8.47,15.82,11.87l-9.27,7.48c-3.2-3.37-10.17-8.86-15.29-12.63L1554.78,1681.56z M1605.89,1634.04
				c-2.74,2.61-5.96,6.97-7.52,10.59c-11.66-3.12-27.65-8.22-48.21-21.28l9.33-5.61
				C1577.94,1627.79,1594.24,1631.68,1605.89,1634.04z M1572.9,1647.7v26.61h-11.6v-26.61H1572.9z M1594.36,1645.26v30.48
				c0,5.14-0.81,7.76-4.22,9.43c-3.41,1.69-7.64,1.86-13.46,1.86c-0.56-3.22-2.34-7.5-3.75-10.26c3.16,0.11,6.54,0.11,7.58,0.09
				c1.15-0.02,1.48-0.35,1.48-1.37v-30.23H1594.36z M1589.19,1688.51c6.01,5.79,12.38,13.83,14.93,19.81l-11.5,5.6
				c-2.15-5.72-8.15-14.21-14.05-20.29L1589.19,1688.51z"/>
			<path class="st3" d="M1695.78,1621.82l2.14-0.56l8.52,4.97c-14.21,26.46-45.43,40.84-77.35,47.28
				c-1.19-3.31-3.76-8.45-6.05-11.28c29.68-4.73,59.37-17.99,70.25-38.53v-1.89H1695.78z M1679,1616.31
				c-11.27,12.79-25.79,23.14-46.31,31.28c-1.84-3.11-5.94-7.64-8.79-9.76c19.53-6.28,33.18-15.57,40.71-24.63L1679,1616.31z
				 M1709.81,1661.93l2.31-0.56l8.76,4.52c-13.38,32.8-45.16,45.8-83.01,51.06c-0.99-3.56-3.48-9-5.66-12
				c34.93-3.59,64.69-15.13,74.94-41.15v-1.86H1709.81z M1696.92,1654.54c-12.32,14.46-29.26,26.16-53.58,34.92
				c-1.55-3.09-5.29-7.96-8.03-10.25c23.02-6.9,38.7-17.42,47.19-27.95L1696.92,1654.54z M1652.54,1633.51
				c6.7,3.14,15.42,8.23,19.74,12.07l-9.34,8.13c-3.98-3.85-12.5-9.33-19.2-12.83L1652.54,1633.51z M1696.28,1621.82v10.83h-37.78
				v-10.83H1696.28z M1668.24,1675.15c6.7,3.59,15.5,9.2,19.86,13.5l-10.21,8.17c-3.88-4.21-12.42-10.3-19.23-14.26L1668.24,1675.15
				z M1710.69,1661.93v11h-35.89v-11H1710.69z"/>
			<path class="st3" d="M475.12,1817.23c-7.48,18.65-19.58,38.41-32.06,50.82c-1.15-3.15-4.65-10.33-6.88-13.56
				c10.48-9.91,20.67-25.5,26.66-41.23L475.12,1817.23z M464.64,1831.35l0.05,0.11v85.63h-12.56v-73.23L464.64,1831.35z
				 M512.04,1814.27v50.16c0,22.44-5.68,43-37.22,52.4c-1.55-2.91-5.41-8.24-8.19-10.99c29.59-6.58,32.36-23.42,32.36-41.5v-50.08
				H512.04z M541.31,1824.35v11.96h-70.08v-11.96H541.31z M543.04,1904.96c-2.74,2.83-6.11,8.16-7.78,11.74
				c-29.71-4.03-50.08-15.14-62.1-35.83l10.78-3.29C493.78,1893.45,514.57,1902.34,543.04,1904.96z M538.4,1844.06v32.37h-64.81
				v-32.37H538.4z M485.55,1865.66h40.2v-10.87h-40.2V1865.66z"/>
			<path class="st3" d="M581.61,1820.91v39.57c0,17.58-2.16,42.31-15.7,57c-2.07-2.49-7.48-6.93-10.4-8.57
				c12.06-13.31,13.04-33.01,13.04-48.51v-39.48H581.61z M644.3,1872.19v12.45h-68.37v-12.45H644.3z M643.65,1820.91v12.56h-67.5
				v-12.56H643.65z M643.87,1846.26v12.31h-67.72v-12.31H643.87z M615.8,1825.93v89.57h-13.34v-89.57H615.8z M652.15,1820.91v80.43
				c0,7-1.53,10.6-5.96,12.63c-4.58,2.09-11.25,2.35-21.26,2.24c-0.48-3.52-2.51-9.26-4.26-12.65c6.24,0.39,13.51,0.28,15.54,0.26
				c2.03-0.02,2.8-0.68,2.8-2.63v-80.28H652.15z"/>
			<path class="st3" d="M687.94,1887.79c-0.77,9.75-2.5,20.18-4.64,26.94c-2.21-1.19-6.75-2.71-9.17-3.38
				c2.38-6.44,3.59-16.25,4.25-25.16L687.94,1887.79z M674.5,1846.71c1.97-0.59,3.86-2.66,5.91-5.93
				c2.19-3.13,8.89-15.36,12.58-26.99l10.53,4.46c-4.96,11.81-12.13,24.45-18.92,33.04v0.26c0,0-6.49,3.55-6.49,5.68
				C677.55,1854.98,675.8,1849.68,674.5,1846.71z M675.33,1872.11c2.62-0.67,4.89-3.32,8.25-7.48c3.49-4.07,14.46-20.2,21.05-35.63
				l9.56,6.17c-7.63,15.05-18.35,30.54-28.77,41.68v0.28c0,0-6.6,3.5-6.6,5.63C678.38,1880.52,676.55,1875.08,675.33,1872.11z
				 M677.86,1848.83l4.82-3.29l18.54-1.29c-0.62,2.96-1.14,7.2-1.23,9.58c-16.59,1.62-19.87,2.41-21.88,3.41L677.86,1848.83z
				 M678.41,1874.14l4.78-3.37l27.94-3.86c-0.37,2.85-0.6,7.09-0.49,9.4c-25.28,4.06-29.36,5.14-31.81,6.45L678.41,1874.14z
				 M698.94,1885.46c1.34,7.33,2.52,16.69,2.93,23.01l-9.22,2.44c-0.13-6.4-1.28-15.96-2.37-23.29L698.94,1885.46z M709.6,1857.21
				c2.72,6.61,5.83,15.4,7.23,20.53l-9.2,3.85c-1.06-5.41-4.02-14.42-6.52-21.2L709.6,1857.21z M710.07,1882.2
				c2.49,6.67,5.01,15.18,6.22,20.75l-8.63,3.28c-0.95-5.77-3.49-14.53-5.68-21.2L710.07,1882.2z M767.1,1818.25v11.43h-38.89v87.29
				H716.5v-98.72H767.1z M761.48,1848.54v9.88h-31.29v-9.88H761.48z M761.06,1867.68v9.91h-30.35v-9.91H761.06z M739.54,1831.8
				c2.19,4.48,4.04,10.6,4.62,14.51l-7.86,2.75c-0.41-4.02-2.18-10.22-4.23-14.82L739.54,1831.8z M744.46,1873.06v11.18
				c0,2.42,0.29,3.38,2.01,3.38c1.35,0,6.36,0,7.78,0c1.72,0,4.74-0.17,6.33-0.67c0.2,2.71,0.42,6.48,0.78,8.96
				c-1.58,0.59-4.4,0.67-6.83,0.67c-1.81,0-7.52,0-9.23,0c-9.37,0-11.32-3.56-11.32-12.46v-11.07H744.46z M748.2,1857.64
				c1.37,2.62,3,6.23,3.7,8.45l-9.36,3.45c-0.61-2.44-2.11-6.21-3.39-9.01L748.2,1857.64z M760.33,1834.28
				c-2.05,6.24-3.99,13.15-5.78,17.69l-7.33-2.15c1.45-4.9,3.38-12.56,4.12-17.8L760.33,1834.28z M775.4,1818.25v85.69
				c0,5.82-0.94,8.86-4.4,10.81c-3.46,1.84-8.33,2.12-15.33,2.09c-0.39-3.09-1.8-8.17-3.29-11.16c3.81,0.22,8.04,0.2,9.39,0.2
				c1.43-0.11,1.87-0.55,1.87-2v-85.62H775.4z"/>
			<path class="st3" d="M838.14,1890.35l1.27,11.66c-15.57,3.83-32.25,7.74-44.8,10.66l-2.23-12.67
				C804.02,1897.97,821.65,1894.09,838.14,1890.35z M807.98,1862.02v40.05h-10.74v-40.05H807.98z M836.15,1817.68v36.53h-38.07
				v-36.53H836.15z M809.53,1842.96h14.51v-14.02h-14.51V1842.96z M825.17,1849.68v49.13h-11.71v-49.13H825.17z M837.22,1867.12
				v11.51h-19.07v-11.51H837.22z M879.7,1824.01l2.31-0.48l8.35,3.56c-7.96,27.6-26.54,45.16-48.93,54.63
				c-1.55-3-4.86-7.56-7.43-9.93c19.82-7.27,37.24-24.12,43.41-45.64v-2.14H879.7z M867.03,1816.54
				c-4.86,14.81-13.06,29.14-21.98,38.2c-2.15-2.35-7.27-6.63-10.21-8.55c8.6-7.66,15.81-19.96,19.66-32.74L867.03,1816.54z
				 M889.44,1875.81v40.42h-12.63v-29.34h-20.75v29.67h-12.11v-40.75H889.44z M897.93,1869.06c-2.66,2.52-6.46,7.77-8.21,11.13
				c-22.63-8.81-37-28.02-43.8-44.26l8.9-5.79C861.14,1845.04,875.46,1862.06,897.93,1869.06z M884.01,1901.51v11.34h-34.68v-11.34
				H884.01z M881.99,1824.01v11.17h-27.9v-11.17H881.99z"/>
			<path class="st3" d="M934.37,1846.52c-2.33,13.07-5.92,28.61-11.37,38.06l-12.9-4.74c5.56-9.54,9.66-23.52,11.63-36.52
				L934.37,1846.52z M1005.16,1825.28c-17.77,33.92-46.74,66.94-86.11,86.26c-1.98-3.09-5.89-7.88-8.63-10.51
				c37.34-17.03,66.7-50.12,81.45-81.04L1005.16,1825.28z M953.41,1838.3v57.6c0,5.67,0.88,6.48,6.64,6.48c2.64,0,13.65,0,16.67,0
				c5.69,0,6.62-3.15,7.47-18.82c3.16,2.31,9.09,4.78,12.91,5.62c-1.74,19.92-5.63,26.34-19.23,26.34c-3.34,0-16.32,0-19.46,0
				c-14.88,0-19-4.4-19-19.67v-57.55H953.41z M949.25,1813.45c8.87,5.59,20.11,13.84,26.42,18.74l-8.74,10.83
				c-6.26-5.4-17.55-14.07-26.23-20.01L949.25,1813.45z M998.47,1850.75c6.99,10.35,13.81,23.8,16.75,32.97l-12.77,6.47
				c-2.48-9.22-9.33-23.36-15.9-33.79L998.47,1850.75z"/>
			<path class="st3" d="M1067.26,1820.68c-7.67,10.2-18.79,19.55-28.95,25.9c-2.21-3-6.2-7.08-9.68-9.58
				c9.13-4.95,20.33-13.31,26.13-21.58L1067.26,1820.68z M1072.14,1881.8c-8.12,13.89-20.62,25.3-34.02,32.98
				c-2.03-3.34-5.94-7.88-9.39-10.77c12.03-5.69,24.46-15.64,30.92-27.02L1072.14,1881.8z M1069.4,1851.56
				c-7.84,10.7-19.36,20.56-29.68,27.26c-2.2-3.17-6.2-7.42-9.65-10.23c9.49-5.08,21.14-13.67,27.16-22.28L1069.4,1851.56z
				 M1096.58,1902.25c-7.19,5.61-18.64,11.37-28.26,14.56c-1.81-2.66-5.42-6.59-8.06-9.14c9.16-2.85,20.17-8.38,25.65-12.9
				L1096.58,1902.25z M1131.62,1818.24v11.08h-62.55v-11.08H1131.62z M1127.84,1836.22v58.32h-54.18v-58.32H1127.84z
				 M1085.96,1852.83h28.97v-6.98h-28.97V1852.83z M1085.96,1868.82h28.97v-7.03h-28.97V1868.82z M1085.96,1884.92h28.97v-7.08
				h-28.97V1884.92z M1108.55,1825.9c-2.23,6.92-4.87,13.85-6.82,18.53l-11.75-2.14c1.31-5.31,2.71-12.72,3.21-18.21L1108.55,1825.9
				z M1112.44,1895.39c6.95,3.74,16.8,9.65,21.95,13.83l-10.45,7.78c-4.5-4.07-14.11-10.38-21.29-14.57L1112.44,1895.39z"/>
			<path class="st3" d="M1207.06,1823.57V1868c0,22.21-9.05,40.71-50.54,48.95c-1.47-2.98-5.16-8.67-8.05-11.7
				c39.65-6.04,44.73-19.88,44.73-37.43v-44.26H1207.06z M1247.78,1818.56v11.77h-96.9v-11.77H1247.78z M1240.82,1836.76v45.48
				h-80.41v-45.48H1240.82z M1252.21,1902.68c-2.38,3-4.84,8.63-5.57,13.06c-38.78-0.81-67.82-4.43-84.59-29.4l11.45-4.62
				C1188.95,1901.44,1214.66,1902.95,1252.21,1902.68z M1172.89,1854.48h54.82v-7.06h-54.82V1854.48z M1172.89,1871.59h54.82v-7.2
				h-54.82V1871.59z"/>
			<path class="st3" d="M1296.8,1842.82c-3.69,16.59-9.74,37.12-18.97,49.35c-3.23-2.35-9.25-5.46-12.87-6.93
				c8.87-11.24,14.52-30.54,16.85-44.94L1296.8,1842.82z M1325.08,1815.1v85.23c0,8.1-1.86,11.74-6.86,13.92
				c-5.12,2.12-12.71,2.55-23.4,2.46c-0.76-3.8-3.2-10.06-5.31-13.73c7.28,0.39,15.47,0.37,17.84,0.26
				c2.43-0.02,3.29-0.77,3.29-2.97v-85.17H1325.08z M1350,1839.17c9.03,15.57,18.08,35.64,20.88,49.42l-14.45,5.72
				c-2.26-13.36-10.6-34.16-19.35-50.33L1350,1839.17z"/>
			<path class="st3" d="M1406.12,1853.98c-1.53,14.32-4.25,33.49-7.98,46l-13.46-5.49c3.96-11.66,7.17-28.22,8.52-43
				L1406.12,1853.98z M1426.88,1845.02v51.25c0,5.29,0.88,6.07,6.22,6.07c2.55,0,12.79,0,15.72,0c5.63,0,6.55-3.46,7.35-20.73
				c3.05,2.31,8.83,4.69,12.39,5.62c-1.48,20.9-5.08,27.41-18.68,27.41c-3.11,0-15.57,0-18.43,0c-14.35,0-18.35-4.33-18.35-18.4
				v-51.22H1426.88z M1425.86,1815.24c10.04,6.33,24.02,16.04,30.67,22.91l-9.72,10.33c-6.07-6.84-19.62-17.31-29.92-24.27
				L1425.86,1815.24z M1474.1,1847.94c6.23,13.11,11.97,29.78,14.31,41.19l-13.38,5.54c-1.82-11.27-7.45-28.73-13.25-41.73
				L1474.1,1847.94z"/>
			<path class="st3" d="M1541.66,1831.82v10.42h-39.24v-10.42H1541.66z M1516.93,1877.27v38.15h-10.33v-38.15H1516.93z
				 M1537.91,1847.14v9.97h-31.03v-9.97H1537.91z M1538.01,1862.05v9.97h-31.12v-9.97H1538.01z M1538.64,1877.27v33.46h-26.59
				v-10.59h16v-12.36h-16v-10.51H1538.64z M1522.68,1813.04c2.89,4.63,6.1,10.67,7.71,14.75l-9.83,5.75
				c-1.39-4.19-4.64-10.82-7.23-15.6L1522.68,1813.04z M1605.75,1903.09v10.31h-63.2v-10.31H1605.75z M1604.59,1821.05v10.31h-61.31
				v-10.31H1604.59z M1602.95,1874.59v9.73h-56.72v-9.73H1602.95z M1601.95,1848.16v22.54h-54.61v-22.54H1601.95z M1601.55,1888.61
				v9.54h-53.68v-9.54H1601.55z M1566.85,1813.61v22.66h13.74v-22.66h12.39v31.27H1555v-31.27H1566.85z M1558.45,1862.35h31.71
				v-5.84h-31.71V1862.35z M1580.28,1839.59v68.75h-12.63v-68.75H1580.28z"/>
			<path class="st3" d="M1632.2,1836.48c-0.21,8.63-1.65,21.89-3.22,30.58l-9.28-2.79c1.81-7.82,3.25-20.33,3.76-28.86
				L1632.2,1836.48z M1646.44,1813.54v103.37h-12.05v-103.37H1646.44z M1653.65,1831.73c2.87,7.66,6.19,17.71,7.51,23.57l-9.48,3.98
				c-1.17-6.19-4.21-16.54-6.86-24.35L1653.65,1831.73z M1685.62,1902.31c-7.52,5.19-18.89,10.96-27.64,14.33
				c-1.9-2.57-5.49-6.42-8.21-8.88c8.67-3.09,19.66-8.74,25.41-13.21L1685.62,1902.31z M1724.14,1885.62v11.17h-71.26v-11.17
				H1724.14z M1722.05,1821.88v10.48h-65.8v-10.48H1722.05z M1714.64,1838.08v50.8h-11.96v-42.35h-29.26v42.35h-11.45v-50.8H1714.64
				z M1708.36,1850.73v7.14h-39.61v-7.14H1708.36z M1708.49,1861.97v7.31h-39.71v-7.31H1708.49z M1708.47,1873.52v7.33h-39.61v-7.33
				H1708.47z M1697.58,1813.83c-2.04,11.08-5.06,23.37-7.6,31.25l-10.8-1.17c1.94-8.34,3.79-21.28,4.39-30.56L1697.58,1813.83z
				 M1701.43,1894.72c7.43,3.55,17.91,9.22,23.17,13.24l-8.62,9.09c-4.83-4.1-15-10.22-22.63-14.17L1701.43,1894.72z"/>
		</g>
		<g>
			<polygon class="st4" points="1604.57,1293.04 1539.08,1148.54 1417.17,1250.06 1473.03,1101.58 1315.04,1087.15 1459.54,1021.66 
				1358.02,899.75 1506.51,955.61 1520.93,797.63 1586.42,942.12 1708.33,840.61 1652.47,989.09 1810.46,1003.51 1665.96,1069 
				1767.48,1190.91 1618.99,1135.05 			"/>
		</g>
		<g>
			<polygon class="st4" points="653.76,1025.16 585.85,1076.31 628.36,1149.94 550.11,1116.7 507.6,1190.33 497.25,1105.94 
				412.23,1105.94 480.15,1054.79 437.64,981.16 515.89,1014.4 558.4,940.77 568.74,1025.16 			"/>
		</g>
		<g>
			<path class="st5" d="M711.36,1269.68l2.82,14.7c-16.67,5.97-34.6,12.2-48.7,16.98l-3.66-16.08
				C674.43,1281.86,693.35,1275.72,711.36,1269.68z M678.49,1234.13v54.02h-13.05v-54.02H678.49z M711.41,1176.15v46.41h-44.73
				v-46.41H711.41z M679.61,1208.61h18.18v-18.51h-18.18V1208.61z M698.45,1217.61v66.63h-14.4v-66.63H698.45z M711.83,1241.07v14.4
				h-19.34v-14.4H711.83z M756.25,1248.64c-6.83,19.22-18.56,39.39-30.66,51.16c-2.89-4.07-8.6-10.34-12.41-13.42
				c11.87-9.44,24.25-26.32,30.71-41.87L756.25,1248.64z M795.08,1187.83c-21.6,4.73-51.21,7.47-76.21,8.44
				c-0.37-4.19-2.41-10.41-4.14-14.22c24.97-1.57,53.43-4.78,72.42-9.19L795.08,1187.83z M729.81,1198.19
				c4.4,8.11,9.23,18.39,11.56,25.32l-13.66,5.93c-2.13-7.04-6.93-17.94-10.93-26.17L729.81,1198.19z M793.49,1236.52v15.86h-74.88
				v-15.86H793.49z M756.71,1194.87c3.2,7.28,6.59,16.78,8.11,23.1l-14.59,4.92c-1.26-6.46-4.58-16.33-7.49-23.84L756.71,1194.87z
				 M764.96,1223.63v81.9h-16.87v-81.9H764.96z M798.84,1284.42c-3.96,3.19-9.81,9.38-12.7,13.79
				c-11.82-11.45-23.31-31.74-29.95-50.61l11.66-3.91C774.45,1258.81,786.84,1275.3,798.84,1284.42z M794.26,1197.36
				c-4.08,10.35-10.1,22.93-14.6,30.77c-3.22-2.26-9.73-5.26-13.5-6.67c4.88-7.57,10.02-18.75,13.47-28.36L794.26,1197.36z"/>
			<path class="st5" d="M895.32,1272.41l0.96,14.85c-25.36,4.85-52.75,9.79-72.39,13.31l-3.73-15.95
				C839.03,1282,868.24,1277.09,895.32,1272.41z M896.87,1179.16v14.88h-75.26v-14.88H896.87z M824.21,1216.39
				c2.27-0.62,4.54-2.91,6.83-6.18c2.21-3.18,9.08-15,12.82-26.77l16.76,6.2c-5.48,11.98-14.09,25.16-21.58,33.83v0.26
				c0,0-9.31,5.15-9.31,8.27C828.76,1228.61,826.05,1220.8,824.21,1216.39z M893.71,1245.33v14.96H825v-14.96H893.71z
				 M829.39,1220.01l7.87-4.94l43.67-2.78c1.92,4.41,5.07,10.01,7.02,13.45c-47.06,3.82-53.61,4.31-58.23,6.25L829.39,1220.01z
				 M867.73,1232.46v58.23h-16.31v-58.23H867.73z M876.19,1193.8c7.6,9.57,16.67,22.48,20.41,31.08l-13.2,8.51
				c-3.44-8.63-12.03-22.16-19.51-32.21L876.19,1193.8z M918.41,1184.1v87.46h-15.97v-87.46H918.41z M946.89,1172.27v112.02
				c0,8.99-1.78,13.56-7.19,16.22c-5.59,2.66-13.77,3.22-25.02,3.22c-0.74-4.55-3.51-12.03-5.95-16.5
				c7.64,0.29,15.48,0.29,17.96,0.26c2.53-0.03,3.33-0.83,3.33-3.28v-111.94H946.89z"/>
			<path class="st5" d="M1018.26,1246.68l3.9,15.27c-15.1,7.44-31.35,15.25-44.45,21.19l-6.9-17.32
				C982.6,1261.61,1000.91,1253.96,1018.26,1246.68z M1019.01,1204.09v16.31h-45.04v-16.31H1019.01z M1005.57,1172.67v95.49h-16.12
				v-95.49H1005.57z M1088.55,1196.88l6.25,14.75l-74.47,32.27l-6.45-15.23L1088.55,1196.88z M1044.61,1184.64v93.33
				c0,8.47,1.26,9.73,10.17,9.73c4.29,0,23.41,0,28,0c7.84,0,9.28-3.26,10.48-18.07c3.77,2.58,10.44,5.32,15.11,6.25
				c-2.16,20.42-7.29,27.22-24.14,27.22c-4.74,0-26.4,0-30.86,0c-19.68,0-25.21-5.29-25.21-25.2v-93.27H1044.61z M1072.76,1170.67
				v101.66h-16.2v-101.66H1072.76z M1082.72,1200.91l5.83-4.04l13,4.1l-0.66,2.61c-0.86,20.06-2.76,46.51-6.23,63.86l-14.05-3.96
				c2.11-15.41,3.37-42.41,3.69-62.58H1082.72z"/>
			<path class="st5" d="M1258.2,1195.73v32.59h-17.24v-19.84h-93.68v19.84h-16.45v-32.59H1258.2z M1250.88,1176.67v12.38h-113.63
				v-12.38H1250.88z M1245.36,1244.21v60.64h-17.32v-47.56h-67.58v48.83h-16.53v-61.91H1245.36z M1180.56,1226.01l0.59,9.76
				c-10.85,2.58-21.52,5.04-30.8,7.08l-4.29-12.05C1155.17,1229.78,1167.63,1227.91,1180.56,1226.01z M1155.36,1210.45
				c8.04,1.34,19.04,3.96,24.98,6.26l-4.54,9.36c-5.82-2.33-16.71-5.47-25.01-7.18L1155.36,1210.45z M1236.11,1265.62v12.71h-83.99
				v-12.71H1236.11z M1236.11,1286.93v13.05h-83.99v-13.05H1236.11z M1202.37,1180.89v58.03h-16.9v-58.03H1202.37z M1202.41,1254.01
				v41.26h-16.9v-41.26H1202.41z M1208.13,1224.71c10.73,1.18,25.59,4.32,33.43,6.98l-3.16,10.77c-7.73-2.77-22.61-6.42-33.6-8.08
				L1208.13,1224.71z M1238.35,1218.14c-7.86,3.21-18.46,5.63-25.88,7l-5.45-8.19c7.31-1.49,18.23-5.45,24.63-7.77L1238.35,1218.14z
				"/>
			<path class="st5" d="M1391.27,1180.73v17.09h-100.58v-17.09H1391.27z M1359.05,1221.51v64.64c0,9.81-2.34,14.57-9.55,17.12
				c-7.18,2.63-17.54,2.97-31.4,2.85c-0.93-5.08-4.15-12.77-6.9-17.46c10.23,0.43,22.06,0.4,25.37,0.34
				c3.14-0.03,4.22-0.78,4.22-3.26v-64.22H1359.05z M1390.98,1180.73l3.93-0.96l13.73,10.25c-14.73,15.86-36.28,33.34-56.3,43.89
				c-2.63-3.67-8.08-9.43-11.53-12.4c17.29-9.14,37.18-25.67,45.35-36.48v-4.3H1390.98z"/>
			<path class="st5" d="M1455.26,1281.6c0-7.51,5.46-12.69,12.72-12.69s12.72,5.18,12.72,12.69s-5.46,12.79-12.72,12.79
				C1460.61,1294.39,1455.26,1289.11,1455.26,1281.6z M1456.77,1206.75l-0.68-21.44h23.79l-0.68,21.44l-3.81,49.25h-14.82
				L1456.77,1206.75z"/>
		</g>
	</g>
</g>
</svg>
